<?xml version="1.0" encoding="utf-8" standalone="no"?>
<!DOCTYPE svg PUBLIC "-//W3C//DTD SVG 1.1//EN"
  "http://www.w3.org/Graphics/SVG/1.1/DTD/svg11.dtd">
<!-- Created with matplotlib (http://matplotlib.org/) -->
<svg height="345pt" version="1.1" viewBox="0 0 460 345" width="460pt" xmlns="http://www.w3.org/2000/svg" xmlns:xlink="http://www.w3.org/1999/xlink">
 <defs>
  <style type="text/css">
*{stroke-linecap:butt;stroke-linejoin:round;}
  </style>
 </defs>
 <g id="figure_1">
  <g id="patch_1">
   <path d="M 0 345.6 
L 460.8 345.6 
L 460.8 0 
L 0 0 
z
" style="fill:none;"/>
  </g>
  <g id="axes_1">
   <g id="patch_2">
    <path d="M 57.6 307.584 
L 414.72 307.584 
L 414.72 41.472 
L 57.6 41.472 
z
" style="fill:none;"/>
   </g>
   <g id="matplotlib.axis_1">
    <g id="xtick_1">
     <g id="line2d_1">
      <defs>
       <path d="M 0 0 
L 0 3.5 
" id="m39e6be7506" style="stroke:#000000;stroke-width:0.8;"/>
      </defs>
      <g>
       <use style="stroke:#000000;stroke-width:0.8;" x="79.623572" xlink:href="#m39e6be7506" y="307.584"/>
      </g>
     </g>
     <g id="text_1">
      <!-- −2000 -->
      <defs>
       <path d="M 10.59375 35.5 
L 73.1875 35.5 
L 73.1875 27.203125 
L 10.59375 27.203125 
z
" id="DejaVuSans-2212"/>
       <path d="M 19.1875 8.296875 
L 53.609375 8.296875 
L 53.609375 0 
L 7.328125 0 
L 7.328125 8.296875 
Q 12.9375 14.109375 22.625 23.890625 
Q 32.328125 33.6875 34.8125 36.53125 
Q 39.546875 41.84375 41.421875 45.53125 
Q 43.3125 49.21875 43.3125 52.78125 
Q 43.3125 58.59375 39.234375 62.25 
Q 35.15625 65.921875 28.609375 65.921875 
Q 23.96875 65.921875 18.8125 64.3125 
Q 13.671875 62.703125 7.8125 59.421875 
L 7.8125 69.390625 
Q 13.765625 71.78125 18.9375 73 
Q 24.125 74.21875 28.421875 74.21875 
Q 39.75 74.21875 46.484375 68.546875 
Q 53.21875 62.890625 53.21875 53.421875 
Q 53.21875 48.921875 51.53125 44.890625 
Q 49.859375 40.875 45.40625 35.40625 
Q 44.1875 33.984375 37.640625 27.21875 
Q 31.109375 20.453125 19.1875 8.296875 
z
" id="DejaVuSans-32"/>
       <path d="M 31.78125 66.40625 
Q 24.171875 66.40625 20.328125 58.90625 
Q 16.5 51.421875 16.5 36.375 
Q 16.5 21.390625 20.328125 13.890625 
Q 24.171875 6.390625 31.78125 6.390625 
Q 39.453125 6.390625 43.28125 13.890625 
Q 47.125 21.390625 47.125 36.375 
Q 47.125 51.421875 43.28125 58.90625 
Q 39.453125 66.40625 31.78125 66.40625 
z
M 31.78125 74.21875 
Q 44.046875 74.21875 50.515625 64.515625 
Q 56.984375 54.828125 56.984375 36.375 
Q 56.984375 17.96875 50.515625 8.265625 
Q 44.046875 -1.421875 31.78125 -1.421875 
Q 19.53125 -1.421875 13.0625 8.265625 
Q 6.59375 17.96875 6.59375 36.375 
Q 6.59375 54.828125 13.0625 64.515625 
Q 19.53125 74.21875 31.78125 74.21875 
z
" id="DejaVuSans-30"/>
      </defs>
      <g transform="translate(62.708728 322.182437)scale(0.1 -0.1)">
       <use xlink:href="#DejaVuSans-2212"/>
       <use x="83.789062" xlink:href="#DejaVuSans-32"/>
       <use x="147.412109" xlink:href="#DejaVuSans-30"/>
       <use x="211.035156" xlink:href="#DejaVuSans-30"/>
       <use x="274.658203" xlink:href="#DejaVuSans-30"/>
      </g>
     </g>
    </g>
    <g id="xtick_2">
     <g id="line2d_2">
      <g>
       <use style="stroke:#000000;stroke-width:0.8;" x="146.970979" xlink:href="#m39e6be7506" y="307.584"/>
      </g>
     </g>
     <g id="text_2">
      <!-- −1000 -->
      <defs>
       <path d="M 12.40625 8.296875 
L 28.515625 8.296875 
L 28.515625 63.921875 
L 10.984375 60.40625 
L 10.984375 69.390625 
L 28.421875 72.90625 
L 38.28125 72.90625 
L 38.28125 8.296875 
L 54.390625 8.296875 
L 54.390625 0 
L 12.40625 0 
z
" id="DejaVuSans-31"/>
      </defs>
      <g transform="translate(130.056135 322.182437)scale(0.1 -0.1)">
       <use xlink:href="#DejaVuSans-2212"/>
       <use x="83.789062" xlink:href="#DejaVuSans-31"/>
       <use x="147.412109" xlink:href="#DejaVuSans-30"/>
       <use x="211.035156" xlink:href="#DejaVuSans-30"/>
       <use x="274.658203" xlink:href="#DejaVuSans-30"/>
      </g>
     </g>
    </g>
    <g id="xtick_3">
     <g id="line2d_3">
      <g>
       <use style="stroke:#000000;stroke-width:0.8;" x="214.318386" xlink:href="#m39e6be7506" y="307.584"/>
      </g>
     </g>
     <g id="text_3">
      <!-- 0 -->
      <g transform="translate(211.137136 322.182437)scale(0.1 -0.1)">
       <use xlink:href="#DejaVuSans-30"/>
      </g>
     </g>
    </g>
    <g id="xtick_4">
     <g id="line2d_4">
      <g>
       <use style="stroke:#000000;stroke-width:0.8;" x="281.665793" xlink:href="#m39e6be7506" y="307.584"/>
      </g>
     </g>
     <g id="text_4">
      <!-- 1000 -->
      <g transform="translate(268.940793 322.182437)scale(0.1 -0.1)">
       <use xlink:href="#DejaVuSans-31"/>
       <use x="63.623047" xlink:href="#DejaVuSans-30"/>
       <use x="127.246094" xlink:href="#DejaVuSans-30"/>
       <use x="190.869141" xlink:href="#DejaVuSans-30"/>
      </g>
     </g>
    </g>
    <g id="xtick_5">
     <g id="line2d_5">
      <g>
       <use style="stroke:#000000;stroke-width:0.8;" x="349.013199" xlink:href="#m39e6be7506" y="307.584"/>
      </g>
     </g>
     <g id="text_5">
      <!-- 2000 -->
      <g transform="translate(336.288199 322.182437)scale(0.1 -0.1)">
       <use xlink:href="#DejaVuSans-32"/>
       <use x="63.623047" xlink:href="#DejaVuSans-30"/>
       <use x="127.246094" xlink:href="#DejaVuSans-30"/>
       <use x="190.869141" xlink:href="#DejaVuSans-30"/>
      </g>
     </g>
    </g>
   </g>
   <g id="matplotlib.axis_2">
    <g id="ytick_1">
     <g id="line2d_6">
      <defs>
       <path d="M 0 0 
L -3.5 0 
" id="m115bc8dd1c" style="stroke:#000000;stroke-width:0.8;"/>
      </defs>
      <g>
       <use style="stroke:#000000;stroke-width:0.8;" x="57.6" xlink:href="#m115bc8dd1c" y="295.488"/>
      </g>
     </g>
     <g id="text_6">
      <!-- 0.000 -->
      <defs>
       <path d="M 10.6875 12.40625 
L 21 12.40625 
L 21 0 
L 10.6875 0 
z
" id="DejaVuSans-2e"/>
      </defs>
      <g transform="translate(21.971875 299.287219)scale(0.1 -0.1)">
       <use xlink:href="#DejaVuSans-30"/>
       <use x="63.623047" xlink:href="#DejaVuSans-2e"/>
       <use x="95.410156" xlink:href="#DejaVuSans-30"/>
       <use x="159.033203" xlink:href="#DejaVuSans-30"/>
       <use x="222.65625" xlink:href="#DejaVuSans-30"/>
      </g>
     </g>
    </g>
    <g id="ytick_2">
     <g id="line2d_7">
      <g>
       <use style="stroke:#000000;stroke-width:0.8;" x="57.6" xlink:href="#m115bc8dd1c" y="255.406139"/>
      </g>
     </g>
     <g id="text_7">
      <!-- 0.001 -->
      <g transform="translate(21.971875 259.205358)scale(0.1 -0.1)">
       <use xlink:href="#DejaVuSans-30"/>
       <use x="63.623047" xlink:href="#DejaVuSans-2e"/>
       <use x="95.410156" xlink:href="#DejaVuSans-30"/>
       <use x="159.033203" xlink:href="#DejaVuSans-30"/>
       <use x="222.65625" xlink:href="#DejaVuSans-31"/>
      </g>
     </g>
    </g>
    <g id="ytick_3">
     <g id="line2d_8">
      <g>
       <use style="stroke:#000000;stroke-width:0.8;" x="57.6" xlink:href="#m115bc8dd1c" y="215.324278"/>
      </g>
     </g>
     <g id="text_8">
      <!-- 0.002 -->
      <g transform="translate(21.971875 219.123497)scale(0.1 -0.1)">
       <use xlink:href="#DejaVuSans-30"/>
       <use x="63.623047" xlink:href="#DejaVuSans-2e"/>
       <use x="95.410156" xlink:href="#DejaVuSans-30"/>
       <use x="159.033203" xlink:href="#DejaVuSans-30"/>
       <use x="222.65625" xlink:href="#DejaVuSans-32"/>
      </g>
     </g>
    </g>
    <g id="ytick_4">
     <g id="line2d_9">
      <g>
       <use style="stroke:#000000;stroke-width:0.8;" x="57.6" xlink:href="#m115bc8dd1c" y="175.242417"/>
      </g>
     </g>
     <g id="text_9">
      <!-- 0.003 -->
      <defs>
       <path d="M 40.578125 39.3125 
Q 47.65625 37.796875 51.625 33 
Q 55.609375 28.21875 55.609375 21.1875 
Q 55.609375 10.40625 48.1875 4.484375 
Q 40.765625 -1.421875 27.09375 -1.421875 
Q 22.515625 -1.421875 17.65625 -0.515625 
Q 12.796875 0.390625 7.625 2.203125 
L 7.625 11.71875 
Q 11.71875 9.328125 16.59375 8.109375 
Q 21.484375 6.890625 26.8125 6.890625 
Q 36.078125 6.890625 40.9375 10.546875 
Q 45.796875 14.203125 45.796875 21.1875 
Q 45.796875 27.640625 41.28125 31.265625 
Q 36.765625 34.90625 28.71875 34.90625 
L 20.21875 34.90625 
L 20.21875 43.015625 
L 29.109375 43.015625 
Q 36.375 43.015625 40.234375 45.921875 
Q 44.09375 48.828125 44.09375 54.296875 
Q 44.09375 59.90625 40.109375 62.90625 
Q 36.140625 65.921875 28.71875 65.921875 
Q 24.65625 65.921875 20.015625 65.03125 
Q 15.375 64.15625 9.8125 62.3125 
L 9.8125 71.09375 
Q 15.4375 72.65625 20.34375 73.4375 
Q 25.25 74.21875 29.59375 74.21875 
Q 40.828125 74.21875 47.359375 69.109375 
Q 53.90625 64.015625 53.90625 55.328125 
Q 53.90625 49.265625 50.4375 45.09375 
Q 46.96875 40.921875 40.578125 39.3125 
z
" id="DejaVuSans-33"/>
      </defs>
      <g transform="translate(21.971875 179.041636)scale(0.1 -0.1)">
       <use xlink:href="#DejaVuSans-30"/>
       <use x="63.623047" xlink:href="#DejaVuSans-2e"/>
       <use x="95.410156" xlink:href="#DejaVuSans-30"/>
       <use x="159.033203" xlink:href="#DejaVuSans-30"/>
       <use x="222.65625" xlink:href="#DejaVuSans-33"/>
      </g>
     </g>
    </g>
    <g id="ytick_5">
     <g id="line2d_10">
      <g>
       <use style="stroke:#000000;stroke-width:0.8;" x="57.6" xlink:href="#m115bc8dd1c" y="135.160557"/>
      </g>
     </g>
     <g id="text_10">
      <!-- 0.004 -->
      <defs>
       <path d="M 37.796875 64.3125 
L 12.890625 25.390625 
L 37.796875 25.390625 
z
M 35.203125 72.90625 
L 47.609375 72.90625 
L 47.609375 25.390625 
L 58.015625 25.390625 
L 58.015625 17.1875 
L 47.609375 17.1875 
L 47.609375 0 
L 37.796875 0 
L 37.796875 17.1875 
L 4.890625 17.1875 
L 4.890625 26.703125 
z
" id="DejaVuSans-34"/>
      </defs>
      <g transform="translate(21.971875 138.959775)scale(0.1 -0.1)">
       <use xlink:href="#DejaVuSans-30"/>
       <use x="63.623047" xlink:href="#DejaVuSans-2e"/>
       <use x="95.410156" xlink:href="#DejaVuSans-30"/>
       <use x="159.033203" xlink:href="#DejaVuSans-30"/>
       <use x="222.65625" xlink:href="#DejaVuSans-34"/>
      </g>
     </g>
    </g>
    <g id="ytick_6">
     <g id="line2d_11">
      <g>
       <use style="stroke:#000000;stroke-width:0.8;" x="57.6" xlink:href="#m115bc8dd1c" y="95.078696"/>
      </g>
     </g>
     <g id="text_11">
      <!-- 0.005 -->
      <defs>
       <path d="M 10.796875 72.90625 
L 49.515625 72.90625 
L 49.515625 64.59375 
L 19.828125 64.59375 
L 19.828125 46.734375 
Q 21.96875 47.46875 24.109375 47.828125 
Q 26.265625 48.1875 28.421875 48.1875 
Q 40.625 48.1875 47.75 41.5 
Q 54.890625 34.8125 54.890625 23.390625 
Q 54.890625 11.625 47.5625 5.09375 
Q 40.234375 -1.421875 26.90625 -1.421875 
Q 22.3125 -1.421875 17.546875 -0.640625 
Q 12.796875 0.140625 7.71875 1.703125 
L 7.71875 11.625 
Q 12.109375 9.234375 16.796875 8.0625 
Q 21.484375 6.890625 26.703125 6.890625 
Q 35.15625 6.890625 40.078125 11.328125 
Q 45.015625 15.765625 45.015625 23.390625 
Q 45.015625 31 40.078125 35.4375 
Q 35.15625 39.890625 26.703125 39.890625 
Q 22.75 39.890625 18.8125 39.015625 
Q 14.890625 38.140625 10.796875 36.28125 
z
" id="DejaVuSans-35"/>
      </defs>
      <g transform="translate(21.971875 98.877914)scale(0.1 -0.1)">
       <use xlink:href="#DejaVuSans-30"/>
       <use x="63.623047" xlink:href="#DejaVuSans-2e"/>
       <use x="95.410156" xlink:href="#DejaVuSans-30"/>
       <use x="159.033203" xlink:href="#DejaVuSans-30"/>
       <use x="222.65625" xlink:href="#DejaVuSans-35"/>
      </g>
     </g>
    </g>
    <g id="ytick_7">
     <g id="line2d_12">
      <g>
       <use style="stroke:#000000;stroke-width:0.8;" x="57.6" xlink:href="#m115bc8dd1c" y="54.996835"/>
      </g>
     </g>
     <g id="text_12">
      <!-- 0.006 -->
      <defs>
       <path d="M 33.015625 40.375 
Q 26.375 40.375 22.484375 35.828125 
Q 18.609375 31.296875 18.609375 23.390625 
Q 18.609375 15.53125 22.484375 10.953125 
Q 26.375 6.390625 33.015625 6.390625 
Q 39.65625 6.390625 43.53125 10.953125 
Q 47.40625 15.53125 47.40625 23.390625 
Q 47.40625 31.296875 43.53125 35.828125 
Q 39.65625 40.375 33.015625 40.375 
z
M 52.59375 71.296875 
L 52.59375 62.3125 
Q 48.875 64.0625 45.09375 64.984375 
Q 41.3125 65.921875 37.59375 65.921875 
Q 27.828125 65.921875 22.671875 59.328125 
Q 17.53125 52.734375 16.796875 39.40625 
Q 19.671875 43.65625 24.015625 45.921875 
Q 28.375 48.1875 33.59375 48.1875 
Q 44.578125 48.1875 50.953125 41.515625 
Q 57.328125 34.859375 57.328125 23.390625 
Q 57.328125 12.15625 50.6875 5.359375 
Q 44.046875 -1.421875 33.015625 -1.421875 
Q 20.359375 -1.421875 13.671875 8.265625 
Q 6.984375 17.96875 6.984375 36.375 
Q 6.984375 53.65625 15.1875 63.9375 
Q 23.390625 74.21875 37.203125 74.21875 
Q 40.921875 74.21875 44.703125 73.484375 
Q 48.484375 72.75 52.59375 71.296875 
z
" id="DejaVuSans-36"/>
      </defs>
      <g transform="translate(21.971875 58.796054)scale(0.1 -0.1)">
       <use xlink:href="#DejaVuSans-30"/>
       <use x="63.623047" xlink:href="#DejaVuSans-2e"/>
       <use x="95.410156" xlink:href="#DejaVuSans-30"/>
       <use x="159.033203" xlink:href="#DejaVuSans-30"/>
       <use x="222.65625" xlink:href="#DejaVuSans-36"/>
      </g>
     </g>
    </g>
   </g>
   <g id="line2d_13">
    <path clip-path="url(#p17de36fe8e)" d="M 73.832727 295.488 
L 149.227977 295.382776 
L 156.702506 295.13344 
L 161.577199 294.760007 
L 165.476953 294.246066 
L 168.726749 293.603498 
L 171.651564 292.80457 
L 174.2514 291.877438 
L 176.851237 290.70888 
L 179.126093 289.461507 
L 181.40095 287.983262 
L 183.675807 286.25886 
L 185.950663 284.279605 
L 188.5505 281.705803 
L 191.150336 278.815758 
L 194.075152 275.23311 
L 197.974906 270.059586 
L 205.774414 259.561502 
L 208.374251 256.450304 
L 210.649107 254.052775 
L 212.598984 252.29955 
L 214.548862 250.868664 
L 216.173759 249.946924 
L 217.798657 249.287071 
L 219.423554 248.898919 
L 221.048452 248.787216 
L 222.67335 248.951543 
L 224.298247 249.386381 
L 225.923145 250.081333 
L 227.548043 251.021495 
L 229.49792 252.446498 
L 231.447797 254.158208 
L 233.722654 256.458268 
L 236.647469 259.777485 
L 240.872203 264.97736 
L 247.371794 272.965075 
L 250.621589 276.609425 
L 253.546405 279.575126 
L 256.47122 282.204562 
L 259.071057 284.249523 
L 261.670893 286.024166 
L 264.270729 287.542784 
L 266.870565 288.826054 
L 269.795381 290.018886 
L 272.720197 290.981665 
L 275.969992 291.825622 
L 279.544767 292.531979 
L 283.7695 293.135765 
L 288.644193 293.605964 
L 294.818804 293.967768 
L 303.268272 294.217203 
L 322.442064 294.472357 
L 355.589975 294.811923 
L 384.513153 294.979565 
L 398.487273 295.155303 
L 398.487273 295.155303 
" style="fill:none;stroke:#1f77b4;stroke-linecap:square;stroke-width:1.5;"/>
   </g>
   <g id="line2d_14">
    <path clip-path="url(#p17de36fe8e)" d="M 73.832727 295.488 
L 156.052547 295.377149 
L 172.951482 295.140557 
L 177.176216 294.86194 
L 180.101032 294.466105 
L 182.375889 293.956667 
L 184.325766 293.312148 
L 185.950663 292.57857 
L 187.575561 291.618634 
L 189.200459 290.382289 
L 190.825356 288.816329 
L 192.450254 286.867251 
L 194.075152 284.485142 
L 195.700049 281.628533 
L 197.324947 278.269984 
L 198.949844 274.401961 
L 200.899722 269.115246 
L 203.174578 262.177523 
L 206.424373 251.356052 
L 209.999148 239.526834 
L 211.949025 233.785555 
L 213.573923 229.689205 
L 214.873841 226.983678 
L 216.173759 224.86329 
L 217.148698 223.689888 
L 218.123636 222.891653 
L 218.773595 222.572656 
L 219.423554 222.425574 
L 220.073514 222.450104 
L 220.723473 222.644632 
L 221.698411 223.248505 
L 222.67335 224.213202 
L 223.648288 225.518178 
L 224.948206 227.742689 
L 226.248124 230.454467 
L 227.873022 234.405007 
L 229.822899 239.743108 
L 233.722654 251.266517 
L 236.972449 260.567329 
L 239.247305 266.452783 
L 241.197183 270.956075 
L 243.14706 274.919934 
L 245.096937 278.345258 
L 247.046814 281.259268 
L 248.996691 283.705854 
L 250.946568 285.73751 
L 252.896446 287.409198 
L 254.846323 288.774158 
L 256.7962 289.881369 
L 259.071057 290.905027 
L 261.345913 291.695826 
L 263.945749 292.376745 
L 267.195545 292.978257 
L 271.095299 293.448687 
L 276.294971 293.828066 
L 285.394398 294.227152 
L 297.093661 294.534436 
L 339.665979 295.13959 
L 380.613399 295.167351 
L 398.487273 295.396834 
L 398.487273 295.396834 
" style="fill:none;stroke:#ff7f0e;stroke-linecap:square;stroke-width:1.5;"/>
   </g>
   <g id="line2d_15">
    <path clip-path="url(#p17de36fe8e)" d="M 73.832727 295.488 
L 159.627322 295.376986 
L 173.601441 295.139193 
L 179.451073 294.840154 
L 182.700868 294.477341 
L 185.300704 293.959223 
L 187.250581 293.346511 
L 188.875479 292.620772 
L 190.500377 291.631811 
L 191.800295 290.600565 
L 193.100213 289.309154 
L 194.400131 287.711484 
L 195.700049 285.760793 
L 196.999967 283.412369 
L 198.299885 280.62695 
L 199.599803 277.374669 
L 201.224701 272.629734 
L 202.849599 267.140014 
L 204.799476 259.663093 
L 207.399312 248.587847 
L 211.949025 228.91416 
L 213.573923 222.834199 
L 214.873841 218.673633 
L 216.173759 215.287859 
L 217.148698 213.324537 
L 218.123636 211.894368 
L 218.773595 211.248989 
L 219.423554 210.854878 
L 220.073514 210.713402 
L 220.723473 210.823486 
L 221.373432 211.181664 
L 222.023391 211.782165 
L 222.998329 213.119334 
L 223.973268 214.94825 
L 224.948206 217.225078 
L 226.248124 220.868962 
L 227.873022 226.210906 
L 230.147879 234.660884 
L 236.32249 258.210712 
L 238.272367 264.67403 
L 240.222244 270.381404 
L 241.847142 274.528407 
L 243.472039 278.128392 
L 245.096937 281.209287 
L 246.721835 283.812307 
L 248.346732 285.986069 
L 249.97163 287.781985 
L 251.596527 289.250893 
L 253.221425 290.440794 
L 255.171302 291.561739 
L 257.121179 292.410248 
L 259.396036 293.130412 
L 261.995872 293.685908 
L 264.920688 294.070186 
L 268.820442 294.334334 
L 275.320033 294.499038 
L 292.543948 294.902305 
L 304.89317 295.021889 
L 320.492187 295.254421 
L 339.01602 295.448241 
L 364.364423 295.478469 
L 398.487273 295.435652 
L 398.487273 295.435652 
" style="fill:none;stroke:#2ca02c;stroke-linecap:square;stroke-width:1.5;"/>
   </g>
   <g id="line2d_16">
    <path clip-path="url(#p17de36fe8e)" d="M 73.832727 295.488 
L 154.427649 295.378809 
L 161.902179 295.193508 
L 172.301523 295.341984 
L 181.72593 294.95319 
L 185.625684 294.882951 
L 190.500377 294.853996 
L 193.100213 294.590036 
L 196.025029 294.064102 
L 197.974906 293.50449 
L 199.274824 292.927236 
L 200.249762 292.304988 
L 201.224701 291.433047 
L 202.19964 290.199062 
L 203.174578 288.454677 
L 204.149517 286.016148 
L 205.124455 282.672033 
L 206.099394 278.198639 
L 207.074333 272.38232 
L 208.049271 265.04655 
L 209.02421 256.081271 
L 210.324128 241.585698 
L 211.624046 224.503215 
L 216.498739 157.16789 
L 217.473677 148.638246 
L 218.123636 144.806712 
L 218.773595 142.609607 
L 219.098575 142.143949 
L 219.423554 142.102081 
L 219.748534 142.479854 
L 220.073514 143.268803 
L 220.723473 146.02619 
L 221.373432 150.230475 
L 222.34837 158.822482 
L 223.648288 173.337423 
L 228.522981 232.179905 
L 229.822899 244.55195 
L 231.122817 254.911783 
L 232.422735 263.380767 
L 233.722654 270.196904 
L 235.022572 275.63728 
L 236.32249 279.961328 
L 237.622408 283.380375 
L 238.922326 286.052523 
L 240.222244 288.096066 
L 241.197183 289.276403 
L 242.497101 290.459436 
L 243.797019 291.291206 
L 245.421916 291.997016 
L 247.696773 292.677181 
L 254.521343 294.379305 
L 256.7962 294.696173 
L 259.071057 294.788667 
L 261.995872 294.669598 
L 268.495463 294.306976 
L 271.420278 294.475784 
L 274.995053 294.644197 
L 283.7695 294.716897 
L 294.818804 295.341617 
L 299.043538 295.235432 
L 304.56819 295.127663 
L 310.092842 295.283972 
L 317.242391 295.46797 
L 323.741982 295.3761 
L 329.266634 295.343686 
L 341.940835 295.487838 
L 380.288419 295.384216 
L 386.138051 295.34378 
L 398.487273 295.487649 
L 398.487273 295.487649 
" style="fill:none;stroke:#d62728;stroke-linecap:square;stroke-width:1.5;"/>
   </g>
   <g id="line2d_17">
    <path clip-path="url(#p17de36fe8e)" d="M 73.832727 295.488 
L 155.727568 295.394409 
L 161.577199 295.114518 
L 170.026667 295.465358 
L 178.801114 295.187713 
L 181.075971 294.857615 
L 183.025848 294.632195 
L 184.975725 294.668498 
L 187.575561 294.988526 
L 189.525438 295.196425 
L 190.825356 295.141186 
L 192.125274 294.86996 
L 195.37507 294.018626 
L 198.624865 293.577436 
L 199.924783 293.077452 
L 201.224701 292.358698 
L 202.524619 291.408811 
L 203.499558 290.429751 
L 204.149517 289.549575 
L 204.799476 288.3898 
L 205.449435 286.841792 
L 206.099394 284.77842 
L 206.749353 282.061939 
L 207.399312 278.556253 
L 208.049271 274.14196 
L 209.02421 265.63469 
L 209.999148 254.769377 
L 210.974087 241.619773 
L 212.274005 220.904193 
L 213.898903 190.897482 
L 216.823718 135.003353 
L 217.473677 125.713418 
L 218.123636 119.07677 
L 218.448616 116.941003 
L 218.773595 115.659982 
L 219.098575 115.256092 
L 219.423554 115.727464 
L 219.748534 117.047866 
L 220.398493 122.019591 
L 221.048452 129.566474 
L 222.023391 144.020916 
L 225.598165 200.650186 
L 227.223063 222.623034 
L 228.522981 237.783668 
L 229.822899 250.36604 
L 231.122817 260.487539 
L 232.422735 268.556273 
L 233.397674 273.456694 
L 234.372613 277.466317 
L 235.347551 280.690166 
L 236.32249 283.288887 
L 237.622408 286.090924 
L 238.922326 288.376214 
L 239.897265 289.763622 
L 240.872203 290.8138 
L 241.847142 291.490388 
L 242.82208 291.825448 
L 244.121998 291.942137 
L 246.396855 292.102976 
L 248.346732 292.509753 
L 250.296609 293.11504 
L 255.171302 294.880768 
L 256.7962 295.043174 
L 259.071057 295.003162 
L 264.595708 294.637234 
L 269.145422 294.180396 
L 270.44534 294.404342 
L 273.370156 295.007036 
L 274.670074 295.027596 
L 276.294971 294.827265 
L 279.544767 294.309472 
L 281.169664 294.338498 
L 288.644193 294.981313 
L 292.218968 295.385726 
L 295.143784 295.457005 
L 298.393579 295.299436 
L 302.293333 295.122735 
L 308.467944 295.215433 
L 317.567371 295.487812 
L 324.066962 295.389892 
L 327.966716 295.26343 
L 337.391122 295.487973 
L 380.938378 295.389618 
L 384.838133 295.263577 
L 394.262539 295.487973 
L 398.487273 295.488 
L 398.487273 295.488 
" style="fill:none;stroke:#9467bd;stroke-linecap:square;stroke-width:1.5;"/>
   </g>
   <g id="line2d_18">
    <path clip-path="url(#p17de36fe8e)" d="M 73.832727 295.488 
L 156.377527 295.401806 
L 161.252219 295.031547 
L 163.202097 295.230461 
L 165.476953 295.455525 
L 169.376708 295.487261 
L 172.626503 295.389454 
L 175.551319 295.163549 
L 179.126093 295.311038 
L 180.426011 295.019538 
L 182.375889 294.52283 
L 183.675807 294.532072 
L 187.575561 294.982438 
L 189.525438 295.369868 
L 190.825356 295.388365 
L 191.800295 295.20523 
L 192.775233 294.785603 
L 194.725111 293.729441 
L 195.37507 293.607696 
L 196.350008 293.677486 
L 197.649926 293.788638 
L 198.624865 293.633893 
L 199.924783 293.13071 
L 201.224701 292.387356 
L 203.174578 290.95853 
L 204.474496 289.817448 
L 205.124455 289.006256 
L 205.774414 287.851251 
L 206.424373 286.165185 
L 207.074333 283.716789 
L 207.724292 280.246186 
L 208.374251 275.519768 
L 209.02421 269.409933 
L 209.999148 257.745845 
L 211.299066 238.362067 
L 212.923964 209.497334 
L 214.873841 170.496625 
L 216.823718 126.194706 
L 217.798657 106.501853 
L 218.448616 98.345802 
L 218.773595 96.433938 
L 219.098575 96.116432 
L 219.423554 97.390012 
L 219.748534 100.157313 
L 220.398493 109.402058 
L 221.373432 128.693321 
L 222.998329 161.071698 
L 224.298247 181.724148 
L 227.873022 232.11333 
L 228.847961 243.188509 
L 229.822899 252.134407 
L 231.122817 261.81671 
L 232.422735 269.80205 
L 233.722654 276.466382 
L 234.697592 280.373585 
L 235.672531 283.193251 
L 236.647469 285.288104 
L 238.272367 288.185101 
L 239.572285 290.088321 
L 240.872203 291.620115 
L 241.522162 292.155567 
L 242.172121 292.454459 
L 242.82208 292.510313 
L 243.797019 292.304303 
L 244.771957 292.107043 
L 245.746896 292.17212 
L 250.621589 293.403423 
L 252.896446 294.375215 
L 254.846323 295.095314 
L 256.146241 295.356532 
L 257.446159 295.418675 
L 259.396036 295.249668 
L 261.345913 295.114898 
L 269.470401 295.213643 
L 272.720197 295.475933 
L 280.844685 295.488 
L 398.487273 295.488 
L 398.487273 295.488 
" style="fill:none;stroke:#8c564b;stroke-linecap:square;stroke-width:1.5;"/>
   </g>
   <g id="line2d_19">
    <path clip-path="url(#p17de36fe8e)" d="M 73.832727 295.488 
L 172.951482 295.377308 
L 175.551319 295.137084 
L 179.451073 295.296973 
L 180.750991 294.931828 
L 182.050909 294.535433 
L 183.025848 294.486494 
L 184.650745 294.802627 
L 187.900541 295.322748 
L 189.850418 295.465525 
L 191.150336 295.401196 
L 192.125274 295.162049 
L 193.100213 294.641003 
L 194.725111 293.647765 
L 195.37507 293.538293 
L 196.350008 293.693526 
L 197.324947 293.863211 
L 198.299885 293.783315 
L 199.274824 293.472608 
L 200.574742 292.846363 
L 201.87466 291.994955 
L 204.474496 289.922822 
L 205.124455 289.138705 
L 205.774414 288.008175 
L 206.424373 286.372274 
L 207.074333 284.032784 
L 207.724292 280.731382 
L 208.374251 276.185772 
L 209.02421 270.203074 
L 209.999148 258.596697 
L 211.299066 239.161407 
L 212.598984 215.941763 
L 214.873841 170.208587 
L 216.173759 140.907966 
L 217.798657 103.25725 
L 218.448616 93.864137 
L 218.773595 91.621174 
L 219.098575 91.234064 
L 219.423554 92.707981 
L 219.748534 95.916702 
L 220.398493 106.513928 
L 223.323309 166.391446 
L 224.623227 184.896664 
L 226.248124 208.114368 
L 227.873022 232.243188 
L 228.847961 243.612193 
L 229.822899 252.306307 
L 231.122817 261.585328 
L 232.747715 271.436531 
L 234.047633 278.260787 
L 234.697592 280.89401 
L 235.347551 282.88459 
L 236.32249 285.092718 
L 237.947387 288.196792 
L 238.922326 289.635039 
L 240.547224 291.496521 
L 241.522162 292.381398 
L 242.172121 292.705918 
L 242.82208 292.779628 
L 243.797019 292.595453 
L 244.771957 292.421519 
L 245.746896 292.488428 
L 247.696773 293.009591 
L 251.596527 294.108562 
L 254.196364 295.243859 
L 255.496282 295.441701 
L 258.096118 295.487752 
L 398.487273 295.488 
L 398.487273 295.488 
" style="fill:none;stroke:#e377c2;stroke-linecap:square;stroke-width:1.5;"/>
   </g>
   <g id="line2d_20">
    <path clip-path="url(#p17de36fe8e)" d="M 73.832727 295.488 
L 178.151155 295.408732 
L 179.451073 295.17166 
L 182.375889 294.423847 
L 183.675807 294.514239 
L 184.975725 294.518672 
L 186.275643 294.505915 
L 189.200459 294.862236 
L 190.500377 294.752577 
L 191.800295 294.421366 
L 194.725111 293.467209 
L 195.37507 293.578264 
L 196.674988 293.975048 
L 197.324947 293.958832 
L 198.299885 293.67845 
L 199.599803 293.049252 
L 201.549681 292.001132 
L 202.849599 291.544406 
L 205.124455 290.934226 
L 205.774414 290.170259 
L 206.424373 288.762619 
L 207.074333 286.673785 
L 208.049271 282.472481 
L 208.69923 278.909269 
L 209.349189 274.376465 
L 209.999148 268.468823 
L 210.649107 260.923938 
L 211.624046 246.507496 
L 212.598984 228.81744 
L 213.573923 207.731078 
L 214.873841 173.724956 
L 217.148698 113.336844 
L 218.123636 92.880777 
L 218.448616 88.41764 
L 218.773595 85.685726 
L 219.098575 84.866845 
L 219.423554 85.980436 
L 219.748534 88.88556 
L 220.398493 98.932754 
L 221.698411 126.653086 
L 222.67335 146.213401 
L 223.648288 160.979616 
L 225.273186 181.749973 
L 226.248124 198.399325 
L 227.548043 221.617937 
L 228.522981 234.953177 
L 230.147879 251.974243 
L 231.447797 264.874046 
L 232.422735 272.17071 
L 233.397674 277.646989 
L 234.697592 283.627425 
L 235.347551 285.852125 
L 235.99751 287.519046 
L 236.972449 289.362059 
L 237.947387 290.759953 
L 238.922326 291.697608 
L 240.222244 292.500919 
L 241.847142 293.319984 
L 242.82208 293.545701 
L 244.121998 293.513828 
L 245.421916 293.532918 
L 246.721835 293.870523 
L 248.671712 294.380415 
L 249.97163 294.469611 
L 251.271548 294.565778 
L 252.571466 294.951378 
L 253.871384 295.321184 
L 255.171302 295.463368 
L 259.071057 295.488 
L 398.487273 295.488 
L 398.487273 295.488 
" style="fill:none;stroke:#7f7f7f;stroke-linecap:square;stroke-width:1.5;"/>
   </g>
   <g id="line2d_21">
    <path clip-path="url(#p17de36fe8e)" d="M 73.832727 295.488 
L 200.249762 295.434241 
L 200.899722 295.266119 
L 201.549681 294.839438 
L 203.174578 293.34804 
L 203.499558 293.369477 
L 204.149517 293.805385 
L 204.799476 294.211363 
L 205.124455 294.152244 
L 205.449435 293.814187 
L 205.774414 293.161622 
L 206.424373 290.986634 
L 207.724292 285.085206 
L 208.69923 279.863437 
L 209.349189 274.986974 
L 209.999148 268.656176 
L 210.974087 256.403716 
L 211.624046 245.701712 
L 212.598984 225.09546 
L 214.223882 184.775459 
L 215.5238 146.379842 
L 218.123636 62.419327 
L 218.448616 56.383625 
L 218.773595 53.568 
L 219.098575 54.266859 
L 219.423554 58.295849 
L 220.073514 73.630687 
L 221.698411 118.745871 
L 222.67335 138.810114 
L 223.323309 148.585026 
L 224.948206 169.357792 
L 225.598165 180.894453 
L 226.573104 203.000682 
L 227.548043 226.34721 
L 228.198002 237.76092 
L 228.847961 245.165281 
L 229.822899 254.256177 
L 230.472858 262.526386 
L 232.097756 286.798577 
L 232.747715 292.140048 
L 233.072695 293.612955 
L 233.397674 294.510074 
L 233.722654 295.013842 
L 234.372613 295.398981 
L 235.347551 295.483956 
L 248.346732 295.488 
L 398.487273 295.488 
L 398.487273 295.488 
" style="fill:none;stroke:#bcbd22;stroke-linecap:square;stroke-width:1.5;"/>
   </g>
   <g id="line2d_22">
    <path clip-path="url(#p17de36fe8e)" d="M 73.832727 295.488 
L 193.425192 295.42333 
L 194.725111 295.127111 
L 195.700049 294.982449 
L 196.674988 295.174921 
L 197.974906 295.439124 
L 199.274824 295.404817 
L 199.924783 295.204178 
L 200.574742 294.759758 
L 201.224701 294.047422 
L 202.524619 292.38454 
L 203.174578 291.972645 
L 203.499558 291.985696 
L 204.149517 292.395299 
L 204.799476 292.901438 
L 205.124455 292.976798 
L 205.449435 292.827088 
L 205.774414 292.400579 
L 206.424373 290.692331 
L 207.399312 286.744559 
L 208.374251 282.089802 
L 209.02421 277.959825 
L 209.674169 272.360654 
L 210.649107 261.248843 
L 211.299066 251.906639 
L 211.949025 240.257152 
L 212.923964 218.246507 
L 214.548862 176.020034 
L 215.84878 136.234793 
L 218.123636 64.22288 
L 218.448616 59.117263 
L 218.773595 57.026495 
L 219.098575 58.017203 
L 219.423554 61.784223 
L 220.073514 75.210263 
L 222.34837 131.951885 
L 222.998329 143.672518 
L 223.973268 156.531373 
L 224.948206 170.475661 
L 225.923145 188.946124 
L 228.198002 237.90954 
L 228.847961 245.360489 
L 230.147879 257.864245 
L 230.797838 267.033147 
L 232.097756 286.351366 
L 232.747715 291.790963 
L 233.072695 293.253003 
L 233.397674 294.106032 
L 233.722654 294.554087 
L 234.372613 294.888005 
L 236.647469 295.438224 
L 238.597346 295.487802 
L 398.487273 295.488 
L 398.487273 295.488 
" style="fill:none;stroke:#17becf;stroke-linecap:square;stroke-width:1.5;"/>
   </g>
   <g id="line2d_23">
    <path clip-path="url(#p17de36fe8e)" d="M 73.832727 295.488 
L 193.425192 295.424923 
L 194.725111 295.131391 
L 195.700049 294.98717 
L 196.674988 295.178968 
L 197.974906 295.440513 
L 199.274824 295.407337 
L 199.924783 295.210442 
L 200.574742 294.772126 
L 201.224701 294.067896 
L 202.524619 292.421026 
L 203.174578 292.01214 
L 203.499558 292.025413 
L 204.149517 292.434403 
L 204.799476 292.941267 
L 205.124455 293.018838 
L 205.449435 292.873238 
L 205.774414 292.452975 
L 206.424373 290.763558 
L 207.399312 286.860236 
L 208.374251 282.27342 
L 209.02421 278.198698 
L 209.674169 272.648799 
L 210.649107 261.523347 
L 211.299066 252.053704 
L 211.949025 240.202415 
L 212.923964 217.999161 
L 214.548862 176.072886 
L 215.84878 136.337144 
L 218.123636 64.248487 
L 218.448616 58.94499 
L 218.773595 56.640175 
L 219.098575 57.434286 
L 219.423554 61.052995 
L 220.073514 74.380624 
L 222.67335 138.745645 
L 223.323309 148.787719 
L 224.623227 165.154213 
L 225.598165 182.246018 
L 226.573104 203.774592 
L 227.873022 232.665176 
L 228.522981 241.994981 
L 229.49792 251.060155 
L 230.147879 257.772382 
L 230.797838 266.953364 
L 232.097756 286.405908 
L 232.747715 291.84323 
L 233.072695 293.293661 
L 233.397674 294.13478 
L 233.722654 294.573223 
L 234.372613 294.896568 
L 236.972449 295.463934 
L 240.222244 295.488 
L 398.487273 295.488 
L 398.487273 295.488 
" style="fill:none;stroke:#1f77b4;stroke-linecap:square;stroke-width:1.5;"/>
   </g>
   <g id="line2d_24">
    <path clip-path="url(#p17de36fe8e)" d="M 73.832727 295.488 
L 193.425192 295.425197 
L 194.725111 295.131826 
L 195.700049 294.987474 
L 196.674988 295.179425 
L 197.974906 295.440763 
L 199.274824 295.407799 
L 199.924783 295.211472 
L 200.574742 294.773889 
L 201.224701 294.070434 
L 202.524619 292.424683 
L 203.174578 292.015843 
L 203.499558 292.029188 
L 204.149517 292.438695 
L 204.799476 292.94655 
L 205.124455 293.024769 
L 205.449435 292.879906 
L 205.774414 292.460438 
L 206.099394 291.75013 
L 206.749353 289.586358 
L 208.049271 283.935635 
L 208.69923 280.422956 
L 209.349189 275.654732 
L 209.999148 269.341613 
L 210.974087 257.103889 
L 211.624046 246.541381 
L 212.598984 225.948503 
L 214.223882 185.086429 
L 215.5238 146.971635 
L 218.123636 64.081302 
L 218.448616 58.819439 
L 218.773595 56.545847 
L 219.098575 57.345133 
L 219.423554 60.939428 
L 220.073514 74.174824 
L 222.67335 138.438295 
L 223.323309 148.551877 
L 224.623227 165.221504 
L 225.598165 182.393775 
L 226.573104 203.90904 
L 227.873022 232.770267 
L 228.522981 242.083314 
L 229.49792 251.124148 
L 230.147879 257.822345 
L 230.797838 266.992506 
L 232.097756 286.428754 
L 232.747715 291.856698 
L 233.072695 293.302973 
L 233.397674 294.140754 
L 233.722654 294.576784 
L 234.372613 294.897684 
L 236.972449 295.46408 
L 240.222244 295.488 
L 398.487273 295.488 
L 398.487273 295.488 
" style="fill:none;stroke:#ff7f0e;stroke-linecap:square;stroke-width:1.5;"/>
   </g>
   <g id="line2d_25">
    <path clip-path="url(#p17de36fe8e)" d="M 73.832727 295.488 
L 193.750172 295.377066 
L 195.700049 294.988038 
L 196.674988 295.179885 
L 197.974906 295.440908 
L 199.274824 295.408061 
L 199.924783 295.212141 
L 200.574742 294.775245 
L 201.224701 294.072728 
L 202.524619 292.428884 
L 203.174578 292.02042 
L 203.499558 292.033784 
L 204.149517 292.443146 
L 204.799476 292.950967 
L 205.124455 293.029387 
L 205.449435 292.884955 
L 205.774414 292.466185 
L 206.099394 291.756843 
L 206.749353 289.595751 
L 208.049271 283.952472 
L 208.69923 280.439582 
L 209.349189 275.650748 
L 209.999148 269.26358 
L 210.974087 256.796321 
L 211.624046 246.124468 
L 212.598984 225.668457 
L 214.223882 185.212356 
L 215.5238 147.191644 
L 218.123636 63.820526 
L 218.448616 58.386611 
L 218.773595 55.972558 
L 219.098575 56.696569 
L 219.423554 60.300046 
L 220.073514 73.774322 
L 222.67335 138.671975 
L 223.323309 148.77396 
L 224.623227 165.414456 
L 225.598165 182.561478 
L 226.573104 204.045489 
L 227.873022 232.868797 
L 228.522981 242.166732 
L 229.49792 251.18955 
L 230.147879 257.876061 
L 230.797838 267.0337 
L 232.097756 286.446166 
L 232.747715 291.865462 
L 233.072695 293.308745 
L 233.397674 294.144409 
L 233.722654 294.579056 
L 234.372613 294.898663 
L 236.972449 295.464162 
L 240.222244 295.488 
L 398.487273 295.488 
L 398.487273 295.488 
" style="fill:none;stroke:#2ca02c;stroke-linecap:square;stroke-width:1.5;"/>
   </g>
   <g id="line2d_26">
    <path clip-path="url(#p17de36fe8e)" d="M 73.832727 295.488 
L 193.750172 295.377066 
L 195.700049 294.988038 
L 196.674988 295.179885 
L 197.974906 295.440908 
L 199.274824 295.408061 
L 199.924783 295.212141 
L 200.574742 294.775245 
L 201.224701 294.072728 
L 202.524619 292.428884 
L 203.174578 292.02042 
L 203.499558 292.033784 
L 204.149517 292.443146 
L 204.799476 292.950967 
L 205.124455 293.029387 
L 205.449435 292.884955 
L 205.774414 292.466185 
L 206.099394 291.756843 
L 206.749353 289.595751 
L 208.049271 283.952472 
L 208.69923 280.439582 
L 209.349189 275.650748 
L 209.999148 269.26358 
L 210.974087 256.796321 
L 211.624046 246.124468 
L 212.598984 225.668457 
L 214.223882 185.212356 
L 215.5238 147.191644 
L 218.123636 63.820526 
L 218.448616 58.386611 
L 218.773595 55.972558 
L 219.098575 56.696569 
L 219.423554 60.300046 
L 220.073514 73.774322 
L 222.67335 138.671975 
L 223.323309 148.77396 
L 224.623227 165.414456 
L 225.598165 182.561478 
L 226.573104 204.045489 
L 227.873022 232.868797 
L 228.522981 242.166732 
L 229.49792 251.18955 
L 230.147879 257.876061 
L 230.797838 267.0337 
L 232.097756 286.446166 
L 232.747715 291.865462 
L 233.072695 293.308745 
L 233.397674 294.144409 
L 233.722654 294.579056 
L 234.372613 294.898663 
L 236.972449 295.464162 
L 240.222244 295.488 
L 398.487273 295.488 
L 398.487273 295.488 
" style="fill:none;stroke:#d62728;stroke-linecap:square;stroke-width:1.5;"/>
   </g>
   <g id="line2d_27">
    <path clip-path="url(#p17de36fe8e)" d="M 73.832727 295.488 
L 193.750172 295.377066 
L 195.700049 294.988038 
L 196.674988 295.179885 
L 197.974906 295.440908 
L 199.274824 295.408061 
L 199.924783 295.212141 
L 200.574742 294.775245 
L 201.224701 294.072728 
L 202.524619 292.428884 
L 203.174578 292.02042 
L 203.499558 292.033784 
L 204.149517 292.443146 
L 204.799476 292.950967 
L 205.124455 293.029387 
L 205.449435 292.884955 
L 205.774414 292.466185 
L 206.099394 291.756843 
L 206.749353 289.595751 
L 208.049271 283.952472 
L 208.69923 280.439582 
L 209.349189 275.650748 
L 209.999148 269.26358 
L 210.974087 256.796321 
L 211.624046 246.124468 
L 212.598984 225.668457 
L 214.223882 185.212356 
L 215.5238 147.191644 
L 218.123636 63.820526 
L 218.448616 58.386611 
L 218.773595 55.972558 
L 219.098575 56.696569 
L 219.423554 60.300046 
L 220.073514 73.774322 
L 222.67335 138.671975 
L 223.323309 148.77396 
L 224.623227 165.414456 
L 225.598165 182.561478 
L 226.573104 204.045489 
L 227.873022 232.868797 
L 228.522981 242.166732 
L 229.49792 251.18955 
L 230.147879 257.876061 
L 230.797838 267.0337 
L 232.097756 286.446166 
L 232.747715 291.865462 
L 233.072695 293.308745 
L 233.397674 294.144409 
L 233.722654 294.579056 
L 234.372613 294.898663 
L 236.972449 295.464162 
L 240.222244 295.488 
L 398.487273 295.488 
L 398.487273 295.488 
" style="fill:none;stroke:#9467bd;stroke-linecap:square;stroke-width:1.5;"/>
   </g>
   <g id="line2d_28">
    <path clip-path="url(#p17de36fe8e)" d="M 73.832727 295.488 
L 193.750172 295.377066 
L 195.700049 294.988038 
L 196.674988 295.179885 
L 197.974906 295.440908 
L 199.274824 295.408061 
L 199.924783 295.212141 
L 200.574742 294.775245 
L 201.224701 294.072728 
L 202.524619 292.428884 
L 203.174578 292.02042 
L 203.499558 292.033784 
L 204.149517 292.443146 
L 204.799476 292.950967 
L 205.124455 293.029387 
L 205.449435 292.884955 
L 205.774414 292.466185 
L 206.099394 291.756843 
L 206.749353 289.595751 
L 208.049271 283.952472 
L 208.69923 280.439582 
L 209.349189 275.650748 
L 209.999148 269.26358 
L 210.974087 256.796321 
L 211.624046 246.124468 
L 212.598984 225.668457 
L 214.223882 185.212356 
L 215.5238 147.191644 
L 218.123636 63.820526 
L 218.448616 58.386611 
L 218.773595 55.972558 
L 219.098575 56.696569 
L 219.423554 60.300046 
L 220.073514 73.774322 
L 222.67335 138.671975 
L 223.323309 148.77396 
L 224.623227 165.414456 
L 225.598165 182.561478 
L 226.573104 204.045489 
L 227.873022 232.868797 
L 228.522981 242.166732 
L 229.49792 251.18955 
L 230.147879 257.876061 
L 230.797838 267.0337 
L 232.097756 286.446166 
L 232.747715 291.865462 
L 233.072695 293.308745 
L 233.397674 294.144409 
L 233.722654 294.579056 
L 234.372613 294.898663 
L 236.972449 295.464162 
L 240.222244 295.488 
L 398.487273 295.488 
L 398.487273 295.488 
" style="fill:none;stroke:#8c564b;stroke-linecap:square;stroke-width:1.5;"/>
   </g>
   <g id="line2d_29">
    <path clip-path="url(#p17de36fe8e)" d="M 73.832727 295.488 
L 193.750172 295.377066 
L 195.700049 294.988038 
L 196.674988 295.179885 
L 197.974906 295.440908 
L 199.274824 295.408061 
L 199.924783 295.212141 
L 200.574742 294.775245 
L 201.224701 294.072728 
L 202.524619 292.428884 
L 203.174578 292.02042 
L 203.499558 292.033784 
L 204.149517 292.443146 
L 204.799476 292.950967 
L 205.124455 293.029387 
L 205.449435 292.884955 
L 205.774414 292.466185 
L 206.099394 291.756843 
L 206.749353 289.595751 
L 208.049271 283.952472 
L 208.69923 280.439582 
L 209.349189 275.650748 
L 209.999148 269.26358 
L 210.974087 256.796321 
L 211.624046 246.124468 
L 212.598984 225.668457 
L 214.223882 185.212356 
L 215.5238 147.191644 
L 218.123636 63.820526 
L 218.448616 58.386611 
L 218.773595 55.972558 
L 219.098575 56.696569 
L 219.423554 60.300046 
L 220.073514 73.774322 
L 222.67335 138.671975 
L 223.323309 148.77396 
L 224.623227 165.414456 
L 225.598165 182.561478 
L 226.573104 204.045489 
L 227.873022 232.868797 
L 228.522981 242.166732 
L 229.49792 251.18955 
L 230.147879 257.876061 
L 230.797838 267.0337 
L 232.097756 286.446166 
L 232.747715 291.865462 
L 233.072695 293.308745 
L 233.397674 294.144409 
L 233.722654 294.579056 
L 234.372613 294.898663 
L 236.972449 295.464162 
L 240.222244 295.488 
L 398.487273 295.488 
L 398.487273 295.488 
" style="fill:none;stroke:#e377c2;stroke-linecap:square;stroke-width:1.5;"/>
   </g>
   <g id="line2d_30">
    <path clip-path="url(#p17de36fe8e)" d="M 73.832727 295.488 
L 193.750172 295.377066 
L 195.700049 294.988038 
L 196.674988 295.179885 
L 197.974906 295.440908 
L 199.274824 295.408061 
L 199.924783 295.212141 
L 200.574742 294.775245 
L 201.224701 294.072728 
L 202.524619 292.428884 
L 203.174578 292.02042 
L 203.499558 292.033784 
L 204.149517 292.443146 
L 204.799476 292.950967 
L 205.124455 293.029387 
L 205.449435 292.884955 
L 205.774414 292.466185 
L 206.099394 291.756843 
L 206.749353 289.595751 
L 208.049271 283.952472 
L 208.69923 280.439582 
L 209.349189 275.650748 
L 209.999148 269.26358 
L 210.974087 256.796321 
L 211.624046 246.124468 
L 212.598984 225.668457 
L 214.223882 185.212356 
L 215.5238 147.191644 
L 218.123636 63.820526 
L 218.448616 58.386611 
L 218.773595 55.972558 
L 219.098575 56.696569 
L 219.423554 60.300046 
L 220.073514 73.774322 
L 222.67335 138.671975 
L 223.323309 148.77396 
L 224.623227 165.414456 
L 225.598165 182.561478 
L 226.573104 204.045489 
L 227.873022 232.868797 
L 228.522981 242.166732 
L 229.49792 251.18955 
L 230.147879 257.876061 
L 230.797838 267.0337 
L 232.097756 286.446166 
L 232.747715 291.865462 
L 233.072695 293.308745 
L 233.397674 294.144409 
L 233.722654 294.579056 
L 234.372613 294.898663 
L 236.972449 295.464162 
L 240.222244 295.488 
L 398.487273 295.488 
L 398.487273 295.488 
" style="fill:none;stroke:#7f7f7f;stroke-linecap:square;stroke-width:1.5;"/>
   </g>
   <g id="line2d_31">
    <path clip-path="url(#p17de36fe8e)" d="M 73.832727 295.488 
L 193.750172 295.377066 
L 195.700049 294.988038 
L 196.674988 295.179885 
L 197.974906 295.440908 
L 199.274824 295.408061 
L 199.924783 295.212141 
L 200.574742 294.775245 
L 201.224701 294.072728 
L 202.524619 292.428884 
L 203.174578 292.02042 
L 203.499558 292.033784 
L 204.149517 292.443146 
L 204.799476 292.950967 
L 205.124455 293.029387 
L 205.449435 292.884955 
L 205.774414 292.466185 
L 206.099394 291.756843 
L 206.749353 289.595751 
L 208.049271 283.952472 
L 208.69923 280.439582 
L 209.349189 275.650748 
L 209.999148 269.26358 
L 210.974087 256.796321 
L 211.624046 246.124468 
L 212.598984 225.668457 
L 214.223882 185.212356 
L 215.5238 147.191644 
L 218.123636 63.820526 
L 218.448616 58.386611 
L 218.773595 55.972558 
L 219.098575 56.696569 
L 219.423554 60.300046 
L 220.073514 73.774322 
L 222.67335 138.671975 
L 223.323309 148.77396 
L 224.623227 165.414456 
L 225.598165 182.561478 
L 226.573104 204.045489 
L 227.873022 232.868797 
L 228.522981 242.166732 
L 229.49792 251.18955 
L 230.147879 257.876061 
L 230.797838 267.0337 
L 232.097756 286.446166 
L 232.747715 291.865462 
L 233.072695 293.308745 
L 233.397674 294.144409 
L 233.722654 294.579056 
L 234.372613 294.898663 
L 236.972449 295.464162 
L 240.222244 295.488 
L 398.487273 295.488 
L 398.487273 295.488 
" style="fill:none;stroke:#bcbd22;stroke-linecap:square;stroke-width:1.5;"/>
   </g>
   <g id="line2d_32">
    <path clip-path="url(#p17de36fe8e)" d="M 73.832727 295.488 
L 193.750172 295.377066 
L 195.700049 294.988038 
L 196.674988 295.179885 
L 197.974906 295.440908 
L 199.274824 295.408061 
L 199.924783 295.212141 
L 200.574742 294.775245 
L 201.224701 294.072728 
L 202.524619 292.428884 
L 203.174578 292.02042 
L 203.499558 292.033784 
L 204.149517 292.443146 
L 204.799476 292.950967 
L 205.124455 293.029387 
L 205.449435 292.884955 
L 205.774414 292.466185 
L 206.099394 291.756843 
L 206.749353 289.595751 
L 208.049271 283.952472 
L 208.69923 280.439582 
L 209.349189 275.650748 
L 209.999148 269.26358 
L 210.974087 256.796321 
L 211.624046 246.124468 
L 212.598984 225.668457 
L 214.223882 185.212356 
L 215.5238 147.191644 
L 218.123636 63.820526 
L 218.448616 58.386611 
L 218.773595 55.972558 
L 219.098575 56.696569 
L 219.423554 60.300046 
L 220.073514 73.774322 
L 222.67335 138.671975 
L 223.323309 148.77396 
L 224.623227 165.414456 
L 225.598165 182.561478 
L 226.573104 204.045489 
L 227.873022 232.868797 
L 228.522981 242.166732 
L 229.49792 251.18955 
L 230.147879 257.876061 
L 230.797838 267.0337 
L 232.097756 286.446166 
L 232.747715 291.865462 
L 233.072695 293.308745 
L 233.397674 294.144409 
L 233.722654 294.579056 
L 234.372613 294.898663 
L 236.972449 295.464162 
L 240.222244 295.488 
L 398.487273 295.488 
L 398.487273 295.488 
" style="fill:none;stroke:#17becf;stroke-linecap:square;stroke-width:1.5;"/>
   </g>
   <g id="line2d_33">
    <path clip-path="url(#p17de36fe8e)" d="M 218.62862 307.584 
L 218.62862 41.472 
" style="fill:none;stroke:#1f77b4;stroke-linecap:square;stroke-width:1.5;"/>
   </g>
   <g id="patch_3">
    <path d="M 57.6 307.584 
L 57.6 41.472 
" style="fill:none;stroke:#000000;stroke-linecap:square;stroke-linejoin:miter;stroke-width:0.8;"/>
   </g>
   <g id="patch_4">
    <path d="M 414.72 307.584 
L 414.72 41.472 
" style="fill:none;stroke:#000000;stroke-linecap:square;stroke-linejoin:miter;stroke-width:0.8;"/>
   </g>
   <g id="patch_5">
    <path d="M 57.6 307.584 
L 414.72 307.584 
" style="fill:none;stroke:#000000;stroke-linecap:square;stroke-linejoin:miter;stroke-width:0.8;"/>
   </g>
   <g id="patch_6">
    <path d="M 57.6 41.472 
L 414.72 41.472 
" style="fill:none;stroke:#000000;stroke-linecap:square;stroke-linejoin:miter;stroke-width:0.8;"/>
   </g>
  </g>
 </g>
 <defs>
  <clipPath id="p17de36fe8e">
   <rect height="266.112" width="357.12" x="57.6" y="41.472"/>
  </clipPath>
 </defs>
</svg>
