<?xml version="1.0" encoding="utf-8" standalone="no"?>
<!DOCTYPE svg PUBLIC "-//W3C//DTD SVG 1.1//EN"
  "http://www.w3.org/Graphics/SVG/1.1/DTD/svg11.dtd">
<!-- Created with matplotlib (http://matplotlib.org/) -->
<svg height="345pt" version="1.1" viewBox="0 0 460 345" width="460pt" xmlns="http://www.w3.org/2000/svg" xmlns:xlink="http://www.w3.org/1999/xlink">
 <defs>
  <style type="text/css">
*{stroke-linecap:butt;stroke-linejoin:round;}
  </style>
 </defs>
 <g id="figure_1">
  <g id="patch_1">
   <path d="M 0 345.6 
L 460.8 345.6 
L 460.8 0 
L 0 0 
z
" style="fill:none;"/>
  </g>
  <g id="axes_1">
   <g id="patch_2">
    <path d="M 57.6 307.584 
L 414.72 307.584 
L 414.72 41.472 
L 57.6 41.472 
z
" style="fill:none;"/>
   </g>
   <g id="matplotlib.axis_1">
    <g id="xtick_1">
     <g id="line2d_1">
      <defs>
       <path d="M 0 0 
L 0 3.5 
" id="md460d5efd3" style="stroke:#000000;stroke-width:0.8;"/>
      </defs>
      <g>
       <use style="stroke:#000000;stroke-width:0.8;" x="63.976654" xlink:href="#md460d5efd3" y="307.584"/>
      </g>
     </g>
     <g id="text_1">
      <!-- −8 -->
      <defs>
       <path d="M 10.59375 35.5 
L 73.1875 35.5 
L 73.1875 27.203125 
L 10.59375 27.203125 
z
" id="DejaVuSans-2212"/>
       <path d="M 31.78125 34.625 
Q 24.75 34.625 20.71875 30.859375 
Q 16.703125 27.09375 16.703125 20.515625 
Q 16.703125 13.921875 20.71875 10.15625 
Q 24.75 6.390625 31.78125 6.390625 
Q 38.8125 6.390625 42.859375 10.171875 
Q 46.921875 13.96875 46.921875 20.515625 
Q 46.921875 27.09375 42.890625 30.859375 
Q 38.875 34.625 31.78125 34.625 
z
M 21.921875 38.8125 
Q 15.578125 40.375 12.03125 44.71875 
Q 8.5 49.078125 8.5 55.328125 
Q 8.5 64.0625 14.71875 69.140625 
Q 20.953125 74.21875 31.78125 74.21875 
Q 42.671875 74.21875 48.875 69.140625 
Q 55.078125 64.0625 55.078125 55.328125 
Q 55.078125 49.078125 51.53125 44.71875 
Q 48 40.375 41.703125 38.8125 
Q 48.828125 37.15625 52.796875 32.3125 
Q 56.78125 27.484375 56.78125 20.515625 
Q 56.78125 9.90625 50.3125 4.234375 
Q 43.84375 -1.421875 31.78125 -1.421875 
Q 19.734375 -1.421875 13.25 4.234375 
Q 6.78125 9.90625 6.78125 20.515625 
Q 6.78125 27.484375 10.78125 32.3125 
Q 14.796875 37.15625 21.921875 38.8125 
z
M 18.3125 54.390625 
Q 18.3125 48.734375 21.84375 45.5625 
Q 25.390625 42.390625 31.78125 42.390625 
Q 38.140625 42.390625 41.71875 45.5625 
Q 45.3125 48.734375 45.3125 54.390625 
Q 45.3125 60.0625 41.71875 63.234375 
Q 38.140625 66.40625 31.78125 66.40625 
Q 25.390625 66.40625 21.84375 63.234375 
Q 18.3125 60.0625 18.3125 54.390625 
z
" id="DejaVuSans-38"/>
      </defs>
      <g transform="translate(56.60556 322.182437)scale(0.1 -0.1)">
       <use xlink:href="#DejaVuSans-2212"/>
       <use x="83.789062" xlink:href="#DejaVuSans-38"/>
      </g>
     </g>
    </g>
    <g id="xtick_2">
     <g id="line2d_2">
      <g>
       <use style="stroke:#000000;stroke-width:0.8;" x="109.288356" xlink:href="#md460d5efd3" y="307.584"/>
      </g>
     </g>
     <g id="text_2">
      <!-- −7 -->
      <defs>
       <path d="M 8.203125 72.90625 
L 55.078125 72.90625 
L 55.078125 68.703125 
L 28.609375 0 
L 18.3125 0 
L 43.21875 64.59375 
L 8.203125 64.59375 
z
" id="DejaVuSans-37"/>
      </defs>
      <g transform="translate(101.917262 322.182437)scale(0.1 -0.1)">
       <use xlink:href="#DejaVuSans-2212"/>
       <use x="83.789062" xlink:href="#DejaVuSans-37"/>
      </g>
     </g>
    </g>
    <g id="xtick_3">
     <g id="line2d_3">
      <g>
       <use style="stroke:#000000;stroke-width:0.8;" x="154.600058" xlink:href="#md460d5efd3" y="307.584"/>
      </g>
     </g>
     <g id="text_3">
      <!-- −6 -->
      <defs>
       <path d="M 33.015625 40.375 
Q 26.375 40.375 22.484375 35.828125 
Q 18.609375 31.296875 18.609375 23.390625 
Q 18.609375 15.53125 22.484375 10.953125 
Q 26.375 6.390625 33.015625 6.390625 
Q 39.65625 6.390625 43.53125 10.953125 
Q 47.40625 15.53125 47.40625 23.390625 
Q 47.40625 31.296875 43.53125 35.828125 
Q 39.65625 40.375 33.015625 40.375 
z
M 52.59375 71.296875 
L 52.59375 62.3125 
Q 48.875 64.0625 45.09375 64.984375 
Q 41.3125 65.921875 37.59375 65.921875 
Q 27.828125 65.921875 22.671875 59.328125 
Q 17.53125 52.734375 16.796875 39.40625 
Q 19.671875 43.65625 24.015625 45.921875 
Q 28.375 48.1875 33.59375 48.1875 
Q 44.578125 48.1875 50.953125 41.515625 
Q 57.328125 34.859375 57.328125 23.390625 
Q 57.328125 12.15625 50.6875 5.359375 
Q 44.046875 -1.421875 33.015625 -1.421875 
Q 20.359375 -1.421875 13.671875 8.265625 
Q 6.984375 17.96875 6.984375 36.375 
Q 6.984375 53.65625 15.1875 63.9375 
Q 23.390625 74.21875 37.203125 74.21875 
Q 40.921875 74.21875 44.703125 73.484375 
Q 48.484375 72.75 52.59375 71.296875 
z
" id="DejaVuSans-36"/>
      </defs>
      <g transform="translate(147.228964 322.182437)scale(0.1 -0.1)">
       <use xlink:href="#DejaVuSans-2212"/>
       <use x="83.789062" xlink:href="#DejaVuSans-36"/>
      </g>
     </g>
    </g>
    <g id="xtick_4">
     <g id="line2d_4">
      <g>
       <use style="stroke:#000000;stroke-width:0.8;" x="199.911759" xlink:href="#md460d5efd3" y="307.584"/>
      </g>
     </g>
     <g id="text_4">
      <!-- −5 -->
      <defs>
       <path d="M 10.796875 72.90625 
L 49.515625 72.90625 
L 49.515625 64.59375 
L 19.828125 64.59375 
L 19.828125 46.734375 
Q 21.96875 47.46875 24.109375 47.828125 
Q 26.265625 48.1875 28.421875 48.1875 
Q 40.625 48.1875 47.75 41.5 
Q 54.890625 34.8125 54.890625 23.390625 
Q 54.890625 11.625 47.5625 5.09375 
Q 40.234375 -1.421875 26.90625 -1.421875 
Q 22.3125 -1.421875 17.546875 -0.640625 
Q 12.796875 0.140625 7.71875 1.703125 
L 7.71875 11.625 
Q 12.109375 9.234375 16.796875 8.0625 
Q 21.484375 6.890625 26.703125 6.890625 
Q 35.15625 6.890625 40.078125 11.328125 
Q 45.015625 15.765625 45.015625 23.390625 
Q 45.015625 31 40.078125 35.4375 
Q 35.15625 39.890625 26.703125 39.890625 
Q 22.75 39.890625 18.8125 39.015625 
Q 14.890625 38.140625 10.796875 36.28125 
z
" id="DejaVuSans-35"/>
      </defs>
      <g transform="translate(192.540666 322.182437)scale(0.1 -0.1)">
       <use xlink:href="#DejaVuSans-2212"/>
       <use x="83.789062" xlink:href="#DejaVuSans-35"/>
      </g>
     </g>
    </g>
    <g id="xtick_5">
     <g id="line2d_5">
      <g>
       <use style="stroke:#000000;stroke-width:0.8;" x="245.223461" xlink:href="#md460d5efd3" y="307.584"/>
      </g>
     </g>
     <g id="text_5">
      <!-- −4 -->
      <defs>
       <path d="M 37.796875 64.3125 
L 12.890625 25.390625 
L 37.796875 25.390625 
z
M 35.203125 72.90625 
L 47.609375 72.90625 
L 47.609375 25.390625 
L 58.015625 25.390625 
L 58.015625 17.1875 
L 47.609375 17.1875 
L 47.609375 0 
L 37.796875 0 
L 37.796875 17.1875 
L 4.890625 17.1875 
L 4.890625 26.703125 
z
" id="DejaVuSans-34"/>
      </defs>
      <g transform="translate(237.852367 322.182437)scale(0.1 -0.1)">
       <use xlink:href="#DejaVuSans-2212"/>
       <use x="83.789062" xlink:href="#DejaVuSans-34"/>
      </g>
     </g>
    </g>
    <g id="xtick_6">
     <g id="line2d_6">
      <g>
       <use style="stroke:#000000;stroke-width:0.8;" x="290.535163" xlink:href="#md460d5efd3" y="307.584"/>
      </g>
     </g>
     <g id="text_6">
      <!-- −3 -->
      <defs>
       <path d="M 40.578125 39.3125 
Q 47.65625 37.796875 51.625 33 
Q 55.609375 28.21875 55.609375 21.1875 
Q 55.609375 10.40625 48.1875 4.484375 
Q 40.765625 -1.421875 27.09375 -1.421875 
Q 22.515625 -1.421875 17.65625 -0.515625 
Q 12.796875 0.390625 7.625 2.203125 
L 7.625 11.71875 
Q 11.71875 9.328125 16.59375 8.109375 
Q 21.484375 6.890625 26.8125 6.890625 
Q 36.078125 6.890625 40.9375 10.546875 
Q 45.796875 14.203125 45.796875 21.1875 
Q 45.796875 27.640625 41.28125 31.265625 
Q 36.765625 34.90625 28.71875 34.90625 
L 20.21875 34.90625 
L 20.21875 43.015625 
L 29.109375 43.015625 
Q 36.375 43.015625 40.234375 45.921875 
Q 44.09375 48.828125 44.09375 54.296875 
Q 44.09375 59.90625 40.109375 62.90625 
Q 36.140625 65.921875 28.71875 65.921875 
Q 24.65625 65.921875 20.015625 65.03125 
Q 15.375 64.15625 9.8125 62.3125 
L 9.8125 71.09375 
Q 15.4375 72.65625 20.34375 73.4375 
Q 25.25 74.21875 29.59375 74.21875 
Q 40.828125 74.21875 47.359375 69.109375 
Q 53.90625 64.015625 53.90625 55.328125 
Q 53.90625 49.265625 50.4375 45.09375 
Q 46.96875 40.921875 40.578125 39.3125 
z
" id="DejaVuSans-33"/>
      </defs>
      <g transform="translate(283.164069 322.182437)scale(0.1 -0.1)">
       <use xlink:href="#DejaVuSans-2212"/>
       <use x="83.789062" xlink:href="#DejaVuSans-33"/>
      </g>
     </g>
    </g>
    <g id="xtick_7">
     <g id="line2d_7">
      <g>
       <use style="stroke:#000000;stroke-width:0.8;" x="335.846865" xlink:href="#md460d5efd3" y="307.584"/>
      </g>
     </g>
     <g id="text_7">
      <!-- −2 -->
      <defs>
       <path d="M 19.1875 8.296875 
L 53.609375 8.296875 
L 53.609375 0 
L 7.328125 0 
L 7.328125 8.296875 
Q 12.9375 14.109375 22.625 23.890625 
Q 32.328125 33.6875 34.8125 36.53125 
Q 39.546875 41.84375 41.421875 45.53125 
Q 43.3125 49.21875 43.3125 52.78125 
Q 43.3125 58.59375 39.234375 62.25 
Q 35.15625 65.921875 28.609375 65.921875 
Q 23.96875 65.921875 18.8125 64.3125 
Q 13.671875 62.703125 7.8125 59.421875 
L 7.8125 69.390625 
Q 13.765625 71.78125 18.9375 73 
Q 24.125 74.21875 28.421875 74.21875 
Q 39.75 74.21875 46.484375 68.546875 
Q 53.21875 62.890625 53.21875 53.421875 
Q 53.21875 48.921875 51.53125 44.890625 
Q 49.859375 40.875 45.40625 35.40625 
Q 44.1875 33.984375 37.640625 27.21875 
Q 31.109375 20.453125 19.1875 8.296875 
z
" id="DejaVuSans-32"/>
      </defs>
      <g transform="translate(328.475771 322.182437)scale(0.1 -0.1)">
       <use xlink:href="#DejaVuSans-2212"/>
       <use x="83.789062" xlink:href="#DejaVuSans-32"/>
      </g>
     </g>
    </g>
    <g id="xtick_8">
     <g id="line2d_8">
      <g>
       <use style="stroke:#000000;stroke-width:0.8;" x="381.158567" xlink:href="#md460d5efd3" y="307.584"/>
      </g>
     </g>
     <g id="text_8">
      <!-- −1 -->
      <defs>
       <path d="M 12.40625 8.296875 
L 28.515625 8.296875 
L 28.515625 63.921875 
L 10.984375 60.40625 
L 10.984375 69.390625 
L 28.421875 72.90625 
L 38.28125 72.90625 
L 38.28125 8.296875 
L 54.390625 8.296875 
L 54.390625 0 
L 12.40625 0 
z
" id="DejaVuSans-31"/>
      </defs>
      <g transform="translate(373.787473 322.182437)scale(0.1 -0.1)">
       <use xlink:href="#DejaVuSans-2212"/>
       <use x="83.789062" xlink:href="#DejaVuSans-31"/>
      </g>
     </g>
    </g>
   </g>
   <g id="matplotlib.axis_2">
    <g id="ytick_1">
     <g id="line2d_9">
      <defs>
       <path d="M 0 0 
L -3.5 0 
" id="m7f5099df73" style="stroke:#000000;stroke-width:0.8;"/>
      </defs>
      <g>
       <use style="stroke:#000000;stroke-width:0.8;" x="57.6" xlink:href="#m7f5099df73" y="295.488011"/>
      </g>
     </g>
     <g id="text_9">
      <!-- 0.0 -->
      <defs>
       <path d="M 31.78125 66.40625 
Q 24.171875 66.40625 20.328125 58.90625 
Q 16.5 51.421875 16.5 36.375 
Q 16.5 21.390625 20.328125 13.890625 
Q 24.171875 6.390625 31.78125 6.390625 
Q 39.453125 6.390625 43.28125 13.890625 
Q 47.125 21.390625 47.125 36.375 
Q 47.125 51.421875 43.28125 58.90625 
Q 39.453125 66.40625 31.78125 66.40625 
z
M 31.78125 74.21875 
Q 44.046875 74.21875 50.515625 64.515625 
Q 56.984375 54.828125 56.984375 36.375 
Q 56.984375 17.96875 50.515625 8.265625 
Q 44.046875 -1.421875 31.78125 -1.421875 
Q 19.53125 -1.421875 13.0625 8.265625 
Q 6.59375 17.96875 6.59375 36.375 
Q 6.59375 54.828125 13.0625 64.515625 
Q 19.53125 74.21875 31.78125 74.21875 
z
" id="DejaVuSans-30"/>
       <path d="M 10.6875 12.40625 
L 21 12.40625 
L 21 0 
L 10.6875 0 
z
" id="DejaVuSans-2e"/>
      </defs>
      <g transform="translate(34.696875 299.28723)scale(0.1 -0.1)">
       <use xlink:href="#DejaVuSans-30"/>
       <use x="63.623047" xlink:href="#DejaVuSans-2e"/>
       <use x="95.410156" xlink:href="#DejaVuSans-30"/>
      </g>
     </g>
    </g>
    <g id="ytick_2">
     <g id="line2d_10">
      <g>
       <use style="stroke:#000000;stroke-width:0.8;" x="57.6" xlink:href="#m7f5099df73" y="240.837588"/>
      </g>
     </g>
     <g id="text_10">
      <!-- 0.2 -->
      <g transform="translate(34.696875 244.636807)scale(0.1 -0.1)">
       <use xlink:href="#DejaVuSans-30"/>
       <use x="63.623047" xlink:href="#DejaVuSans-2e"/>
       <use x="95.410156" xlink:href="#DejaVuSans-32"/>
      </g>
     </g>
    </g>
    <g id="ytick_3">
     <g id="line2d_11">
      <g>
       <use style="stroke:#000000;stroke-width:0.8;" x="57.6" xlink:href="#m7f5099df73" y="186.187165"/>
      </g>
     </g>
     <g id="text_11">
      <!-- 0.4 -->
      <g transform="translate(34.696875 189.986384)scale(0.1 -0.1)">
       <use xlink:href="#DejaVuSans-30"/>
       <use x="63.623047" xlink:href="#DejaVuSans-2e"/>
       <use x="95.410156" xlink:href="#DejaVuSans-34"/>
      </g>
     </g>
    </g>
    <g id="ytick_4">
     <g id="line2d_12">
      <g>
       <use style="stroke:#000000;stroke-width:0.8;" x="57.6" xlink:href="#m7f5099df73" y="131.536742"/>
      </g>
     </g>
     <g id="text_12">
      <!-- 0.6 -->
      <g transform="translate(34.696875 135.335961)scale(0.1 -0.1)">
       <use xlink:href="#DejaVuSans-30"/>
       <use x="63.623047" xlink:href="#DejaVuSans-2e"/>
       <use x="95.410156" xlink:href="#DejaVuSans-36"/>
      </g>
     </g>
    </g>
    <g id="ytick_5">
     <g id="line2d_13">
      <g>
       <use style="stroke:#000000;stroke-width:0.8;" x="57.6" xlink:href="#m7f5099df73" y="76.88632"/>
      </g>
     </g>
     <g id="text_13">
      <!-- 0.8 -->
      <g transform="translate(34.696875 80.685538)scale(0.1 -0.1)">
       <use xlink:href="#DejaVuSans-30"/>
       <use x="63.623047" xlink:href="#DejaVuSans-2e"/>
       <use x="95.410156" xlink:href="#DejaVuSans-38"/>
      </g>
     </g>
    </g>
   </g>
   <g id="line2d_14">
    <path clip-path="url(#peca55b777a)" d="M 73.832727 292.181006 
L 103.405864 291.325158 
L 113.480229 291.326106 
L 129.729206 291.369264 
L 135.903817 291.118869 
L 141.428468 290.663805 
L 146.628141 290.017422 
L 152.152793 289.10721 
L 157.677445 287.974312 
L 162.552138 286.753468 
L 166.451892 285.552098 
L 169.701687 284.314589 
L 172.301523 283.103382 
L 174.57638 281.830294 
L 176.851237 280.307692 
L 178.801114 278.763365 
L 180.750991 276.960101 
L 182.700868 274.860653 
L 184.650745 272.427934 
L 186.600622 269.626463 
L 188.5505 266.423985 
L 190.500377 262.793212 
L 192.450254 258.7136 
L 194.725111 253.371216 
L 196.999967 247.400239 
L 199.274824 240.820416 
L 201.87466 232.61137 
L 204.799476 222.622873 
L 208.69923 208.416831 
L 217.798657 174.867514 
L 220.723473 165.13549 
L 222.998329 158.257945 
L 225.273186 152.115742 
L 227.223063 147.512004 
L 228.847961 144.181188 
L 230.472858 141.33549 
L 232.097756 138.99329 
L 233.397674 137.491183 
L 234.697592 136.324593 
L 235.99751 135.496323 
L 236.972449 135.097859 
L 237.947387 134.890205 
L 238.922326 134.872738 
L 239.897265 135.04438 
L 240.872203 135.403612 
L 242.172121 136.170992 
L 243.472039 137.262681 
L 244.771957 138.671751 
L 246.071876 140.390078 
L 247.696773 142.958584 
L 249.321671 145.974882 
L 251.271548 150.151935 
L 253.221425 154.892911 
L 255.496282 161.066044 
L 258.096118 168.851339 
L 261.020934 178.351849 
L 264.920688 191.827968 
L 274.020115 223.616489 
L 277.26991 234.048683 
L 280.194726 242.680307 
L 282.794562 249.652835 
L 285.069419 255.174259 
L 287.344275 260.142384 
L 289.619132 264.562357 
L 291.893989 268.453299 
L 294.168845 271.845513 
L 296.118722 274.385207 
L 298.393579 276.95745 
L 300.668436 279.152942 
L 302.943292 281.018438 
L 305.218149 282.599382 
L 307.817985 284.112381 
L 310.417821 285.367233 
L 313.342637 286.533156 
L 316.592432 287.594087 
L 320.492187 288.631417 
L 325.36688 289.68852 
L 331.86647 290.8579 
L 340.640917 292.199826 
L 349.090385 293.273134 
L 356.239934 293.964316 
L 363.389484 294.425871 
L 370.539034 294.66289 
L 377.688583 294.678708 
L 383.863194 294.479492 
L 389.387846 294.077273 
L 394.262539 293.503933 
L 398.487273 292.828905 
L 398.487273 292.828905 
" style="fill:none;stroke:#1f77b4;stroke-linecap:square;stroke-width:1.5;"/>
   </g>
   <g id="line2d_15">
    <path clip-path="url(#peca55b777a)" d="M 73.832727 292.376181 
L 85.207011 291.945651 
L 93.331499 291.845964 
L 100.806028 291.980294 
L 108.930516 292.364292 
L 123.879574 293.135107 
L 129.404226 293.153786 
L 134.278919 292.942021 
L 138.828632 292.525875 
L 143.703325 291.855557 
L 149.552957 290.813237 
L 159.627322 288.744097 
L 167.42683 286.984464 
L 171.326585 285.877259 
L 174.2514 284.813155 
L 176.526257 283.771906 
L 178.801114 282.477021 
L 180.750991 281.112354 
L 182.700868 279.461778 
L 184.650745 277.474498 
L 186.275643 275.523848 
L 187.900541 273.273866 
L 189.525438 270.696493 
L 191.475315 267.135841 
L 193.425192 263.030532 
L 195.37507 258.354709 
L 197.324947 253.096313 
L 199.599803 246.232042 
L 201.87466 238.620344 
L 204.474496 229.104093 
L 207.724292 216.238505 
L 212.923964 194.503193 
L 217.473677 175.834007 
L 220.398493 164.717837 
L 222.998329 155.730155 
L 225.273186 148.696026 
L 227.223063 143.349296 
L 229.17294 138.670189 
L 230.797838 135.297941 
L 232.422735 132.414317 
L 234.047633 130.025362 
L 235.347551 128.473549 
L 236.647469 127.24367 
L 237.947387 126.3383 
L 239.247305 125.76048 
L 240.222244 125.544218 
L 241.197183 125.515946 
L 242.172121 125.677536 
L 243.14706 126.030953 
L 244.121998 126.578192 
L 245.421916 127.612669 
L 246.721835 128.999239 
L 248.021753 130.741026 
L 249.321671 132.839668 
L 250.946568 135.963998 
L 252.571466 139.63878 
L 254.196364 143.850156 
L 256.146241 149.579899 
L 258.096118 155.993196 
L 260.370975 164.23703 
L 263.29579 175.802633 
L 267.195545 192.274903 
L 273.695135 219.796113 
L 276.619951 231.223769 
L 279.219787 240.526749 
L 281.494644 247.896153 
L 283.7695 254.495655 
L 285.719378 259.530072 
L 287.669255 264.000992 
L 289.619132 267.933172 
L 291.569009 271.361867 
L 293.518886 274.329557 
L 295.468763 276.882847 
L 297.41864 279.06973 
L 299.368518 280.937318 
L 301.318395 282.530116 
L 303.593251 284.095143 
L 305.868108 285.398271 
L 308.467944 286.628234 
L 311.39276 287.750199 
L 314.642555 288.746197 
L 318.21733 289.611703 
L 322.442064 290.40667 
L 327.641736 291.151639 
L 334.791286 291.930537 
L 346.815528 292.985328 
L 358.189812 293.787242 
L 367.939197 294.247952 
L 378.013563 294.511106 
L 384.838133 294.493807 
L 389.712826 294.27735 
L 393.937559 293.873071 
L 397.837314 293.273699 
L 398.487273 293.150892 
L 398.487273 293.150892 
" style="fill:none;stroke:#ff7f0e;stroke-linecap:square;stroke-width:1.5;"/>
   </g>
   <g id="line2d_16">
    <path clip-path="url(#peca55b777a)" d="M 73.832727 293.987958 
L 98.856151 294.347244 
L 138.828632 293.63885 
L 145.003243 293.223451 
L 151.177854 292.585227 
L 169.051728 290.558371 
L 180.750991 289.646141 
L 183.350827 289.123906 
L 185.300704 288.523227 
L 186.925602 287.831318 
L 188.5505 286.91275 
L 190.175397 285.707687 
L 191.475315 284.490502 
L 192.775233 283.004653 
L 194.075152 281.20616 
L 195.37507 279.048654 
L 196.674988 276.484894 
L 197.974906 273.468745 
L 199.274824 269.957574 
L 200.899722 264.817813 
L 202.524619 258.797887 
L 204.149517 251.877963 
L 206.099394 242.414361 
L 208.049271 231.795394 
L 210.649107 216.201719 
L 215.198821 187.027116 
L 218.448616 166.815129 
L 220.723473 153.86013 
L 222.998329 142.231891 
L 224.948206 133.398122 
L 226.898084 125.570009 
L 228.847961 118.634571 
L 230.797838 112.440295 
L 233.072695 105.946404 
L 235.347551 100.066438 
L 237.622408 94.726894 
L 239.572285 90.628905 
L 241.197183 87.645474 
L 242.497101 85.619772 
L 243.797019 83.990205 
L 244.771957 83.07477 
L 245.746896 82.460856 
L 246.721835 82.183958 
L 247.371794 82.20403 
L 248.021753 82.399757 
L 248.671712 82.780965 
L 249.321671 83.356998 
L 250.296609 84.605255 
L 251.271548 86.33762 
L 252.246486 88.575765 
L 253.221425 91.335914 
L 254.521343 95.844442 
L 255.821261 101.302432 
L 257.121179 107.69053 
L 258.746077 116.913677 
L 260.370975 127.377627 
L 262.320852 141.289453 
L 265.245667 164.002313 
L 270.770319 207.389397 
L 273.045176 223.407386 
L 274.995053 235.649634 
L 276.619951 244.661064 
L 278.244848 252.545876 
L 279.869746 259.316717 
L 281.494644 265.029122 
L 282.794562 268.895279 
L 284.09448 272.1953 
L 285.394398 274.989768 
L 286.694316 277.341289 
L 287.994234 279.311768 
L 289.619132 281.328522 
L 291.244029 282.946842 
L 292.868927 284.257815 
L 294.818804 285.530923 
L 297.093661 286.728605 
L 300.018477 287.981174 
L 303.593251 289.251093 
L 307.817985 290.501687 
L 311.71774 291.428281 
L 315.617494 292.117772 
L 319.517248 292.573069 
L 324.066962 292.864017 
L 331.86647 293.081294 
L 339.665979 293.391182 
L 347.465487 293.948461 
L 358.514791 294.72854 
L 365.98932 294.997977 
L 385.163112 295.32748 
L 393.937559 295.341554 
L 398.487273 295.170219 
L 398.487273 295.170219 
" style="fill:none;stroke:#2ca02c;stroke-linecap:square;stroke-width:1.5;"/>
   </g>
   <g id="line2d_17">
    <path clip-path="url(#peca55b777a)" d="M 73.832727 294.403853 
L 82.607174 294.531092 
L 96.256314 294.615379 
L 105.680721 294.502467 
L 111.205373 294.736175 
L 118.679902 295.061271 
L 123.554595 295.019543 
L 130.379165 294.699788 
L 142.078428 293.911397 
L 155.402588 292.851057 
L 160.277281 292.138333 
L 166.126912 291.296664 
L 169.376708 291.066183 
L 173.601441 291.019396 
L 178.476134 290.919891 
L 181.40095 290.640505 
L 184.650745 290.090963 
L 187.900541 289.320205 
L 190.825356 288.422004 
L 192.775233 287.636348 
L 194.400131 286.768132 
L 195.700049 285.847916 
L 196.999967 284.631007 
L 197.974906 283.454048 
L 198.949844 281.984718 
L 199.924783 280.154382 
L 200.899722 277.886912 
L 201.87466 275.100742 
L 202.849599 271.711904 
L 203.824537 267.638094 
L 205.124455 261.011752 
L 206.424373 252.892313 
L 207.724292 243.202162 
L 209.02421 231.952384 
L 210.649107 215.888025 
L 212.923964 190.601871 
L 217.473677 138.903179 
L 219.098575 123.216315 
L 220.398493 112.57217 
L 221.698411 103.841929 
L 222.67335 98.586816 
L 223.648288 94.411257 
L 224.623227 91.247784 
L 225.598165 88.997797 
L 226.248124 87.946196 
L 226.898084 87.207663 
L 227.548043 86.741478 
L 228.198002 86.506821 
L 228.847961 86.463891 
L 229.822899 86.677038 
L 231.122817 87.305049 
L 233.397674 88.783432 
L 236.32249 90.616041 
L 241.847142 93.92923 
L 245.421916 96.238864 
L 246.721835 96.856287 
L 248.021753 97.243831 
L 249.321671 97.386873 
L 251.271548 97.30289 
L 252.571466 97.309847 
L 253.546405 97.546595 
L 254.196364 97.89688 
L 254.846323 98.457048 
L 255.496282 99.276298 
L 256.146241 100.403182 
L 256.7962 101.883899 
L 257.771138 104.859086 
L 258.746077 108.840547 
L 259.721016 113.905483 
L 260.695954 120.083517 
L 261.995872 130.005812 
L 263.29579 141.663068 
L 265.245667 161.613984 
L 270.770319 220.646479 
L 272.395217 235.086953 
L 273.695135 245.01037 
L 274.995053 253.420245 
L 276.294971 260.362798 
L 277.594889 265.959987 
L 278.894808 270.382802 
L 280.194726 273.825622 
L 281.494644 276.484495 
L 282.794562 278.54094 
L 284.09448 280.151716 
L 285.394398 281.444091 
L 287.019296 282.75771 
L 288.969173 284.058656 
L 291.569009 285.531507 
L 295.143784 287.291194 
L 299.693497 289.276106 
L 304.56819 291.181484 
L 308.142965 292.373519 
L 311.39276 293.225015 
L 314.317576 293.768029 
L 317.242391 294.100327 
L 320.492187 294.250695 
L 324.391941 294.191497 
L 329.916593 293.844515 
L 336.091204 293.505381 
L 339.990958 293.528343 
L 344.215692 293.786054 
L 361.114627 295.097179 
L 366.964259 295.114133 
L 375.738706 295.141619 
L 395.237477 295.480749 
L 398.487273 295.472827 
L 398.487273 295.472827 
" style="fill:none;stroke:#d62728;stroke-linecap:square;stroke-width:1.5;"/>
   </g>
   <g id="line2d_18">
    <path clip-path="url(#peca55b777a)" d="M 73.832727 294.78965 
L 79.0324 294.98165 
L 87.481867 295.001143 
L 97.556233 294.851597 
L 103.405864 294.857036 
L 110.230434 295.127591 
L 116.730025 295.314682 
L 122.579656 295.232333 
L 140.45353 294.611958 
L 147.2781 294.214869 
L 159.627322 293.782009 
L 164.826994 293.072876 
L 168.726749 292.657075 
L 172.626503 292.503226 
L 177.501196 292.294854 
L 180.426011 291.93094 
L 183.675807 291.296636 
L 188.875479 290.02292 
L 193.100213 288.827682 
L 195.05009 288.091563 
L 196.674988 287.23778 
L 197.974906 286.275765 
L 198.949844 285.30853 
L 199.924783 284.052955 
L 200.899722 282.423819 
L 201.87466 280.322383 
L 202.849599 277.638447 
L 203.824537 274.254169 
L 204.799476 270.049798 
L 205.774414 264.911291 
L 206.749353 258.739526 
L 208.049271 248.780378 
L 209.349189 236.784859 
L 210.649107 222.83181 
L 212.274005 203.043238 
L 215.198821 163.809563 
L 217.473677 134.223001 
L 219.098575 115.851205 
L 220.398493 103.592892 
L 221.373432 96.012968 
L 222.34837 89.854156 
L 223.323309 85.075816 
L 224.298247 81.577028 
L 224.948206 79.883531 
L 225.598165 78.640747 
L 226.248124 77.791826 
L 226.898084 77.277864 
L 227.548043 77.039949 
L 228.198002 77.021043 
L 229.17294 77.287506 
L 230.472858 77.953172 
L 233.397674 79.548669 
L 235.022572 80.161182 
L 238.272367 81.26449 
L 239.572285 81.9969 
L 240.872203 83.049734 
L 242.172121 84.450224 
L 243.797019 86.600455 
L 246.721835 90.640766 
L 248.021753 91.994299 
L 248.996691 92.67612 
L 249.97163 93.041819 
L 250.946568 93.115485 
L 252.246486 92.904432 
L 253.546405 92.662831 
L 254.196364 92.679658 
L 254.846323 92.881955 
L 255.496282 93.34481 
L 256.146241 94.143811 
L 256.7962 95.352035 
L 257.446159 97.037022 
L 258.096118 99.257869 
L 259.071057 103.695314 
L 260.045995 109.547369 
L 261.020934 116.839268 
L 262.320852 128.688798 
L 263.62077 142.626886 
L 265.570647 166.17368 
L 269.470401 213.953254 
L 271.095299 230.937324 
L 272.395217 242.526106 
L 273.695135 252.218923 
L 274.995053 260.069315 
L 275.969992 264.845988 
L 276.94493 268.77844 
L 277.919869 271.97832 
L 278.894808 274.561097 
L 279.869746 276.638966 
L 281.169664 278.801476 
L 282.469582 280.460597 
L 283.7695 281.783135 
L 285.394398 283.145129 
L 287.669255 284.760092 
L 290.59407 286.575121 
L 293.518886 288.152307 
L 296.443702 289.488638 
L 300.018477 290.871625 
L 304.89317 292.511952 
L 308.467944 293.511773 
L 311.39276 294.115215 
L 314.317576 294.490529 
L 317.567371 294.667381 
L 321.792105 294.644333 
L 329.591613 294.316442 
L 336.416183 294.096595 
L 340.640917 294.179529 
L 345.190631 294.49556 
L 354.940016 295.246344 
L 359.16475 295.306173 
L 363.714464 295.150036 
L 372.81389 294.752616 
L 377.038624 294.880683 
L 388.087928 295.376958 
L 393.937559 295.303867 
L 398.487273 295.16921 
L 398.487273 295.16921 
" style="fill:none;stroke:#9467bd;stroke-linecap:square;stroke-width:1.5;"/>
   </g>
   <g id="line2d_19">
    <path clip-path="url(#peca55b777a)" d="M 73.832727 294.792604 
L 79.0324 294.987863 
L 87.481867 295.009543 
L 97.881212 294.859743 
L 103.730844 294.878849 
L 111.205373 295.175021 
L 117.379984 295.317118 
L 123.554595 295.208983 
L 140.45353 294.622227 
L 149.552957 294.069257 
L 155.077609 293.721567 
L 158.977363 293.245224 
L 165.476953 292.400954 
L 168.401769 292.287749 
L 171.976544 292.414452 
L 176.526257 292.587338 
L 179.126093 292.461107 
L 181.72593 292.10647 
L 184.650745 291.478711 
L 189.200459 290.245777 
L 193.425192 288.913272 
L 195.37507 288.088794 
L 196.674988 287.349356 
L 197.974906 286.350948 
L 198.949844 285.354095 
L 199.924783 284.066893 
L 200.899722 282.404646 
L 201.87466 280.26972 
L 202.849599 277.553614 
L 203.824537 274.140695 
L 204.799476 269.913736 
L 205.774414 264.761222 
L 206.749353 258.586172 
L 208.049271 248.641341 
L 209.349189 236.680433 
L 210.649107 222.775543 
L 212.274005 203.045268 
L 214.873841 168.218376 
L 217.473677 133.929652 
L 219.098575 115.183045 
L 220.398493 102.51963 
L 221.698411 92.250223 
L 222.67335 86.168331 
L 223.648288 81.428822 
L 224.623227 77.929149 
L 225.273186 76.214276 
L 225.923145 74.935562 
L 226.573104 74.038682 
L 227.223063 73.46775 
L 227.873022 73.167211 
L 228.522981 73.083538 
L 229.49792 73.256487 
L 230.797838 73.821167 
L 235.347551 76.109313 
L 237.947387 77.302658 
L 239.247305 78.135179 
L 240.547224 79.256156 
L 241.847142 80.71088 
L 243.472039 82.958315 
L 248.021753 89.711776 
L 249.321671 91.0801 
L 250.621589 92.073289 
L 253.871384 94.147026 
L 254.521343 94.858498 
L 255.171302 95.810287 
L 255.821261 97.068213 
L 256.47122 98.696152 
L 257.446159 101.959444 
L 258.421097 106.353387 
L 259.396036 111.990544 
L 260.370975 118.916562 
L 261.670893 130.096654 
L 262.970811 143.240471 
L 264.920688 165.571128 
L 269.145422 215.284907 
L 270.770319 231.618597 
L 272.070238 242.81284 
L 273.370156 252.223545 
L 274.670074 259.891166 
L 275.969992 265.96286 
L 276.94493 269.597477 
L 277.919869 272.559217 
L 278.894808 274.954733 
L 279.869746 276.887099 
L 281.169664 278.905846 
L 282.469582 280.463043 
L 284.09448 281.991276 
L 286.044357 283.481341 
L 288.969173 285.405792 
L 292.543948 287.494492 
L 295.793743 289.123739 
L 299.043538 290.496935 
L 303.268272 292.018968 
L 307.168026 293.203274 
L 310.417821 293.955745 
L 313.342637 294.400737 
L 316.592432 294.645544 
L 320.492187 294.683785 
L 326.666798 294.473886 
L 336.741163 294.12511 
L 340.965897 294.223212 
L 345.84059 294.571867 
L 354.290057 295.21961 
L 358.839771 295.30814 
L 363.389484 295.170697 
L 373.13887 294.772869 
L 377.363604 294.91163 
L 387.762948 295.373222 
L 393.61258 295.314647 
L 398.487273 295.17613 
L 398.487273 295.17613 
" style="fill:none;stroke:#8c564b;stroke-linecap:square;stroke-width:1.5;"/>
   </g>
   <g id="line2d_20">
    <path clip-path="url(#peca55b777a)" d="M 73.832727 294.809774 
L 79.0324 294.996143 
L 87.806847 295.014146 
L 98.206192 294.860869 
L 104.055823 294.891656 
L 113.480229 295.261104 
L 119.004881 295.312766 
L 127.779328 295.098839 
L 138.828632 294.74459 
L 158.327404 293.364212 
L 166.126912 292.381594 
L 169.051728 292.318694 
L 173.276462 292.508302 
L 176.526257 292.581768 
L 179.126093 292.412935 
L 181.72593 291.993843 
L 184.650745 291.279972 
L 191.475315 289.283746 
L 194.725111 288.196244 
L 196.350008 287.43343 
L 197.649926 286.584618 
L 198.624865 285.730693 
L 199.599803 284.617108 
L 200.574742 283.162958 
L 201.549681 281.273737 
L 202.524619 278.842756 
L 203.499558 275.754159 
L 204.474496 271.887764 
L 205.449435 267.125776 
L 206.424373 261.361239 
L 207.399312 254.507787 
L 208.69923 243.585904 
L 209.999148 230.62019 
L 211.624046 211.781689 
L 213.573923 186.272117 
L 217.798657 129.613108 
L 219.423554 111.19263 
L 220.723473 98.933784 
L 221.698411 91.361194 
L 222.67335 85.20804 
L 223.648288 80.429183 
L 224.623227 76.922532 
L 225.273186 75.220664 
L 225.923145 73.968561 
L 226.573104 73.111262 
L 227.223063 72.592101 
L 227.873022 72.354615 
L 228.522981 72.344249 
L 229.49792 72.643851 
L 230.797838 73.401665 
L 235.347551 76.408722 
L 238.597346 78.310246 
L 239.897265 79.324135 
L 241.197183 80.606829 
L 242.497101 82.175752 
L 244.446978 84.934727 
L 247.046814 88.637042 
L 248.346732 90.127366 
L 249.64665 91.235394 
L 250.946568 91.988671 
L 253.546405 93.287362 
L 254.196364 93.844188 
L 254.846323 94.615818 
L 255.496282 95.669105 
L 256.146241 97.070236 
L 256.7962 98.881972 
L 257.771138 102.490947 
L 258.746077 107.300845 
L 259.721016 113.403147 
L 260.695954 120.817867 
L 261.995872 132.637789 
L 263.62077 150.013509 
L 266.220606 181.203772 
L 268.820442 211.915424 
L 270.44534 228.820105 
L 271.745258 240.497094 
L 273.045176 250.374671 
L 274.345094 258.466461 
L 275.645012 264.902674 
L 276.619951 268.766665 
L 277.594889 271.919569 
L 278.569828 274.469756 
L 279.544767 276.523436 
L 280.519705 278.179689 
L 281.819623 279.921102 
L 283.119541 281.287054 
L 284.744439 282.666253 
L 287.019296 284.278142 
L 290.59407 286.495768 
L 293.843866 288.268677 
L 297.093661 289.771524 
L 300.668436 291.163628 
L 304.89317 292.579631 
L 308.467944 293.563653 
L 311.39276 294.152671 
L 314.317576 294.518115 
L 317.567371 294.690468 
L 321.792105 294.668707 
L 329.591613 294.350955 
L 336.416183 294.138144 
L 340.640917 294.21871 
L 345.51561 294.552829 
L 354.615037 295.239915 
L 359.16475 295.310839 
L 364.039443 295.142392 
L 372.488911 294.775266 
L 376.713645 294.882601 
L 388.737887 295.382854 
L 394.912498 295.281845 
L 398.487273 295.178537 
L 398.487273 295.178537 
" style="fill:none;stroke:#e377c2;stroke-linecap:square;stroke-width:1.5;"/>
   </g>
   <g id="line2d_21">
    <path clip-path="url(#peca55b777a)" d="M 73.832727 295.413185 
L 79.682359 295.278037 
L 85.85697 295.188075 
L 121.604717 295.384462 
L 131.354103 295.213738 
L 139.803571 295.272653 
L 145.328223 294.958762 
L 150.852875 294.730485 
L 157.027486 294.480466 
L 168.401769 293.699348 
L 177.501196 293.679961 
L 181.075971 293.255095 
L 187.575561 292.455006 
L 191.475315 291.942417 
L 194.400131 291.316054 
L 198.299885 290.213119 
L 200.574742 289.403463 
L 201.87466 288.692712 
L 202.849599 287.886201 
L 203.824537 286.692709 
L 204.474496 285.594126 
L 205.124455 284.180151 
L 205.774414 282.380268 
L 206.424373 280.118474 
L 207.399312 275.685826 
L 208.374251 269.768683 
L 209.349189 262.126387 
L 210.324128 252.577848 
L 211.299066 241.037433 
L 212.598984 222.645971 
L 214.223882 195.641057 
L 219.098575 110.626437 
L 220.398493 93.290755 
L 221.373432 82.778453 
L 222.34837 74.422968 
L 223.323309 68.08008 
L 224.298247 63.494858 
L 224.948206 61.258844 
L 225.598165 59.56364 
L 226.248124 58.312323 
L 226.898084 57.415 
L 227.548043 56.791959 
L 228.522981 56.227122 
L 229.49792 55.954878 
L 230.797838 55.853153 
L 232.422735 55.953445 
L 234.372613 56.28243 
L 236.32249 56.848419 
L 237.622408 57.45062 
L 238.597346 58.115629 
L 239.572285 59.06287 
L 240.547224 60.399221 
L 241.522162 62.228142 
L 242.497101 64.622712 
L 243.472039 67.595241 
L 244.771957 72.312739 
L 247.371794 82.250878 
L 248.346732 85.091329 
L 248.996691 86.419092 
L 249.64665 87.192028 
L 249.97163 87.351057 
L 250.296609 87.352171 
L 250.621589 87.193531 
L 250.946568 86.875786 
L 251.596527 85.778681 
L 252.246486 84.119241 
L 253.221425 80.808718 
L 255.496282 72.23775 
L 256.146241 70.534086 
L 256.7962 69.581115 
L 257.121179 69.453451 
L 257.446159 69.591191 
L 257.771138 70.016469 
L 258.096118 70.749036 
L 258.746077 73.20147 
L 259.396036 77.049016 
L 260.045995 82.339917 
L 261.020934 92.951569 
L 261.995872 106.525972 
L 263.29579 128.330332 
L 265.570647 171.687953 
L 267.520524 207.553799 
L 268.820442 228.109426 
L 270.12036 245.037516 
L 271.095299 255.237413 
L 272.070238 263.402269 
L 273.045176 269.739149 
L 274.020115 274.513886 
L 274.995053 278.013607 
L 275.969992 280.517929 
L 276.94493 282.279811 
L 277.919869 283.515106 
L 278.894808 284.398867 
L 280.194726 285.258517 
L 282.794562 286.602132 
L 290.269091 290.288287 
L 292.543948 291.038328 
L 295.143784 291.643915 
L 299.693497 292.407305 
L 308.142965 293.632623 
L 315.942473 294.405211 
L 321.467125 294.79763 
L 327.316757 294.968467 
L 333.166388 294.946929 
L 343.240753 294.784207 
L 356.889894 295.16153 
L 367.289238 295.087021 
L 373.13887 294.906502 
L 377.038624 295.072283 
L 384.188174 295.431653 
L 391.662703 295.486997 
L 398.487273 295.488 
L 398.487273 295.488 
" style="fill:none;stroke:#7f7f7f;stroke-linecap:square;stroke-width:1.5;"/>
   </g>
   <g id="line2d_22">
    <path clip-path="url(#peca55b777a)" d="M 73.832727 295.231737 
L 79.682359 295.129094 
L 88.456806 294.998133 
L 100.156069 295.090426 
L 115.105127 295.420188 
L 122.254676 295.247149 
L 130.054185 295.088428 
L 143.703325 295.062536 
L 148.902998 294.665894 
L 154.752629 294.000852 
L 165.801933 292.642853 
L 169.701687 292.514799 
L 176.851237 292.359184 
L 180.101032 292.015055 
L 184.650745 291.275557 
L 192.450254 289.805523 
L 194.725111 289.158118 
L 196.350008 288.489488 
L 197.649926 287.74042 
L 198.949844 286.697843 
L 199.924783 285.64372 
L 200.899722 284.276885 
L 201.87466 282.510984 
L 202.849599 280.247182 
L 203.824537 277.37706 
L 204.799476 273.78734 
L 205.774414 269.366382 
L 206.749353 264.012209 
L 207.724292 257.641537 
L 209.02421 247.475639 
L 210.324128 235.381985 
L 211.949025 217.744486 
L 213.898903 193.667664 
L 219.423554 122.771333 
L 221.048452 105.436647 
L 222.34837 93.606199 
L 223.648288 83.702325 
L 224.948206 75.692311 
L 225.923145 70.850235 
L 226.898084 66.918083 
L 227.873022 63.8024 
L 228.847961 61.405766 
L 229.822899 59.633243 
L 230.797838 58.397328 
L 231.772776 57.621411 
L 232.747715 57.241871 
L 233.722654 57.208984 
L 234.697592 57.486752 
L 235.672531 58.051737 
L 236.647469 58.890892 
L 237.622408 59.998425 
L 238.922326 61.888031 
L 240.222244 64.237448 
L 241.847142 67.759402 
L 243.797019 72.605409 
L 247.046814 80.773942 
L 248.671712 84.166506 
L 249.97163 86.367174 
L 251.596527 88.594362 
L 253.546405 91.175516 
L 254.521343 92.840112 
L 255.496282 95.042997 
L 256.47122 98.008077 
L 257.446159 101.940529 
L 258.421097 107.006401 
L 259.396036 113.314865 
L 260.370975 120.905149 
L 261.670893 132.943411 
L 263.29579 150.61526 
L 265.570647 178.336583 
L 268.495463 213.766107 
L 270.12036 231.006851 
L 271.420278 242.863627 
L 272.720197 252.821511 
L 274.020115 260.889432 
L 274.995053 265.779907 
L 275.969992 269.776964 
L 276.94493 272.991854 
L 277.919869 275.544189 
L 278.894808 277.55373 
L 279.869746 279.13382 
L 281.169664 280.747138 
L 282.469582 281.979146 
L 284.09448 283.210933 
L 287.019296 285.079368 
L 291.244029 287.522152 
L 294.168845 288.975383 
L 297.093661 290.176475 
L 300.668436 291.394049 
L 305.868108 292.91763 
L 309.442883 293.765209 
L 312.692678 294.299 
L 315.942473 294.585493 
L 319.842228 294.682797 
L 328.291695 294.587567 
L 343.240753 294.420778 
L 348.115446 294.764379 
L 354.940016 295.23588 
L 359.16475 295.296095 
L 363.714464 295.128135 
L 372.81389 294.700969 
L 376.713645 294.820906 
L 389.712826 295.447191 
L 398.487273 295.484044 
L 398.487273 295.484044 
" style="fill:none;stroke:#bcbd22;stroke-linecap:square;stroke-width:1.5;"/>
   </g>
   <g id="line2d_23">
    <path clip-path="url(#peca55b777a)" d="M 73.832727 295.295395 
L 79.357379 295.16882 
L 86.506929 295.034602 
L 101.455987 295.147529 
L 112.83027 295.453009 
L 119.65484 295.361399 
L 131.354103 295.10617 
L 142.078428 295.214795 
L 146.95312 294.924071 
L 153.452711 294.294595 
L 158.002424 293.649199 
L 165.801933 292.468174 
L 168.726749 292.332531 
L 172.301523 292.437318 
L 176.526257 292.550995 
L 179.126093 292.4096 
L 182.375889 291.990586 
L 194.400131 290.00292 
L 196.674988 289.332551 
L 198.299885 288.612056 
L 199.599803 287.774282 
L 200.574742 286.906999 
L 201.549681 285.746678 
L 202.524619 284.191037 
L 203.499558 282.117196 
L 204.474496 279.384948 
L 205.449435 275.843084 
L 206.424373 271.338895 
L 207.399312 265.730513 
L 208.374251 258.901269 
L 209.674169 247.772001 
L 210.974087 234.316924 
L 212.598984 214.53354 
L 214.548862 187.637324 
L 218.448616 132.658613 
L 220.073514 112.931783 
L 221.373432 99.458891 
L 222.67335 88.207202 
L 223.973268 79.117227 
L 224.948206 73.596935 
L 225.923145 69.055806 
L 226.898084 65.361436 
L 227.873022 62.383155 
L 228.847961 60.001274 
L 229.822899 58.112731 
L 230.797838 56.633624 
L 231.772776 55.499538 
L 232.747715 54.664659 
L 233.722654 54.100477 
L 234.697592 53.794532 
L 235.672531 53.749179 
L 236.647469 53.979993 
L 237.622408 54.513172 
L 238.597346 55.381321 
L 239.572285 56.617289 
L 240.547224 58.246175 
L 241.522162 60.276246 
L 242.82208 63.572342 
L 244.446978 68.433109 
L 247.696773 78.516471 
L 248.996691 81.730819 
L 249.97163 83.588924 
L 250.946568 84.948837 
L 251.921507 85.87431 
L 253.221425 86.702607 
L 254.196364 87.333186 
L 254.846323 87.927124 
L 255.496282 88.777341 
L 256.146241 89.986903 
L 256.7962 91.655866 
L 257.446159 93.876518 
L 258.096118 96.728833 
L 259.071057 102.325401 
L 260.045995 109.610017 
L 261.020934 118.594954 
L 262.320852 133.015328 
L 263.945749 154.117994 
L 269.145422 225.015676 
L 270.44534 239.233726 
L 271.745258 251.104543 
L 273.045176 260.587773 
L 274.020115 266.222325 
L 274.995053 270.718529 
L 275.969992 274.222066 
L 276.94493 276.891162 
L 277.919869 278.884711 
L 278.894808 280.353144 
L 279.869746 281.432026 
L 281.169664 282.463487 
L 282.794562 283.396261 
L 288.319214 286.294163 
L 294.818804 290.030909 
L 297.41864 291.201849 
L 300.343456 292.261513 
L 303.593251 293.202702 
L 307.168026 293.99857 
L 310.417821 294.488097 
L 313.667617 294.751342 
L 317.567371 294.828214 
L 342.265815 294.807761 
L 348.440426 295.049563 
L 356.564914 295.373022 
L 361.114627 295.321956 
L 365.98932 295.033403 
L 371.838952 294.701612 
L 375.088747 294.749524 
L 380.288419 295.102243 
L 385.813071 295.395718 
L 392.312662 295.481549 
L 398.487273 295.487334 
L 398.487273 295.487334 
" style="fill:none;stroke:#17becf;stroke-linecap:square;stroke-width:1.5;"/>
   </g>
   <g id="line2d_24">
    <path clip-path="url(#peca55b777a)" d="M 73.832727 295.3009 
L 79.357379 295.172847 
L 86.506929 295.039552 
L 101.455987 295.150863 
L 112.83027 295.454779 
L 119.65484 295.36433 
L 131.354103 295.109016 
L 142.078428 295.221653 
L 146.95312 294.933114 
L 153.452711 294.312784 
L 158.002424 293.675456 
L 165.801933 292.49955 
L 168.726749 292.366143 
L 172.301523 292.476689 
L 176.526257 292.596953 
L 179.126093 292.455754 
L 182.375889 292.029693 
L 191.800295 290.404058 
L 194.725111 289.710097 
L 196.999967 288.947302 
L 198.624865 288.168149 
L 199.924783 287.281725 
L 200.899722 286.369872 
L 201.87466 285.150543 
L 202.849599 283.513309 
L 203.824537 281.326671 
L 204.799476 278.442374 
L 205.774414 274.702966 
L 206.749353 269.95259 
L 207.724292 264.050519 
L 208.69923 256.88642 
L 209.999148 245.268114 
L 211.299066 231.315609 
L 212.923964 210.9832 
L 215.198821 178.978 
L 218.448616 133.329217 
L 220.073514 113.61798 
L 221.373432 100.174309 
L 222.67335 88.954564 
L 223.973268 79.884015 
L 224.948206 74.361207 
L 225.923145 69.797777 
L 226.898084 66.059047 
L 227.873022 63.014563 
L 228.847961 60.547207 
L 229.822899 58.558326 
L 230.797838 56.969518 
L 231.772776 55.722111 
L 232.747715 54.77549 
L 233.722654 54.105226 
L 234.697592 53.701525 
L 235.672531 53.568 
L 236.647469 53.720327 
L 237.622408 54.184048 
L 238.597346 54.990773 
L 239.572285 56.172313 
L 240.547224 57.752799 
L 241.522162 59.73948 
L 242.82208 62.983098 
L 244.446978 67.779143 
L 247.696773 77.668328 
L 248.996691 80.754545 
L 249.97163 82.494303 
L 250.946568 83.72036 
L 251.921507 84.503498 
L 253.221425 85.146904 
L 254.196364 85.659067 
L 254.846323 86.191228 
L 255.496282 86.99783 
L 256.146241 88.185234 
L 256.7962 89.856121 
L 257.446159 92.104574 
L 258.096118 95.011405 
L 259.071057 100.73916 
L 260.045995 108.209511 
L 261.020934 117.425116 
L 262.320852 132.199576 
L 263.945749 153.76687 
L 268.820442 221.723508 
L 270.12036 236.569835 
L 271.420278 249.051023 
L 272.720197 259.085686 
L 273.695135 265.079092 
L 274.670074 269.880891 
L 275.645012 273.635472 
L 276.619951 276.502975 
L 277.594889 278.646539 
L 278.569828 280.222345 
L 279.544767 281.372527 
L 280.519705 282.220703 
L 281.819623 283.056517 
L 284.09448 284.183879 
L 287.344275 285.84859 
L 296.118722 290.719659 
L 298.718559 291.759917 
L 301.968354 292.800018 
L 305.543129 293.697959 
L 308.792924 294.294573 
L 312.042719 294.663338 
L 315.617494 294.828423 
L 320.817166 294.795641 
L 329.591613 294.746457 
L 346.490549 294.958493 
L 357.864832 295.385081 
L 362.414545 295.271728 
L 368.914136 294.829271 
L 372.81389 294.699248 
L 376.388665 294.824692 
L 387.762948 295.443736 
L 397.187355 295.487461 
L 398.487273 295.487426 
L 398.487273 295.487426 
" style="fill:none;stroke:#1f77b4;stroke-linecap:square;stroke-width:1.5;"/>
   </g>
   <g id="line2d_25">
    <path clip-path="url(#peca55b777a)" d="M 73.832727 295.301504 
L 79.357379 295.173305 
L 86.506929 295.040122 
L 101.455987 295.15125 
L 112.83027 295.454969 
L 119.65484 295.364654 
L 131.354103 295.109354 
L 142.078428 295.222407 
L 146.95312 294.934126 
L 153.452711 294.314832 
L 158.002424 293.678429 
L 165.801933 292.503175 
L 168.726749 292.370017 
L 172.301523 292.481172 
L 176.526257 292.602181 
L 179.126093 292.461186 
L 182.375889 292.035239 
L 191.800295 290.412282 
L 194.725111 289.719917 
L 196.999967 288.959363 
L 198.624865 288.183184 
L 199.924783 287.300468 
L 200.899722 286.39236 
L 201.87466 285.177673 
L 202.849599 283.54594 
L 203.824537 281.365502 
L 204.799476 278.487788 
L 205.774414 274.754858 
L 206.749353 270.010196 
L 207.724292 264.112264 
L 208.69923 256.949829 
L 209.999148 245.328329 
L 211.299066 231.364825 
L 212.923964 211.006427 
L 215.198821 178.94547 
L 218.448616 133.212383 
L 220.073514 113.478475 
L 221.373432 100.033653 
L 222.67335 88.829805 
L 223.973268 79.791541 
L 224.948206 74.302084 
L 225.923145 69.777898 
L 226.898084 66.082237 
L 227.873022 63.082501 
L 228.847961 60.659546 
L 229.822899 58.712961 
L 230.797838 57.162954 
L 231.772776 55.949867 
L 232.747715 55.032489 
L 233.722654 54.386136 
L 234.697592 54.00102 
L 235.672531 53.880941 
L 236.647469 54.041859 
L 237.622408 54.509613 
L 238.597346 55.316061 
L 239.572285 56.49315 
L 240.547224 58.064976 
L 241.522162 60.038552 
L 242.82208 63.256949 
L 244.446978 68.006585 
L 247.696773 77.739382 
L 248.996691 80.737373 
L 249.97163 82.403137 
L 250.946568 83.550981 
L 251.921507 84.254862 
L 253.221425 84.797686 
L 254.196364 85.243707 
L 254.846323 85.738487 
L 255.496282 86.514338 
L 256.146241 87.678499 
L 256.7962 89.334302 
L 257.446159 91.576211 
L 258.096118 94.485136 
L 259.071057 100.231713 
L 260.045995 107.737964 
L 261.020934 117.003488 
L 262.320852 131.859458 
L 263.945749 153.538119 
L 268.820442 221.741977 
L 270.12036 236.616349 
L 271.420278 249.111725 
L 272.720197 259.150177 
L 273.695135 265.141754 
L 274.670074 269.939234 
L 275.645012 273.688121 
L 276.619951 276.549418 
L 277.594889 278.686874 
L 278.569828 280.257065 
L 279.544767 281.402339 
L 280.519705 282.246397 
L 281.819623 283.077926 
L 284.09448 284.200551 
L 287.344275 285.862174 
L 296.118722 290.727927 
L 298.718559 291.766386 
L 301.968354 292.804658 
L 305.543129 293.701261 
L 308.792924 294.297046 
L 312.042719 294.665204 
L 315.617494 294.829836 
L 320.817166 294.796685 
L 329.591613 294.747558 
L 346.490549 294.959149 
L 357.864832 295.385551 
L 362.414545 295.272376 
L 368.914136 294.829933 
L 372.81389 294.699813 
L 376.388665 294.825348 
L 387.762948 295.443968 
L 397.187355 295.487468 
L 398.487273 295.487435 
L 398.487273 295.487435 
" style="fill:none;stroke:#ff7f0e;stroke-linecap:square;stroke-width:1.5;"/>
   </g>
   <g id="line2d_26">
    <path clip-path="url(#peca55b777a)" d="M 73.832727 295.30151 
L 79.357379 295.17379 
L 86.506929 295.040881 
L 101.455987 295.151856 
L 112.83027 295.4549 
L 119.65484 295.364722 
L 131.354103 295.110118 
L 142.078428 295.222505 
L 146.95312 294.934806 
L 153.452711 294.316352 
L 158.002424 293.680932 
L 165.801933 292.508385 
L 168.726749 292.375386 
L 172.301523 292.485717 
L 176.526257 292.605759 
L 179.126093 292.464983 
L 182.375889 292.040121 
L 191.800295 290.419231 
L 194.725111 289.726567 
L 196.999967 288.963574 
L 198.624865 288.182288 
L 199.924783 287.291745 
L 200.899722 286.374569 
L 201.87466 285.147227 
L 202.849599 283.498443 
L 203.824537 281.295774 
L 204.799476 278.389976 
L 205.774414 274.622666 
L 206.749353 269.837239 
L 207.724292 263.89256 
L 208.69923 256.678387 
L 209.999148 244.983101 
L 211.299066 230.94566 
L 212.923964 210.505833 
L 215.198821 178.378695 
L 218.448616 132.69902 
L 220.073514 113.057474 
L 221.373432 99.708721 
L 222.67335 88.611699 
L 223.973268 79.682419 
L 224.948206 74.271494 
L 225.923145 69.820239 
L 226.898084 66.190116 
L 227.873022 63.247473 
L 228.847961 60.872793 
L 229.822899 58.965868 
L 230.797838 57.447544 
L 231.772776 56.259089 
L 232.747715 55.360372 
L 233.722654 54.727814 
L 234.697592 54.352663 
L 235.672531 54.239605 
L 236.647469 54.405293 
L 237.622408 54.876038 
L 238.597346 55.683955 
L 239.572285 56.861064 
L 240.547224 58.431408 
L 241.522162 60.401895 
L 242.82208 63.613571 
L 244.446978 68.350999 
L 247.696773 78.055184 
L 248.996691 81.045314 
L 249.97163 82.70826 
L 250.946568 83.85642 
L 251.921507 84.563784 
L 253.221425 85.115404 
L 254.196364 85.569947 
L 254.846323 86.070616 
L 255.496282 86.851999 
L 256.146241 88.020867 
L 256.7962 89.680085 
L 257.446159 91.923685 
L 258.096118 94.832194 
L 259.071057 100.573551 
L 260.045995 108.068539 
L 261.020934 117.316659 
L 262.320852 132.140739 
L 263.945749 153.769208 
L 268.820442 221.820479 
L 270.12036 236.667298 
L 271.420278 249.142776 
L 272.720197 259.168354 
L 273.695135 265.154157 
L 274.670074 269.948498 
L 275.645012 273.696243 
L 276.619951 276.5578 
L 277.594889 278.696398 
L 278.569828 280.26818 
L 279.544767 281.415161 
L 280.519705 282.260793 
L 281.819623 283.09393 
L 284.09448 284.217508 
L 287.344275 285.876151 
L 295.793743 290.539884 
L 298.393579 291.54859 
L 301.318395 292.418225 
L 304.89317 293.226257 
L 309.117903 293.951194 
L 313.342637 294.456143 
L 317.242391 294.691186 
L 322.442064 294.736383 
L 339.665979 294.781039 
L 346.165569 294.945431 
L 358.189812 295.38476 
L 362.739525 295.255769 
L 374.113808 294.721333 
L 378.013563 294.938813 
L 385.488092 295.389426 
L 391.987682 295.481014 
L 398.487273 295.487429 
L 398.487273 295.487429 
" style="fill:none;stroke:#2ca02c;stroke-linecap:square;stroke-width:1.5;"/>
   </g>
   <g id="line2d_27">
    <path clip-path="url(#peca55b777a)" d="M 73.832727 295.30151 
L 79.357379 295.17379 
L 86.506929 295.040881 
L 101.455987 295.151856 
L 112.83027 295.4549 
L 119.65484 295.364722 
L 131.354103 295.110118 
L 142.078428 295.222505 
L 146.95312 294.934806 
L 153.452711 294.316352 
L 158.002424 293.680932 
L 165.801933 292.508385 
L 168.726749 292.375386 
L 172.301523 292.485717 
L 176.526257 292.605759 
L 179.126093 292.464983 
L 182.375889 292.040121 
L 191.800295 290.419231 
L 194.725111 289.726567 
L 196.999967 288.963574 
L 198.624865 288.182288 
L 199.924783 287.291745 
L 200.899722 286.374569 
L 201.87466 285.147227 
L 202.849599 283.498443 
L 203.824537 281.295774 
L 204.799476 278.389976 
L 205.774414 274.622666 
L 206.749353 269.837239 
L 207.724292 263.89256 
L 208.69923 256.678387 
L 209.999148 244.983101 
L 211.299066 230.94566 
L 212.923964 210.505833 
L 215.198821 178.378695 
L 218.448616 132.69902 
L 220.073514 113.057474 
L 221.373432 99.708721 
L 222.67335 88.611699 
L 223.973268 79.682419 
L 224.948206 74.271494 
L 225.923145 69.820239 
L 226.898084 66.190116 
L 227.873022 63.247473 
L 228.847961 60.872793 
L 229.822899 58.965868 
L 230.797838 57.447544 
L 231.772776 56.259089 
L 232.747715 55.360372 
L 233.722654 54.727814 
L 234.697592 54.352663 
L 235.672531 54.239605 
L 236.647469 54.405293 
L 237.622408 54.876038 
L 238.597346 55.683955 
L 239.572285 56.861064 
L 240.547224 58.431408 
L 241.522162 60.401895 
L 242.82208 63.613571 
L 244.446978 68.350999 
L 247.696773 78.055184 
L 248.996691 81.045314 
L 249.97163 82.70826 
L 250.946568 83.85642 
L 251.921507 84.563784 
L 253.221425 85.115404 
L 254.196364 85.569947 
L 254.846323 86.070616 
L 255.496282 86.851999 
L 256.146241 88.020867 
L 256.7962 89.680085 
L 257.446159 91.923685 
L 258.096118 94.832194 
L 259.071057 100.573551 
L 260.045995 108.068539 
L 261.020934 117.316659 
L 262.320852 132.140739 
L 263.945749 153.769208 
L 268.820442 221.820479 
L 270.12036 236.667298 
L 271.420278 249.142776 
L 272.720197 259.168354 
L 273.695135 265.154157 
L 274.670074 269.948498 
L 275.645012 273.696243 
L 276.619951 276.5578 
L 277.594889 278.696398 
L 278.569828 280.26818 
L 279.544767 281.415161 
L 280.519705 282.260793 
L 281.819623 283.09393 
L 284.09448 284.217508 
L 287.344275 285.876151 
L 295.793743 290.539884 
L 298.393579 291.54859 
L 301.318395 292.418225 
L 304.89317 293.226257 
L 309.117903 293.951194 
L 313.342637 294.456143 
L 317.242391 294.691186 
L 322.442064 294.736383 
L 339.665979 294.781039 
L 346.165569 294.945431 
L 358.189812 295.38476 
L 362.739525 295.255769 
L 374.113808 294.721333 
L 378.013563 294.938813 
L 385.488092 295.389426 
L 391.987682 295.481014 
L 398.487273 295.487429 
L 398.487273 295.487429 
" style="fill:none;stroke:#d62728;stroke-linecap:square;stroke-width:1.5;"/>
   </g>
   <g id="line2d_28">
    <path clip-path="url(#peca55b777a)" d="M 73.832727 295.30151 
L 79.357379 295.17379 
L 86.506929 295.040881 
L 101.455987 295.151856 
L 112.83027 295.4549 
L 119.65484 295.364722 
L 131.354103 295.110118 
L 142.078428 295.222505 
L 146.95312 294.934806 
L 153.452711 294.316352 
L 158.002424 293.680932 
L 165.801933 292.508385 
L 168.726749 292.375386 
L 172.301523 292.485717 
L 176.526257 292.605759 
L 179.126093 292.464983 
L 182.375889 292.040121 
L 191.800295 290.419231 
L 194.725111 289.726567 
L 196.999967 288.963574 
L 198.624865 288.182288 
L 199.924783 287.291745 
L 200.899722 286.374569 
L 201.87466 285.147227 
L 202.849599 283.498443 
L 203.824537 281.295774 
L 204.799476 278.389976 
L 205.774414 274.622666 
L 206.749353 269.837239 
L 207.724292 263.89256 
L 208.69923 256.678387 
L 209.999148 244.983101 
L 211.299066 230.94566 
L 212.923964 210.505833 
L 215.198821 178.378695 
L 218.448616 132.69902 
L 220.073514 113.057474 
L 221.373432 99.708721 
L 222.67335 88.611699 
L 223.973268 79.682419 
L 224.948206 74.271494 
L 225.923145 69.820239 
L 226.898084 66.190116 
L 227.873022 63.247473 
L 228.847961 60.872793 
L 229.822899 58.965868 
L 230.797838 57.447544 
L 231.772776 56.259089 
L 232.747715 55.360372 
L 233.722654 54.727814 
L 234.697592 54.352663 
L 235.672531 54.239605 
L 236.647469 54.405293 
L 237.622408 54.876038 
L 238.597346 55.683955 
L 239.572285 56.861064 
L 240.547224 58.431408 
L 241.522162 60.401895 
L 242.82208 63.613571 
L 244.446978 68.350999 
L 247.696773 78.055184 
L 248.996691 81.045314 
L 249.97163 82.70826 
L 250.946568 83.85642 
L 251.921507 84.563784 
L 253.221425 85.115404 
L 254.196364 85.569947 
L 254.846323 86.070616 
L 255.496282 86.851999 
L 256.146241 88.020867 
L 256.7962 89.680085 
L 257.446159 91.923685 
L 258.096118 94.832194 
L 259.071057 100.573551 
L 260.045995 108.068539 
L 261.020934 117.316659 
L 262.320852 132.140739 
L 263.945749 153.769208 
L 268.820442 221.820479 
L 270.12036 236.667298 
L 271.420278 249.142776 
L 272.720197 259.168354 
L 273.695135 265.154157 
L 274.670074 269.948498 
L 275.645012 273.696243 
L 276.619951 276.5578 
L 277.594889 278.696398 
L 278.569828 280.26818 
L 279.544767 281.415161 
L 280.519705 282.260793 
L 281.819623 283.09393 
L 284.09448 284.217508 
L 287.344275 285.876151 
L 295.793743 290.539884 
L 298.393579 291.54859 
L 301.318395 292.418225 
L 304.89317 293.226257 
L 309.117903 293.951194 
L 313.342637 294.456143 
L 317.242391 294.691186 
L 322.442064 294.736383 
L 339.665979 294.781039 
L 346.165569 294.945431 
L 358.189812 295.38476 
L 362.739525 295.255769 
L 374.113808 294.721333 
L 378.013563 294.938813 
L 385.488092 295.389426 
L 391.987682 295.481014 
L 398.487273 295.487429 
L 398.487273 295.487429 
" style="fill:none;stroke:#9467bd;stroke-linecap:square;stroke-width:1.5;"/>
   </g>
   <g id="line2d_29">
    <path clip-path="url(#peca55b777a)" d="M 73.832727 295.30151 
L 79.357379 295.17379 
L 86.506929 295.040881 
L 101.455987 295.151856 
L 112.83027 295.4549 
L 119.65484 295.364722 
L 131.354103 295.110118 
L 142.078428 295.222505 
L 146.95312 294.934806 
L 153.452711 294.316352 
L 158.002424 293.680932 
L 165.801933 292.508385 
L 168.726749 292.375386 
L 172.301523 292.485717 
L 176.526257 292.605759 
L 179.126093 292.464983 
L 182.375889 292.040121 
L 191.800295 290.419231 
L 194.725111 289.726567 
L 196.999967 288.963574 
L 198.624865 288.182288 
L 199.924783 287.291745 
L 200.899722 286.374569 
L 201.87466 285.147227 
L 202.849599 283.498443 
L 203.824537 281.295774 
L 204.799476 278.389976 
L 205.774414 274.622666 
L 206.749353 269.837239 
L 207.724292 263.89256 
L 208.69923 256.678387 
L 209.999148 244.983101 
L 211.299066 230.94566 
L 212.923964 210.505833 
L 215.198821 178.378695 
L 218.448616 132.69902 
L 220.073514 113.057474 
L 221.373432 99.708721 
L 222.67335 88.611699 
L 223.973268 79.682419 
L 224.948206 74.271494 
L 225.923145 69.820239 
L 226.898084 66.190116 
L 227.873022 63.247473 
L 228.847961 60.872793 
L 229.822899 58.965868 
L 230.797838 57.447544 
L 231.772776 56.259089 
L 232.747715 55.360372 
L 233.722654 54.727814 
L 234.697592 54.352663 
L 235.672531 54.239605 
L 236.647469 54.405293 
L 237.622408 54.876038 
L 238.597346 55.683955 
L 239.572285 56.861064 
L 240.547224 58.431408 
L 241.522162 60.401895 
L 242.82208 63.613571 
L 244.446978 68.350999 
L 247.696773 78.055184 
L 248.996691 81.045314 
L 249.97163 82.70826 
L 250.946568 83.85642 
L 251.921507 84.563784 
L 253.221425 85.115404 
L 254.196364 85.569947 
L 254.846323 86.070616 
L 255.496282 86.851999 
L 256.146241 88.020867 
L 256.7962 89.680085 
L 257.446159 91.923685 
L 258.096118 94.832194 
L 259.071057 100.573551 
L 260.045995 108.068539 
L 261.020934 117.316659 
L 262.320852 132.140739 
L 263.945749 153.769208 
L 268.820442 221.820479 
L 270.12036 236.667298 
L 271.420278 249.142776 
L 272.720197 259.168354 
L 273.695135 265.154157 
L 274.670074 269.948498 
L 275.645012 273.696243 
L 276.619951 276.5578 
L 277.594889 278.696398 
L 278.569828 280.26818 
L 279.544767 281.415161 
L 280.519705 282.260793 
L 281.819623 283.09393 
L 284.09448 284.217508 
L 287.344275 285.876151 
L 295.793743 290.539884 
L 298.393579 291.54859 
L 301.318395 292.418225 
L 304.89317 293.226257 
L 309.117903 293.951194 
L 313.342637 294.456143 
L 317.242391 294.691186 
L 322.442064 294.736383 
L 339.665979 294.781039 
L 346.165569 294.945431 
L 358.189812 295.38476 
L 362.739525 295.255769 
L 374.113808 294.721333 
L 378.013563 294.938813 
L 385.488092 295.389426 
L 391.987682 295.481014 
L 398.487273 295.487429 
L 398.487273 295.487429 
" style="fill:none;stroke:#8c564b;stroke-linecap:square;stroke-width:1.5;"/>
   </g>
   <g id="line2d_30">
    <path clip-path="url(#peca55b777a)" d="M 73.832727 295.30151 
L 79.357379 295.17379 
L 86.506929 295.040881 
L 101.455987 295.151856 
L 112.83027 295.4549 
L 119.65484 295.364722 
L 131.354103 295.110118 
L 142.078428 295.222505 
L 146.95312 294.934806 
L 153.452711 294.316352 
L 158.002424 293.680932 
L 165.801933 292.508385 
L 168.726749 292.375386 
L 172.301523 292.485717 
L 176.526257 292.605759 
L 179.126093 292.464983 
L 182.375889 292.040121 
L 191.800295 290.419231 
L 194.725111 289.726567 
L 196.999967 288.963574 
L 198.624865 288.182288 
L 199.924783 287.291745 
L 200.899722 286.374569 
L 201.87466 285.147227 
L 202.849599 283.498443 
L 203.824537 281.295774 
L 204.799476 278.389976 
L 205.774414 274.622666 
L 206.749353 269.837239 
L 207.724292 263.89256 
L 208.69923 256.678387 
L 209.999148 244.983101 
L 211.299066 230.94566 
L 212.923964 210.505833 
L 215.198821 178.378695 
L 218.448616 132.69902 
L 220.073514 113.057474 
L 221.373432 99.708721 
L 222.67335 88.611699 
L 223.973268 79.682419 
L 224.948206 74.271494 
L 225.923145 69.820239 
L 226.898084 66.190116 
L 227.873022 63.247473 
L 228.847961 60.872793 
L 229.822899 58.965868 
L 230.797838 57.447544 
L 231.772776 56.259089 
L 232.747715 55.360372 
L 233.722654 54.727814 
L 234.697592 54.352663 
L 235.672531 54.239605 
L 236.647469 54.405293 
L 237.622408 54.876038 
L 238.597346 55.683955 
L 239.572285 56.861064 
L 240.547224 58.431408 
L 241.522162 60.401895 
L 242.82208 63.613571 
L 244.446978 68.350999 
L 247.696773 78.055184 
L 248.996691 81.045314 
L 249.97163 82.70826 
L 250.946568 83.85642 
L 251.921507 84.563784 
L 253.221425 85.115404 
L 254.196364 85.569947 
L 254.846323 86.070616 
L 255.496282 86.851999 
L 256.146241 88.020867 
L 256.7962 89.680085 
L 257.446159 91.923685 
L 258.096118 94.832194 
L 259.071057 100.573551 
L 260.045995 108.068539 
L 261.020934 117.316659 
L 262.320852 132.140739 
L 263.945749 153.769208 
L 268.820442 221.820479 
L 270.12036 236.667298 
L 271.420278 249.142776 
L 272.720197 259.168354 
L 273.695135 265.154157 
L 274.670074 269.948498 
L 275.645012 273.696243 
L 276.619951 276.5578 
L 277.594889 278.696398 
L 278.569828 280.26818 
L 279.544767 281.415161 
L 280.519705 282.260793 
L 281.819623 283.09393 
L 284.09448 284.217508 
L 287.344275 285.876151 
L 295.793743 290.539884 
L 298.393579 291.54859 
L 301.318395 292.418225 
L 304.89317 293.226257 
L 309.117903 293.951194 
L 313.342637 294.456143 
L 317.242391 294.691186 
L 322.442064 294.736383 
L 339.665979 294.781039 
L 346.165569 294.945431 
L 358.189812 295.38476 
L 362.739525 295.255769 
L 374.113808 294.721333 
L 378.013563 294.938813 
L 385.488092 295.389426 
L 391.987682 295.481014 
L 398.487273 295.487429 
L 398.487273 295.487429 
" style="fill:none;stroke:#e377c2;stroke-linecap:square;stroke-width:1.5;"/>
   </g>
   <g id="line2d_31">
    <path clip-path="url(#peca55b777a)" d="M 73.832727 295.30151 
L 79.357379 295.17379 
L 86.506929 295.040881 
L 101.455987 295.151856 
L 112.83027 295.4549 
L 119.65484 295.364722 
L 131.354103 295.110118 
L 142.078428 295.222505 
L 146.95312 294.934806 
L 153.452711 294.316352 
L 158.002424 293.680932 
L 165.801933 292.508385 
L 168.726749 292.375386 
L 172.301523 292.485717 
L 176.526257 292.605759 
L 179.126093 292.464983 
L 182.375889 292.040121 
L 191.800295 290.419231 
L 194.725111 289.726567 
L 196.999967 288.963574 
L 198.624865 288.182288 
L 199.924783 287.291745 
L 200.899722 286.374569 
L 201.87466 285.147227 
L 202.849599 283.498443 
L 203.824537 281.295774 
L 204.799476 278.389976 
L 205.774414 274.622666 
L 206.749353 269.837239 
L 207.724292 263.89256 
L 208.69923 256.678387 
L 209.999148 244.983101 
L 211.299066 230.94566 
L 212.923964 210.505833 
L 215.198821 178.378695 
L 218.448616 132.69902 
L 220.073514 113.057474 
L 221.373432 99.708721 
L 222.67335 88.611699 
L 223.973268 79.682419 
L 224.948206 74.271494 
L 225.923145 69.820239 
L 226.898084 66.190116 
L 227.873022 63.247473 
L 228.847961 60.872793 
L 229.822899 58.965868 
L 230.797838 57.447544 
L 231.772776 56.259089 
L 232.747715 55.360372 
L 233.722654 54.727814 
L 234.697592 54.352663 
L 235.672531 54.239605 
L 236.647469 54.405293 
L 237.622408 54.876038 
L 238.597346 55.683955 
L 239.572285 56.861064 
L 240.547224 58.431408 
L 241.522162 60.401895 
L 242.82208 63.613571 
L 244.446978 68.350999 
L 247.696773 78.055184 
L 248.996691 81.045314 
L 249.97163 82.70826 
L 250.946568 83.85642 
L 251.921507 84.563784 
L 253.221425 85.115404 
L 254.196364 85.569947 
L 254.846323 86.070616 
L 255.496282 86.851999 
L 256.146241 88.020867 
L 256.7962 89.680085 
L 257.446159 91.923685 
L 258.096118 94.832194 
L 259.071057 100.573551 
L 260.045995 108.068539 
L 261.020934 117.316659 
L 262.320852 132.140739 
L 263.945749 153.769208 
L 268.820442 221.820479 
L 270.12036 236.667298 
L 271.420278 249.142776 
L 272.720197 259.168354 
L 273.695135 265.154157 
L 274.670074 269.948498 
L 275.645012 273.696243 
L 276.619951 276.5578 
L 277.594889 278.696398 
L 278.569828 280.26818 
L 279.544767 281.415161 
L 280.519705 282.260793 
L 281.819623 283.09393 
L 284.09448 284.217508 
L 287.344275 285.876151 
L 295.793743 290.539884 
L 298.393579 291.54859 
L 301.318395 292.418225 
L 304.89317 293.226257 
L 309.117903 293.951194 
L 313.342637 294.456143 
L 317.242391 294.691186 
L 322.442064 294.736383 
L 339.665979 294.781039 
L 346.165569 294.945431 
L 358.189812 295.38476 
L 362.739525 295.255769 
L 374.113808 294.721333 
L 378.013563 294.938813 
L 385.488092 295.389426 
L 391.987682 295.481014 
L 398.487273 295.487429 
L 398.487273 295.487429 
" style="fill:none;stroke:#7f7f7f;stroke-linecap:square;stroke-width:1.5;"/>
   </g>
   <g id="line2d_32">
    <path clip-path="url(#peca55b777a)" d="M 73.832727 295.30151 
L 79.357379 295.17379 
L 86.506929 295.040881 
L 101.455987 295.151856 
L 112.83027 295.4549 
L 119.65484 295.364722 
L 131.354103 295.110118 
L 142.078428 295.222505 
L 146.95312 294.934806 
L 153.452711 294.316352 
L 158.002424 293.680932 
L 165.801933 292.508385 
L 168.726749 292.375386 
L 172.301523 292.485717 
L 176.526257 292.605759 
L 179.126093 292.464983 
L 182.375889 292.040121 
L 191.800295 290.419231 
L 194.725111 289.726567 
L 196.999967 288.963574 
L 198.624865 288.182288 
L 199.924783 287.291745 
L 200.899722 286.374569 
L 201.87466 285.147227 
L 202.849599 283.498443 
L 203.824537 281.295774 
L 204.799476 278.389976 
L 205.774414 274.622666 
L 206.749353 269.837239 
L 207.724292 263.89256 
L 208.69923 256.678387 
L 209.999148 244.983101 
L 211.299066 230.94566 
L 212.923964 210.505833 
L 215.198821 178.378695 
L 218.448616 132.69902 
L 220.073514 113.057474 
L 221.373432 99.708721 
L 222.67335 88.611699 
L 223.973268 79.682419 
L 224.948206 74.271494 
L 225.923145 69.820239 
L 226.898084 66.190116 
L 227.873022 63.247473 
L 228.847961 60.872793 
L 229.822899 58.965868 
L 230.797838 57.447544 
L 231.772776 56.259089 
L 232.747715 55.360372 
L 233.722654 54.727814 
L 234.697592 54.352663 
L 235.672531 54.239605 
L 236.647469 54.405293 
L 237.622408 54.876038 
L 238.597346 55.683955 
L 239.572285 56.861064 
L 240.547224 58.431408 
L 241.522162 60.401895 
L 242.82208 63.613571 
L 244.446978 68.350999 
L 247.696773 78.055184 
L 248.996691 81.045314 
L 249.97163 82.70826 
L 250.946568 83.85642 
L 251.921507 84.563784 
L 253.221425 85.115404 
L 254.196364 85.569947 
L 254.846323 86.070616 
L 255.496282 86.851999 
L 256.146241 88.020867 
L 256.7962 89.680085 
L 257.446159 91.923685 
L 258.096118 94.832194 
L 259.071057 100.573551 
L 260.045995 108.068539 
L 261.020934 117.316659 
L 262.320852 132.140739 
L 263.945749 153.769208 
L 268.820442 221.820479 
L 270.12036 236.667298 
L 271.420278 249.142776 
L 272.720197 259.168354 
L 273.695135 265.154157 
L 274.670074 269.948498 
L 275.645012 273.696243 
L 276.619951 276.5578 
L 277.594889 278.696398 
L 278.569828 280.26818 
L 279.544767 281.415161 
L 280.519705 282.260793 
L 281.819623 283.09393 
L 284.09448 284.217508 
L 287.344275 285.876151 
L 295.793743 290.539884 
L 298.393579 291.54859 
L 301.318395 292.418225 
L 304.89317 293.226257 
L 309.117903 293.951194 
L 313.342637 294.456143 
L 317.242391 294.691186 
L 322.442064 294.736383 
L 339.665979 294.781039 
L 346.165569 294.945431 
L 358.189812 295.38476 
L 362.739525 295.255769 
L 374.113808 294.721333 
L 378.013563 294.938813 
L 385.488092 295.389426 
L 391.987682 295.481014 
L 398.487273 295.487429 
L 398.487273 295.487429 
" style="fill:none;stroke:#bcbd22;stroke-linecap:square;stroke-width:1.5;"/>
   </g>
   <g id="line2d_33">
    <path clip-path="url(#peca55b777a)" d="M 73.832727 295.30151 
L 79.357379 295.17379 
L 86.506929 295.040881 
L 101.455987 295.151856 
L 112.83027 295.4549 
L 119.65484 295.364722 
L 131.354103 295.110118 
L 142.078428 295.222505 
L 146.95312 294.934806 
L 153.452711 294.316352 
L 158.002424 293.680932 
L 165.801933 292.508385 
L 168.726749 292.375386 
L 172.301523 292.485717 
L 176.526257 292.605759 
L 179.126093 292.464983 
L 182.375889 292.040121 
L 191.800295 290.419231 
L 194.725111 289.726567 
L 196.999967 288.963574 
L 198.624865 288.182288 
L 199.924783 287.291745 
L 200.899722 286.374569 
L 201.87466 285.147227 
L 202.849599 283.498443 
L 203.824537 281.295774 
L 204.799476 278.389976 
L 205.774414 274.622666 
L 206.749353 269.837239 
L 207.724292 263.89256 
L 208.69923 256.678387 
L 209.999148 244.983101 
L 211.299066 230.94566 
L 212.923964 210.505833 
L 215.198821 178.378695 
L 218.448616 132.69902 
L 220.073514 113.057474 
L 221.373432 99.708721 
L 222.67335 88.611699 
L 223.973268 79.682419 
L 224.948206 74.271494 
L 225.923145 69.820239 
L 226.898084 66.190116 
L 227.873022 63.247473 
L 228.847961 60.872793 
L 229.822899 58.965868 
L 230.797838 57.447544 
L 231.772776 56.259089 
L 232.747715 55.360372 
L 233.722654 54.727814 
L 234.697592 54.352663 
L 235.672531 54.239605 
L 236.647469 54.405293 
L 237.622408 54.876038 
L 238.597346 55.683955 
L 239.572285 56.861064 
L 240.547224 58.431408 
L 241.522162 60.401895 
L 242.82208 63.613571 
L 244.446978 68.350999 
L 247.696773 78.055184 
L 248.996691 81.045314 
L 249.97163 82.70826 
L 250.946568 83.85642 
L 251.921507 84.563784 
L 253.221425 85.115404 
L 254.196364 85.569947 
L 254.846323 86.070616 
L 255.496282 86.851999 
L 256.146241 88.020867 
L 256.7962 89.680085 
L 257.446159 91.923685 
L 258.096118 94.832194 
L 259.071057 100.573551 
L 260.045995 108.068539 
L 261.020934 117.316659 
L 262.320852 132.140739 
L 263.945749 153.769208 
L 268.820442 221.820479 
L 270.12036 236.667298 
L 271.420278 249.142776 
L 272.720197 259.168354 
L 273.695135 265.154157 
L 274.670074 269.948498 
L 275.645012 273.696243 
L 276.619951 276.5578 
L 277.594889 278.696398 
L 278.569828 280.26818 
L 279.544767 281.415161 
L 280.519705 282.260793 
L 281.819623 283.09393 
L 284.09448 284.217508 
L 287.344275 285.876151 
L 295.793743 290.539884 
L 298.393579 291.54859 
L 301.318395 292.418225 
L 304.89317 293.226257 
L 309.117903 293.951194 
L 313.342637 294.456143 
L 317.242391 294.691186 
L 322.442064 294.736383 
L 339.665979 294.781039 
L 346.165569 294.945431 
L 358.189812 295.38476 
L 362.739525 295.255769 
L 374.113808 294.721333 
L 378.013563 294.938813 
L 385.488092 295.389426 
L 391.987682 295.481014 
L 398.487273 295.487429 
L 398.487273 295.487429 
" style="fill:none;stroke:#17becf;stroke-linecap:square;stroke-width:1.5;"/>
   </g>
   <g id="line2d_34">
    <path clip-path="url(#peca55b777a)" d="M 216.677089 307.584 
L 216.677089 41.472 
" style="fill:none;stroke:#1f77b4;stroke-linecap:square;stroke-width:1.5;"/>
   </g>
   <g id="patch_3">
    <path d="M 57.6 307.584 
L 57.6 41.472 
" style="fill:none;stroke:#000000;stroke-linecap:square;stroke-linejoin:miter;stroke-width:0.8;"/>
   </g>
   <g id="patch_4">
    <path d="M 414.72 307.584 
L 414.72 41.472 
" style="fill:none;stroke:#000000;stroke-linecap:square;stroke-linejoin:miter;stroke-width:0.8;"/>
   </g>
   <g id="patch_5">
    <path d="M 57.6 307.584 
L 414.72 307.584 
" style="fill:none;stroke:#000000;stroke-linecap:square;stroke-linejoin:miter;stroke-width:0.8;"/>
   </g>
   <g id="patch_6">
    <path d="M 57.6 41.472 
L 414.72 41.472 
" style="fill:none;stroke:#000000;stroke-linecap:square;stroke-linejoin:miter;stroke-width:0.8;"/>
   </g>
  </g>
 </g>
 <defs>
  <clipPath id="peca55b777a">
   <rect height="266.112" width="357.12" x="57.6" y="41.472"/>
  </clipPath>
 </defs>
</svg>
