<?xml version="1.0" encoding="utf-8" standalone="no"?>
<!DOCTYPE svg PUBLIC "-//W3C//DTD SVG 1.1//EN"
  "http://www.w3.org/Graphics/SVG/1.1/DTD/svg11.dtd">
<!-- Created with matplotlib (http://matplotlib.org/) -->
<svg height="345pt" version="1.1" viewBox="0 0 460 345" width="460pt" xmlns="http://www.w3.org/2000/svg" xmlns:xlink="http://www.w3.org/1999/xlink">
 <defs>
  <style type="text/css">
*{stroke-linecap:butt;stroke-linejoin:round;}
  </style>
 </defs>
 <g id="figure_1">
  <g id="patch_1">
   <path d="M 0 345.6 
L 460.8 345.6 
L 460.8 0 
L 0 0 
z
" style="fill:none;"/>
  </g>
  <g id="axes_1">
   <g id="patch_2">
    <path d="M 57.6 307.584 
L 414.72 307.584 
L 414.72 41.472 
L 57.6 41.472 
z
" style="fill:none;"/>
   </g>
   <g id="matplotlib.axis_1">
    <g id="xtick_1">
     <g id="line2d_1">
      <defs>
       <path d="M 0 0 
L 0 3.5 
" id="mc8c53f75c9" style="stroke:#000000;stroke-width:0.8;"/>
      </defs>
      <g>
       <use style="stroke:#000000;stroke-width:0.8;" x="93.186524" xlink:href="#mc8c53f75c9" y="307.584"/>
      </g>
     </g>
     <g id="text_1">
      <!-- −2000 -->
      <defs>
       <path d="M 10.59375 35.5 
L 73.1875 35.5 
L 73.1875 27.203125 
L 10.59375 27.203125 
z
" id="DejaVuSans-2212"/>
       <path d="M 19.1875 8.296875 
L 53.609375 8.296875 
L 53.609375 0 
L 7.328125 0 
L 7.328125 8.296875 
Q 12.9375 14.109375 22.625 23.890625 
Q 32.328125 33.6875 34.8125 36.53125 
Q 39.546875 41.84375 41.421875 45.53125 
Q 43.3125 49.21875 43.3125 52.78125 
Q 43.3125 58.59375 39.234375 62.25 
Q 35.15625 65.921875 28.609375 65.921875 
Q 23.96875 65.921875 18.8125 64.3125 
Q 13.671875 62.703125 7.8125 59.421875 
L 7.8125 69.390625 
Q 13.765625 71.78125 18.9375 73 
Q 24.125 74.21875 28.421875 74.21875 
Q 39.75 74.21875 46.484375 68.546875 
Q 53.21875 62.890625 53.21875 53.421875 
Q 53.21875 48.921875 51.53125 44.890625 
Q 49.859375 40.875 45.40625 35.40625 
Q 44.1875 33.984375 37.640625 27.21875 
Q 31.109375 20.453125 19.1875 8.296875 
z
" id="DejaVuSans-32"/>
       <path d="M 31.78125 66.40625 
Q 24.171875 66.40625 20.328125 58.90625 
Q 16.5 51.421875 16.5 36.375 
Q 16.5 21.390625 20.328125 13.890625 
Q 24.171875 6.390625 31.78125 6.390625 
Q 39.453125 6.390625 43.28125 13.890625 
Q 47.125 21.390625 47.125 36.375 
Q 47.125 51.421875 43.28125 58.90625 
Q 39.453125 66.40625 31.78125 66.40625 
z
M 31.78125 74.21875 
Q 44.046875 74.21875 50.515625 64.515625 
Q 56.984375 54.828125 56.984375 36.375 
Q 56.984375 17.96875 50.515625 8.265625 
Q 44.046875 -1.421875 31.78125 -1.421875 
Q 19.53125 -1.421875 13.0625 8.265625 
Q 6.59375 17.96875 6.59375 36.375 
Q 6.59375 54.828125 13.0625 64.515625 
Q 19.53125 74.21875 31.78125 74.21875 
z
" id="DejaVuSans-30"/>
      </defs>
      <g transform="translate(76.27168 322.182437)scale(0.1 -0.1)">
       <use xlink:href="#DejaVuSans-2212"/>
       <use x="83.789062" xlink:href="#DejaVuSans-32"/>
       <use x="147.412109" xlink:href="#DejaVuSans-30"/>
       <use x="211.035156" xlink:href="#DejaVuSans-30"/>
       <use x="274.658203" xlink:href="#DejaVuSans-30"/>
      </g>
     </g>
    </g>
    <g id="xtick_2">
     <g id="line2d_2">
      <g>
       <use style="stroke:#000000;stroke-width:0.8;" x="154.573368" xlink:href="#mc8c53f75c9" y="307.584"/>
      </g>
     </g>
     <g id="text_2">
      <!-- −1000 -->
      <defs>
       <path d="M 12.40625 8.296875 
L 28.515625 8.296875 
L 28.515625 63.921875 
L 10.984375 60.40625 
L 10.984375 69.390625 
L 28.421875 72.90625 
L 38.28125 72.90625 
L 38.28125 8.296875 
L 54.390625 8.296875 
L 54.390625 0 
L 12.40625 0 
z
" id="DejaVuSans-31"/>
      </defs>
      <g transform="translate(137.658525 322.182437)scale(0.1 -0.1)">
       <use xlink:href="#DejaVuSans-2212"/>
       <use x="83.789062" xlink:href="#DejaVuSans-31"/>
       <use x="147.412109" xlink:href="#DejaVuSans-30"/>
       <use x="211.035156" xlink:href="#DejaVuSans-30"/>
       <use x="274.658203" xlink:href="#DejaVuSans-30"/>
      </g>
     </g>
    </g>
    <g id="xtick_3">
     <g id="line2d_3">
      <g>
       <use style="stroke:#000000;stroke-width:0.8;" x="215.960212" xlink:href="#mc8c53f75c9" y="307.584"/>
      </g>
     </g>
     <g id="text_3">
      <!-- 0 -->
      <g transform="translate(212.778962 322.182437)scale(0.1 -0.1)">
       <use xlink:href="#DejaVuSans-30"/>
      </g>
     </g>
    </g>
    <g id="xtick_4">
     <g id="line2d_4">
      <g>
       <use style="stroke:#000000;stroke-width:0.8;" x="277.347056" xlink:href="#mc8c53f75c9" y="307.584"/>
      </g>
     </g>
     <g id="text_4">
      <!-- 1000 -->
      <g transform="translate(264.622056 322.182437)scale(0.1 -0.1)">
       <use xlink:href="#DejaVuSans-31"/>
       <use x="63.623047" xlink:href="#DejaVuSans-30"/>
       <use x="127.246094" xlink:href="#DejaVuSans-30"/>
       <use x="190.869141" xlink:href="#DejaVuSans-30"/>
      </g>
     </g>
    </g>
    <g id="xtick_5">
     <g id="line2d_5">
      <g>
       <use style="stroke:#000000;stroke-width:0.8;" x="338.7339" xlink:href="#mc8c53f75c9" y="307.584"/>
      </g>
     </g>
     <g id="text_5">
      <!-- 2000 -->
      <g transform="translate(326.0089 322.182437)scale(0.1 -0.1)">
       <use xlink:href="#DejaVuSans-32"/>
       <use x="63.623047" xlink:href="#DejaVuSans-30"/>
       <use x="127.246094" xlink:href="#DejaVuSans-30"/>
       <use x="190.869141" xlink:href="#DejaVuSans-30"/>
      </g>
     </g>
    </g>
    <g id="xtick_6">
     <g id="line2d_6">
      <g>
       <use style="stroke:#000000;stroke-width:0.8;" x="400.120745" xlink:href="#mc8c53f75c9" y="307.584"/>
      </g>
     </g>
     <g id="text_6">
      <!-- 3000 -->
      <defs>
       <path d="M 40.578125 39.3125 
Q 47.65625 37.796875 51.625 33 
Q 55.609375 28.21875 55.609375 21.1875 
Q 55.609375 10.40625 48.1875 4.484375 
Q 40.765625 -1.421875 27.09375 -1.421875 
Q 22.515625 -1.421875 17.65625 -0.515625 
Q 12.796875 0.390625 7.625 2.203125 
L 7.625 11.71875 
Q 11.71875 9.328125 16.59375 8.109375 
Q 21.484375 6.890625 26.8125 6.890625 
Q 36.078125 6.890625 40.9375 10.546875 
Q 45.796875 14.203125 45.796875 21.1875 
Q 45.796875 27.640625 41.28125 31.265625 
Q 36.765625 34.90625 28.71875 34.90625 
L 20.21875 34.90625 
L 20.21875 43.015625 
L 29.109375 43.015625 
Q 36.375 43.015625 40.234375 45.921875 
Q 44.09375 48.828125 44.09375 54.296875 
Q 44.09375 59.90625 40.109375 62.90625 
Q 36.140625 65.921875 28.71875 65.921875 
Q 24.65625 65.921875 20.015625 65.03125 
Q 15.375 64.15625 9.8125 62.3125 
L 9.8125 71.09375 
Q 15.4375 72.65625 20.34375 73.4375 
Q 25.25 74.21875 29.59375 74.21875 
Q 40.828125 74.21875 47.359375 69.109375 
Q 53.90625 64.015625 53.90625 55.328125 
Q 53.90625 49.265625 50.4375 45.09375 
Q 46.96875 40.921875 40.578125 39.3125 
z
" id="DejaVuSans-33"/>
      </defs>
      <g transform="translate(387.395745 322.182437)scale(0.1 -0.1)">
       <use xlink:href="#DejaVuSans-33"/>
       <use x="63.623047" xlink:href="#DejaVuSans-30"/>
       <use x="127.246094" xlink:href="#DejaVuSans-30"/>
       <use x="190.869141" xlink:href="#DejaVuSans-30"/>
      </g>
     </g>
    </g>
   </g>
   <g id="matplotlib.axis_2">
    <g id="ytick_1">
     <g id="line2d_7">
      <defs>
       <path d="M 0 0 
L -3.5 0 
" id="m2cec27a280" style="stroke:#000000;stroke-width:0.8;"/>
      </defs>
      <g>
       <use style="stroke:#000000;stroke-width:0.8;" x="57.6" xlink:href="#m2cec27a280" y="295.488"/>
      </g>
     </g>
     <g id="text_7">
      <!-- 0.000 -->
      <defs>
       <path d="M 10.6875 12.40625 
L 21 12.40625 
L 21 0 
L 10.6875 0 
z
" id="DejaVuSans-2e"/>
      </defs>
      <g transform="translate(21.971875 299.287219)scale(0.1 -0.1)">
       <use xlink:href="#DejaVuSans-30"/>
       <use x="63.623047" xlink:href="#DejaVuSans-2e"/>
       <use x="95.410156" xlink:href="#DejaVuSans-30"/>
       <use x="159.033203" xlink:href="#DejaVuSans-30"/>
       <use x="222.65625" xlink:href="#DejaVuSans-30"/>
      </g>
     </g>
    </g>
    <g id="ytick_2">
     <g id="line2d_8">
      <g>
       <use style="stroke:#000000;stroke-width:0.8;" x="57.6" xlink:href="#m2cec27a280" y="262.683469"/>
      </g>
     </g>
     <g id="text_8">
      <!-- 0.001 -->
      <g transform="translate(21.971875 266.482688)scale(0.1 -0.1)">
       <use xlink:href="#DejaVuSans-30"/>
       <use x="63.623047" xlink:href="#DejaVuSans-2e"/>
       <use x="95.410156" xlink:href="#DejaVuSans-30"/>
       <use x="159.033203" xlink:href="#DejaVuSans-30"/>
       <use x="222.65625" xlink:href="#DejaVuSans-31"/>
      </g>
     </g>
    </g>
    <g id="ytick_3">
     <g id="line2d_9">
      <g>
       <use style="stroke:#000000;stroke-width:0.8;" x="57.6" xlink:href="#m2cec27a280" y="229.878938"/>
      </g>
     </g>
     <g id="text_9">
      <!-- 0.002 -->
      <g transform="translate(21.971875 233.678157)scale(0.1 -0.1)">
       <use xlink:href="#DejaVuSans-30"/>
       <use x="63.623047" xlink:href="#DejaVuSans-2e"/>
       <use x="95.410156" xlink:href="#DejaVuSans-30"/>
       <use x="159.033203" xlink:href="#DejaVuSans-30"/>
       <use x="222.65625" xlink:href="#DejaVuSans-32"/>
      </g>
     </g>
    </g>
    <g id="ytick_4">
     <g id="line2d_10">
      <g>
       <use style="stroke:#000000;stroke-width:0.8;" x="57.6" xlink:href="#m2cec27a280" y="197.074407"/>
      </g>
     </g>
     <g id="text_10">
      <!-- 0.003 -->
      <g transform="translate(21.971875 200.873626)scale(0.1 -0.1)">
       <use xlink:href="#DejaVuSans-30"/>
       <use x="63.623047" xlink:href="#DejaVuSans-2e"/>
       <use x="95.410156" xlink:href="#DejaVuSans-30"/>
       <use x="159.033203" xlink:href="#DejaVuSans-30"/>
       <use x="222.65625" xlink:href="#DejaVuSans-33"/>
      </g>
     </g>
    </g>
    <g id="ytick_5">
     <g id="line2d_11">
      <g>
       <use style="stroke:#000000;stroke-width:0.8;" x="57.6" xlink:href="#m2cec27a280" y="164.269876"/>
      </g>
     </g>
     <g id="text_11">
      <!-- 0.004 -->
      <defs>
       <path d="M 37.796875 64.3125 
L 12.890625 25.390625 
L 37.796875 25.390625 
z
M 35.203125 72.90625 
L 47.609375 72.90625 
L 47.609375 25.390625 
L 58.015625 25.390625 
L 58.015625 17.1875 
L 47.609375 17.1875 
L 47.609375 0 
L 37.796875 0 
L 37.796875 17.1875 
L 4.890625 17.1875 
L 4.890625 26.703125 
z
" id="DejaVuSans-34"/>
      </defs>
      <g transform="translate(21.971875 168.069095)scale(0.1 -0.1)">
       <use xlink:href="#DejaVuSans-30"/>
       <use x="63.623047" xlink:href="#DejaVuSans-2e"/>
       <use x="95.410156" xlink:href="#DejaVuSans-30"/>
       <use x="159.033203" xlink:href="#DejaVuSans-30"/>
       <use x="222.65625" xlink:href="#DejaVuSans-34"/>
      </g>
     </g>
    </g>
    <g id="ytick_6">
     <g id="line2d_12">
      <g>
       <use style="stroke:#000000;stroke-width:0.8;" x="57.6" xlink:href="#m2cec27a280" y="131.465346"/>
      </g>
     </g>
     <g id="text_12">
      <!-- 0.005 -->
      <defs>
       <path d="M 10.796875 72.90625 
L 49.515625 72.90625 
L 49.515625 64.59375 
L 19.828125 64.59375 
L 19.828125 46.734375 
Q 21.96875 47.46875 24.109375 47.828125 
Q 26.265625 48.1875 28.421875 48.1875 
Q 40.625 48.1875 47.75 41.5 
Q 54.890625 34.8125 54.890625 23.390625 
Q 54.890625 11.625 47.5625 5.09375 
Q 40.234375 -1.421875 26.90625 -1.421875 
Q 22.3125 -1.421875 17.546875 -0.640625 
Q 12.796875 0.140625 7.71875 1.703125 
L 7.71875 11.625 
Q 12.109375 9.234375 16.796875 8.0625 
Q 21.484375 6.890625 26.703125 6.890625 
Q 35.15625 6.890625 40.078125 11.328125 
Q 45.015625 15.765625 45.015625 23.390625 
Q 45.015625 31 40.078125 35.4375 
Q 35.15625 39.890625 26.703125 39.890625 
Q 22.75 39.890625 18.8125 39.015625 
Q 14.890625 38.140625 10.796875 36.28125 
z
" id="DejaVuSans-35"/>
      </defs>
      <g transform="translate(21.971875 135.264564)scale(0.1 -0.1)">
       <use xlink:href="#DejaVuSans-30"/>
       <use x="63.623047" xlink:href="#DejaVuSans-2e"/>
       <use x="95.410156" xlink:href="#DejaVuSans-30"/>
       <use x="159.033203" xlink:href="#DejaVuSans-30"/>
       <use x="222.65625" xlink:href="#DejaVuSans-35"/>
      </g>
     </g>
    </g>
    <g id="ytick_7">
     <g id="line2d_13">
      <g>
       <use style="stroke:#000000;stroke-width:0.8;" x="57.6" xlink:href="#m2cec27a280" y="98.660815"/>
      </g>
     </g>
     <g id="text_13">
      <!-- 0.006 -->
      <defs>
       <path d="M 33.015625 40.375 
Q 26.375 40.375 22.484375 35.828125 
Q 18.609375 31.296875 18.609375 23.390625 
Q 18.609375 15.53125 22.484375 10.953125 
Q 26.375 6.390625 33.015625 6.390625 
Q 39.65625 6.390625 43.53125 10.953125 
Q 47.40625 15.53125 47.40625 23.390625 
Q 47.40625 31.296875 43.53125 35.828125 
Q 39.65625 40.375 33.015625 40.375 
z
M 52.59375 71.296875 
L 52.59375 62.3125 
Q 48.875 64.0625 45.09375 64.984375 
Q 41.3125 65.921875 37.59375 65.921875 
Q 27.828125 65.921875 22.671875 59.328125 
Q 17.53125 52.734375 16.796875 39.40625 
Q 19.671875 43.65625 24.015625 45.921875 
Q 28.375 48.1875 33.59375 48.1875 
Q 44.578125 48.1875 50.953125 41.515625 
Q 57.328125 34.859375 57.328125 23.390625 
Q 57.328125 12.15625 50.6875 5.359375 
Q 44.046875 -1.421875 33.015625 -1.421875 
Q 20.359375 -1.421875 13.671875 8.265625 
Q 6.984375 17.96875 6.984375 36.375 
Q 6.984375 53.65625 15.1875 63.9375 
Q 23.390625 74.21875 37.203125 74.21875 
Q 40.921875 74.21875 44.703125 73.484375 
Q 48.484375 72.75 52.59375 71.296875 
z
" id="DejaVuSans-36"/>
      </defs>
      <g transform="translate(21.971875 102.460033)scale(0.1 -0.1)">
       <use xlink:href="#DejaVuSans-30"/>
       <use x="63.623047" xlink:href="#DejaVuSans-2e"/>
       <use x="95.410156" xlink:href="#DejaVuSans-30"/>
       <use x="159.033203" xlink:href="#DejaVuSans-30"/>
       <use x="222.65625" xlink:href="#DejaVuSans-36"/>
      </g>
     </g>
    </g>
    <g id="ytick_8">
     <g id="line2d_14">
      <g>
       <use style="stroke:#000000;stroke-width:0.8;" x="57.6" xlink:href="#m2cec27a280" y="65.856284"/>
      </g>
     </g>
     <g id="text_14">
      <!-- 0.007 -->
      <defs>
       <path d="M 8.203125 72.90625 
L 55.078125 72.90625 
L 55.078125 68.703125 
L 28.609375 0 
L 18.3125 0 
L 43.21875 64.59375 
L 8.203125 64.59375 
z
" id="DejaVuSans-37"/>
      </defs>
      <g transform="translate(21.971875 69.655503)scale(0.1 -0.1)">
       <use xlink:href="#DejaVuSans-30"/>
       <use x="63.623047" xlink:href="#DejaVuSans-2e"/>
       <use x="95.410156" xlink:href="#DejaVuSans-30"/>
       <use x="159.033203" xlink:href="#DejaVuSans-30"/>
       <use x="222.65625" xlink:href="#DejaVuSans-37"/>
      </g>
     </g>
    </g>
   </g>
   <g id="line2d_15">
    <path clip-path="url(#p4b75ff6d1b)" d="M 73.832727 295.488 
L 149.227977 295.377317 
L 158.002424 295.127138 
L 163.852056 294.746383 
L 168.401769 294.234774 
L 172.301523 293.571206 
L 175.551319 292.805012 
L 178.476134 291.908336 
L 181.40095 290.778682 
L 184.000786 289.551744 
L 186.600622 288.094331 
L 189.200459 286.392919 
L 191.800295 284.443195 
L 194.725111 281.963258 
L 197.974906 278.893157 
L 202.19964 274.549609 
L 209.349189 267.122965 
L 212.274005 264.435337 
L 214.548862 262.627335 
L 216.498739 261.327763 
L 218.448616 260.296325 
L 220.073514 259.662596 
L 221.698411 259.247821 
L 223.323309 259.060493 
L 224.948206 259.104661 
L 226.573104 259.379774 
L 228.198002 259.880678 
L 229.822899 260.597772 
L 231.772776 261.724027 
L 233.722654 263.110889 
L 235.99751 265.008658 
L 238.597346 267.464544 
L 242.497101 271.497798 
L 249.64665 278.948286 
L 252.896446 281.985837 
L 255.821261 284.412684 
L 258.421097 286.296711 
L 261.020934 287.917266 
L 263.62077 289.282255 
L 266.220606 290.409755 
L 269.145422 291.42541 
L 272.070238 292.212629 
L 275.320033 292.870094 
L 279.219787 293.429808 
L 284.09448 293.889035 
L 290.59407 294.261333 
L 300.993415 294.606704 
L 316.592432 294.891014 
L 336.741163 295.013935 
L 398.487273 295.262611 
L 398.487273 295.262611 
" style="fill:none;stroke:#1f77b4;stroke-linecap:square;stroke-width:1.5;"/>
   </g>
   <g id="line2d_16">
    <path clip-path="url(#p4b75ff6d1b)" d="M 73.832727 295.488 
L 167.101851 295.383548 
L 173.601441 295.138406 
L 178.476134 294.734431 
L 182.375889 294.18668 
L 185.625684 293.503585 
L 188.22552 292.744907 
L 190.500377 291.866296 
L 192.450254 290.900909 
L 194.400131 289.682868 
L 196.025029 288.428866 
L 197.649926 286.914221 
L 199.274824 285.097182 
L 200.899722 282.938566 
L 202.524619 280.406273 
L 204.149517 277.480619 
L 206.099394 273.450041 
L 208.049271 268.895261 
L 210.649107 262.193912 
L 216.173759 247.643827 
L 217.798657 243.984953 
L 219.098575 241.477921 
L 220.398493 239.432356 
L 221.373432 238.243104 
L 222.34837 237.376086 
L 223.323309 236.849069 
L 223.973268 236.692532 
L 224.623227 236.69406 
L 225.273186 236.854025 
L 226.248124 237.388488 
L 227.223063 238.267806 
L 228.198002 239.476338 
L 229.49792 241.561481 
L 230.797838 244.126607 
L 232.422735 247.886094 
L 234.697592 253.866786 
L 241.197183 271.582276 
L 243.14706 276.141036 
L 245.096937 280.107279 
L 246.721835 282.93154 
L 248.346732 285.323551 
L 249.97163 287.307793 
L 251.596527 288.921563 
L 253.221425 290.209565 
L 254.846323 291.219334 
L 256.47122 291.997699 
L 258.421097 292.687423 
L 260.695954 293.238019 
L 263.29579 293.635887 
L 266.870565 293.943445 
L 273.045176 294.206429 
L 294.168845 294.784712 
L 316.592432 295.100909 
L 352.66516 295.217887 
L 367.289238 295.208768 
L 395.562457 295.400974 
L 398.487273 295.404909 
L 398.487273 295.404909 
" style="fill:none;stroke:#ff7f0e;stroke-linecap:square;stroke-width:1.5;"/>
   </g>
   <g id="line2d_17">
    <path clip-path="url(#p4b75ff6d1b)" d="M 73.832727 295.488 
L 168.401769 295.383504 
L 175.226339 295.136061 
L 180.101032 294.749933 
L 184.000786 294.230041 
L 187.250581 293.57903 
L 189.850418 292.847519 
L 192.125274 291.986395 
L 194.075152 291.022505 
L 196.025029 289.782039 
L 197.649926 288.480538 
L 199.274824 286.881361 
L 200.899722 284.931701 
L 202.524619 282.581644 
L 204.149517 279.790264 
L 205.774414 276.532857 
L 207.399312 272.808657 
L 209.349189 267.768878 
L 211.949025 260.300123 
L 217.148698 245.008451 
L 218.773595 240.921634 
L 220.073514 238.141969 
L 221.373432 235.902975 
L 222.34837 234.628034 
L 223.323309 233.730115 
L 223.973268 233.350902 
L 224.623227 233.151868 
L 225.273186 233.13514 
L 225.923145 233.30115 
L 226.573104 233.648619 
L 227.548043 234.503132 
L 228.522981 235.742043 
L 229.49792 237.340829 
L 230.797838 239.977291 
L 232.097756 243.107385 
L 234.047633 248.501409 
L 236.972449 257.428558 
L 240.547224 268.182588 
L 242.497101 273.430418 
L 244.446978 278.035017 
L 246.071876 281.330875 
L 247.696773 284.130295 
L 249.321671 286.45595 
L 250.946568 288.348288 
L 252.571466 289.858444 
L 254.196364 291.042129 
L 255.821261 291.954803 
L 257.771138 292.764821 
L 259.721016 293.337226 
L 262.320852 293.839878 
L 265.570647 294.202885 
L 270.12036 294.45301 
L 277.919869 294.614496 
L 308.142965 295.051981 
L 326.991777 295.39452 
L 346.490549 295.48366 
L 385.813071 295.409627 
L 398.487273 295.406879 
L 398.487273 295.406879 
" style="fill:none;stroke:#2ca02c;stroke-linecap:square;stroke-width:1.5;"/>
   </g>
   <g id="line2d_18">
    <path clip-path="url(#p4b75ff6d1b)" d="M 73.832727 295.488 
L 179.451073 295.384384 
L 183.025848 295.090853 
L 188.5505 294.345198 
L 191.475315 293.758128 
L 195.05009 292.742861 
L 197.649926 292.112662 
L 199.924783 291.811202 
L 205.124455 291.279133 
L 206.749353 290.803382 
L 208.049271 290.146978 
L 209.02421 289.393693 
L 209.999148 288.304792 
L 210.974087 286.736991 
L 211.624046 285.333001 
L 212.274005 283.56105 
L 212.923964 281.338863 
L 213.898903 276.956402 
L 214.873841 271.012034 
L 215.84878 263.180426 
L 216.823718 253.229815 
L 217.798657 241.12644 
L 219.098575 222.158582 
L 222.023391 177.783008 
L 222.998329 167.019503 
L 223.648288 162.072141 
L 224.298247 159.211397 
L 224.623227 158.612118 
L 224.948206 158.577963 
L 225.273186 159.107581 
L 225.598165 160.191948 
L 226.248124 163.952098 
L 226.898084 169.646144 
L 227.873022 181.131659 
L 229.17294 199.934652 
L 231.772776 238.303104 
L 233.072695 253.729598 
L 234.047633 262.970783 
L 235.022572 270.284963 
L 235.99751 275.905229 
L 236.972449 280.132541 
L 237.947387 283.273278 
L 238.922326 285.601157 
L 239.897265 287.339978 
L 240.872203 288.660855 
L 242.172121 289.980167 
L 243.472039 290.963376 
L 245.096937 291.878319 
L 246.721835 292.538102 
L 248.671712 293.069878 
L 250.946568 293.435086 
L 254.196364 293.706067 
L 260.370975 294.182404 
L 265.895627 294.712545 
L 269.470401 294.772157 
L 276.294971 294.848051 
L 283.119541 294.971902 
L 297.093661 294.853651 
L 309.767862 295.052629 
L 317.567371 295.272534 
L 345.51561 295.488 
L 386.78801 295.377428 
L 392.637641 295.415434 
L 398.487273 295.482535 
L 398.487273 295.482535 
" style="fill:none;stroke:#d62728;stroke-linecap:square;stroke-width:1.5;"/>
   </g>
   <g id="line2d_19">
    <path clip-path="url(#p4b75ff6d1b)" d="M 73.832727 295.488 
L 181.075971 295.399281 
L 183.025848 295.164332 
L 187.575561 294.447754 
L 190.500377 294.309986 
L 191.800295 293.989074 
L 193.425192 293.325935 
L 195.700049 292.386292 
L 197.324947 291.958475 
L 198.949844 291.768256 
L 200.574742 291.823582 
L 203.174578 292.004342 
L 204.799476 291.828764 
L 207.399312 291.221895 
L 209.349189 290.630661 
L 210.324128 290.147984 
L 211.299066 289.372925 
L 211.949025 288.6162 
L 212.598984 287.614794 
L 213.248943 286.325677 
L 213.898903 284.69787 
L 214.548862 282.651458 
L 215.198821 280.048701 
L 215.84878 276.667442 
L 216.498739 272.191857 
L 217.148698 266.234973 
L 217.798657 258.399712 
L 218.448616 248.372107 
L 219.423554 229.019392 
L 220.723473 196.801872 
L 222.34837 155.333558 
L 223.323309 136.281971 
L 223.973268 128.050625 
L 224.298247 125.532875 
L 224.623227 124.150096 
L 224.948206 123.927448 
L 225.273186 124.867118 
L 225.598165 126.947783 
L 226.248124 134.330183 
L 226.898084 145.453625 
L 227.873022 167.098077 
L 230.472858 228.59306 
L 231.447797 245.865552 
L 232.422735 258.858406 
L 233.397674 268.158382 
L 234.372613 274.609085 
L 235.022572 277.726039 
L 235.99751 281.127268 
L 236.972449 283.475401 
L 237.947387 285.175673 
L 239.247305 286.891255 
L 240.872203 288.593083 
L 242.82208 290.279722 
L 244.771957 291.664943 
L 246.071876 292.321962 
L 247.046814 292.61002 
L 248.346732 292.740415 
L 251.921507 292.848982 
L 257.121179 293.534869 
L 259.071057 293.77264 
L 261.670893 294.389659 
L 263.62077 294.740426 
L 265.570647 294.842961 
L 267.845504 294.709998 
L 271.745258 294.35295 
L 273.695135 294.534786 
L 276.94493 294.898386 
L 281.819623 295.105243 
L 284.09448 294.954048 
L 286.369337 294.821318 
L 288.319214 294.959236 
L 290.59407 295.109377 
L 292.543948 295.000379 
L 296.118722 294.71402 
L 298.0686 294.810952 
L 301.968354 295.076958 
L 309.767862 295.116811 
L 313.667617 295.268758 
L 345.51561 295.488 
L 386.138051 295.383912 
L 389.712826 295.340501 
L 398.487273 295.487898 
L 398.487273 295.487898 
" style="fill:none;stroke:#9467bd;stroke-linecap:square;stroke-width:1.5;"/>
   </g>
   <g id="line2d_20">
    <path clip-path="url(#p4b75ff6d1b)" d="M 73.832727 295.488 
L 181.72593 295.403658 
L 183.350827 295.170371 
L 187.250581 294.384652 
L 189.200459 294.505574 
L 190.500377 294.489544 
L 191.475315 294.280746 
L 192.775233 293.732367 
L 195.37507 292.505085 
L 197.324947 291.971678 
L 199.274824 291.562257 
L 200.574742 291.537371 
L 204.149517 291.791614 
L 206.099394 291.51336 
L 210.324128 290.657737 
L 210.974087 290.333319 
L 211.624046 289.812894 
L 212.274005 289.023023 
L 212.923964 287.914207 
L 213.898903 285.649996 
L 214.873841 282.755922 
L 215.84878 279.07585 
L 216.498739 275.726477 
L 217.148698 271.009753 
L 217.798657 264.19324 
L 218.448616 254.575795 
L 219.098575 241.714522 
L 220.073514 216.53732 
L 222.998329 131.508956 
L 223.648288 119.524487 
L 224.298247 112.345244 
L 224.623227 110.732473 
L 224.948206 110.493883 
L 225.273186 111.645173 
L 225.598165 114.176784 
L 226.248124 123.194429 
L 226.898084 136.8452 
L 227.873022 163.265446 
L 229.822899 218.34946 
L 230.797838 239.428455 
L 231.772776 254.886941 
L 232.747715 265.672227 
L 233.397674 270.877777 
L 234.047633 274.865918 
L 234.697592 277.892201 
L 235.347551 280.173998 
L 236.32249 282.614397 
L 237.297428 284.345192 
L 238.597346 286.159167 
L 240.222244 288.091837 
L 241.847142 289.66658 
L 244.771957 291.971299 
L 246.071876 292.821589 
L 247.046814 293.186723 
L 248.021753 293.272312 
L 249.321671 293.09593 
L 250.946568 292.877679 
L 252.246486 292.974044 
L 254.846323 293.578809 
L 257.446159 294.011635 
L 261.020934 294.619785 
L 263.62077 295.005087 
L 265.895627 295.083296 
L 267.520524 294.919391 
L 269.470401 294.432332 
L 271.095299 294.099722 
L 272.070238 294.102577 
L 273.370156 294.350003 
L 276.294971 295.048096 
L 278.894808 295.325695 
L 281.494644 295.415359 
L 283.444521 295.255719 
L 286.369337 294.924496 
L 287.994234 295.055957 
L 290.59407 295.348113 
L 292.218968 295.282627 
L 295.793743 294.94338 
L 297.74362 295.132824 
L 299.693497 295.295411 
L 302.293333 295.220129 
L 304.89317 295.203644 
L 312.692678 295.423498 
L 317.242391 295.315541 
L 320.817166 295.312286 
L 323.741982 295.347147 
L 328.291695 295.485018 
L 362.739525 295.488 
L 398.487273 295.488 
L 398.487273 295.488 
" style="fill:none;stroke:#8c564b;stroke-linecap:square;stroke-width:1.5;"/>
   </g>
   <g id="line2d_21">
    <path clip-path="url(#p4b75ff6d1b)" d="M 73.832727 295.488 
L 182.375889 295.376929 
L 184.000786 295.054799 
L 186.600622 294.371469 
L 187.575561 294.37817 
L 190.825356 294.791756 
L 191.800295 294.542727 
L 193.100213 293.879213 
L 195.05009 292.821206 
L 196.350008 292.427302 
L 199.924783 291.686024 
L 201.224701 291.796131 
L 202.849599 291.963289 
L 204.149517 291.873574 
L 206.099394 291.443808 
L 208.374251 290.950091 
L 210.974087 290.534427 
L 211.624046 290.157444 
L 212.274005 289.480433 
L 212.923964 288.416166 
L 213.573923 286.943268 
L 214.548862 284.145298 
L 215.84878 279.846156 
L 216.498739 277.1625 
L 217.148698 273.346908 
L 217.798657 267.435466 
L 218.448616 258.412882 
L 219.098575 245.540271 
L 219.748534 228.670362 
L 220.723473 197.470641 
L 222.34837 143.396587 
L 222.998329 126.259789 
L 223.648288 113.572076 
L 224.298247 105.996678 
L 224.623227 104.271854 
L 224.948206 103.984401 
L 225.273186 105.167979 
L 225.598165 107.837253 
L 226.248124 117.53658 
L 226.898084 132.462055 
L 227.873022 161.519006 
L 229.49792 211.676735 
L 230.472858 234.994973 
L 231.447797 251.883965 
L 232.422735 263.651083 
L 233.397674 271.77429 
L 234.047633 275.672482 
L 234.697592 278.606009 
L 235.347551 280.770624 
L 235.99751 282.367874 
L 236.972449 284.114484 
L 238.597346 286.362624 
L 240.547224 288.737151 
L 241.522162 289.649706 
L 242.82208 290.487442 
L 244.771957 291.667651 
L 246.396855 292.660065 
L 247.371794 292.964159 
L 248.346732 293.016258 
L 251.921507 292.858383 
L 253.546405 293.293508 
L 255.496282 293.750388 
L 264.270729 295.078332 
L 266.545586 295.109486 
L 268.170483 294.913361 
L 271.420278 294.347873 
L 272.720197 294.498806 
L 275.969992 295.111906 
L 280.844685 295.447693 
L 283.119541 295.39041 
L 285.394398 295.058915 
L 287.019296 294.899589 
L 288.319214 294.998701 
L 291.244029 295.343183 
L 292.868927 295.216727 
L 295.468763 294.890256 
L 296.768681 294.993334 
L 300.343456 295.451596 
L 304.24321 295.487942 
L 398.487273 295.488 
L 398.487273 295.488 
" style="fill:none;stroke:#e377c2;stroke-linecap:square;stroke-width:1.5;"/>
   </g>
   <g id="line2d_22">
    <path clip-path="url(#p4b75ff6d1b)" d="M 73.832727 295.488 
L 182.375889 295.410223 
L 183.675807 295.203904 
L 186.925602 294.502372 
L 188.22552 294.666746 
L 190.175397 294.981968 
L 191.150336 294.899879 
L 192.450254 294.498226 
L 195.05009 293.492179 
L 196.999967 293.171091 
L 198.299885 292.844079 
L 200.574742 292.186295 
L 202.524619 291.977887 
L 204.474496 291.720964 
L 206.424373 291.205779 
L 208.049271 290.851635 
L 209.349189 290.827567 
L 210.974087 290.87808 
L 211.624046 290.740405 
L 212.274005 290.391456 
L 212.923964 289.760366 
L 213.573923 288.831074 
L 216.173759 284.189571 
L 216.823718 282.591597 
L 217.148698 281.354688 
L 217.473677 279.631302 
L 217.798657 277.251707 
L 218.448616 269.811118 
L 219.098575 257.715575 
L 219.748534 240.170247 
L 220.723473 204.492135 
L 222.67335 126.695639 
L 223.323309 108.529835 
L 223.973268 96.73399 
L 224.298247 93.320614 
L 224.623227 91.57265 
L 224.948206 91.493488 
L 225.273186 93.087017 
L 225.598165 96.349962 
L 226.248124 107.748648 
L 226.898084 124.966669 
L 228.198002 169.774056 
L 229.49792 213.099625 
L 230.472858 237.174085 
L 231.122817 248.787541 
L 231.772776 257.516764 
L 232.422735 264.113996 
L 233.397674 271.344883 
L 234.372613 276.417969 
L 235.347551 279.914392 
L 236.32249 282.331116 
L 237.297428 284.109727 
L 238.272367 285.43576 
L 239.897265 287.064882 
L 241.197183 288.523888 
L 242.82208 290.31456 
L 244.121998 291.379997 
L 245.421916 292.2404 
L 246.396855 292.612648 
L 247.046814 292.650458 
L 248.021753 292.425672 
L 249.64665 291.920633 
L 250.621589 291.91128 
L 251.596527 292.182531 
L 255.821261 293.864371 
L 257.446159 294.19072 
L 258.746077 294.24797 
L 261.020934 294.243423 
L 262.645831 294.54008 
L 264.920688 294.936331 
L 267.195545 295.100708 
L 268.495463 294.988253 
L 270.12036 294.578822 
L 271.420278 294.321465 
L 272.395217 294.353408 
L 274.020115 294.72638 
L 275.645012 295.048215 
L 277.594889 295.158215 
L 281.169664 295.146933 
L 283.444521 295.101492 
L 286.694316 295.155323 
L 289.619132 295.124796 
L 291.569009 295.051489 
L 294.493825 294.847531 
L 296.118722 295.007521 
L 299.368518 295.437256 
L 302.618313 295.487697 
L 398.487273 295.488 
L 398.487273 295.488 
" style="fill:none;stroke:#7f7f7f;stroke-linecap:square;stroke-width:1.5;"/>
   </g>
   <g id="line2d_23">
    <path clip-path="url(#p4b75ff6d1b)" d="M 73.832727 295.488 
L 207.724292 295.40975 
L 208.374251 295.178092 
L 209.02421 294.618924 
L 210.649107 292.521112 
L 211.299066 292.270217 
L 211.949025 292.39886 
L 212.598984 292.58681 
L 212.923964 292.550775 
L 213.248943 292.309689 
L 213.573923 291.751838 
L 213.898903 290.763268 
L 214.548862 287.271009 
L 215.5238 280.800341 
L 215.84878 279.779558 
L 216.173759 279.730142 
L 216.498739 280.475985 
L 217.148698 282.534958 
L 217.473677 282.92141 
L 217.798657 282.534696 
L 218.123636 281.33373 
L 218.448616 279.308643 
L 218.773595 276.321847 
L 219.098575 272.002224 
L 219.423554 265.745702 
L 219.748534 256.840829 
L 220.398493 229.072506 
L 221.373432 166.96817 
L 222.34837 106.900531 
L 222.998329 81.071186 
L 223.648288 67.468487 
L 224.298247 60.460062 
L 224.948206 55.052396 
L 225.273186 53.568 
L 225.598165 54.332707 
L 225.923145 58.548463 
L 226.248124 66.947735 
L 226.898084 95.421534 
L 228.847961 199.776616 
L 229.49792 223.865979 
L 230.147879 241.006287 
L 230.797838 252.466595 
L 231.772776 264.123704 
L 232.747715 273.263463 
L 233.397674 277.614053 
L 234.047633 280.415494 
L 234.697592 282.19906 
L 235.347551 283.441467 
L 236.32249 284.68268 
L 237.297428 285.916314 
L 237.947387 286.778544 
L 238.597346 287.186152 
L 239.572285 287.390968 
L 239.897265 287.725509 
L 240.547224 288.953483 
L 241.197183 290.276793 
L 241.522162 290.689655 
L 241.847142 290.864888 
L 242.172121 290.821974 
L 243.472039 290.169255 
L 243.797019 290.354579 
L 244.446978 291.296118 
L 245.421916 292.874116 
L 246.071876 293.356513 
L 246.721835 293.497185 
L 248.996691 293.600384 
L 250.296609 294.214501 
L 252.571466 295.226839 
L 253.546405 295.437667 
L 255.496282 295.487846 
L 398.487273 295.488 
L 398.487273 295.488 
" style="fill:none;stroke:#bcbd22;stroke-linecap:square;stroke-width:1.5;"/>
   </g>
   <g id="line2d_24">
    <path clip-path="url(#p4b75ff6d1b)" d="M 73.832727 295.488 
L 207.724292 295.385312 
L 208.374251 295.129785 
L 209.02421 294.562743 
L 210.649107 292.495174 
L 211.299066 292.231523 
L 212.923964 292.310217 
L 213.248943 291.987433 
L 213.573923 291.382626 
L 213.898903 290.427351 
L 214.548862 287.416202 
L 215.5238 282.336213 
L 215.84878 281.506034 
L 216.173759 281.348637 
L 216.498739 281.731523 
L 217.148698 282.84473 
L 217.473677 282.882639 
L 217.798657 282.249662 
L 218.123636 280.820417 
L 218.448616 278.481751 
L 218.773595 275.031753 
L 219.098575 270.109913 
L 219.423554 263.20164 
L 220.073514 241.254907 
L 220.723473 207.089769 
L 222.34837 106.320712 
L 222.998329 81.425388 
L 223.648288 68.577863 
L 224.298247 62.378669 
L 224.948206 58.557414 
L 225.273186 58.151529 
L 225.598165 59.949986 
L 225.923145 64.91162 
L 226.248124 73.596065 
L 226.898084 101.258567 
L 228.847961 200.464768 
L 229.49792 223.654324 
L 230.147879 240.645876 
L 230.797838 252.391111 
L 231.447797 260.690953 
L 232.422735 269.982719 
L 233.072695 274.593579 
L 233.722654 277.913694 
L 234.697592 281.325174 
L 235.347551 283.004717 
L 235.99751 284.188267 
L 236.972449 285.285969 
L 237.947387 286.208602 
L 238.597346 286.509501 
L 239.247305 286.645623 
L 239.572285 286.850947 
L 239.897265 287.247453 
L 240.547224 288.580467 
L 241.197183 290.017114 
L 241.522162 290.496783 
L 241.847142 290.741869 
L 242.172121 290.770128 
L 243.472039 290.398797 
L 243.797019 290.605419 
L 244.446978 291.458742 
L 245.096937 292.409787 
L 245.746896 292.955658 
L 246.396855 293.077803 
L 248.021753 293.113796 
L 250.621589 293.735746 
L 251.271548 293.76657 
L 251.921507 294.02035 
L 253.546405 295.06347 
L 254.196364 295.158815 
L 255.171302 294.911056 
L 255.821261 294.757989 
L 256.47122 294.818043 
L 258.746077 295.453658 
L 260.370975 295.446068 
L 261.670893 295.239182 
L 262.970811 295.05017 
L 264.920688 295.071225 
L 269.145422 295.487775 
L 398.487273 295.488 
L 398.487273 295.488 
" style="fill:none;stroke:#17becf;stroke-linecap:square;stroke-width:1.5;"/>
   </g>
   <g id="line2d_25">
    <path clip-path="url(#p4b75ff6d1b)" d="M 73.832727 295.488 
L 207.724292 295.389628 
L 208.374251 295.140152 
L 209.02421 294.58066 
L 210.649107 292.525088 
L 211.299066 292.265608 
L 212.923964 292.30027 
L 213.248943 291.943994 
L 213.573923 291.295599 
L 213.898903 290.290599 
L 214.548862 287.192986 
L 215.5238 282.14258 
L 215.84878 281.374917 
L 216.173759 281.294564 
L 216.498739 281.756317 
L 217.148698 282.991919 
L 217.473677 283.067302 
L 217.798657 282.4625 
L 218.123636 281.061653 
L 218.448616 278.760594 
L 218.773595 275.362501 
L 219.098575 270.50567 
L 219.423554 263.667352 
L 220.073514 241.821411 
L 220.723473 207.640218 
L 222.34837 106.679157 
L 222.998329 81.868345 
L 223.648288 69.154194 
L 224.298247 62.842048 
L 224.948206 58.393151 
L 225.273186 57.519267 
L 225.598165 58.839425 
L 225.923145 63.402276 
L 226.248124 71.842975 
L 226.898084 99.593031 
L 228.847961 200.507841 
L 229.49792 223.850998 
L 230.147879 240.828373 
L 230.797838 252.441451 
L 231.447797 260.563404 
L 232.422735 269.726571 
L 233.072695 274.401438 
L 233.722654 277.853224 
L 234.372613 280.385323 
L 235.347551 283.150688 
L 235.99751 284.337985 
L 236.972449 285.418416 
L 237.947387 286.335489 
L 238.597346 286.630595 
L 239.247305 286.752066 
L 239.572285 286.949631 
L 239.897265 287.340256 
L 240.547224 288.66838 
L 241.197183 290.102346 
L 241.522162 290.578848 
L 241.847142 290.819403 
L 242.172121 290.842275 
L 243.472039 290.452136 
L 243.797019 290.657012 
L 244.446978 291.509657 
L 245.096937 292.458015 
L 245.746896 292.996588 
L 246.396855 293.111798 
L 247.696773 293.087314 
L 248.671712 293.349366 
L 249.97163 293.754741 
L 251.596527 293.876846 
L 252.246486 294.248268 
L 253.546405 295.073759 
L 254.196364 295.167466 
L 255.171302 294.917687 
L 255.821261 294.763362 
L 256.47122 294.823514 
L 258.746077 295.455196 
L 260.370975 295.447503 
L 261.670893 295.242422 
L 262.970811 295.054854 
L 265.245667 295.115056 
L 267.845504 295.478077 
L 274.670074 295.488 
L 398.487273 295.488 
L 398.487273 295.488 
" style="fill:none;stroke:#1f77b4;stroke-linecap:square;stroke-width:1.5;"/>
   </g>
   <g id="line2d_26">
    <path clip-path="url(#p4b75ff6d1b)" d="M 73.832727 295.488 
L 207.724292 295.390139 
L 208.374251 295.141375 
L 209.02421 294.582747 
L 210.649107 292.528436 
L 211.299066 292.2696 
L 212.923964 292.306928 
L 213.248943 291.951864 
L 213.573923 291.305026 
L 213.898903 290.301775 
L 214.548862 287.206965 
L 215.5238 282.157081 
L 215.84878 281.389975 
L 216.173759 281.311039 
L 216.498739 281.774903 
L 217.148698 283.014812 
L 217.473677 283.091768 
L 217.798657 282.488426 
L 218.123636 281.089445 
L 218.448616 278.790853 
L 218.773595 275.395 
L 219.098575 270.537618 
L 219.423554 263.69124 
L 220.073514 241.780498 
L 220.723473 207.441617 
L 222.34837 106.149059 
L 222.998329 81.432016 
L 223.648288 68.869323 
L 224.298247 62.719393 
L 224.948206 58.43393 
L 225.273186 57.632716 
L 225.598165 59.01264 
L 225.923145 63.619522 
L 226.248124 72.088382 
L 226.898084 99.854587 
L 228.847961 200.664853 
L 229.49792 223.972585 
L 230.147879 240.922341 
L 230.797838 252.513685 
L 231.447797 260.619384 
L 232.422735 269.76774 
L 233.072695 274.435873 
L 233.722654 277.881722 
L 234.372613 280.409164 
L 235.347551 283.170419 
L 235.99751 284.355726 
L 236.972449 285.433495 
L 237.947387 286.34997 
L 238.597346 286.644409 
L 239.247305 286.764097 
L 239.572285 286.960731 
L 239.897265 287.350679 
L 240.547224 288.678357 
L 241.197183 290.112156 
L 241.522162 290.588322 
L 241.847142 290.828349 
L 242.172121 290.850565 
L 243.472039 290.45809 
L 243.797019 290.662776 
L 244.446978 291.515436 
L 245.096937 292.46357 
L 245.746896 293.001305 
L 246.396855 293.115679 
L 247.696773 293.090619 
L 248.671712 293.352459 
L 249.97163 293.757714 
L 251.596527 293.878673 
L 252.246486 294.249888 
L 253.546405 295.074967 
L 254.196364 295.168484 
L 255.171302 294.918434 
L 255.821261 294.763938 
L 256.47122 294.82411 
L 258.746077 295.455378 
L 260.370975 295.447673 
L 261.670893 295.242791 
L 262.970811 295.055379 
L 265.245667 295.115458 
L 267.845504 295.478139 
L 274.670074 295.488 
L 398.487273 295.488 
L 398.487273 295.488 
" style="fill:none;stroke:#ff7f0e;stroke-linecap:square;stroke-width:1.5;"/>
   </g>
   <g id="line2d_27">
    <path clip-path="url(#p4b75ff6d1b)" d="M 73.832727 295.488 
L 207.724292 295.387859 
L 208.374251 295.137239 
L 209.02421 294.579309 
L 210.649107 292.54019 
L 211.299066 292.28006 
L 212.923964 292.29922 
L 213.248943 291.940191 
L 213.573923 291.290479 
L 213.898903 290.287193 
L 214.548862 287.209412 
L 215.5238 282.213829 
L 215.84878 281.451756 
L 216.173759 281.364275 
L 216.498739 281.808628 
L 217.148698 283.003158 
L 217.473677 283.064054 
L 217.798657 282.447357 
L 218.123636 281.030076 
L 218.448616 278.698769 
L 218.773595 275.248861 
L 219.098575 270.316125 
L 219.423554 263.383049 
L 220.073514 241.34761 
L 220.723473 207.084968 
L 222.34837 106.518843 
L 222.998329 81.901998 
L 223.648288 69.29175 
L 224.298247 63.075658 
L 224.948206 58.816918 
L 225.273186 58.050391 
L 225.598165 59.447431 
L 225.923145 64.029157 
L 226.248124 72.419872 
L 226.898084 99.927003 
L 228.847961 200.573288 
L 229.49792 223.935703 
L 230.147879 240.911889 
L 230.797838 252.525196 
L 231.447797 260.647782 
L 232.422735 269.789831 
L 233.072695 274.449104 
L 233.722654 277.894752 
L 234.372613 280.424047 
L 235.347551 283.180927 
L 235.99751 284.365842 
L 236.972449 285.448841 
L 237.947387 286.358837 
L 238.597346 286.654351 
L 239.247305 286.784432 
L 239.572285 286.98495 
L 239.897265 287.374902 
L 240.547224 288.690341 
L 241.197183 290.108829 
L 241.522162 290.581756 
L 241.847142 290.822522 
L 242.172121 290.848819 
L 243.472039 290.476307 
L 243.797019 290.679908 
L 244.446978 291.522715 
L 245.096937 292.461452 
L 245.746896 292.998357 
L 246.396855 293.115453 
L 248.021753 293.079213 
L 251.271548 293.603938 
L 251.921507 293.961979 
L 253.546405 295.069598 
L 254.196364 295.165132 
L 255.171302 294.920012 
L 255.821261 294.768421 
L 256.47122 294.827778 
L 258.746077 295.454539 
L 260.370975 295.447008 
L 261.670893 295.243161 
L 262.970811 295.056867 
L 264.920688 295.077482 
L 269.145422 295.487785 
L 398.487273 295.488 
L 398.487273 295.488 
" style="fill:none;stroke:#2ca02c;stroke-linecap:square;stroke-width:1.5;"/>
   </g>
   <g id="line2d_28">
    <path clip-path="url(#p4b75ff6d1b)" d="M 73.832727 295.488 
L 207.724292 295.387859 
L 208.374251 295.137239 
L 209.02421 294.579309 
L 210.649107 292.54019 
L 211.299066 292.28006 
L 212.923964 292.29922 
L 213.248943 291.940191 
L 213.573923 291.290479 
L 213.898903 290.287193 
L 214.548862 287.209412 
L 215.5238 282.213829 
L 215.84878 281.451756 
L 216.173759 281.364275 
L 216.498739 281.808628 
L 217.148698 283.003158 
L 217.473677 283.064054 
L 217.798657 282.447357 
L 218.123636 281.030076 
L 218.448616 278.698769 
L 218.773595 275.248861 
L 219.098575 270.316125 
L 219.423554 263.383049 
L 220.073514 241.34761 
L 220.723473 207.084968 
L 222.34837 106.518843 
L 222.998329 81.901998 
L 223.648288 69.29175 
L 224.298247 63.075658 
L 224.948206 58.816918 
L 225.273186 58.050391 
L 225.598165 59.447431 
L 225.923145 64.029157 
L 226.248124 72.419872 
L 226.898084 99.927003 
L 228.847961 200.573288 
L 229.49792 223.935703 
L 230.147879 240.911889 
L 230.797838 252.525196 
L 231.447797 260.647782 
L 232.422735 269.789831 
L 233.072695 274.449104 
L 233.722654 277.894752 
L 234.372613 280.424047 
L 235.347551 283.180927 
L 235.99751 284.365842 
L 236.972449 285.448841 
L 237.947387 286.358837 
L 238.597346 286.654351 
L 239.247305 286.784432 
L 239.572285 286.98495 
L 239.897265 287.374902 
L 240.547224 288.690341 
L 241.197183 290.108829 
L 241.522162 290.581756 
L 241.847142 290.822522 
L 242.172121 290.848819 
L 243.472039 290.476307 
L 243.797019 290.679908 
L 244.446978 291.522715 
L 245.096937 292.461452 
L 245.746896 292.998357 
L 246.396855 293.115453 
L 248.021753 293.079213 
L 251.271548 293.603938 
L 251.921507 293.961979 
L 253.546405 295.069598 
L 254.196364 295.165132 
L 255.171302 294.920012 
L 255.821261 294.768421 
L 256.47122 294.827778 
L 258.746077 295.454539 
L 260.370975 295.447008 
L 261.670893 295.243161 
L 262.970811 295.056867 
L 264.920688 295.077482 
L 269.145422 295.487785 
L 398.487273 295.488 
L 398.487273 295.488 
" style="fill:none;stroke:#d62728;stroke-linecap:square;stroke-width:1.5;"/>
   </g>
   <g id="line2d_29">
    <path clip-path="url(#p4b75ff6d1b)" d="M 73.832727 295.488 
L 207.724292 295.387859 
L 208.374251 295.137239 
L 209.02421 294.579309 
L 210.649107 292.54019 
L 211.299066 292.28006 
L 212.923964 292.29922 
L 213.248943 291.940191 
L 213.573923 291.290479 
L 213.898903 290.287193 
L 214.548862 287.209412 
L 215.5238 282.213829 
L 215.84878 281.451756 
L 216.173759 281.364275 
L 216.498739 281.808628 
L 217.148698 283.003158 
L 217.473677 283.064054 
L 217.798657 282.447357 
L 218.123636 281.030076 
L 218.448616 278.698769 
L 218.773595 275.248861 
L 219.098575 270.316125 
L 219.423554 263.383049 
L 220.073514 241.34761 
L 220.723473 207.084968 
L 222.34837 106.518843 
L 222.998329 81.901998 
L 223.648288 69.29175 
L 224.298247 63.075658 
L 224.948206 58.816918 
L 225.273186 58.050391 
L 225.598165 59.447431 
L 225.923145 64.029157 
L 226.248124 72.419872 
L 226.898084 99.927003 
L 228.847961 200.573288 
L 229.49792 223.935703 
L 230.147879 240.911889 
L 230.797838 252.525196 
L 231.447797 260.647782 
L 232.422735 269.789831 
L 233.072695 274.449104 
L 233.722654 277.894752 
L 234.372613 280.424047 
L 235.347551 283.180927 
L 235.99751 284.365842 
L 236.972449 285.448841 
L 237.947387 286.358837 
L 238.597346 286.654351 
L 239.247305 286.784432 
L 239.572285 286.98495 
L 239.897265 287.374902 
L 240.547224 288.690341 
L 241.197183 290.108829 
L 241.522162 290.581756 
L 241.847142 290.822522 
L 242.172121 290.848819 
L 243.472039 290.476307 
L 243.797019 290.679908 
L 244.446978 291.522715 
L 245.096937 292.461452 
L 245.746896 292.998357 
L 246.396855 293.115453 
L 248.021753 293.079213 
L 251.271548 293.603938 
L 251.921507 293.961979 
L 253.546405 295.069598 
L 254.196364 295.165132 
L 255.171302 294.920012 
L 255.821261 294.768421 
L 256.47122 294.827778 
L 258.746077 295.454539 
L 260.370975 295.447008 
L 261.670893 295.243161 
L 262.970811 295.056867 
L 264.920688 295.077482 
L 269.145422 295.487785 
L 398.487273 295.488 
L 398.487273 295.488 
" style="fill:none;stroke:#9467bd;stroke-linecap:square;stroke-width:1.5;"/>
   </g>
   <g id="line2d_30">
    <path clip-path="url(#p4b75ff6d1b)" d="M 73.832727 295.488 
L 207.724292 295.387859 
L 208.374251 295.137239 
L 209.02421 294.579309 
L 210.649107 292.54019 
L 211.299066 292.28006 
L 212.923964 292.29922 
L 213.248943 291.940191 
L 213.573923 291.290479 
L 213.898903 290.287193 
L 214.548862 287.209412 
L 215.5238 282.213829 
L 215.84878 281.451756 
L 216.173759 281.364275 
L 216.498739 281.808628 
L 217.148698 283.003158 
L 217.473677 283.064054 
L 217.798657 282.447357 
L 218.123636 281.030076 
L 218.448616 278.698769 
L 218.773595 275.248861 
L 219.098575 270.316125 
L 219.423554 263.383049 
L 220.073514 241.34761 
L 220.723473 207.084968 
L 222.34837 106.518843 
L 222.998329 81.901998 
L 223.648288 69.29175 
L 224.298247 63.075658 
L 224.948206 58.816918 
L 225.273186 58.050391 
L 225.598165 59.447431 
L 225.923145 64.029157 
L 226.248124 72.419872 
L 226.898084 99.927003 
L 228.847961 200.573288 
L 229.49792 223.935703 
L 230.147879 240.911889 
L 230.797838 252.525196 
L 231.447797 260.647782 
L 232.422735 269.789831 
L 233.072695 274.449104 
L 233.722654 277.894752 
L 234.372613 280.424047 
L 235.347551 283.180927 
L 235.99751 284.365842 
L 236.972449 285.448841 
L 237.947387 286.358837 
L 238.597346 286.654351 
L 239.247305 286.784432 
L 239.572285 286.98495 
L 239.897265 287.374902 
L 240.547224 288.690341 
L 241.197183 290.108829 
L 241.522162 290.581756 
L 241.847142 290.822522 
L 242.172121 290.848819 
L 243.472039 290.476307 
L 243.797019 290.679908 
L 244.446978 291.522715 
L 245.096937 292.461452 
L 245.746896 292.998357 
L 246.396855 293.115453 
L 248.021753 293.079213 
L 251.271548 293.603938 
L 251.921507 293.961979 
L 253.546405 295.069598 
L 254.196364 295.165132 
L 255.171302 294.920012 
L 255.821261 294.768421 
L 256.47122 294.827778 
L 258.746077 295.454539 
L 260.370975 295.447008 
L 261.670893 295.243161 
L 262.970811 295.056867 
L 264.920688 295.077482 
L 269.145422 295.487785 
L 398.487273 295.488 
L 398.487273 295.488 
" style="fill:none;stroke:#8c564b;stroke-linecap:square;stroke-width:1.5;"/>
   </g>
   <g id="line2d_31">
    <path clip-path="url(#p4b75ff6d1b)" d="M 73.832727 295.488 
L 207.724292 295.387859 
L 208.374251 295.137239 
L 209.02421 294.579309 
L 210.649107 292.54019 
L 211.299066 292.28006 
L 212.923964 292.29922 
L 213.248943 291.940191 
L 213.573923 291.290479 
L 213.898903 290.287193 
L 214.548862 287.209412 
L 215.5238 282.213829 
L 215.84878 281.451756 
L 216.173759 281.364275 
L 216.498739 281.808628 
L 217.148698 283.003158 
L 217.473677 283.064054 
L 217.798657 282.447357 
L 218.123636 281.030076 
L 218.448616 278.698769 
L 218.773595 275.248861 
L 219.098575 270.316125 
L 219.423554 263.383049 
L 220.073514 241.34761 
L 220.723473 207.084968 
L 222.34837 106.518843 
L 222.998329 81.901998 
L 223.648288 69.29175 
L 224.298247 63.075658 
L 224.948206 58.816918 
L 225.273186 58.050391 
L 225.598165 59.447431 
L 225.923145 64.029157 
L 226.248124 72.419872 
L 226.898084 99.927003 
L 228.847961 200.573288 
L 229.49792 223.935703 
L 230.147879 240.911889 
L 230.797838 252.525196 
L 231.447797 260.647782 
L 232.422735 269.789831 
L 233.072695 274.449104 
L 233.722654 277.894752 
L 234.372613 280.424047 
L 235.347551 283.180927 
L 235.99751 284.365842 
L 236.972449 285.448841 
L 237.947387 286.358837 
L 238.597346 286.654351 
L 239.247305 286.784432 
L 239.572285 286.98495 
L 239.897265 287.374902 
L 240.547224 288.690341 
L 241.197183 290.108829 
L 241.522162 290.581756 
L 241.847142 290.822522 
L 242.172121 290.848819 
L 243.472039 290.476307 
L 243.797019 290.679908 
L 244.446978 291.522715 
L 245.096937 292.461452 
L 245.746896 292.998357 
L 246.396855 293.115453 
L 248.021753 293.079213 
L 251.271548 293.603938 
L 251.921507 293.961979 
L 253.546405 295.069598 
L 254.196364 295.165132 
L 255.171302 294.920012 
L 255.821261 294.768421 
L 256.47122 294.827778 
L 258.746077 295.454539 
L 260.370975 295.447008 
L 261.670893 295.243161 
L 262.970811 295.056867 
L 264.920688 295.077482 
L 269.145422 295.487785 
L 398.487273 295.488 
L 398.487273 295.488 
" style="fill:none;stroke:#e377c2;stroke-linecap:square;stroke-width:1.5;"/>
   </g>
   <g id="line2d_32">
    <path clip-path="url(#p4b75ff6d1b)" d="M 73.832727 295.488 
L 207.724292 295.387859 
L 208.374251 295.137239 
L 209.02421 294.579309 
L 210.649107 292.54019 
L 211.299066 292.28006 
L 212.923964 292.29922 
L 213.248943 291.940191 
L 213.573923 291.290479 
L 213.898903 290.287193 
L 214.548862 287.209412 
L 215.5238 282.213829 
L 215.84878 281.451756 
L 216.173759 281.364275 
L 216.498739 281.808628 
L 217.148698 283.003158 
L 217.473677 283.064054 
L 217.798657 282.447357 
L 218.123636 281.030076 
L 218.448616 278.698769 
L 218.773595 275.248861 
L 219.098575 270.316125 
L 219.423554 263.383049 
L 220.073514 241.34761 
L 220.723473 207.084968 
L 222.34837 106.518843 
L 222.998329 81.901998 
L 223.648288 69.29175 
L 224.298247 63.075658 
L 224.948206 58.816918 
L 225.273186 58.050391 
L 225.598165 59.447431 
L 225.923145 64.029157 
L 226.248124 72.419872 
L 226.898084 99.927003 
L 228.847961 200.573288 
L 229.49792 223.935703 
L 230.147879 240.911889 
L 230.797838 252.525196 
L 231.447797 260.647782 
L 232.422735 269.789831 
L 233.072695 274.449104 
L 233.722654 277.894752 
L 234.372613 280.424047 
L 235.347551 283.180927 
L 235.99751 284.365842 
L 236.972449 285.448841 
L 237.947387 286.358837 
L 238.597346 286.654351 
L 239.247305 286.784432 
L 239.572285 286.98495 
L 239.897265 287.374902 
L 240.547224 288.690341 
L 241.197183 290.108829 
L 241.522162 290.581756 
L 241.847142 290.822522 
L 242.172121 290.848819 
L 243.472039 290.476307 
L 243.797019 290.679908 
L 244.446978 291.522715 
L 245.096937 292.461452 
L 245.746896 292.998357 
L 246.396855 293.115453 
L 248.021753 293.079213 
L 251.271548 293.603938 
L 251.921507 293.961979 
L 253.546405 295.069598 
L 254.196364 295.165132 
L 255.171302 294.920012 
L 255.821261 294.768421 
L 256.47122 294.827778 
L 258.746077 295.454539 
L 260.370975 295.447008 
L 261.670893 295.243161 
L 262.970811 295.056867 
L 264.920688 295.077482 
L 269.145422 295.487785 
L 398.487273 295.488 
L 398.487273 295.488 
" style="fill:none;stroke:#7f7f7f;stroke-linecap:square;stroke-width:1.5;"/>
   </g>
   <g id="line2d_33">
    <path clip-path="url(#p4b75ff6d1b)" d="M 73.832727 295.488 
L 207.724292 295.387859 
L 208.374251 295.137239 
L 209.02421 294.579309 
L 210.649107 292.54019 
L 211.299066 292.28006 
L 212.923964 292.29922 
L 213.248943 291.940191 
L 213.573923 291.290479 
L 213.898903 290.287193 
L 214.548862 287.209412 
L 215.5238 282.213829 
L 215.84878 281.451756 
L 216.173759 281.364275 
L 216.498739 281.808628 
L 217.148698 283.003158 
L 217.473677 283.064054 
L 217.798657 282.447357 
L 218.123636 281.030076 
L 218.448616 278.698769 
L 218.773595 275.248861 
L 219.098575 270.316125 
L 219.423554 263.383049 
L 220.073514 241.34761 
L 220.723473 207.084968 
L 222.34837 106.518843 
L 222.998329 81.901998 
L 223.648288 69.29175 
L 224.298247 63.075658 
L 224.948206 58.816918 
L 225.273186 58.050391 
L 225.598165 59.447431 
L 225.923145 64.029157 
L 226.248124 72.419872 
L 226.898084 99.927003 
L 228.847961 200.573288 
L 229.49792 223.935703 
L 230.147879 240.911889 
L 230.797838 252.525196 
L 231.447797 260.647782 
L 232.422735 269.789831 
L 233.072695 274.449104 
L 233.722654 277.894752 
L 234.372613 280.424047 
L 235.347551 283.180927 
L 235.99751 284.365842 
L 236.972449 285.448841 
L 237.947387 286.358837 
L 238.597346 286.654351 
L 239.247305 286.784432 
L 239.572285 286.98495 
L 239.897265 287.374902 
L 240.547224 288.690341 
L 241.197183 290.108829 
L 241.522162 290.581756 
L 241.847142 290.822522 
L 242.172121 290.848819 
L 243.472039 290.476307 
L 243.797019 290.679908 
L 244.446978 291.522715 
L 245.096937 292.461452 
L 245.746896 292.998357 
L 246.396855 293.115453 
L 248.021753 293.079213 
L 251.271548 293.603938 
L 251.921507 293.961979 
L 253.546405 295.069598 
L 254.196364 295.165132 
L 255.171302 294.920012 
L 255.821261 294.768421 
L 256.47122 294.827778 
L 258.746077 295.454539 
L 260.370975 295.447008 
L 261.670893 295.243161 
L 262.970811 295.056867 
L 264.920688 295.077482 
L 269.145422 295.487785 
L 398.487273 295.488 
L 398.487273 295.488 
" style="fill:none;stroke:#bcbd22;stroke-linecap:square;stroke-width:1.5;"/>
   </g>
   <g id="line2d_34">
    <path clip-path="url(#p4b75ff6d1b)" d="M 73.832727 295.488 
L 207.724292 295.387859 
L 208.374251 295.137239 
L 209.02421 294.579309 
L 210.649107 292.54019 
L 211.299066 292.28006 
L 212.923964 292.29922 
L 213.248943 291.940191 
L 213.573923 291.290479 
L 213.898903 290.287193 
L 214.548862 287.209412 
L 215.5238 282.213829 
L 215.84878 281.451756 
L 216.173759 281.364275 
L 216.498739 281.808628 
L 217.148698 283.003158 
L 217.473677 283.064054 
L 217.798657 282.447357 
L 218.123636 281.030076 
L 218.448616 278.698769 
L 218.773595 275.248861 
L 219.098575 270.316125 
L 219.423554 263.383049 
L 220.073514 241.34761 
L 220.723473 207.084968 
L 222.34837 106.518843 
L 222.998329 81.901998 
L 223.648288 69.29175 
L 224.298247 63.075658 
L 224.948206 58.816918 
L 225.273186 58.050391 
L 225.598165 59.447431 
L 225.923145 64.029157 
L 226.248124 72.419872 
L 226.898084 99.927003 
L 228.847961 200.573288 
L 229.49792 223.935703 
L 230.147879 240.911889 
L 230.797838 252.525196 
L 231.447797 260.647782 
L 232.422735 269.789831 
L 233.072695 274.449104 
L 233.722654 277.894752 
L 234.372613 280.424047 
L 235.347551 283.180927 
L 235.99751 284.365842 
L 236.972449 285.448841 
L 237.947387 286.358837 
L 238.597346 286.654351 
L 239.247305 286.784432 
L 239.572285 286.98495 
L 239.897265 287.374902 
L 240.547224 288.690341 
L 241.197183 290.108829 
L 241.522162 290.581756 
L 241.847142 290.822522 
L 242.172121 290.848819 
L 243.472039 290.476307 
L 243.797019 290.679908 
L 244.446978 291.522715 
L 245.096937 292.461452 
L 245.746896 292.998357 
L 246.396855 293.115453 
L 248.021753 293.079213 
L 251.271548 293.603938 
L 251.921507 293.961979 
L 253.546405 295.069598 
L 254.196364 295.165132 
L 255.171302 294.920012 
L 255.821261 294.768421 
L 256.47122 294.827778 
L 258.746077 295.454539 
L 260.370975 295.447008 
L 261.670893 295.243161 
L 262.970811 295.056867 
L 264.920688 295.077482 
L 269.145422 295.487785 
L 398.487273 295.488 
L 398.487273 295.488 
" style="fill:none;stroke:#17becf;stroke-linecap:square;stroke-width:1.5;"/>
   </g>
   <g id="line2d_35">
    <path clip-path="url(#p4b75ff6d1b)" d="M 226.150428 307.584 
L 226.150428 41.472 
" style="fill:none;stroke:#1f77b4;stroke-linecap:square;stroke-width:1.5;"/>
   </g>
   <g id="patch_3">
    <path d="M 57.6 307.584 
L 57.6 41.472 
" style="fill:none;stroke:#000000;stroke-linecap:square;stroke-linejoin:miter;stroke-width:0.8;"/>
   </g>
   <g id="patch_4">
    <path d="M 414.72 307.584 
L 414.72 41.472 
" style="fill:none;stroke:#000000;stroke-linecap:square;stroke-linejoin:miter;stroke-width:0.8;"/>
   </g>
   <g id="patch_5">
    <path d="M 57.6 307.584 
L 414.72 307.584 
" style="fill:none;stroke:#000000;stroke-linecap:square;stroke-linejoin:miter;stroke-width:0.8;"/>
   </g>
   <g id="patch_6">
    <path d="M 57.6 41.472 
L 414.72 41.472 
" style="fill:none;stroke:#000000;stroke-linecap:square;stroke-linejoin:miter;stroke-width:0.8;"/>
   </g>
  </g>
 </g>
 <defs>
  <clipPath id="p4b75ff6d1b">
   <rect height="266.112" width="357.12" x="57.6" y="41.472"/>
  </clipPath>
 </defs>
</svg>
