<?xml version="1.0" encoding="utf-8" standalone="no"?>
<!DOCTYPE svg PUBLIC "-//W3C//DTD SVG 1.1//EN"
  "http://www.w3.org/Graphics/SVG/1.1/DTD/svg11.dtd">
<!-- Created with matplotlib (http://matplotlib.org/) -->
<svg height="345pt" version="1.1" viewBox="0 0 460 345" width="460pt" xmlns="http://www.w3.org/2000/svg" xmlns:xlink="http://www.w3.org/1999/xlink">
 <defs>
  <style type="text/css">
*{stroke-linecap:butt;stroke-linejoin:round;}
  </style>
 </defs>
 <g id="figure_1">
  <g id="patch_1">
   <path d="M 0 345.6 
L 460.8 345.6 
L 460.8 0 
L 0 0 
z
" style="fill:none;"/>
  </g>
  <g id="axes_1">
   <g id="patch_2">
    <path d="M 57.6 307.584 
L 414.72 307.584 
L 414.72 41.472 
L 57.6 41.472 
z
" style="fill:none;"/>
   </g>
   <g id="matplotlib.axis_1">
    <g id="xtick_1">
     <g id="line2d_1">
      <defs>
       <path d="M 0 0 
L 0 3.5 
" id="m7338e3d997" style="stroke:#000000;stroke-width:0.8;"/>
      </defs>
      <g>
       <use style="stroke:#000000;stroke-width:0.8;" x="65.01845" xlink:href="#m7338e3d997" y="307.584"/>
      </g>
     </g>
     <g id="text_1">
      <!-- −300 -->
      <defs>
       <path d="M 10.59375 35.5 
L 73.1875 35.5 
L 73.1875 27.203125 
L 10.59375 27.203125 
z
" id="DejaVuSans-2212"/>
       <path d="M 40.578125 39.3125 
Q 47.65625 37.796875 51.625 33 
Q 55.609375 28.21875 55.609375 21.1875 
Q 55.609375 10.40625 48.1875 4.484375 
Q 40.765625 -1.421875 27.09375 -1.421875 
Q 22.515625 -1.421875 17.65625 -0.515625 
Q 12.796875 0.390625 7.625 2.203125 
L 7.625 11.71875 
Q 11.71875 9.328125 16.59375 8.109375 
Q 21.484375 6.890625 26.8125 6.890625 
Q 36.078125 6.890625 40.9375 10.546875 
Q 45.796875 14.203125 45.796875 21.1875 
Q 45.796875 27.640625 41.28125 31.265625 
Q 36.765625 34.90625 28.71875 34.90625 
L 20.21875 34.90625 
L 20.21875 43.015625 
L 29.109375 43.015625 
Q 36.375 43.015625 40.234375 45.921875 
Q 44.09375 48.828125 44.09375 54.296875 
Q 44.09375 59.90625 40.109375 62.90625 
Q 36.140625 65.921875 28.71875 65.921875 
Q 24.65625 65.921875 20.015625 65.03125 
Q 15.375 64.15625 9.8125 62.3125 
L 9.8125 71.09375 
Q 15.4375 72.65625 20.34375 73.4375 
Q 25.25 74.21875 29.59375 74.21875 
Q 40.828125 74.21875 47.359375 69.109375 
Q 53.90625 64.015625 53.90625 55.328125 
Q 53.90625 49.265625 50.4375 45.09375 
Q 46.96875 40.921875 40.578125 39.3125 
z
" id="DejaVuSans-33"/>
       <path d="M 31.78125 66.40625 
Q 24.171875 66.40625 20.328125 58.90625 
Q 16.5 51.421875 16.5 36.375 
Q 16.5 21.390625 20.328125 13.890625 
Q 24.171875 6.390625 31.78125 6.390625 
Q 39.453125 6.390625 43.28125 13.890625 
Q 47.125 21.390625 47.125 36.375 
Q 47.125 51.421875 43.28125 58.90625 
Q 39.453125 66.40625 31.78125 66.40625 
z
M 31.78125 74.21875 
Q 44.046875 74.21875 50.515625 64.515625 
Q 56.984375 54.828125 56.984375 36.375 
Q 56.984375 17.96875 50.515625 8.265625 
Q 44.046875 -1.421875 31.78125 -1.421875 
Q 19.53125 -1.421875 13.0625 8.265625 
Q 6.59375 17.96875 6.59375 36.375 
Q 6.59375 54.828125 13.0625 64.515625 
Q 19.53125 74.21875 31.78125 74.21875 
z
" id="DejaVuSans-30"/>
      </defs>
      <g transform="translate(51.284856 322.182437)scale(0.1 -0.1)">
       <use xlink:href="#DejaVuSans-2212"/>
       <use x="83.789062" xlink:href="#DejaVuSans-33"/>
       <use x="147.412109" xlink:href="#DejaVuSans-30"/>
       <use x="211.035156" xlink:href="#DejaVuSans-30"/>
      </g>
     </g>
    </g>
    <g id="xtick_2">
     <g id="line2d_2">
      <g>
       <use style="stroke:#000000;stroke-width:0.8;" x="123.608788" xlink:href="#m7338e3d997" y="307.584"/>
      </g>
     </g>
     <g id="text_2">
      <!-- −200 -->
      <defs>
       <path d="M 19.1875 8.296875 
L 53.609375 8.296875 
L 53.609375 0 
L 7.328125 0 
L 7.328125 8.296875 
Q 12.9375 14.109375 22.625 23.890625 
Q 32.328125 33.6875 34.8125 36.53125 
Q 39.546875 41.84375 41.421875 45.53125 
Q 43.3125 49.21875 43.3125 52.78125 
Q 43.3125 58.59375 39.234375 62.25 
Q 35.15625 65.921875 28.609375 65.921875 
Q 23.96875 65.921875 18.8125 64.3125 
Q 13.671875 62.703125 7.8125 59.421875 
L 7.8125 69.390625 
Q 13.765625 71.78125 18.9375 73 
Q 24.125 74.21875 28.421875 74.21875 
Q 39.75 74.21875 46.484375 68.546875 
Q 53.21875 62.890625 53.21875 53.421875 
Q 53.21875 48.921875 51.53125 44.890625 
Q 49.859375 40.875 45.40625 35.40625 
Q 44.1875 33.984375 37.640625 27.21875 
Q 31.109375 20.453125 19.1875 8.296875 
z
" id="DejaVuSans-32"/>
      </defs>
      <g transform="translate(109.875194 322.182437)scale(0.1 -0.1)">
       <use xlink:href="#DejaVuSans-2212"/>
       <use x="83.789062" xlink:href="#DejaVuSans-32"/>
       <use x="147.412109" xlink:href="#DejaVuSans-30"/>
       <use x="211.035156" xlink:href="#DejaVuSans-30"/>
      </g>
     </g>
    </g>
    <g id="xtick_3">
     <g id="line2d_3">
      <g>
       <use style="stroke:#000000;stroke-width:0.8;" x="182.199127" xlink:href="#m7338e3d997" y="307.584"/>
      </g>
     </g>
     <g id="text_3">
      <!-- −100 -->
      <defs>
       <path d="M 12.40625 8.296875 
L 28.515625 8.296875 
L 28.515625 63.921875 
L 10.984375 60.40625 
L 10.984375 69.390625 
L 28.421875 72.90625 
L 38.28125 72.90625 
L 38.28125 8.296875 
L 54.390625 8.296875 
L 54.390625 0 
L 12.40625 0 
z
" id="DejaVuSans-31"/>
      </defs>
      <g transform="translate(168.465533 322.182437)scale(0.1 -0.1)">
       <use xlink:href="#DejaVuSans-2212"/>
       <use x="83.789062" xlink:href="#DejaVuSans-31"/>
       <use x="147.412109" xlink:href="#DejaVuSans-30"/>
       <use x="211.035156" xlink:href="#DejaVuSans-30"/>
      </g>
     </g>
    </g>
    <g id="xtick_4">
     <g id="line2d_4">
      <g>
       <use style="stroke:#000000;stroke-width:0.8;" x="240.789466" xlink:href="#m7338e3d997" y="307.584"/>
      </g>
     </g>
     <g id="text_4">
      <!-- 0 -->
      <g transform="translate(237.608216 322.182437)scale(0.1 -0.1)">
       <use xlink:href="#DejaVuSans-30"/>
      </g>
     </g>
    </g>
    <g id="xtick_5">
     <g id="line2d_5">
      <g>
       <use style="stroke:#000000;stroke-width:0.8;" x="299.379804" xlink:href="#m7338e3d997" y="307.584"/>
      </g>
     </g>
     <g id="text_5">
      <!-- 100 -->
      <g transform="translate(289.836054 322.182437)scale(0.1 -0.1)">
       <use xlink:href="#DejaVuSans-31"/>
       <use x="63.623047" xlink:href="#DejaVuSans-30"/>
       <use x="127.246094" xlink:href="#DejaVuSans-30"/>
      </g>
     </g>
    </g>
    <g id="xtick_6">
     <g id="line2d_6">
      <g>
       <use style="stroke:#000000;stroke-width:0.8;" x="357.970143" xlink:href="#m7338e3d997" y="307.584"/>
      </g>
     </g>
     <g id="text_6">
      <!-- 200 -->
      <g transform="translate(348.426393 322.182437)scale(0.1 -0.1)">
       <use xlink:href="#DejaVuSans-32"/>
       <use x="63.623047" xlink:href="#DejaVuSans-30"/>
       <use x="127.246094" xlink:href="#DejaVuSans-30"/>
      </g>
     </g>
    </g>
   </g>
   <g id="matplotlib.axis_2">
    <g id="ytick_1">
     <g id="line2d_7">
      <defs>
       <path d="M 0 0 
L -3.5 0 
" id="m670865dd2d" style="stroke:#000000;stroke-width:0.8;"/>
      </defs>
      <g>
       <use style="stroke:#000000;stroke-width:0.8;" x="57.6" xlink:href="#m670865dd2d" y="295.488"/>
      </g>
     </g>
     <g id="text_7">
      <!-- 0.0 -->
      <defs>
       <path d="M 10.6875 12.40625 
L 21 12.40625 
L 21 0 
L 10.6875 0 
z
" id="DejaVuSans-2e"/>
      </defs>
      <g transform="translate(34.696875 299.287219)scale(0.1 -0.1)">
       <use xlink:href="#DejaVuSans-30"/>
       <use x="63.623047" xlink:href="#DejaVuSans-2e"/>
       <use x="95.410156" xlink:href="#DejaVuSans-30"/>
      </g>
     </g>
    </g>
    <g id="ytick_2">
     <g id="line2d_8">
      <g>
       <use style="stroke:#000000;stroke-width:0.8;" x="57.6" xlink:href="#m670865dd2d" y="237.797618"/>
      </g>
     </g>
     <g id="text_8">
      <!-- 0.2 -->
      <g transform="translate(34.696875 241.596837)scale(0.1 -0.1)">
       <use xlink:href="#DejaVuSans-30"/>
       <use x="63.623047" xlink:href="#DejaVuSans-2e"/>
       <use x="95.410156" xlink:href="#DejaVuSans-32"/>
      </g>
     </g>
    </g>
    <g id="ytick_3">
     <g id="line2d_9">
      <g>
       <use style="stroke:#000000;stroke-width:0.8;" x="57.6" xlink:href="#m670865dd2d" y="180.107237"/>
      </g>
     </g>
     <g id="text_9">
      <!-- 0.4 -->
      <defs>
       <path d="M 37.796875 64.3125 
L 12.890625 25.390625 
L 37.796875 25.390625 
z
M 35.203125 72.90625 
L 47.609375 72.90625 
L 47.609375 25.390625 
L 58.015625 25.390625 
L 58.015625 17.1875 
L 47.609375 17.1875 
L 47.609375 0 
L 37.796875 0 
L 37.796875 17.1875 
L 4.890625 17.1875 
L 4.890625 26.703125 
z
" id="DejaVuSans-34"/>
      </defs>
      <g transform="translate(34.696875 183.906456)scale(0.1 -0.1)">
       <use xlink:href="#DejaVuSans-30"/>
       <use x="63.623047" xlink:href="#DejaVuSans-2e"/>
       <use x="95.410156" xlink:href="#DejaVuSans-34"/>
      </g>
     </g>
    </g>
    <g id="ytick_4">
     <g id="line2d_10">
      <g>
       <use style="stroke:#000000;stroke-width:0.8;" x="57.6" xlink:href="#m670865dd2d" y="122.416855"/>
      </g>
     </g>
     <g id="text_10">
      <!-- 0.6 -->
      <defs>
       <path d="M 33.015625 40.375 
Q 26.375 40.375 22.484375 35.828125 
Q 18.609375 31.296875 18.609375 23.390625 
Q 18.609375 15.53125 22.484375 10.953125 
Q 26.375 6.390625 33.015625 6.390625 
Q 39.65625 6.390625 43.53125 10.953125 
Q 47.40625 15.53125 47.40625 23.390625 
Q 47.40625 31.296875 43.53125 35.828125 
Q 39.65625 40.375 33.015625 40.375 
z
M 52.59375 71.296875 
L 52.59375 62.3125 
Q 48.875 64.0625 45.09375 64.984375 
Q 41.3125 65.921875 37.59375 65.921875 
Q 27.828125 65.921875 22.671875 59.328125 
Q 17.53125 52.734375 16.796875 39.40625 
Q 19.671875 43.65625 24.015625 45.921875 
Q 28.375 48.1875 33.59375 48.1875 
Q 44.578125 48.1875 50.953125 41.515625 
Q 57.328125 34.859375 57.328125 23.390625 
Q 57.328125 12.15625 50.6875 5.359375 
Q 44.046875 -1.421875 33.015625 -1.421875 
Q 20.359375 -1.421875 13.671875 8.265625 
Q 6.984375 17.96875 6.984375 36.375 
Q 6.984375 53.65625 15.1875 63.9375 
Q 23.390625 74.21875 37.203125 74.21875 
Q 40.921875 74.21875 44.703125 73.484375 
Q 48.484375 72.75 52.59375 71.296875 
z
" id="DejaVuSans-36"/>
      </defs>
      <g transform="translate(34.696875 126.216074)scale(0.1 -0.1)">
       <use xlink:href="#DejaVuSans-30"/>
       <use x="63.623047" xlink:href="#DejaVuSans-2e"/>
       <use x="95.410156" xlink:href="#DejaVuSans-36"/>
      </g>
     </g>
    </g>
    <g id="ytick_5">
     <g id="line2d_11">
      <g>
       <use style="stroke:#000000;stroke-width:0.8;" x="57.6" xlink:href="#m670865dd2d" y="64.726474"/>
      </g>
     </g>
     <g id="text_11">
      <!-- 0.8 -->
      <defs>
       <path d="M 31.78125 34.625 
Q 24.75 34.625 20.71875 30.859375 
Q 16.703125 27.09375 16.703125 20.515625 
Q 16.703125 13.921875 20.71875 10.15625 
Q 24.75 6.390625 31.78125 6.390625 
Q 38.8125 6.390625 42.859375 10.171875 
Q 46.921875 13.96875 46.921875 20.515625 
Q 46.921875 27.09375 42.890625 30.859375 
Q 38.875 34.625 31.78125 34.625 
z
M 21.921875 38.8125 
Q 15.578125 40.375 12.03125 44.71875 
Q 8.5 49.078125 8.5 55.328125 
Q 8.5 64.0625 14.71875 69.140625 
Q 20.953125 74.21875 31.78125 74.21875 
Q 42.671875 74.21875 48.875 69.140625 
Q 55.078125 64.0625 55.078125 55.328125 
Q 55.078125 49.078125 51.53125 44.71875 
Q 48 40.375 41.703125 38.8125 
Q 48.828125 37.15625 52.796875 32.3125 
Q 56.78125 27.484375 56.78125 20.515625 
Q 56.78125 9.90625 50.3125 4.234375 
Q 43.84375 -1.421875 31.78125 -1.421875 
Q 19.734375 -1.421875 13.25 4.234375 
Q 6.78125 9.90625 6.78125 20.515625 
Q 6.78125 27.484375 10.78125 32.3125 
Q 14.796875 37.15625 21.921875 38.8125 
z
M 18.3125 54.390625 
Q 18.3125 48.734375 21.84375 45.5625 
Q 25.390625 42.390625 31.78125 42.390625 
Q 38.140625 42.390625 41.71875 45.5625 
Q 45.3125 48.734375 45.3125 54.390625 
Q 45.3125 60.0625 41.71875 63.234375 
Q 38.140625 66.40625 31.78125 66.40625 
Q 25.390625 66.40625 21.84375 63.234375 
Q 18.3125 60.0625 18.3125 54.390625 
z
" id="DejaVuSans-38"/>
      </defs>
      <g transform="translate(34.696875 68.525692)scale(0.1 -0.1)">
       <use xlink:href="#DejaVuSans-30"/>
       <use x="63.623047" xlink:href="#DejaVuSans-2e"/>
       <use x="95.410156" xlink:href="#DejaVuSans-38"/>
      </g>
     </g>
    </g>
   </g>
   <g id="line2d_12">
    <path clip-path="url(#p06b91a576e)" d="M 73.832727 295.487255 
L 192.450254 295.389491 
L 202.19964 295.147857 
L 209.674169 294.751425 
L 216.823718 294.153845 
L 227.873022 292.960295 
L 235.022572 292.297377 
L 240.222244 292.03071 
L 245.096937 292.006092 
L 249.97163 292.205131 
L 255.821261 292.684082 
L 279.544767 294.929348 
L 287.344275 295.254326 
L 297.41864 295.42896 
L 316.592432 295.486023 
L 398.487273 295.488 
L 398.487273 295.488 
" style="fill:none;stroke:#1f77b4;stroke-linecap:square;stroke-width:1.5;"/>
   </g>
   <g id="line2d_13">
    <path clip-path="url(#p06b91a576e)" d="M 73.832727 295.48777 
L 199.599803 295.384588 
L 207.399312 295.143048 
L 213.573923 294.73117 
L 219.098575 294.140126 
L 225.598165 293.205417 
L 235.347551 291.793219 
L 239.572285 291.430246 
L 243.472039 291.328414 
L 247.371794 291.46931 
L 251.596527 291.866939 
L 257.121179 292.642884 
L 268.495463 294.297132 
L 274.020115 294.837616 
L 279.869746 295.186882 
L 287.344275 295.395283 
L 299.693497 295.47978 
L 367.614218 295.488 
L 398.487273 295.488 
L 398.487273 295.488 
" style="fill:none;stroke:#ff7f0e;stroke-linecap:square;stroke-width:1.5;"/>
   </g>
   <g id="line2d_14">
    <path clip-path="url(#p06b91a576e)" d="M 73.832727 295.48747 
L 215.198821 295.400764 
L 219.748534 295.16313 
L 222.998329 294.766745 
L 225.598165 294.2348 
L 228.198002 293.470176 
L 230.797838 292.477273 
L 235.672531 290.295588 
L 238.272367 289.264192 
L 240.222244 288.705928 
L 241.847142 288.437233 
L 243.472039 288.372786 
L 245.096937 288.518251 
L 247.046814 288.950756 
L 248.996691 289.613592 
L 251.921507 290.870268 
L 256.7962 292.992441 
L 259.396036 293.877056 
L 261.995872 294.524351 
L 264.920688 294.99445 
L 268.170483 295.27841 
L 272.720197 295.436259 
L 282.469582 295.486822 
L 398.487273 295.488 
L 398.487273 295.488 
" style="fill:none;stroke:#2ca02c;stroke-linecap:square;stroke-width:1.5;"/>
   </g>
   <g id="line2d_15">
    <path clip-path="url(#p06b91a576e)" d="M 73.832727 295.488 
L 231.447797 295.389927 
L 232.747715 295.194962 
L 233.722654 294.875134 
L 234.697592 294.294755 
L 235.347551 293.700212 
L 235.99751 292.893771 
L 236.972449 291.217932 
L 237.947387 288.949855 
L 239.247305 285.180055 
L 240.872203 280.3028 
L 241.847142 278.101512 
L 242.497101 277.214596 
L 242.82208 276.980645 
L 243.14706 276.895025 
L 243.472039 276.959835 
L 243.797019 277.173533 
L 244.446978 278.023693 
L 245.096937 279.366062 
L 246.071876 282.032713 
L 248.671712 289.673251 
L 249.64665 291.77399 
L 250.621589 293.28228 
L 251.596527 294.269811 
L 252.571466 294.862222 
L 253.546405 295.188925 
L 254.846323 295.388054 
L 257.446159 295.480352 
L 274.020115 295.488 
L 398.487273 295.488 
L 398.487273 295.488 
" style="fill:none;stroke:#d62728;stroke-linecap:square;stroke-width:1.5;"/>
   </g>
   <g id="line2d_16">
    <path clip-path="url(#p06b91a576e)" d="M 73.832727 295.488 
L 239.572285 295.440966 
L 239.897265 295.226641 
L 240.872203 293.469468 
L 241.197183 293.862065 
L 241.522162 293.908118 
L 241.847142 290.937705 
L 242.172121 277.930867 
L 242.497101 244.6391 
L 242.82208 195.862975 
L 243.14706 165.810786 
L 243.472039 183.826294 
L 244.121998 271.523825 
L 244.446978 289.076121 
L 244.771957 293.876652 
L 245.096937 294.769255 
L 246.396855 295.441942 
L 247.371794 295.418986 
L 248.996691 295.48739 
L 313.342637 295.488 
L 398.487273 295.488 
L 398.487273 295.488 
" style="fill:none;stroke:#9467bd;stroke-linecap:square;stroke-width:1.5;"/>
   </g>
   <g id="line2d_17">
    <path clip-path="url(#p06b91a576e)" d="M 73.832727 295.488 
L 239.897265 295.383116 
L 240.222244 294.801815 
L 240.547224 293.526057 
L 240.872203 292.992207 
L 241.522162 294.59655 
L 241.847142 293.655413 
L 242.172121 286.25415 
L 242.497101 255.219438 
L 243.14706 141.869428 
L 243.472039 169.83568 
L 243.797019 239.063034 
L 244.121998 281.179732 
L 244.446978 292.706974 
L 244.771957 294.626851 
L 245.096937 294.870513 
L 245.421916 294.91906 
L 246.396855 295.471564 
L 247.371794 295.40912 
L 248.021753 295.439668 
L 249.321671 295.487999 
L 398.487273 295.488 
L 398.487273 295.488 
" style="fill:none;stroke:#8c564b;stroke-linecap:square;stroke-width:1.5;"/>
   </g>
   <g id="line2d_18">
    <path clip-path="url(#p06b91a576e)" d="M 73.832727 295.488 
L 240.222244 295.488 
L 240.547224 295.218987 
L 240.872203 289.005789 
L 241.197183 295.266688 
L 241.847142 294.425466 
L 242.172121 294.620398 
L 242.497101 288.03742 
L 242.82208 210.087441 
L 243.14706 72.225583 
L 243.472039 107.270987 
L 243.797019 289.141525 
L 244.446978 294.342873 
L 244.771957 295.30863 
L 245.421916 294.422975 
L 245.746896 295.413082 
L 246.396855 295.488 
L 247.371794 295.47309 
L 247.696773 295.27132 
L 248.021753 295.487993 
L 398.487273 295.488 
L 398.487273 295.488 
" style="fill:none;stroke:#e377c2;stroke-linecap:square;stroke-width:1.5;"/>
   </g>
   <g id="line2d_19">
    <path clip-path="url(#p06b91a576e)" d="M 73.832727 295.488 
L 240.547224 295.471001 
L 240.872203 290.9658 
L 241.197183 295.487606 
L 241.522162 295.012538 
L 242.172121 294.644059 
L 242.497101 291.268216 
L 242.82208 228.993232 
L 243.14706 57.215128 
L 243.472039 103.589534 
L 243.797019 291.819707 
L 244.446978 295.045888 
L 244.771957 295.448518 
L 245.096937 295.200467 
L 246.396855 295.488 
L 247.371794 295.486893 
L 247.696773 295.371377 
L 248.346732 295.488 
L 398.487273 295.488 
L 398.487273 295.488 
" style="fill:none;stroke:#7f7f7f;stroke-linecap:square;stroke-width:1.5;"/>
   </g>
   <g id="line2d_20">
    <path clip-path="url(#p06b91a576e)" d="M 73.832727 295.488 
L 240.222244 295.488 
L 240.547224 295.212319 
L 240.872203 288.644251 
L 241.197183 295.479279 
L 241.522162 294.770006 
L 241.847142 294.445182 
L 242.172121 294.637832 
L 242.497101 288.728769 
L 242.82208 216.473185 
L 243.14706 60.530536 
L 243.472039 119.798714 
L 243.797019 290.140546 
L 244.446978 295.045357 
L 244.771957 295.356585 
L 245.096937 294.971307 
L 245.421916 295.064925 
L 245.746896 295.410424 
L 246.396855 295.488 
L 247.371794 295.47205 
L 247.696773 295.249846 
L 248.021753 295.487993 
L 398.487273 295.488 
L 398.487273 295.488 
" style="fill:none;stroke:#bcbd22;stroke-linecap:square;stroke-width:1.5;"/>
   </g>
   <g id="line2d_21">
    <path clip-path="url(#p06b91a576e)" d="M 73.832727 295.488 
L 240.222244 295.488 
L 240.547224 295.36982 
L 240.872203 289.462548 
L 241.197183 295.48482 
L 241.522162 294.788017 
L 241.847142 294.842936 
L 242.172121 294.738724 
L 242.497101 289.414472 
L 242.82208 220.970685 
L 243.14706 54.236275 
L 243.472039 117.85188 
L 243.797019 290.788736 
L 244.121998 292.199619 
L 244.446978 295.128839 
L 244.771957 295.388463 
L 245.096937 295.012815 
L 245.421916 295.124563 
L 245.746896 295.437917 
L 246.721835 295.488 
L 398.487273 295.488 
L 398.487273 295.488 
" style="fill:none;stroke:#17becf;stroke-linecap:square;stroke-width:1.5;"/>
   </g>
   <g id="line2d_22">
    <path clip-path="url(#p06b91a576e)" d="M 73.832727 295.488 
L 240.547224 295.378021 
L 240.872203 289.543138 
L 241.197183 295.485084 
L 241.522162 294.793892 
L 241.847142 294.849502 
L 242.172121 294.75041 
L 242.497101 289.505745 
L 242.82208 221.662945 
L 243.14706 53.568 
L 243.472039 118.54596 
L 243.797019 290.581094 
L 244.121998 292.233522 
L 244.446978 295.136559 
L 244.771957 295.391258 
L 245.096937 295.018955 
L 245.421916 295.130996 
L 245.746896 295.439941 
L 246.721835 295.488 
L 398.487273 295.488 
L 398.487273 295.488 
" style="fill:none;stroke:#1f77b4;stroke-linecap:square;stroke-width:1.5;"/>
   </g>
   <g id="line2d_23">
    <path clip-path="url(#p06b91a576e)" d="M 73.832727 295.488 
L 240.547224 295.378888 
L 240.872203 289.552328 
L 241.197183 295.485111 
L 241.522162 294.794584 
L 241.847142 294.850261 
L 242.172121 294.751722 
L 242.497101 289.51604 
L 242.82208 221.697429 
L 243.14706 53.820253 
L 243.472039 118.409548 
L 243.797019 290.58948 
L 244.121998 292.237439 
L 244.446978 295.137413 
L 244.771957 295.391565 
L 245.096937 295.019656 
L 245.421916 295.131716 
L 245.746896 295.44016 
L 246.721835 295.488 
L 398.487273 295.488 
L 398.487273 295.488 
" style="fill:none;stroke:#ff7f0e;stroke-linecap:square;stroke-width:1.5;"/>
   </g>
   <g id="line2d_24">
    <path clip-path="url(#p06b91a576e)" d="M 73.832727 295.488 
L 240.547224 295.378454 
L 240.872203 289.56101 
L 241.197183 295.485096 
L 241.522162 294.795923 
L 241.847142 294.851388 
L 242.172121 294.663572 
L 242.497101 289.492351 
L 242.82208 221.771931 
L 243.14706 54.187325 
L 243.472039 117.892269 
L 243.797019 290.59532 
L 244.121998 292.243143 
L 244.446978 295.137661 
L 244.771957 295.391572 
L 245.096937 295.020362 
L 245.421916 295.132094 
L 245.746896 295.440107 
L 246.721835 295.488 
L 398.487273 295.488 
L 398.487273 295.488 
" style="fill:none;stroke:#2ca02c;stroke-linecap:square;stroke-width:1.5;"/>
   </g>
   <g id="line2d_25">
    <path clip-path="url(#p06b91a576e)" d="M 73.832727 295.488 
L 240.547224 295.378454 
L 240.872203 289.56101 
L 241.197183 295.485096 
L 241.522162 294.795923 
L 241.847142 294.851388 
L 242.172121 294.663572 
L 242.497101 289.492351 
L 242.82208 221.771931 
L 243.14706 54.187325 
L 243.472039 117.892269 
L 243.797019 290.59532 
L 244.121998 292.243143 
L 244.446978 295.137661 
L 244.771957 295.391572 
L 245.096937 295.020362 
L 245.421916 295.132094 
L 245.746896 295.440107 
L 246.721835 295.488 
L 398.487273 295.488 
L 398.487273 295.488 
" style="fill:none;stroke:#d62728;stroke-linecap:square;stroke-width:1.5;"/>
   </g>
   <g id="line2d_26">
    <path clip-path="url(#p06b91a576e)" d="M 73.832727 295.488 
L 240.547224 295.378454 
L 240.872203 289.56101 
L 241.197183 295.485096 
L 241.522162 294.795923 
L 241.847142 294.851388 
L 242.172121 294.663572 
L 242.497101 289.492351 
L 242.82208 221.771931 
L 243.14706 54.187325 
L 243.472039 117.892269 
L 243.797019 290.59532 
L 244.121998 292.243143 
L 244.446978 295.137661 
L 244.771957 295.391572 
L 245.096937 295.020362 
L 245.421916 295.132094 
L 245.746896 295.440107 
L 246.721835 295.488 
L 398.487273 295.488 
L 398.487273 295.488 
" style="fill:none;stroke:#9467bd;stroke-linecap:square;stroke-width:1.5;"/>
   </g>
   <g id="line2d_27">
    <path clip-path="url(#p06b91a576e)" d="M 73.832727 295.488 
L 240.547224 295.378454 
L 240.872203 289.56101 
L 241.197183 295.485096 
L 241.522162 294.795923 
L 241.847142 294.851388 
L 242.172121 294.663572 
L 242.497101 289.492351 
L 242.82208 221.771931 
L 243.14706 54.187325 
L 243.472039 117.892269 
L 243.797019 290.59532 
L 244.121998 292.243143 
L 244.446978 295.137661 
L 244.771957 295.391572 
L 245.096937 295.020362 
L 245.421916 295.132094 
L 245.746896 295.440107 
L 246.721835 295.488 
L 398.487273 295.488 
L 398.487273 295.488 
" style="fill:none;stroke:#8c564b;stroke-linecap:square;stroke-width:1.5;"/>
   </g>
   <g id="line2d_28">
    <path clip-path="url(#p06b91a576e)" d="M 73.832727 295.488 
L 240.547224 295.378454 
L 240.872203 289.56101 
L 241.197183 295.485096 
L 241.522162 294.795923 
L 241.847142 294.851388 
L 242.172121 294.663572 
L 242.497101 289.492351 
L 242.82208 221.771931 
L 243.14706 54.187325 
L 243.472039 117.892269 
L 243.797019 290.59532 
L 244.121998 292.243143 
L 244.446978 295.137661 
L 244.771957 295.391572 
L 245.096937 295.020362 
L 245.421916 295.132094 
L 245.746896 295.440107 
L 246.721835 295.488 
L 398.487273 295.488 
L 398.487273 295.488 
" style="fill:none;stroke:#e377c2;stroke-linecap:square;stroke-width:1.5;"/>
   </g>
   <g id="line2d_29">
    <path clip-path="url(#p06b91a576e)" d="M 73.832727 295.488 
L 240.547224 295.378454 
L 240.872203 289.56101 
L 241.197183 295.485096 
L 241.522162 294.795923 
L 241.847142 294.851388 
L 242.172121 294.663572 
L 242.497101 289.492351 
L 242.82208 221.771931 
L 243.14706 54.187325 
L 243.472039 117.892269 
L 243.797019 290.59532 
L 244.121998 292.243143 
L 244.446978 295.137661 
L 244.771957 295.391572 
L 245.096937 295.020362 
L 245.421916 295.132094 
L 245.746896 295.440107 
L 246.721835 295.488 
L 398.487273 295.488 
L 398.487273 295.488 
" style="fill:none;stroke:#7f7f7f;stroke-linecap:square;stroke-width:1.5;"/>
   </g>
   <g id="line2d_30">
    <path clip-path="url(#p06b91a576e)" d="M 73.832727 295.488 
L 240.547224 295.378454 
L 240.872203 289.56101 
L 241.197183 295.485096 
L 241.522162 294.795923 
L 241.847142 294.851388 
L 242.172121 294.663572 
L 242.497101 289.492351 
L 242.82208 221.771931 
L 243.14706 54.187325 
L 243.472039 117.892269 
L 243.797019 290.59532 
L 244.121998 292.243143 
L 244.446978 295.137661 
L 244.771957 295.391572 
L 245.096937 295.020362 
L 245.421916 295.132094 
L 245.746896 295.440107 
L 246.721835 295.488 
L 398.487273 295.488 
L 398.487273 295.488 
" style="fill:none;stroke:#bcbd22;stroke-linecap:square;stroke-width:1.5;"/>
   </g>
   <g id="line2d_31">
    <path clip-path="url(#p06b91a576e)" d="M 73.832727 295.488 
L 240.547224 295.378454 
L 240.872203 289.56101 
L 241.197183 295.485096 
L 241.522162 294.795923 
L 241.847142 294.851388 
L 242.172121 294.663572 
L 242.497101 289.492351 
L 242.82208 221.771931 
L 243.14706 54.187325 
L 243.472039 117.892269 
L 243.797019 290.59532 
L 244.121998 292.243143 
L 244.446978 295.137661 
L 244.771957 295.391572 
L 245.096937 295.020362 
L 245.421916 295.132094 
L 245.746896 295.440107 
L 246.721835 295.488 
L 398.487273 295.488 
L 398.487273 295.488 
" style="fill:none;stroke:#17becf;stroke-linecap:square;stroke-width:1.5;"/>
   </g>
   <g id="line2d_32">
    <path clip-path="url(#p06b91a576e)" d="M 242.898718 307.584 
L 242.898718 41.472 
" style="fill:none;stroke:#1f77b4;stroke-linecap:square;stroke-width:1.5;"/>
   </g>
   <g id="patch_3">
    <path d="M 57.6 307.584 
L 57.6 41.472 
" style="fill:none;stroke:#000000;stroke-linecap:square;stroke-linejoin:miter;stroke-width:0.8;"/>
   </g>
   <g id="patch_4">
    <path d="M 414.72 307.584 
L 414.72 41.472 
" style="fill:none;stroke:#000000;stroke-linecap:square;stroke-linejoin:miter;stroke-width:0.8;"/>
   </g>
   <g id="patch_5">
    <path d="M 57.6 307.584 
L 414.72 307.584 
" style="fill:none;stroke:#000000;stroke-linecap:square;stroke-linejoin:miter;stroke-width:0.8;"/>
   </g>
   <g id="patch_6">
    <path d="M 57.6 41.472 
L 414.72 41.472 
" style="fill:none;stroke:#000000;stroke-linecap:square;stroke-linejoin:miter;stroke-width:0.8;"/>
   </g>
  </g>
 </g>
 <defs>
  <clipPath id="p06b91a576e">
   <rect height="266.112" width="357.12" x="57.6" y="41.472"/>
  </clipPath>
 </defs>
</svg>
