<?xml version="1.0" encoding="utf-8" standalone="no"?>
<!DOCTYPE svg PUBLIC "-//W3C//DTD SVG 1.1//EN"
  "http://www.w3.org/Graphics/SVG/1.1/DTD/svg11.dtd">
<!-- Created with matplotlib (http://matplotlib.org/) -->
<svg height="345pt" version="1.1" viewBox="0 0 460 345" width="460pt" xmlns="http://www.w3.org/2000/svg" xmlns:xlink="http://www.w3.org/1999/xlink">
 <defs>
  <style type="text/css">
*{stroke-linecap:butt;stroke-linejoin:round;}
  </style>
 </defs>
 <g id="figure_1">
  <g id="patch_1">
   <path d="M 0 345.6 
L 460.8 345.6 
L 460.8 0 
L 0 0 
z
" style="fill:none;"/>
  </g>
  <g id="axes_1">
   <g id="patch_2">
    <path d="M 57.6 307.584 
L 414.72 307.584 
L 414.72 41.472 
L 57.6 41.472 
z
" style="fill:none;"/>
   </g>
   <g id="matplotlib.axis_1">
    <g id="xtick_1">
     <g id="line2d_1">
      <defs>
       <path d="M 0 0 
L 0 3.5 
" id="m7c15afe3b0" style="stroke:#000000;stroke-width:0.8;"/>
      </defs>
      <g>
       <use style="stroke:#000000;stroke-width:0.8;" x="71.683132" xlink:href="#m7c15afe3b0" y="307.584"/>
      </g>
     </g>
     <g id="text_1">
      <!-- 3.5 -->
      <defs>
       <path d="M 40.578125 39.3125 
Q 47.65625 37.796875 51.625 33 
Q 55.609375 28.21875 55.609375 21.1875 
Q 55.609375 10.40625 48.1875 4.484375 
Q 40.765625 -1.421875 27.09375 -1.421875 
Q 22.515625 -1.421875 17.65625 -0.515625 
Q 12.796875 0.390625 7.625 2.203125 
L 7.625 11.71875 
Q 11.71875 9.328125 16.59375 8.109375 
Q 21.484375 6.890625 26.8125 6.890625 
Q 36.078125 6.890625 40.9375 10.546875 
Q 45.796875 14.203125 45.796875 21.1875 
Q 45.796875 27.640625 41.28125 31.265625 
Q 36.765625 34.90625 28.71875 34.90625 
L 20.21875 34.90625 
L 20.21875 43.015625 
L 29.109375 43.015625 
Q 36.375 43.015625 40.234375 45.921875 
Q 44.09375 48.828125 44.09375 54.296875 
Q 44.09375 59.90625 40.109375 62.90625 
Q 36.140625 65.921875 28.71875 65.921875 
Q 24.65625 65.921875 20.015625 65.03125 
Q 15.375 64.15625 9.8125 62.3125 
L 9.8125 71.09375 
Q 15.4375 72.65625 20.34375 73.4375 
Q 25.25 74.21875 29.59375 74.21875 
Q 40.828125 74.21875 47.359375 69.109375 
Q 53.90625 64.015625 53.90625 55.328125 
Q 53.90625 49.265625 50.4375 45.09375 
Q 46.96875 40.921875 40.578125 39.3125 
z
" id="DejaVuSans-33"/>
       <path d="M 10.6875 12.40625 
L 21 12.40625 
L 21 0 
L 10.6875 0 
z
" id="DejaVuSans-2e"/>
       <path d="M 10.796875 72.90625 
L 49.515625 72.90625 
L 49.515625 64.59375 
L 19.828125 64.59375 
L 19.828125 46.734375 
Q 21.96875 47.46875 24.109375 47.828125 
Q 26.265625 48.1875 28.421875 48.1875 
Q 40.625 48.1875 47.75 41.5 
Q 54.890625 34.8125 54.890625 23.390625 
Q 54.890625 11.625 47.5625 5.09375 
Q 40.234375 -1.421875 26.90625 -1.421875 
Q 22.3125 -1.421875 17.546875 -0.640625 
Q 12.796875 0.140625 7.71875 1.703125 
L 7.71875 11.625 
Q 12.109375 9.234375 16.796875 8.0625 
Q 21.484375 6.890625 26.703125 6.890625 
Q 35.15625 6.890625 40.078125 11.328125 
Q 45.015625 15.765625 45.015625 23.390625 
Q 45.015625 31 40.078125 35.4375 
Q 35.15625 39.890625 26.703125 39.890625 
Q 22.75 39.890625 18.8125 39.015625 
Q 14.890625 38.140625 10.796875 36.28125 
z
" id="DejaVuSans-35"/>
      </defs>
      <g transform="translate(63.731569 322.182437)scale(0.1 -0.1)">
       <use xlink:href="#DejaVuSans-33"/>
       <use x="63.623047" xlink:href="#DejaVuSans-2e"/>
       <use x="95.410156" xlink:href="#DejaVuSans-35"/>
      </g>
     </g>
    </g>
    <g id="xtick_2">
     <g id="line2d_2">
      <g>
       <use style="stroke:#000000;stroke-width:0.8;" x="112.899974" xlink:href="#m7c15afe3b0" y="307.584"/>
      </g>
     </g>
     <g id="text_2">
      <!-- 4.0 -->
      <defs>
       <path d="M 37.796875 64.3125 
L 12.890625 25.390625 
L 37.796875 25.390625 
z
M 35.203125 72.90625 
L 47.609375 72.90625 
L 47.609375 25.390625 
L 58.015625 25.390625 
L 58.015625 17.1875 
L 47.609375 17.1875 
L 47.609375 0 
L 37.796875 0 
L 37.796875 17.1875 
L 4.890625 17.1875 
L 4.890625 26.703125 
z
" id="DejaVuSans-34"/>
       <path d="M 31.78125 66.40625 
Q 24.171875 66.40625 20.328125 58.90625 
Q 16.5 51.421875 16.5 36.375 
Q 16.5 21.390625 20.328125 13.890625 
Q 24.171875 6.390625 31.78125 6.390625 
Q 39.453125 6.390625 43.28125 13.890625 
Q 47.125 21.390625 47.125 36.375 
Q 47.125 51.421875 43.28125 58.90625 
Q 39.453125 66.40625 31.78125 66.40625 
z
M 31.78125 74.21875 
Q 44.046875 74.21875 50.515625 64.515625 
Q 56.984375 54.828125 56.984375 36.375 
Q 56.984375 17.96875 50.515625 8.265625 
Q 44.046875 -1.421875 31.78125 -1.421875 
Q 19.53125 -1.421875 13.0625 8.265625 
Q 6.59375 17.96875 6.59375 36.375 
Q 6.59375 54.828125 13.0625 64.515625 
Q 19.53125 74.21875 31.78125 74.21875 
z
" id="DejaVuSans-30"/>
      </defs>
      <g transform="translate(104.948412 322.182437)scale(0.1 -0.1)">
       <use xlink:href="#DejaVuSans-34"/>
       <use x="63.623047" xlink:href="#DejaVuSans-2e"/>
       <use x="95.410156" xlink:href="#DejaVuSans-30"/>
      </g>
     </g>
    </g>
    <g id="xtick_3">
     <g id="line2d_3">
      <g>
       <use style="stroke:#000000;stroke-width:0.8;" x="154.116817" xlink:href="#m7c15afe3b0" y="307.584"/>
      </g>
     </g>
     <g id="text_3">
      <!-- 4.5 -->
      <g transform="translate(146.165254 322.182437)scale(0.1 -0.1)">
       <use xlink:href="#DejaVuSans-34"/>
       <use x="63.623047" xlink:href="#DejaVuSans-2e"/>
       <use x="95.410156" xlink:href="#DejaVuSans-35"/>
      </g>
     </g>
    </g>
    <g id="xtick_4">
     <g id="line2d_4">
      <g>
       <use style="stroke:#000000;stroke-width:0.8;" x="195.333659" xlink:href="#m7c15afe3b0" y="307.584"/>
      </g>
     </g>
     <g id="text_4">
      <!-- 5.0 -->
      <g transform="translate(187.382097 322.182437)scale(0.1 -0.1)">
       <use xlink:href="#DejaVuSans-35"/>
       <use x="63.623047" xlink:href="#DejaVuSans-2e"/>
       <use x="95.410156" xlink:href="#DejaVuSans-30"/>
      </g>
     </g>
    </g>
    <g id="xtick_5">
     <g id="line2d_5">
      <g>
       <use style="stroke:#000000;stroke-width:0.8;" x="236.550502" xlink:href="#m7c15afe3b0" y="307.584"/>
      </g>
     </g>
     <g id="text_5">
      <!-- 5.5 -->
      <g transform="translate(228.598939 322.182437)scale(0.1 -0.1)">
       <use xlink:href="#DejaVuSans-35"/>
       <use x="63.623047" xlink:href="#DejaVuSans-2e"/>
       <use x="95.410156" xlink:href="#DejaVuSans-35"/>
      </g>
     </g>
    </g>
    <g id="xtick_6">
     <g id="line2d_6">
      <g>
       <use style="stroke:#000000;stroke-width:0.8;" x="277.767344" xlink:href="#m7c15afe3b0" y="307.584"/>
      </g>
     </g>
     <g id="text_6">
      <!-- 6.0 -->
      <defs>
       <path d="M 33.015625 40.375 
Q 26.375 40.375 22.484375 35.828125 
Q 18.609375 31.296875 18.609375 23.390625 
Q 18.609375 15.53125 22.484375 10.953125 
Q 26.375 6.390625 33.015625 6.390625 
Q 39.65625 6.390625 43.53125 10.953125 
Q 47.40625 15.53125 47.40625 23.390625 
Q 47.40625 31.296875 43.53125 35.828125 
Q 39.65625 40.375 33.015625 40.375 
z
M 52.59375 71.296875 
L 52.59375 62.3125 
Q 48.875 64.0625 45.09375 64.984375 
Q 41.3125 65.921875 37.59375 65.921875 
Q 27.828125 65.921875 22.671875 59.328125 
Q 17.53125 52.734375 16.796875 39.40625 
Q 19.671875 43.65625 24.015625 45.921875 
Q 28.375 48.1875 33.59375 48.1875 
Q 44.578125 48.1875 50.953125 41.515625 
Q 57.328125 34.859375 57.328125 23.390625 
Q 57.328125 12.15625 50.6875 5.359375 
Q 44.046875 -1.421875 33.015625 -1.421875 
Q 20.359375 -1.421875 13.671875 8.265625 
Q 6.984375 17.96875 6.984375 36.375 
Q 6.984375 53.65625 15.1875 63.9375 
Q 23.390625 74.21875 37.203125 74.21875 
Q 40.921875 74.21875 44.703125 73.484375 
Q 48.484375 72.75 52.59375 71.296875 
z
" id="DejaVuSans-36"/>
      </defs>
      <g transform="translate(269.815782 322.182437)scale(0.1 -0.1)">
       <use xlink:href="#DejaVuSans-36"/>
       <use x="63.623047" xlink:href="#DejaVuSans-2e"/>
       <use x="95.410156" xlink:href="#DejaVuSans-30"/>
      </g>
     </g>
    </g>
    <g id="xtick_7">
     <g id="line2d_7">
      <g>
       <use style="stroke:#000000;stroke-width:0.8;" x="318.984187" xlink:href="#m7c15afe3b0" y="307.584"/>
      </g>
     </g>
     <g id="text_7">
      <!-- 6.5 -->
      <g transform="translate(311.032624 322.182437)scale(0.1 -0.1)">
       <use xlink:href="#DejaVuSans-36"/>
       <use x="63.623047" xlink:href="#DejaVuSans-2e"/>
       <use x="95.410156" xlink:href="#DejaVuSans-35"/>
      </g>
     </g>
    </g>
    <g id="xtick_8">
     <g id="line2d_8">
      <g>
       <use style="stroke:#000000;stroke-width:0.8;" x="360.201029" xlink:href="#m7c15afe3b0" y="307.584"/>
      </g>
     </g>
     <g id="text_8">
      <!-- 7.0 -->
      <defs>
       <path d="M 8.203125 72.90625 
L 55.078125 72.90625 
L 55.078125 68.703125 
L 28.609375 0 
L 18.3125 0 
L 43.21875 64.59375 
L 8.203125 64.59375 
z
" id="DejaVuSans-37"/>
      </defs>
      <g transform="translate(352.249467 322.182437)scale(0.1 -0.1)">
       <use xlink:href="#DejaVuSans-37"/>
       <use x="63.623047" xlink:href="#DejaVuSans-2e"/>
       <use x="95.410156" xlink:href="#DejaVuSans-30"/>
      </g>
     </g>
    </g>
    <g id="xtick_9">
     <g id="line2d_9">
      <g>
       <use style="stroke:#000000;stroke-width:0.8;" x="401.417872" xlink:href="#m7c15afe3b0" y="307.584"/>
      </g>
     </g>
     <g id="text_9">
      <!-- 7.5 -->
      <g transform="translate(393.46631 322.182437)scale(0.1 -0.1)">
       <use xlink:href="#DejaVuSans-37"/>
       <use x="63.623047" xlink:href="#DejaVuSans-2e"/>
       <use x="95.410156" xlink:href="#DejaVuSans-35"/>
      </g>
     </g>
    </g>
   </g>
   <g id="matplotlib.axis_2">
    <g id="ytick_1">
     <g id="line2d_10">
      <defs>
       <path d="M 0 0 
L -3.5 0 
" id="m375f347c8d" style="stroke:#000000;stroke-width:0.8;"/>
      </defs>
      <g>
       <use style="stroke:#000000;stroke-width:0.8;" x="57.6" xlink:href="#m375f347c8d" y="295.488"/>
      </g>
     </g>
     <g id="text_10">
      <!-- 0.0 -->
      <g transform="translate(34.696875 299.287219)scale(0.1 -0.1)">
       <use xlink:href="#DejaVuSans-30"/>
       <use x="63.623047" xlink:href="#DejaVuSans-2e"/>
       <use x="95.410156" xlink:href="#DejaVuSans-30"/>
      </g>
     </g>
    </g>
    <g id="ytick_2">
     <g id="line2d_11">
      <g>
       <use style="stroke:#000000;stroke-width:0.8;" x="57.6" xlink:href="#m375f347c8d" y="253.098798"/>
      </g>
     </g>
     <g id="text_11">
      <!-- 0.2 -->
      <defs>
       <path d="M 19.1875 8.296875 
L 53.609375 8.296875 
L 53.609375 0 
L 7.328125 0 
L 7.328125 8.296875 
Q 12.9375 14.109375 22.625 23.890625 
Q 32.328125 33.6875 34.8125 36.53125 
Q 39.546875 41.84375 41.421875 45.53125 
Q 43.3125 49.21875 43.3125 52.78125 
Q 43.3125 58.59375 39.234375 62.25 
Q 35.15625 65.921875 28.609375 65.921875 
Q 23.96875 65.921875 18.8125 64.3125 
Q 13.671875 62.703125 7.8125 59.421875 
L 7.8125 69.390625 
Q 13.765625 71.78125 18.9375 73 
Q 24.125 74.21875 28.421875 74.21875 
Q 39.75 74.21875 46.484375 68.546875 
Q 53.21875 62.890625 53.21875 53.421875 
Q 53.21875 48.921875 51.53125 44.890625 
Q 49.859375 40.875 45.40625 35.40625 
Q 44.1875 33.984375 37.640625 27.21875 
Q 31.109375 20.453125 19.1875 8.296875 
z
" id="DejaVuSans-32"/>
      </defs>
      <g transform="translate(34.696875 256.898017)scale(0.1 -0.1)">
       <use xlink:href="#DejaVuSans-30"/>
       <use x="63.623047" xlink:href="#DejaVuSans-2e"/>
       <use x="95.410156" xlink:href="#DejaVuSans-32"/>
      </g>
     </g>
    </g>
    <g id="ytick_3">
     <g id="line2d_12">
      <g>
       <use style="stroke:#000000;stroke-width:0.8;" x="57.6" xlink:href="#m375f347c8d" y="210.709596"/>
      </g>
     </g>
     <g id="text_12">
      <!-- 0.4 -->
      <g transform="translate(34.696875 214.508814)scale(0.1 -0.1)">
       <use xlink:href="#DejaVuSans-30"/>
       <use x="63.623047" xlink:href="#DejaVuSans-2e"/>
       <use x="95.410156" xlink:href="#DejaVuSans-34"/>
      </g>
     </g>
    </g>
    <g id="ytick_4">
     <g id="line2d_13">
      <g>
       <use style="stroke:#000000;stroke-width:0.8;" x="57.6" xlink:href="#m375f347c8d" y="168.320393"/>
      </g>
     </g>
     <g id="text_13">
      <!-- 0.6 -->
      <g transform="translate(34.696875 172.119612)scale(0.1 -0.1)">
       <use xlink:href="#DejaVuSans-30"/>
       <use x="63.623047" xlink:href="#DejaVuSans-2e"/>
       <use x="95.410156" xlink:href="#DejaVuSans-36"/>
      </g>
     </g>
    </g>
    <g id="ytick_5">
     <g id="line2d_14">
      <g>
       <use style="stroke:#000000;stroke-width:0.8;" x="57.6" xlink:href="#m375f347c8d" y="125.931191"/>
      </g>
     </g>
     <g id="text_14">
      <!-- 0.8 -->
      <defs>
       <path d="M 31.78125 34.625 
Q 24.75 34.625 20.71875 30.859375 
Q 16.703125 27.09375 16.703125 20.515625 
Q 16.703125 13.921875 20.71875 10.15625 
Q 24.75 6.390625 31.78125 6.390625 
Q 38.8125 6.390625 42.859375 10.171875 
Q 46.921875 13.96875 46.921875 20.515625 
Q 46.921875 27.09375 42.890625 30.859375 
Q 38.875 34.625 31.78125 34.625 
z
M 21.921875 38.8125 
Q 15.578125 40.375 12.03125 44.71875 
Q 8.5 49.078125 8.5 55.328125 
Q 8.5 64.0625 14.71875 69.140625 
Q 20.953125 74.21875 31.78125 74.21875 
Q 42.671875 74.21875 48.875 69.140625 
Q 55.078125 64.0625 55.078125 55.328125 
Q 55.078125 49.078125 51.53125 44.71875 
Q 48 40.375 41.703125 38.8125 
Q 48.828125 37.15625 52.796875 32.3125 
Q 56.78125 27.484375 56.78125 20.515625 
Q 56.78125 9.90625 50.3125 4.234375 
Q 43.84375 -1.421875 31.78125 -1.421875 
Q 19.734375 -1.421875 13.25 4.234375 
Q 6.78125 9.90625 6.78125 20.515625 
Q 6.78125 27.484375 10.78125 32.3125 
Q 14.796875 37.15625 21.921875 38.8125 
z
M 18.3125 54.390625 
Q 18.3125 48.734375 21.84375 45.5625 
Q 25.390625 42.390625 31.78125 42.390625 
Q 38.140625 42.390625 41.71875 45.5625 
Q 45.3125 48.734375 45.3125 54.390625 
Q 45.3125 60.0625 41.71875 63.234375 
Q 38.140625 66.40625 31.78125 66.40625 
Q 25.390625 66.40625 21.84375 63.234375 
Q 18.3125 60.0625 18.3125 54.390625 
z
" id="DejaVuSans-38"/>
      </defs>
      <g transform="translate(34.696875 129.73041)scale(0.1 -0.1)">
       <use xlink:href="#DejaVuSans-30"/>
       <use x="63.623047" xlink:href="#DejaVuSans-2e"/>
       <use x="95.410156" xlink:href="#DejaVuSans-38"/>
      </g>
     </g>
    </g>
    <g id="ytick_6">
     <g id="line2d_15">
      <g>
       <use style="stroke:#000000;stroke-width:0.8;" x="57.6" xlink:href="#m375f347c8d" y="83.541989"/>
      </g>
     </g>
     <g id="text_15">
      <!-- 1.0 -->
      <defs>
       <path d="M 12.40625 8.296875 
L 28.515625 8.296875 
L 28.515625 63.921875 
L 10.984375 60.40625 
L 10.984375 69.390625 
L 28.421875 72.90625 
L 38.28125 72.90625 
L 38.28125 8.296875 
L 54.390625 8.296875 
L 54.390625 0 
L 12.40625 0 
z
" id="DejaVuSans-31"/>
      </defs>
      <g transform="translate(34.696875 87.341208)scale(0.1 -0.1)">
       <use xlink:href="#DejaVuSans-31"/>
       <use x="63.623047" xlink:href="#DejaVuSans-2e"/>
       <use x="95.410156" xlink:href="#DejaVuSans-30"/>
      </g>
     </g>
    </g>
    <g id="ytick_7">
     <g id="line2d_16">
      <g>
       <use style="stroke:#000000;stroke-width:0.8;" x="57.6" xlink:href="#m375f347c8d" y="41.152787"/>
      </g>
     </g>
     <g id="text_16">
      <!-- 1.2 -->
      <g transform="translate(34.696875 44.952005)scale(0.1 -0.1)">
       <use xlink:href="#DejaVuSans-31"/>
       <use x="63.623047" xlink:href="#DejaVuSans-2e"/>
       <use x="95.410156" xlink:href="#DejaVuSans-32"/>
      </g>
     </g>
    </g>
   </g>
   <g id="line2d_17">
    <path clip-path="url(#p3544e56858)" d="M 73.832727 286.125439 
L 81.957215 284.477062 
L 91.381622 282.802316 
L 101.131007 281.295296 
L 116.080066 279.048115 
L 120.304799 278.135081 
L 123.554595 277.219004 
L 126.47941 276.178448 
L 129.404226 274.885744 
L 132.004062 273.490893 
L 134.603898 271.838656 
L 137.203735 269.910417 
L 139.803571 267.695289 
L 142.403407 265.191108 
L 145.328223 262.037415 
L 148.253038 258.550189 
L 151.502834 254.328079 
L 155.402588 248.865521 
L 160.277281 241.610808 
L 178.151155 214.584467 
L 182.375889 208.786768 
L 186.275643 203.807419 
L 189.850418 199.597157 
L 193.425192 195.742839 
L 196.999967 192.241935 
L 200.574742 189.077373 
L 204.149517 186.22826 
L 207.399312 183.903697 
L 210.649107 181.844588 
L 213.573923 180.250068 
L 216.173759 179.077995 
L 218.448616 178.277723 
L 220.723473 177.722879 
L 222.67335 177.468865 
L 224.623227 177.441134 
L 226.573104 177.657474 
L 228.522981 178.131457 
L 230.472858 178.871175 
L 232.422735 179.878292 
L 234.372613 181.147481 
L 236.32249 182.666294 
L 238.597346 184.727736 
L 241.197183 187.414625 
L 244.121998 190.769552 
L 248.346732 196.002986 
L 257.121179 206.985016 
L 261.020934 211.466689 
L 264.595708 215.253927 
L 268.495463 219.047071 
L 272.720197 222.833164 
L 278.569828 227.748235 
L 288.644193 236.192928 
L 294.818804 241.694583 
L 310.742801 256.0905 
L 314.967535 259.467543 
L 318.54231 262.051792 
L 322.117084 264.36031 
L 325.691859 266.387008 
L 329.266634 268.138345 
L 332.841409 269.627778 
L 336.416183 270.870819 
L 339.990958 271.882158 
L 343.565733 272.675522 
L 347.465487 273.31036 
L 351.690221 273.75776 
L 356.564914 274.032386 
L 371.838952 274.673937 
L 375.738706 275.170802 
L 379.313481 275.835992 
L 383.213235 276.795104 
L 387.437969 278.077821 
L 392.962621 280.020564 
L 398.487273 282.070584 
L 398.487273 282.070584 
" style="fill:none;stroke:#1f77b4;stroke-linecap:square;stroke-width:1.5;"/>
   </g>
   <g id="line2d_18">
    <path clip-path="url(#p3544e56858)" d="M 73.832727 285.938727 
L 77.732482 285.45591 
L 81.957215 285.16136 
L 86.831908 285.053666 
L 95.931335 285.143501 
L 102.430925 285.096524 
L 107.305618 284.853466 
L 111.855332 284.404817 
L 115.755086 283.812235 
L 119.329861 283.06204 
L 122.579656 282.16512 
L 125.504472 281.13787 
L 128.104308 280.008555 
L 130.704144 278.633644 
L 132.979001 277.194684 
L 135.253857 275.504488 
L 137.528714 273.535325 
L 139.803571 271.263613 
L 142.078428 268.672217 
L 144.353284 265.752532 
L 146.95312 262.016256 
L 149.552957 257.873637 
L 152.477772 252.776482 
L 155.727568 246.666018 
L 160.277281 237.57696 
L 172.626503 212.598464 
L 176.851237 204.697769 
L 180.426011 198.44999 
L 183.675807 193.177596 
L 186.925602 188.342335 
L 189.850418 184.397001 
L 192.775233 180.852613 
L 195.37507 178.03471 
L 198.299885 175.212717 
L 201.224701 172.710378 
L 204.474496 170.226707 
L 208.374251 167.54686 
L 212.274005 165.133882 
L 215.5238 163.379324 
L 218.123636 162.238847 
L 220.073514 161.605145 
L 222.023391 161.219519 
L 223.648288 161.127264 
L 225.273186 161.27612 
L 226.898084 161.693862 
L 228.198002 162.237367 
L 229.822899 163.193136 
L 231.447797 164.465868 
L 233.072695 166.058309 
L 234.697592 167.964513 
L 236.647469 170.644881 
L 238.597346 173.714576 
L 240.872203 177.712843 
L 243.797019 183.344553 
L 249.64665 195.288921 
L 253.546405 202.979741 
L 256.47122 208.293476 
L 259.071057 212.593407 
L 261.670893 216.46328 
L 264.270729 219.908039 
L 266.870565 222.960077 
L 269.470401 225.671767 
L 272.395217 228.396814 
L 275.969992 231.40201 
L 283.119541 237.00989 
L 288.319214 241.252884 
L 292.868927 245.257892 
L 298.718559 250.737117 
L 306.518067 258.025053 
L 310.417821 261.367592 
L 313.992596 264.141725 
L 317.242391 266.393441 
L 320.492187 268.386898 
L 324.066962 270.303057 
L 327.641736 271.967321 
L 331.541491 273.546329 
L 336.091204 275.138149 
L 340.965897 276.593682 
L 345.84059 277.805336 
L 350.390303 278.7079 
L 354.940016 279.386394 
L 359.814709 279.891258 
L 366.964259 280.37991 
L 374.763767 280.965444 
L 379.63846 281.555084 
L 384.188174 282.324335 
L 389.062867 283.37939 
L 394.912498 284.88828 
L 398.487273 285.885856 
L 398.487273 285.885856 
" style="fill:none;stroke:#ff7f0e;stroke-linecap:square;stroke-width:1.5;"/>
   </g>
   <g id="line2d_19">
    <path clip-path="url(#p3544e56858)" d="M 73.832727 288.313147 
L 77.082523 288.232456 
L 80.657297 288.367003 
L 84.882031 288.761527 
L 90.731663 289.563083 
L 100.156069 290.877695 
L 104.380803 291.228368 
L 107.955577 291.316157 
L 111.530352 291.177307 
L 115.105127 290.798042 
L 118.679902 290.178785 
L 122.254676 289.323337 
L 125.504472 288.333444 
L 128.754267 287.111179 
L 131.679083 285.76027 
L 134.278919 284.297935 
L 136.553776 282.759348 
L 138.828632 280.921359 
L 140.778509 279.063343 
L 142.728387 276.906832 
L 144.678264 274.420689 
L 146.628141 271.581454 
L 148.578018 268.376353 
L 150.852875 264.175843 
L 153.127731 259.503738 
L 155.727568 253.654654 
L 158.977363 245.750499 
L 164.177035 232.391357 
L 170.351646 216.664153 
L 174.57638 206.50307 
L 178.801114 196.94309 
L 182.700868 188.686934 
L 185.950663 182.307406 
L 188.875479 177.063002 
L 191.475315 172.882513 
L 193.750172 169.640598 
L 196.025029 166.797715 
L 198.299885 164.329646 
L 200.574742 162.175554 
L 203.499558 159.714085 
L 209.674169 154.610171 
L 212.598984 151.814676 
L 215.84878 148.3552 
L 221.048452 142.760459 
L 222.998329 141.015564 
L 224.623227 139.867332 
L 225.923145 139.205717 
L 227.223063 138.811664 
L 228.198002 138.710169 
L 229.17294 138.786578 
L 230.147879 139.04864 
L 231.122817 139.501425 
L 232.422735 140.405355 
L 233.722654 141.649704 
L 235.022572 143.22349 
L 236.647469 145.624537 
L 238.272367 148.45878 
L 240.222244 152.341267 
L 242.497101 157.378133 
L 245.746896 165.149689 
L 255.821261 189.573532 
L 261.020934 201.412145 
L 266.220606 212.723067 
L 270.12036 220.719815 
L 273.370156 226.900638 
L 276.294971 231.993153 
L 279.219787 236.606182 
L 282.144603 240.762784 
L 285.069419 244.532533 
L 288.644193 248.749641 
L 292.868927 253.366554 
L 297.093661 257.678697 
L 300.668436 261.043662 
L 303.918231 263.80152 
L 306.843047 265.996464 
L 309.767862 267.914007 
L 312.692678 269.580759 
L 316.267453 271.34619 
L 320.492187 273.160499 
L 325.36688 274.997133 
L 330.241572 276.595249 
L 336.091204 278.25974 
L 344.540672 280.655904 
L 350.065324 282.493581 
L 359.16475 285.580754 
L 362.739525 286.540677 
L 365.98932 287.20418 
L 369.564095 287.700308 
L 373.463849 288.011368 
L 379.96344 288.262059 
L 386.138051 288.576845 
L 390.687764 289.032885 
L 395.237477 289.718608 
L 398.487273 290.32555 
L 398.487273 290.32555 
" style="fill:none;stroke:#2ca02c;stroke-linecap:square;stroke-width:1.5;"/>
   </g>
   <g id="line2d_20">
    <path clip-path="url(#p3544e56858)" d="M 73.832727 294.325745 
L 79.357379 293.949663 
L 83.257133 293.89599 
L 87.481867 294.066109 
L 102.755905 294.954339 
L 106.980639 294.810212 
L 111.205373 294.435621 
L 115.755086 293.796789 
L 120.629779 292.87559 
L 125.504472 291.72523 
L 129.729206 290.499194 
L 132.979001 289.326733 
L 135.578837 288.161541 
L 137.853694 286.90475 
L 139.803571 285.596537 
L 141.753448 284.024525 
L 143.703325 282.139309 
L 145.653202 279.893125 
L 147.603079 277.24297 
L 149.552957 274.153668 
L 151.502834 270.600714 
L 153.452711 266.572738 
L 155.402588 262.073438 
L 157.677445 256.255967 
L 160.277281 248.932829 
L 163.202097 239.990635 
L 167.101851 227.281163 
L 174.57638 201.947492 
L 185.950663 163.533317 
L 188.875479 154.474302 
L 191.150336 148.108607 
L 193.100213 143.293885 
L 194.725111 139.813034 
L 196.350008 136.855739 
L 197.649926 134.875433 
L 198.949844 133.23061 
L 200.249762 131.901631 
L 201.549681 130.856922 
L 202.849599 130.053912 
L 204.474496 129.31006 
L 207.074333 128.439183 
L 209.674169 127.506476 
L 211.299066 126.675451 
L 212.598984 125.79549 
L 213.898903 124.689821 
L 215.5238 122.971051 
L 217.148698 120.8957 
L 219.098575 118.034369 
L 223.648288 111.135592 
L 224.948206 109.565397 
L 225.923145 108.635906 
L 226.898084 107.971202 
L 227.873022 107.614236 
L 228.522981 107.566088 
L 229.17294 107.681153 
L 229.822899 107.967511 
L 230.472858 108.431623 
L 231.447797 109.470954 
L 232.422735 110.928806 
L 233.397674 112.804144 
L 234.697592 115.934888 
L 235.99751 119.739909 
L 237.622408 125.331556 
L 239.572285 133.020788 
L 242.172121 144.331579 
L 248.346732 171.6216 
L 250.946568 181.99405 
L 253.546405 191.453709 
L 256.146241 200.100192 
L 259.071057 209.075069 
L 262.320852 218.368042 
L 265.895627 227.904651 
L 268.820442 235.111122 
L 271.420278 240.953347 
L 273.695135 245.552117 
L 275.969992 249.626862 
L 277.919869 252.69312 
L 279.869746 255.37944 
L 281.819623 257.717832 
L 284.09448 260.069442 
L 286.369337 262.101696 
L 289.294152 264.392455 
L 293.193907 267.122889 
L 297.093661 269.604483 
L 300.343456 271.412893 
L 302.943292 272.610067 
L 305.543129 273.549199 
L 308.142965 274.247327 
L 311.71774 274.944657 
L 317.567371 276.058673 
L 321.142146 277.005513 
L 332.19145 280.200902 
L 335.441245 280.740112 
L 345.190631 282.103292 
L 347.790467 282.818842 
L 350.390303 283.764817 
L 353.640098 285.207629 
L 361.764586 288.965705 
L 364.364423 289.879785 
L 366.964259 290.569966 
L 369.564095 291.040823 
L 372.488911 291.348033 
L 376.063686 291.494209 
L 381.263358 291.462804 
L 393.61258 291.298299 
L 397.512334 291.545804 
L 398.487273 291.647285 
L 398.487273 291.647285 
" style="fill:none;stroke:#d62728;stroke-linecap:square;stroke-width:1.5;"/>
   </g>
   <g id="line2d_21">
    <path clip-path="url(#p3544e56858)" d="M 73.832727 294.461227 
L 79.682359 294.052012 
L 83.907093 293.982665 
L 88.781785 294.152272 
L 101.131007 294.71124 
L 106.33068 294.665118 
L 111.205373 294.405038 
L 115.755086 293.944814 
L 120.304799 293.267235 
L 124.854513 292.377797 
L 129.079247 291.339918 
L 132.654021 290.229284 
L 135.253857 289.209354 
L 137.528714 288.100145 
L 139.478591 286.933368 
L 141.428468 285.514103 
L 143.378346 283.788607 
L 145.003243 282.07797 
L 146.628141 280.088163 
L 148.253038 277.793422 
L 150.202916 274.608268 
L 152.152793 270.93027 
L 154.10267 266.750788 
L 156.052547 262.07807 
L 158.327404 256.037918 
L 160.92724 248.443548 
L 163.852056 239.185257 
L 167.75181 226.047365 
L 186.600622 161.356486 
L 189.525438 152.341236 
L 191.800295 145.986931 
L 193.750172 141.168368 
L 195.37507 137.684083 
L 196.999967 134.734598 
L 198.299885 132.776409 
L 199.599803 131.173304 
L 200.899722 129.908807 
L 202.19964 128.95182 
L 203.499558 128.256937 
L 205.124455 127.666743 
L 208.049271 126.954454 
L 209.999148 126.354271 
L 211.299066 125.743779 
L 212.598984 124.887734 
L 213.898903 123.737107 
L 215.198821 122.263442 
L 216.498739 120.462875 
L 218.123636 117.791172 
L 220.073514 114.121263 
L 223.973268 106.603118 
L 225.273186 104.539977 
L 226.248124 103.291125 
L 227.223063 102.364135 
L 228.198002 101.812655 
L 228.847961 101.676744 
L 229.49792 101.739799 
L 230.147879 102.011147 
L 230.797838 102.49788 
L 231.447797 103.204729 
L 232.422735 104.68206 
L 233.397674 106.656553 
L 234.372613 109.113266 
L 235.672531 113.091739 
L 236.972449 117.788708 
L 238.597346 124.491955 
L 240.872203 134.956628 
L 248.346732 170.329851 
L 250.946568 181.064625 
L 253.546405 190.751328 
L 256.146241 199.573747 
L 259.071057 208.746761 
L 262.645831 219.188302 
L 265.895627 228.02419 
L 268.820442 235.344851 
L 271.420278 241.230384 
L 273.695135 245.824156 
L 275.645012 249.316926 
L 277.594889 252.393005 
L 279.544767 255.067794 
L 281.494644 257.377838 
L 283.7695 259.686888 
L 286.369337 261.953818 
L 289.944111 264.725913 
L 298.393579 270.934064 
L 301.318395 272.822301 
L 303.918231 274.219015 
L 306.193088 275.192873 
L 308.792924 276.0553 
L 312.692678 277.062994 
L 317.567371 278.36926 
L 321.792105 279.777577 
L 326.666798 281.394336 
L 329.266634 282.029776 
L 331.541491 282.377715 
L 333.816347 282.522838 
L 336.741163 282.468854 
L 343.565733 282.209316 
L 345.84059 282.404747 
L 348.115446 282.846254 
L 350.390303 283.541644 
L 352.990139 284.602639 
L 356.889894 286.498324 
L 361.114627 288.50255 
L 363.714464 289.511034 
L 366.3143 290.280203 
L 368.914136 290.810209 
L 371.838952 291.168912 
L 375.738706 291.394053 
L 382.888256 291.530784 
L 395.237477 291.753548 
L 398.487273 292.034013 
L 398.487273 292.034013 
" style="fill:none;stroke:#9467bd;stroke-linecap:square;stroke-width:1.5;"/>
   </g>
   <g id="line2d_22">
    <path clip-path="url(#p3544e56858)" d="M 73.832727 294.464876 
L 79.682359 293.987605 
L 83.582113 293.913387 
L 87.806847 294.080308 
L 100.481048 294.76813 
L 106.0057 294.751762 
L 110.880393 294.531632 
L 115.430106 294.114018 
L 120.304799 293.434772 
L 125.504472 292.480628 
L 130.379165 291.369573 
L 133.953939 290.330307 
L 136.553776 289.346248 
L 138.828632 288.231176 
L 140.778509 287.012942 
L 142.403407 285.763338 
L 144.028305 284.259954 
L 145.653202 282.466171 
L 147.2781 280.348746 
L 148.902998 277.879536 
L 150.527895 275.037044 
L 152.477772 271.114972 
L 154.427649 266.630765 
L 156.377527 261.599844 
L 158.652383 255.090538 
L 161.252219 246.927114 
L 164.502015 235.920662 
L 170.351646 215.112 
L 177.826175 188.788346 
L 188.5505 151.86871 
L 191.150336 143.718135 
L 193.100213 138.249784 
L 194.725111 134.260824 
L 196.350008 130.879698 
L 197.649926 128.650284 
L 198.949844 126.855279 
L 200.249762 125.485933 
L 201.549681 124.513958 
L 202.849599 123.891735 
L 204.149517 123.553735 
L 205.774414 123.406539 
L 209.674169 123.225205 
L 210.974087 122.868421 
L 211.949025 122.408213 
L 212.923964 121.748592 
L 213.898903 120.865854 
L 214.873841 119.744338 
L 216.173759 117.867909 
L 217.473677 115.570277 
L 219.098575 112.183951 
L 221.373432 106.821126 
L 223.973268 100.711457 
L 225.273186 98.091959 
L 226.248124 96.476209 
L 227.223063 95.246614 
L 227.873022 94.676967 
L 228.522981 94.32956 
L 229.17294 94.220788 
L 229.822899 94.364341 
L 230.472858 94.770923 
L 231.122817 95.448021 
L 231.772776 96.399748 
L 232.747715 98.342741 
L 233.722654 100.891906 
L 234.697592 104.017961 
L 235.99751 109.004132 
L 237.622408 116.346345 
L 239.572285 126.330428 
L 247.371794 167.679737 
L 249.64665 177.81534 
L 251.921507 186.825845 
L 254.196364 194.92243 
L 257.121179 204.423277 
L 260.695954 215.247775 
L 264.595708 226.365601 
L 267.520524 234.066262 
L 269.795381 239.510721 
L 272.070238 244.368058 
L 274.020115 248.014985 
L 275.969992 251.171165 
L 277.919869 253.853063 
L 279.869746 256.106182 
L 281.819623 258.002994 
L 284.09448 259.891851 
L 293.843866 267.539792 
L 300.993415 273.811653 
L 302.943292 275.165693 
L 304.89317 276.247967 
L 306.843047 277.057255 
L 308.792924 277.635123 
L 311.71774 278.234014 
L 316.267453 279.137742 
L 318.867289 279.879821 
L 322.117084 281.05352 
L 327.316757 282.974965 
L 329.591613 283.588958 
L 331.86647 283.972733 
L 334.141327 284.117373 
L 336.741163 284.041054 
L 344.540672 283.608475 
L 346.815528 283.840288 
L 348.765405 284.258579 
L 351.040262 285.001197 
L 353.640098 286.127456 
L 358.189812 288.434218 
L 361.764586 290.120961 
L 364.364423 291.106782 
L 366.964259 291.850581 
L 369.889075 292.428549 
L 373.463849 292.883045 
L 391.987682 294.680832 
L 397.512334 294.920464 
L 398.487273 294.946723 
L 398.487273 294.946723 
" style="fill:none;stroke:#8c564b;stroke-linecap:square;stroke-width:1.5;"/>
   </g>
   <g id="line2d_23">
    <path clip-path="url(#p3544e56858)" d="M 73.832727 294.473164 
L 79.357379 293.99313 
L 82.932154 293.895561 
L 86.831908 294.021944 
L 101.780966 294.805497 
L 107.305618 294.738896 
L 112.180311 294.465911 
L 116.730025 293.991427 
L 121.604717 293.25795 
L 127.129369 292.19127 
L 131.679083 291.10694 
L 134.928878 290.117146 
L 137.203735 289.22408 
L 139.153612 288.257388 
L 141.103489 287.03981 
L 142.728387 285.7853 
L 144.353284 284.271155 
L 145.978182 282.460311 
L 147.603079 280.319438 
L 149.227977 277.820567 
L 150.852875 274.942511 
L 152.802752 270.970398 
L 154.752629 266.428391 
L 156.702506 261.331798 
L 158.977363 254.735037 
L 161.577199 246.454868 
L 164.826994 235.271185 
L 170.351646 215.238471 
L 177.176216 190.726386 
L 184.000786 167.182544 
L 188.875479 151.039787 
L 191.475315 143.123644 
L 193.425192 137.789506 
L 195.05009 133.874332 
L 196.674988 130.527508 
L 197.974906 128.295561 
L 199.274824 126.471051 
L 200.574742 125.045645 
L 201.87466 123.992144 
L 203.174578 123.264744 
L 204.474496 122.800564 
L 206.099394 122.47163 
L 209.674169 121.894475 
L 210.974087 121.439075 
L 212.274005 120.715135 
L 213.573923 119.654079 
L 214.873841 118.207482 
L 216.173759 116.35229 
L 217.473677 114.095515 
L 219.098575 110.775388 
L 221.373432 105.503578 
L 224.298247 98.763564 
L 225.598165 96.269092 
L 226.573104 94.772153 
L 227.548043 93.684258 
L 228.198002 93.222218 
L 228.847961 92.993039 
L 229.49792 93.013014 
L 230.147879 93.295531 
L 230.797838 93.85077 
L 231.447797 94.685456 
L 232.097756 95.802697 
L 233.072695 98.006049 
L 234.047633 100.825453 
L 235.347551 105.479551 
L 236.647469 111.037083 
L 238.272367 118.997732 
L 240.547224 131.349764 
L 245.421916 158.201336 
L 247.696773 169.357688 
L 249.64665 177.911199 
L 251.596527 185.58505 
L 253.871384 193.634024 
L 256.47122 202.009821 
L 260.045995 212.724924 
L 263.945749 223.734595 
L 266.870565 231.397967 
L 269.470401 237.586584 
L 271.745258 242.409454 
L 273.695135 246.060668 
L 275.645012 249.25787 
L 277.594889 252.01813 
L 279.544767 254.382681 
L 281.494644 256.415882 
L 283.7695 258.482158 
L 288.644193 262.489832 
L 291.893989 265.333736 
L 296.118722 269.391271 
L 299.368518 272.427814 
L 301.643374 274.251267 
L 303.593251 275.514784 
L 305.543129 276.475792 
L 307.493006 277.159991 
L 309.767862 277.700258 
L 316.917412 279.17724 
L 319.517248 280.063587 
L 322.767043 281.43043 
L 327.316757 283.349399 
L 329.591613 284.090619 
L 331.86647 284.597401 
L 334.141327 284.855963 
L 336.741163 284.891702 
L 345.51561 284.712035 
L 347.465487 285.004968 
L 349.415364 285.502101 
L 351.690221 286.329466 
L 354.290057 287.530004 
L 362.414545 291.50047 
L 365.014382 292.414573 
L 367.614218 293.081326 
L 370.539034 293.579533 
L 374.113808 293.945848 
L 385.488092 294.716406 
L 394.587518 295.277087 
L 398.487273 295.397943 
L 398.487273 295.397943 
" style="fill:none;stroke:#e377c2;stroke-linecap:square;stroke-width:1.5;"/>
   </g>
   <g id="line2d_24">
    <path clip-path="url(#p3544e56858)" d="M 73.832727 295.188702 
L 82.282195 294.917093 
L 87.156888 295.012216 
L 101.455987 295.456314 
L 109.905455 295.393224 
L 117.055004 295.116002 
L 129.404226 294.3431 
L 133.953939 293.895699 
L 136.878755 293.405733 
L 139.478591 292.743558 
L 141.753448 291.9326 
L 144.028305 290.861732 
L 145.978182 289.708335 
L 147.928059 288.312976 
L 149.877936 286.649725 
L 151.827813 284.686013 
L 153.77769 282.377888 
L 155.727568 279.664756 
L 157.352465 277.035542 
L 158.977363 274.006162 
L 160.60226 270.500988 
L 162.227158 266.432673 
L 163.852056 261.708552 
L 165.476953 256.242821 
L 167.101851 249.974354 
L 168.726749 242.88753 
L 170.676626 233.376695 
L 173.276462 219.385127 
L 179.776052 183.550241 
L 182.375889 170.847788 
L 184.975725 159.322553 
L 187.900541 147.458982 
L 190.500377 137.773214 
L 192.775233 130.091418 
L 194.725111 124.247184 
L 196.350008 119.968384 
L 197.974906 116.246 
L 199.599803 113.068156 
L 201.224701 110.408747 
L 202.849599 108.241834 
L 204.149517 106.849924 
L 205.449435 105.752527 
L 206.749353 104.936934 
L 208.049271 104.379294 
L 209.349189 104.037838 
L 211.299066 103.783283 
L 213.573923 103.484318 
L 214.873841 103.082456 
L 215.84878 102.577955 
L 216.823718 101.849859 
L 217.798657 100.864507 
L 218.773595 99.602574 
L 220.073514 97.490204 
L 221.373432 94.94054 
L 223.648288 89.843177 
L 225.598165 85.600526 
L 226.898084 83.33445 
L 227.873022 82.141616 
L 228.522981 81.652711 
L 229.17294 81.444388 
L 229.822899 81.542271 
L 230.472858 81.966809 
L 231.122817 82.732652 
L 231.772776 83.848192 
L 232.422735 85.315319 
L 233.397674 88.163315 
L 234.372613 91.748255 
L 235.672531 97.548157 
L 237.297428 106.101297 
L 239.572285 119.512556 
L 243.14706 140.700674 
L 245.096937 151.034106 
L 247.046814 160.117195 
L 248.996691 167.993247 
L 250.946568 174.901557 
L 253.546405 183.181439 
L 262.645831 211.370608 
L 268.820442 230.793044 
L 272.070238 240.295874 
L 274.670074 247.211917 
L 276.619951 251.841109 
L 278.569828 255.886673 
L 280.194726 258.767751 
L 281.819623 261.194615 
L 283.444521 263.189911 
L 285.069419 264.80468 
L 286.694316 266.113596 
L 288.644193 267.408435 
L 295.793743 271.865657 
L 300.343456 275.298635 
L 302.943292 277.093116 
L 304.89317 278.189878 
L 306.843047 279.032826 
L 308.792924 279.645794 
L 311.71774 280.293028 
L 315.942473 281.221223 
L 318.54231 282.038873 
L 322.117084 283.448394 
L 326.016839 284.934051 
L 328.291695 285.565535 
L 330.566552 285.964859 
L 333.166388 286.172234 
L 337.716102 286.230216 
L 341.290876 286.377183 
L 343.890713 286.692957 
L 346.490549 287.240185 
L 349.090385 288.025529 
L 352.34018 289.270349 
L 358.839771 291.856824 
L 361.764586 292.748247 
L 365.014382 293.496328 
L 369.239115 294.22227 
L 374.438788 294.892317 
L 378.988501 295.259152 
L 384.188174 295.437624 
L 393.937559 295.48722 
L 398.487273 295.48794 
L 398.487273 295.48794 
" style="fill:none;stroke:#7f7f7f;stroke-linecap:square;stroke-width:1.5;"/>
   </g>
   <g id="line2d_25">
    <path clip-path="url(#p3544e56858)" d="M 73.832727 294.972709 
L 80.982277 294.401975 
L 84.232072 294.407756 
L 87.806847 294.649238 
L 96.581294 295.342908 
L 102.105946 295.467739 
L 113.15525 295.449533 
L 118.354922 295.25573 
L 122.254676 294.880954 
L 127.129369 294.152612 
L 135.578837 292.67154 
L 138.503653 291.925523 
L 141.103489 291.055997 
L 143.703325 289.965984 
L 145.978182 288.795661 
L 147.928059 287.575121 
L 149.877936 286.074513 
L 151.502834 284.540037 
L 153.127731 282.682529 
L 154.752629 280.444499 
L 156.377527 277.777263 
L 158.002424 274.642068 
L 159.627322 271.005383 
L 161.252219 266.829084 
L 162.877117 262.059266 
L 164.502015 256.6197 
L 166.126912 250.416173 
L 167.75181 243.355275 
L 169.376708 235.375987 
L 171.326585 224.606461 
L 173.601441 210.673352 
L 181.075971 163.564691 
L 183.675807 149.380027 
L 186.925602 133.018704 
L 190.500377 116.097213 
L 192.450254 107.821744 
L 194.075152 101.943455 
L 195.37507 98.146333 
L 196.350008 95.911372 
L 197.324947 94.23543 
L 197.974906 93.432395 
L 198.624865 92.876539 
L 199.274824 92.559145 
L 199.924783 92.467304 
L 200.574742 92.584357 
L 201.224701 92.890424 
L 202.19964 93.654125 
L 203.174578 94.70825 
L 204.799476 96.867779 
L 207.724292 100.872232 
L 209.02421 102.259111 
L 209.999148 103.013898 
L 210.974087 103.472561 
L 211.624046 103.595017 
L 212.274005 103.559668 
L 212.923964 103.358225 
L 213.573923 102.983304 
L 214.548862 102.081269 
L 215.5238 100.754198 
L 216.498739 98.98539 
L 217.473677 96.762608 
L 218.773595 93.085765 
L 220.073514 88.617722 
L 221.698411 82.057623 
L 224.298247 70.285017 
L 226.248124 61.937351 
L 227.223063 58.492185 
L 228.198002 55.8226 
L 228.847961 54.572991 
L 229.49792 53.807604 
L 229.822899 53.619885 
L 230.147879 53.568 
L 230.472858 53.655453 
L 230.797838 53.884997 
L 231.447797 54.77745 
L 232.097756 56.251544 
L 232.747715 58.300629 
L 233.722654 62.40742 
L 234.697592 67.650593 
L 235.99751 76.129459 
L 237.622408 88.458729 
L 243.797019 137.611918 
L 245.421916 148.338303 
L 247.046814 157.720321 
L 248.671712 165.869015 
L 250.296609 173.010718 
L 252.246486 180.647934 
L 255.496282 192.306265 
L 260.695954 211.010204 
L 268.820442 240.745498 
L 271.420278 249.200638 
L 273.695135 255.818436 
L 275.645012 260.860958 
L 277.594889 265.339292 
L 279.544767 269.312939 
L 281.819623 273.414152 
L 284.09448 277.036321 
L 286.369337 280.227472 
L 288.319214 282.620356 
L 290.269091 284.687968 
L 292.218968 286.429216 
L 294.168845 287.855376 
L 296.118722 288.987935 
L 298.0686 289.857749 
L 300.343456 290.600585 
L 303.268272 291.283138 
L 310.092842 292.785821 
L 315.617494 294.029697 
L 319.517248 294.642235 
L 324.066962 295.109769 
L 328.941654 295.377454 
L 335.441245 295.478306 
L 364.689402 295.488 
L 398.487273 295.488 
L 398.487273 295.488 
" style="fill:none;stroke:#bcbd22;stroke-linecap:square;stroke-width:1.5;"/>
   </g>
   <g id="line2d_26">
    <path clip-path="url(#p3544e56858)" d="M 73.832727 295.020756 
L 81.307256 294.479497 
L 84.557052 294.506527 
L 88.456806 294.77596 
L 95.931335 295.332875 
L 101.455987 295.464901 
L 110.555414 295.433484 
L 115.430106 295.224157 
L 119.329861 294.835824 
L 135.578837 292.645217 
L 138.178673 291.988096 
L 140.778509 291.069297 
L 143.703325 289.760126 
L 146.628141 288.209323 
L 149.227977 286.583503 
L 151.177854 285.110603 
L 152.802752 283.625572 
L 154.427649 281.819462 
L 156.052547 279.605956 
L 157.352465 277.485247 
L 158.652383 275.009663 
L 159.952301 272.141028 
L 161.577199 267.94532 
L 163.202097 263.000669 
L 164.826994 257.225421 
L 166.451892 250.537512 
L 168.07679 242.870819 
L 169.701687 234.201777 
L 171.651564 222.551901 
L 174.2514 205.38527 
L 180.101032 165.858275 
L 182.375889 152.13351 
L 184.975725 137.858845 
L 187.900541 123.167888 
L 190.175397 112.764966 
L 191.800295 106.180428 
L 193.100213 101.640709 
L 194.400131 97.908917 
L 195.37507 95.711407 
L 196.350008 94.063871 
L 196.999967 93.27681 
L 197.649926 92.736917 
L 198.299885 92.438125 
L 198.949844 92.370655 
L 199.599803 92.521345 
L 200.249762 92.874052 
L 201.224701 93.740434 
L 202.19964 94.947361 
L 203.499558 96.949336 
L 206.099394 101.55107 
L 207.724292 104.260005 
L 209.02421 106.040513 
L 209.999148 107.045568 
L 210.974087 107.704556 
L 211.624046 107.928464 
L 212.274005 107.966763 
L 212.923964 107.810336 
L 213.573923 107.452017 
L 214.223882 106.886488 
L 215.198821 105.6423 
L 216.173759 103.918932 
L 217.148698 101.718894 
L 218.448616 98.063783 
L 219.748534 93.634531 
L 221.373432 87.162828 
L 223.973268 75.51724 
L 225.923145 67.031104 
L 227.223063 62.282275 
L 228.198002 59.531963 
L 228.847961 58.189615 
L 229.49792 57.297549 
L 230.147879 56.896515 
L 230.472858 56.89037 
L 230.797838 57.017987 
L 231.447797 57.68289 
L 232.097756 58.900772 
L 232.747715 60.66946 
L 233.397674 62.975224 
L 234.372613 67.384233 
L 235.347551 72.820627 
L 236.647469 81.384027 
L 238.597346 96.126654 
L 243.472039 134.182188 
L 245.421916 147.28026 
L 247.046814 156.829985 
L 248.671712 165.208515 
L 250.621589 173.996188 
L 252.896446 183.060236 
L 256.146241 194.964724 
L 262.645831 217.854937 
L 267.195545 233.123928 
L 271.420278 246.543182 
L 274.345094 255.146723 
L 276.619951 261.225765 
L 278.894808 266.666574 
L 280.844685 270.815954 
L 282.794562 274.514235 
L 284.744439 277.779878 
L 286.694316 280.615085 
L 288.644193 283.01535 
L 290.269091 284.688276 
L 291.893989 286.081528 
L 293.518886 287.223677 
L 295.468763 288.312508 
L 297.41864 289.154403 
L 300.018477 290.003028 
L 304.89317 291.251836 
L 310.092842 292.71618 
L 314.317576 293.826707 
L 317.567371 294.437239 
L 321.467125 294.923511 
L 326.016839 295.269054 
L 331.216511 295.44232 
L 340.965897 295.487562 
L 398.487273 295.488 
L 398.487273 295.488 
" style="fill:none;stroke:#17becf;stroke-linecap:square;stroke-width:1.5;"/>
   </g>
   <g id="line2d_27">
    <path clip-path="url(#p3544e56858)" d="M 73.832727 295.027546 
L 81.307256 294.490053 
L 84.557052 294.516936 
L 88.456806 294.7847 
L 95.931335 295.336087 
L 101.455987 295.465655 
L 110.555414 295.435041 
L 115.430106 295.229397 
L 119.329861 294.845855 
L 135.578837 292.686715 
L 138.178673 292.038831 
L 140.778509 291.131357 
L 143.703325 289.838275 
L 146.628141 288.308471 
L 149.227977 286.707118 
L 151.177854 285.257388 
L 152.802752 283.795582 
L 154.427649 282.01682 
L 156.052547 279.835214 
L 157.352465 277.743445 
L 158.652383 275.299745 
L 159.952301 272.465512 
L 161.577199 268.314896 
L 163.202097 263.414503 
L 164.826994 257.677346 
L 166.451892 251.014021 
L 168.07679 243.349815 
L 169.701687 234.652986 
L 171.651564 222.922621 
L 173.926421 207.817198 
L 180.426011 163.583802 
L 182.700868 150.049785 
L 184.975725 137.775041 
L 187.575561 124.904048 
L 190.175397 113.162079 
L 192.125274 105.447448 
L 193.425192 101.073622 
L 194.725111 97.476031 
L 195.700049 95.352051 
L 196.674988 93.751309 
L 197.649926 92.682636 
L 198.299885 92.261941 
L 198.949844 92.066982 
L 199.599803 92.087669 
L 200.249762 92.311131 
L 200.899722 92.722047 
L 201.87466 93.651275 
L 202.849599 94.89659 
L 204.149517 96.921946 
L 209.349189 105.560359 
L 210.324128 106.638834 
L 211.299066 107.377524 
L 211.949025 107.654864 
L 212.598984 107.744551 
L 213.248943 107.635538 
L 213.898903 107.318801 
L 214.548862 106.787281 
L 215.198821 106.035815 
L 216.173759 104.489414 
L 217.148698 102.437423 
L 218.123636 99.885849 
L 219.423554 95.738327 
L 220.723473 90.816397 
L 222.34837 83.801 
L 226.573104 64.909994 
L 227.548043 61.503108 
L 228.522981 58.878038 
L 229.17294 57.654524 
L 229.822899 56.907645 
L 230.147879 56.725177 
L 230.472858 56.675321 
L 230.797838 56.761214 
L 231.122817 56.985281 
L 231.772776 57.853966 
L 232.422735 59.285926 
L 233.072695 61.27371 
L 234.047633 65.252949 
L 235.022572 70.32934 
L 236.32249 78.537633 
L 237.947387 90.486001 
L 244.771957 143.010262 
L 246.396855 153.192692 
L 248.021753 162.147122 
L 249.64665 170.012918 
L 251.596527 178.333471 
L 253.871384 187.043081 
L 257.771138 200.93474 
L 264.270729 223.28738 
L 268.820442 238.116627 
L 272.395217 249.089737 
L 275.320033 257.347564 
L 277.594889 263.150725 
L 279.869746 268.358198 
L 282.144603 272.981802 
L 284.09448 276.49152 
L 286.044357 279.57319 
L 287.994234 282.207213 
L 289.619132 284.054206 
L 291.244029 285.595887 
L 292.868927 286.858523 
L 294.818804 288.05721 
L 296.768681 288.976721 
L 299.043538 289.78823 
L 302.293333 290.664067 
L 308.467944 292.282816 
L 313.992596 293.778459 
L 317.242391 294.402757 
L 321.142146 294.899919 
L 325.691859 295.255292 
L 330.891532 295.438054 
L 340.315938 295.487391 
L 398.487273 295.488 
L 398.487273 295.488 
" style="fill:none;stroke:#1f77b4;stroke-linecap:square;stroke-width:1.5;"/>
   </g>
   <g id="line2d_28">
    <path clip-path="url(#p3544e56858)" d="M 73.832727 295.028422 
L 81.307256 294.490874 
L 84.557052 294.517771 
L 88.456806 294.785616 
L 95.931335 295.336626 
L 101.455987 295.465806 
L 110.555414 295.43534 
L 115.430106 295.230255 
L 119.329861 294.847219 
L 135.578837 292.69208 
L 138.178673 292.045342 
L 140.778509 291.139058 
L 143.703325 289.847658 
L 146.628141 288.320351 
L 149.227977 286.72226 
L 151.177854 285.27576 
L 152.802752 283.817202 
L 154.427649 282.042221 
L 156.052547 279.864968 
L 157.352465 277.77715 
L 158.652383 275.337891 
L 159.952301 272.508679 
L 161.577199 268.365312 
L 163.202097 263.4734 
L 164.826994 257.746028 
L 166.451892 251.093702 
L 168.07679 243.441456 
L 169.701687 234.757159 
L 171.651564 223.042014 
L 173.926421 207.954033 
L 180.426011 163.770814 
L 182.700868 150.253239 
L 184.975725 137.987677 
L 187.575561 125.10618 
L 190.175397 113.316466 
L 192.125274 105.536334 
L 193.425192 101.10604 
L 194.725111 97.445108 
L 195.700049 95.271897 
L 196.674988 93.623157 
L 197.649926 92.510419 
L 198.299885 92.063878 
L 198.949844 91.846782 
L 199.599803 91.849713 
L 200.249762 92.060358 
L 200.899722 92.463815 
L 201.87466 93.392415 
L 202.849599 94.649825 
L 204.149517 96.709661 
L 207.074333 102.003986 
L 208.69923 104.687597 
L 209.999148 106.383505 
L 210.974087 107.284903 
L 211.624046 107.676779 
L 212.274005 107.884337 
L 212.923964 107.895301 
L 213.573923 107.699484 
L 214.223882 107.288729 
L 214.873841 106.656822 
L 215.84878 105.285264 
L 216.823718 103.39956 
L 217.798657 101.001748 
L 219.098575 97.031291 
L 220.398493 92.240727 
L 222.023391 85.29608 
L 226.898084 63.277771 
L 227.873022 60.011474 
L 228.847961 57.600331 
L 229.49792 56.558201 
L 230.147879 56.020761 
L 230.472858 55.952425 
L 230.797838 56.02227 
L 231.122817 56.23284 
L 231.772776 57.082557 
L 232.422735 58.50665 
L 233.072695 60.497844 
L 234.047633 64.502824 
L 235.022572 69.627717 
L 236.32249 77.92969 
L 237.947387 90.025451 
L 244.446978 140.881937 
L 246.071876 151.375287 
L 247.696773 160.602255 
L 249.321671 168.685151 
L 251.271548 177.185682 
L 253.546405 186.006246 
L 257.121179 198.801489 
L 263.945749 222.308818 
L 268.495463 237.174635 
L 272.395217 249.162073 
L 275.320033 257.408512 
L 277.594889 263.203233 
L 279.869746 268.40277 
L 282.144603 273.019315 
L 284.09448 276.523856 
L 286.044357 279.601091 
L 287.994234 282.231236 
L 289.619132 284.075312 
L 291.244029 285.614335 
L 292.868927 286.874597 
L 294.818804 288.070854 
L 296.768681 288.988374 
L 299.043538 289.797963 
L 302.293333 290.67149 
L 308.467944 292.287491 
L 313.992596 293.781766 
L 317.242391 294.405023 
L 321.142146 294.901185 
L 325.691859 295.25595 
L 330.891532 295.438302 
L 340.315938 295.487399 
L 398.487273 295.488 
L 398.487273 295.488 
" style="fill:none;stroke:#ff7f0e;stroke-linecap:square;stroke-width:1.5;"/>
   </g>
   <g id="line2d_29">
    <path clip-path="url(#p3544e56858)" d="M 73.832727 295.029318 
L 81.307256 294.49161 
L 84.557052 294.518527 
L 88.456806 294.786512 
L 95.931335 295.337201 
L 101.455987 295.46597 
L 110.555414 295.435665 
L 115.430106 295.231168 
L 119.329861 294.848628 
L 135.578837 292.69757 
L 138.178673 292.051997 
L 140.778509 291.146876 
L 143.703325 289.857119 
L 146.628141 288.332324 
L 149.227977 286.737588 
L 151.177854 285.294436 
L 152.802752 283.839246 
L 154.427649 282.068169 
L 156.052547 279.895387 
L 157.352465 277.811605 
L 158.652383 275.376865 
L 159.952301 272.552752 
L 161.577199 268.416732 
L 163.202097 263.533412 
L 164.826994 257.815938 
L 166.451892 251.174705 
L 168.07679 243.534443 
L 169.701687 234.862583 
L 171.651564 223.162331 
L 173.926421 208.091133 
L 180.426011 163.958107 
L 182.700868 150.460956 
L 184.975725 138.214442 
L 187.575561 125.346433 
L 190.175397 113.551912 
L 192.125274 105.749536 
L 193.425192 101.292978 
L 194.725111 97.595457 
L 195.700049 95.387853 
L 196.674988 93.69908 
L 197.649926 92.541453 
L 198.299885 92.062911 
L 198.949844 91.81274 
L 199.599803 91.782136 
L 200.249762 91.959473 
L 200.899722 92.330593 
L 201.87466 93.214183 
L 202.849599 94.432992 
L 204.149517 96.454966 
L 206.424373 100.552273 
L 208.374251 103.937812 
L 209.674169 105.780612 
L 210.649107 106.818152 
L 211.624046 107.488744 
L 212.274005 107.705198 
L 212.923964 107.721665 
L 213.573923 107.527391 
L 214.223882 107.113848 
L 214.873841 106.47465 
L 215.84878 105.083826 
L 216.823718 103.169717 
L 217.798657 100.736039 
L 219.098575 96.710063 
L 220.398493 91.860684 
L 222.023391 84.846698 
L 226.898084 62.725387 
L 227.873022 59.465478 
L 228.847961 57.071007 
L 229.49792 56.045746 
L 230.147879 55.529704 
L 230.472858 55.473718 
L 230.797838 55.556978 
L 231.122817 55.781993 
L 231.772776 56.66351 
L 232.422735 58.122935 
L 233.072695 60.152482 
L 234.047633 64.219329 
L 235.022572 69.409235 
L 236.32249 77.798525 
L 237.947387 89.996599 
L 244.446978 141.074964 
L 246.071876 151.578296 
L 247.696773 160.804735 
L 249.321671 168.880697 
L 251.271548 177.368878 
L 253.546405 186.173833 
L 257.121179 198.947169 
L 263.945749 222.419955 
L 268.495463 237.263758 
L 272.395217 249.23451 
L 275.320033 257.469722 
L 277.594889 263.25606 
L 279.869746 268.447667 
L 282.144603 273.057161 
L 284.09448 276.556552 
L 286.044357 279.629391 
L 287.994234 282.255681 
L 289.619132 284.096832 
L 291.244029 285.633161 
L 292.868927 286.890998 
L 294.818804 288.084757 
L 296.768681 289.000217 
L 299.043538 289.807809 
L 302.293333 290.678911 
L 308.467944 292.292133 
L 313.992596 293.785154 
L 317.242391 294.407359 
L 321.142146 294.902492 
L 325.691859 295.256644 
L 330.891532 295.438569 
L 340.315938 295.487407 
L 398.487273 295.488 
L 398.487273 295.488 
" style="fill:none;stroke:#2ca02c;stroke-linecap:square;stroke-width:1.5;"/>
   </g>
   <g id="line2d_30">
    <path clip-path="url(#p3544e56858)" d="M 73.832727 295.029318 
L 81.307256 294.49161 
L 84.557052 294.518527 
L 88.456806 294.786512 
L 95.931335 295.337201 
L 101.455987 295.46597 
L 110.555414 295.435665 
L 115.430106 295.231168 
L 119.329861 294.848628 
L 135.578837 292.69757 
L 138.178673 292.051997 
L 140.778509 291.146876 
L 143.703325 289.857119 
L 146.628141 288.332324 
L 149.227977 286.737588 
L 151.177854 285.294436 
L 152.802752 283.839246 
L 154.427649 282.068169 
L 156.052547 279.895387 
L 157.352465 277.811605 
L 158.652383 275.376865 
L 159.952301 272.552752 
L 161.577199 268.416732 
L 163.202097 263.533412 
L 164.826994 257.815938 
L 166.451892 251.174705 
L 168.07679 243.534443 
L 169.701687 234.862583 
L 171.651564 223.162331 
L 173.926421 208.091133 
L 180.426011 163.958107 
L 182.700868 150.460956 
L 184.975725 138.214442 
L 187.575561 125.346433 
L 190.175397 113.551912 
L 192.125274 105.749536 
L 193.425192 101.292978 
L 194.725111 97.595457 
L 195.700049 95.387853 
L 196.674988 93.69908 
L 197.649926 92.541453 
L 198.299885 92.062911 
L 198.949844 91.81274 
L 199.599803 91.782136 
L 200.249762 91.959473 
L 200.899722 92.330593 
L 201.87466 93.214183 
L 202.849599 94.432992 
L 204.149517 96.454966 
L 206.424373 100.552273 
L 208.374251 103.937812 
L 209.674169 105.780612 
L 210.649107 106.818152 
L 211.624046 107.488744 
L 212.274005 107.705198 
L 212.923964 107.721665 
L 213.573923 107.527391 
L 214.223882 107.113848 
L 214.873841 106.47465 
L 215.84878 105.083826 
L 216.823718 103.169717 
L 217.798657 100.736039 
L 219.098575 96.710063 
L 220.398493 91.860684 
L 222.023391 84.846698 
L 226.898084 62.725387 
L 227.873022 59.465478 
L 228.847961 57.071007 
L 229.49792 56.045746 
L 230.147879 55.529704 
L 230.472858 55.473718 
L 230.797838 55.556978 
L 231.122817 55.781993 
L 231.772776 56.66351 
L 232.422735 58.122935 
L 233.072695 60.152482 
L 234.047633 64.219329 
L 235.022572 69.409235 
L 236.32249 77.798525 
L 237.947387 89.996599 
L 244.446978 141.074964 
L 246.071876 151.578296 
L 247.696773 160.804735 
L 249.321671 168.880697 
L 251.271548 177.368878 
L 253.546405 186.173833 
L 257.121179 198.947169 
L 263.945749 222.419955 
L 268.495463 237.263758 
L 272.395217 249.23451 
L 275.320033 257.469722 
L 277.594889 263.25606 
L 279.869746 268.447667 
L 282.144603 273.057161 
L 284.09448 276.556552 
L 286.044357 279.629391 
L 287.994234 282.255681 
L 289.619132 284.096832 
L 291.244029 285.633161 
L 292.868927 286.890998 
L 294.818804 288.084757 
L 296.768681 289.000217 
L 299.043538 289.807809 
L 302.293333 290.678911 
L 308.467944 292.292133 
L 313.992596 293.785154 
L 317.242391 294.407359 
L 321.142146 294.902492 
L 325.691859 295.256644 
L 330.891532 295.438569 
L 340.315938 295.487407 
L 398.487273 295.488 
L 398.487273 295.488 
" style="fill:none;stroke:#d62728;stroke-linecap:square;stroke-width:1.5;"/>
   </g>
   <g id="line2d_31">
    <path clip-path="url(#p3544e56858)" d="M 73.832727 295.029318 
L 81.307256 294.49161 
L 84.557052 294.518527 
L 88.456806 294.786512 
L 95.931335 295.337201 
L 101.455987 295.46597 
L 110.555414 295.435665 
L 115.430106 295.231168 
L 119.329861 294.848628 
L 135.578837 292.69757 
L 138.178673 292.051997 
L 140.778509 291.146876 
L 143.703325 289.857119 
L 146.628141 288.332324 
L 149.227977 286.737588 
L 151.177854 285.294436 
L 152.802752 283.839246 
L 154.427649 282.068169 
L 156.052547 279.895387 
L 157.352465 277.811605 
L 158.652383 275.376865 
L 159.952301 272.552752 
L 161.577199 268.416732 
L 163.202097 263.533412 
L 164.826994 257.815938 
L 166.451892 251.174705 
L 168.07679 243.534443 
L 169.701687 234.862583 
L 171.651564 223.162331 
L 173.926421 208.091133 
L 180.426011 163.958107 
L 182.700868 150.460956 
L 184.975725 138.214442 
L 187.575561 125.346433 
L 190.175397 113.551912 
L 192.125274 105.749536 
L 193.425192 101.292978 
L 194.725111 97.595457 
L 195.700049 95.387853 
L 196.674988 93.69908 
L 197.649926 92.541453 
L 198.299885 92.062911 
L 198.949844 91.81274 
L 199.599803 91.782136 
L 200.249762 91.959473 
L 200.899722 92.330593 
L 201.87466 93.214183 
L 202.849599 94.432992 
L 204.149517 96.454966 
L 206.424373 100.552273 
L 208.374251 103.937812 
L 209.674169 105.780612 
L 210.649107 106.818152 
L 211.624046 107.488744 
L 212.274005 107.705198 
L 212.923964 107.721665 
L 213.573923 107.527391 
L 214.223882 107.113848 
L 214.873841 106.47465 
L 215.84878 105.083826 
L 216.823718 103.169717 
L 217.798657 100.736039 
L 219.098575 96.710063 
L 220.398493 91.860684 
L 222.023391 84.846698 
L 226.898084 62.725387 
L 227.873022 59.465478 
L 228.847961 57.071007 
L 229.49792 56.045746 
L 230.147879 55.529704 
L 230.472858 55.473718 
L 230.797838 55.556978 
L 231.122817 55.781993 
L 231.772776 56.66351 
L 232.422735 58.122935 
L 233.072695 60.152482 
L 234.047633 64.219329 
L 235.022572 69.409235 
L 236.32249 77.798525 
L 237.947387 89.996599 
L 244.446978 141.074964 
L 246.071876 151.578296 
L 247.696773 160.804735 
L 249.321671 168.880697 
L 251.271548 177.368878 
L 253.546405 186.173833 
L 257.121179 198.947169 
L 263.945749 222.419955 
L 268.495463 237.263758 
L 272.395217 249.23451 
L 275.320033 257.469722 
L 277.594889 263.25606 
L 279.869746 268.447667 
L 282.144603 273.057161 
L 284.09448 276.556552 
L 286.044357 279.629391 
L 287.994234 282.255681 
L 289.619132 284.096832 
L 291.244029 285.633161 
L 292.868927 286.890998 
L 294.818804 288.084757 
L 296.768681 289.000217 
L 299.043538 289.807809 
L 302.293333 290.678911 
L 308.467944 292.292133 
L 313.992596 293.785154 
L 317.242391 294.407359 
L 321.142146 294.902492 
L 325.691859 295.256644 
L 330.891532 295.438569 
L 340.315938 295.487407 
L 398.487273 295.488 
L 398.487273 295.488 
" style="fill:none;stroke:#9467bd;stroke-linecap:square;stroke-width:1.5;"/>
   </g>
   <g id="line2d_32">
    <path clip-path="url(#p3544e56858)" d="M 73.832727 295.029318 
L 81.307256 294.49161 
L 84.557052 294.518527 
L 88.456806 294.786512 
L 95.931335 295.337201 
L 101.455987 295.46597 
L 110.555414 295.435665 
L 115.430106 295.231168 
L 119.329861 294.848628 
L 135.578837 292.69757 
L 138.178673 292.051997 
L 140.778509 291.146876 
L 143.703325 289.857119 
L 146.628141 288.332324 
L 149.227977 286.737588 
L 151.177854 285.294436 
L 152.802752 283.839246 
L 154.427649 282.068169 
L 156.052547 279.895387 
L 157.352465 277.811605 
L 158.652383 275.376865 
L 159.952301 272.552752 
L 161.577199 268.416732 
L 163.202097 263.533412 
L 164.826994 257.815938 
L 166.451892 251.174705 
L 168.07679 243.534443 
L 169.701687 234.862583 
L 171.651564 223.162331 
L 173.926421 208.091133 
L 180.426011 163.958107 
L 182.700868 150.460956 
L 184.975725 138.214442 
L 187.575561 125.346433 
L 190.175397 113.551912 
L 192.125274 105.749536 
L 193.425192 101.292978 
L 194.725111 97.595457 
L 195.700049 95.387853 
L 196.674988 93.69908 
L 197.649926 92.541453 
L 198.299885 92.062911 
L 198.949844 91.81274 
L 199.599803 91.782136 
L 200.249762 91.959473 
L 200.899722 92.330593 
L 201.87466 93.214183 
L 202.849599 94.432992 
L 204.149517 96.454966 
L 206.424373 100.552273 
L 208.374251 103.937812 
L 209.674169 105.780612 
L 210.649107 106.818152 
L 211.624046 107.488744 
L 212.274005 107.705198 
L 212.923964 107.721665 
L 213.573923 107.527391 
L 214.223882 107.113848 
L 214.873841 106.47465 
L 215.84878 105.083826 
L 216.823718 103.169717 
L 217.798657 100.736039 
L 219.098575 96.710063 
L 220.398493 91.860684 
L 222.023391 84.846698 
L 226.898084 62.725387 
L 227.873022 59.465478 
L 228.847961 57.071007 
L 229.49792 56.045746 
L 230.147879 55.529704 
L 230.472858 55.473718 
L 230.797838 55.556978 
L 231.122817 55.781993 
L 231.772776 56.66351 
L 232.422735 58.122935 
L 233.072695 60.152482 
L 234.047633 64.219329 
L 235.022572 69.409235 
L 236.32249 77.798525 
L 237.947387 89.996599 
L 244.446978 141.074964 
L 246.071876 151.578296 
L 247.696773 160.804735 
L 249.321671 168.880697 
L 251.271548 177.368878 
L 253.546405 186.173833 
L 257.121179 198.947169 
L 263.945749 222.419955 
L 268.495463 237.263758 
L 272.395217 249.23451 
L 275.320033 257.469722 
L 277.594889 263.25606 
L 279.869746 268.447667 
L 282.144603 273.057161 
L 284.09448 276.556552 
L 286.044357 279.629391 
L 287.994234 282.255681 
L 289.619132 284.096832 
L 291.244029 285.633161 
L 292.868927 286.890998 
L 294.818804 288.084757 
L 296.768681 289.000217 
L 299.043538 289.807809 
L 302.293333 290.678911 
L 308.467944 292.292133 
L 313.992596 293.785154 
L 317.242391 294.407359 
L 321.142146 294.902492 
L 325.691859 295.256644 
L 330.891532 295.438569 
L 340.315938 295.487407 
L 398.487273 295.488 
L 398.487273 295.488 
" style="fill:none;stroke:#8c564b;stroke-linecap:square;stroke-width:1.5;"/>
   </g>
   <g id="line2d_33">
    <path clip-path="url(#p3544e56858)" d="M 73.832727 295.029318 
L 81.307256 294.49161 
L 84.557052 294.518527 
L 88.456806 294.786512 
L 95.931335 295.337201 
L 101.455987 295.46597 
L 110.555414 295.435665 
L 115.430106 295.231168 
L 119.329861 294.848628 
L 135.578837 292.69757 
L 138.178673 292.051997 
L 140.778509 291.146876 
L 143.703325 289.857119 
L 146.628141 288.332324 
L 149.227977 286.737588 
L 151.177854 285.294436 
L 152.802752 283.839246 
L 154.427649 282.068169 
L 156.052547 279.895387 
L 157.352465 277.811605 
L 158.652383 275.376865 
L 159.952301 272.552752 
L 161.577199 268.416732 
L 163.202097 263.533412 
L 164.826994 257.815938 
L 166.451892 251.174705 
L 168.07679 243.534443 
L 169.701687 234.862583 
L 171.651564 223.162331 
L 173.926421 208.091133 
L 180.426011 163.958107 
L 182.700868 150.460956 
L 184.975725 138.214442 
L 187.575561 125.346433 
L 190.175397 113.551912 
L 192.125274 105.749536 
L 193.425192 101.292978 
L 194.725111 97.595457 
L 195.700049 95.387853 
L 196.674988 93.69908 
L 197.649926 92.541453 
L 198.299885 92.062911 
L 198.949844 91.81274 
L 199.599803 91.782136 
L 200.249762 91.959473 
L 200.899722 92.330593 
L 201.87466 93.214183 
L 202.849599 94.432992 
L 204.149517 96.454966 
L 206.424373 100.552273 
L 208.374251 103.937812 
L 209.674169 105.780612 
L 210.649107 106.818152 
L 211.624046 107.488744 
L 212.274005 107.705198 
L 212.923964 107.721665 
L 213.573923 107.527391 
L 214.223882 107.113848 
L 214.873841 106.47465 
L 215.84878 105.083826 
L 216.823718 103.169717 
L 217.798657 100.736039 
L 219.098575 96.710063 
L 220.398493 91.860684 
L 222.023391 84.846698 
L 226.898084 62.725387 
L 227.873022 59.465478 
L 228.847961 57.071007 
L 229.49792 56.045746 
L 230.147879 55.529704 
L 230.472858 55.473718 
L 230.797838 55.556978 
L 231.122817 55.781993 
L 231.772776 56.66351 
L 232.422735 58.122935 
L 233.072695 60.152482 
L 234.047633 64.219329 
L 235.022572 69.409235 
L 236.32249 77.798525 
L 237.947387 89.996599 
L 244.446978 141.074964 
L 246.071876 151.578296 
L 247.696773 160.804735 
L 249.321671 168.880697 
L 251.271548 177.368878 
L 253.546405 186.173833 
L 257.121179 198.947169 
L 263.945749 222.419955 
L 268.495463 237.263758 
L 272.395217 249.23451 
L 275.320033 257.469722 
L 277.594889 263.25606 
L 279.869746 268.447667 
L 282.144603 273.057161 
L 284.09448 276.556552 
L 286.044357 279.629391 
L 287.994234 282.255681 
L 289.619132 284.096832 
L 291.244029 285.633161 
L 292.868927 286.890998 
L 294.818804 288.084757 
L 296.768681 289.000217 
L 299.043538 289.807809 
L 302.293333 290.678911 
L 308.467944 292.292133 
L 313.992596 293.785154 
L 317.242391 294.407359 
L 321.142146 294.902492 
L 325.691859 295.256644 
L 330.891532 295.438569 
L 340.315938 295.487407 
L 398.487273 295.488 
L 398.487273 295.488 
" style="fill:none;stroke:#e377c2;stroke-linecap:square;stroke-width:1.5;"/>
   </g>
   <g id="line2d_34">
    <path clip-path="url(#p3544e56858)" d="M 73.832727 295.029318 
L 81.307256 294.49161 
L 84.557052 294.518527 
L 88.456806 294.786512 
L 95.931335 295.337201 
L 101.455987 295.46597 
L 110.555414 295.435665 
L 115.430106 295.231168 
L 119.329861 294.848628 
L 135.578837 292.69757 
L 138.178673 292.051997 
L 140.778509 291.146876 
L 143.703325 289.857119 
L 146.628141 288.332324 
L 149.227977 286.737588 
L 151.177854 285.294436 
L 152.802752 283.839246 
L 154.427649 282.068169 
L 156.052547 279.895387 
L 157.352465 277.811605 
L 158.652383 275.376865 
L 159.952301 272.552752 
L 161.577199 268.416732 
L 163.202097 263.533412 
L 164.826994 257.815938 
L 166.451892 251.174705 
L 168.07679 243.534443 
L 169.701687 234.862583 
L 171.651564 223.162331 
L 173.926421 208.091133 
L 180.426011 163.958107 
L 182.700868 150.460956 
L 184.975725 138.214442 
L 187.575561 125.346433 
L 190.175397 113.551912 
L 192.125274 105.749536 
L 193.425192 101.292978 
L 194.725111 97.595457 
L 195.700049 95.387853 
L 196.674988 93.69908 
L 197.649926 92.541453 
L 198.299885 92.062911 
L 198.949844 91.81274 
L 199.599803 91.782136 
L 200.249762 91.959473 
L 200.899722 92.330593 
L 201.87466 93.214183 
L 202.849599 94.432992 
L 204.149517 96.454966 
L 206.424373 100.552273 
L 208.374251 103.937812 
L 209.674169 105.780612 
L 210.649107 106.818152 
L 211.624046 107.488744 
L 212.274005 107.705198 
L 212.923964 107.721665 
L 213.573923 107.527391 
L 214.223882 107.113848 
L 214.873841 106.47465 
L 215.84878 105.083826 
L 216.823718 103.169717 
L 217.798657 100.736039 
L 219.098575 96.710063 
L 220.398493 91.860684 
L 222.023391 84.846698 
L 226.898084 62.725387 
L 227.873022 59.465478 
L 228.847961 57.071007 
L 229.49792 56.045746 
L 230.147879 55.529704 
L 230.472858 55.473718 
L 230.797838 55.556978 
L 231.122817 55.781993 
L 231.772776 56.66351 
L 232.422735 58.122935 
L 233.072695 60.152482 
L 234.047633 64.219329 
L 235.022572 69.409235 
L 236.32249 77.798525 
L 237.947387 89.996599 
L 244.446978 141.074964 
L 246.071876 151.578296 
L 247.696773 160.804735 
L 249.321671 168.880697 
L 251.271548 177.368878 
L 253.546405 186.173833 
L 257.121179 198.947169 
L 263.945749 222.419955 
L 268.495463 237.263758 
L 272.395217 249.23451 
L 275.320033 257.469722 
L 277.594889 263.25606 
L 279.869746 268.447667 
L 282.144603 273.057161 
L 284.09448 276.556552 
L 286.044357 279.629391 
L 287.994234 282.255681 
L 289.619132 284.096832 
L 291.244029 285.633161 
L 292.868927 286.890998 
L 294.818804 288.084757 
L 296.768681 289.000217 
L 299.043538 289.807809 
L 302.293333 290.678911 
L 308.467944 292.292133 
L 313.992596 293.785154 
L 317.242391 294.407359 
L 321.142146 294.902492 
L 325.691859 295.256644 
L 330.891532 295.438569 
L 340.315938 295.487407 
L 398.487273 295.488 
L 398.487273 295.488 
" style="fill:none;stroke:#7f7f7f;stroke-linecap:square;stroke-width:1.5;"/>
   </g>
   <g id="line2d_35">
    <path clip-path="url(#p3544e56858)" d="M 73.832727 295.029318 
L 81.307256 294.49161 
L 84.557052 294.518527 
L 88.456806 294.786512 
L 95.931335 295.337201 
L 101.455987 295.46597 
L 110.555414 295.435665 
L 115.430106 295.231168 
L 119.329861 294.848628 
L 135.578837 292.69757 
L 138.178673 292.051997 
L 140.778509 291.146876 
L 143.703325 289.857119 
L 146.628141 288.332324 
L 149.227977 286.737588 
L 151.177854 285.294436 
L 152.802752 283.839246 
L 154.427649 282.068169 
L 156.052547 279.895387 
L 157.352465 277.811605 
L 158.652383 275.376865 
L 159.952301 272.552752 
L 161.577199 268.416732 
L 163.202097 263.533412 
L 164.826994 257.815938 
L 166.451892 251.174705 
L 168.07679 243.534443 
L 169.701687 234.862583 
L 171.651564 223.162331 
L 173.926421 208.091133 
L 180.426011 163.958107 
L 182.700868 150.460956 
L 184.975725 138.214442 
L 187.575561 125.346433 
L 190.175397 113.551912 
L 192.125274 105.749536 
L 193.425192 101.292978 
L 194.725111 97.595457 
L 195.700049 95.387853 
L 196.674988 93.69908 
L 197.649926 92.541453 
L 198.299885 92.062911 
L 198.949844 91.81274 
L 199.599803 91.782136 
L 200.249762 91.959473 
L 200.899722 92.330593 
L 201.87466 93.214183 
L 202.849599 94.432992 
L 204.149517 96.454966 
L 206.424373 100.552273 
L 208.374251 103.937812 
L 209.674169 105.780612 
L 210.649107 106.818152 
L 211.624046 107.488744 
L 212.274005 107.705198 
L 212.923964 107.721665 
L 213.573923 107.527391 
L 214.223882 107.113848 
L 214.873841 106.47465 
L 215.84878 105.083826 
L 216.823718 103.169717 
L 217.798657 100.736039 
L 219.098575 96.710063 
L 220.398493 91.860684 
L 222.023391 84.846698 
L 226.898084 62.725387 
L 227.873022 59.465478 
L 228.847961 57.071007 
L 229.49792 56.045746 
L 230.147879 55.529704 
L 230.472858 55.473718 
L 230.797838 55.556978 
L 231.122817 55.781993 
L 231.772776 56.66351 
L 232.422735 58.122935 
L 233.072695 60.152482 
L 234.047633 64.219329 
L 235.022572 69.409235 
L 236.32249 77.798525 
L 237.947387 89.996599 
L 244.446978 141.074964 
L 246.071876 151.578296 
L 247.696773 160.804735 
L 249.321671 168.880697 
L 251.271548 177.368878 
L 253.546405 186.173833 
L 257.121179 198.947169 
L 263.945749 222.419955 
L 268.495463 237.263758 
L 272.395217 249.23451 
L 275.320033 257.469722 
L 277.594889 263.25606 
L 279.869746 268.447667 
L 282.144603 273.057161 
L 284.09448 276.556552 
L 286.044357 279.629391 
L 287.994234 282.255681 
L 289.619132 284.096832 
L 291.244029 285.633161 
L 292.868927 286.890998 
L 294.818804 288.084757 
L 296.768681 289.000217 
L 299.043538 289.807809 
L 302.293333 290.678911 
L 308.467944 292.292133 
L 313.992596 293.785154 
L 317.242391 294.407359 
L 321.142146 294.902492 
L 325.691859 295.256644 
L 330.891532 295.438569 
L 340.315938 295.487407 
L 398.487273 295.488 
L 398.487273 295.488 
" style="fill:none;stroke:#bcbd22;stroke-linecap:square;stroke-width:1.5;"/>
   </g>
   <g id="line2d_36">
    <path clip-path="url(#p3544e56858)" d="M 73.832727 295.029318 
L 81.307256 294.49161 
L 84.557052 294.518527 
L 88.456806 294.786512 
L 95.931335 295.337201 
L 101.455987 295.46597 
L 110.555414 295.435665 
L 115.430106 295.231168 
L 119.329861 294.848628 
L 135.578837 292.69757 
L 138.178673 292.051997 
L 140.778509 291.146876 
L 143.703325 289.857119 
L 146.628141 288.332324 
L 149.227977 286.737588 
L 151.177854 285.294436 
L 152.802752 283.839246 
L 154.427649 282.068169 
L 156.052547 279.895387 
L 157.352465 277.811605 
L 158.652383 275.376865 
L 159.952301 272.552752 
L 161.577199 268.416732 
L 163.202097 263.533412 
L 164.826994 257.815938 
L 166.451892 251.174705 
L 168.07679 243.534443 
L 169.701687 234.862583 
L 171.651564 223.162331 
L 173.926421 208.091133 
L 180.426011 163.958107 
L 182.700868 150.460956 
L 184.975725 138.214442 
L 187.575561 125.346433 
L 190.175397 113.551912 
L 192.125274 105.749536 
L 193.425192 101.292978 
L 194.725111 97.595457 
L 195.700049 95.387853 
L 196.674988 93.69908 
L 197.649926 92.541453 
L 198.299885 92.062911 
L 198.949844 91.81274 
L 199.599803 91.782136 
L 200.249762 91.959473 
L 200.899722 92.330593 
L 201.87466 93.214183 
L 202.849599 94.432992 
L 204.149517 96.454966 
L 206.424373 100.552273 
L 208.374251 103.937812 
L 209.674169 105.780612 
L 210.649107 106.818152 
L 211.624046 107.488744 
L 212.274005 107.705198 
L 212.923964 107.721665 
L 213.573923 107.527391 
L 214.223882 107.113848 
L 214.873841 106.47465 
L 215.84878 105.083826 
L 216.823718 103.169717 
L 217.798657 100.736039 
L 219.098575 96.710063 
L 220.398493 91.860684 
L 222.023391 84.846698 
L 226.898084 62.725387 
L 227.873022 59.465478 
L 228.847961 57.071007 
L 229.49792 56.045746 
L 230.147879 55.529704 
L 230.472858 55.473718 
L 230.797838 55.556978 
L 231.122817 55.781993 
L 231.772776 56.66351 
L 232.422735 58.122935 
L 233.072695 60.152482 
L 234.047633 64.219329 
L 235.022572 69.409235 
L 236.32249 77.798525 
L 237.947387 89.996599 
L 244.446978 141.074964 
L 246.071876 151.578296 
L 247.696773 160.804735 
L 249.321671 168.880697 
L 251.271548 177.368878 
L 253.546405 186.173833 
L 257.121179 198.947169 
L 263.945749 222.419955 
L 268.495463 237.263758 
L 272.395217 249.23451 
L 275.320033 257.469722 
L 277.594889 263.25606 
L 279.869746 268.447667 
L 282.144603 273.057161 
L 284.09448 276.556552 
L 286.044357 279.629391 
L 287.994234 282.255681 
L 289.619132 284.096832 
L 291.244029 285.633161 
L 292.868927 286.890998 
L 294.818804 288.084757 
L 296.768681 289.000217 
L 299.043538 289.807809 
L 302.293333 290.678911 
L 308.467944 292.292133 
L 313.992596 293.785154 
L 317.242391 294.407359 
L 321.142146 294.902492 
L 325.691859 295.256644 
L 330.891532 295.438569 
L 340.315938 295.487407 
L 398.487273 295.488 
L 398.487273 295.488 
" style="fill:none;stroke:#17becf;stroke-linecap:square;stroke-width:1.5;"/>
   </g>
   <g id="line2d_37">
    <path clip-path="url(#p3544e56858)" d="M 230.780144 307.584 
L 230.780144 41.472 
" style="fill:none;stroke:#1f77b4;stroke-linecap:square;stroke-width:1.5;"/>
   </g>
   <g id="patch_3">
    <path d="M 57.6 307.584 
L 57.6 41.472 
" style="fill:none;stroke:#000000;stroke-linecap:square;stroke-linejoin:miter;stroke-width:0.8;"/>
   </g>
   <g id="patch_4">
    <path d="M 414.72 307.584 
L 414.72 41.472 
" style="fill:none;stroke:#000000;stroke-linecap:square;stroke-linejoin:miter;stroke-width:0.8;"/>
   </g>
   <g id="patch_5">
    <path d="M 57.6 307.584 
L 414.72 307.584 
" style="fill:none;stroke:#000000;stroke-linecap:square;stroke-linejoin:miter;stroke-width:0.8;"/>
   </g>
   <g id="patch_6">
    <path d="M 57.6 41.472 
L 414.72 41.472 
" style="fill:none;stroke:#000000;stroke-linecap:square;stroke-linejoin:miter;stroke-width:0.8;"/>
   </g>
  </g>
 </g>
 <defs>
  <clipPath id="p3544e56858">
   <rect height="266.112" width="357.12" x="57.6" y="41.472"/>
  </clipPath>
 </defs>
</svg>
