<?xml version="1.0" encoding="utf-8" standalone="no"?>
<!DOCTYPE svg PUBLIC "-//W3C//DTD SVG 1.1//EN"
  "http://www.w3.org/Graphics/SVG/1.1/DTD/svg11.dtd">
<!-- Created with matplotlib (http://matplotlib.org/) -->
<svg height="345pt" version="1.1" viewBox="0 0 460 345" width="460pt" xmlns="http://www.w3.org/2000/svg" xmlns:xlink="http://www.w3.org/1999/xlink">
 <defs>
  <style type="text/css">
*{stroke-linecap:butt;stroke-linejoin:round;}
  </style>
 </defs>
 <g id="figure_1">
  <g id="patch_1">
   <path d="M 0 345.6 
L 460.8 345.6 
L 460.8 0 
L 0 0 
z
" style="fill:none;"/>
  </g>
  <g id="axes_1">
   <g id="patch_2">
    <path d="M 57.6 307.584 
L 414.72 307.584 
L 414.72 41.472 
L 57.6 41.472 
z
" style="fill:none;"/>
   </g>
   <g id="matplotlib.axis_1">
    <g id="xtick_1">
     <g id="line2d_1">
      <defs>
       <path d="M 0 0 
L 0 3.5 
" id="m69df6da7bb" style="stroke:#000000;stroke-width:0.8;"/>
      </defs>
      <g>
       <use style="stroke:#000000;stroke-width:0.8;" x="83.294955" xlink:href="#m69df6da7bb" y="307.584"/>
      </g>
     </g>
     <g id="text_1">
      <!-- −2000 -->
      <defs>
       <path d="M 10.59375 35.5 
L 73.1875 35.5 
L 73.1875 27.203125 
L 10.59375 27.203125 
z
" id="DejaVuSans-2212"/>
       <path d="M 19.1875 8.296875 
L 53.609375 8.296875 
L 53.609375 0 
L 7.328125 0 
L 7.328125 8.296875 
Q 12.9375 14.109375 22.625 23.890625 
Q 32.328125 33.6875 34.8125 36.53125 
Q 39.546875 41.84375 41.421875 45.53125 
Q 43.3125 49.21875 43.3125 52.78125 
Q 43.3125 58.59375 39.234375 62.25 
Q 35.15625 65.921875 28.609375 65.921875 
Q 23.96875 65.921875 18.8125 64.3125 
Q 13.671875 62.703125 7.8125 59.421875 
L 7.8125 69.390625 
Q 13.765625 71.78125 18.9375 73 
Q 24.125 74.21875 28.421875 74.21875 
Q 39.75 74.21875 46.484375 68.546875 
Q 53.21875 62.890625 53.21875 53.421875 
Q 53.21875 48.921875 51.53125 44.890625 
Q 49.859375 40.875 45.40625 35.40625 
Q 44.1875 33.984375 37.640625 27.21875 
Q 31.109375 20.453125 19.1875 8.296875 
z
" id="DejaVuSans-32"/>
       <path d="M 31.78125 66.40625 
Q 24.171875 66.40625 20.328125 58.90625 
Q 16.5 51.421875 16.5 36.375 
Q 16.5 21.390625 20.328125 13.890625 
Q 24.171875 6.390625 31.78125 6.390625 
Q 39.453125 6.390625 43.28125 13.890625 
Q 47.125 21.390625 47.125 36.375 
Q 47.125 51.421875 43.28125 58.90625 
Q 39.453125 66.40625 31.78125 66.40625 
z
M 31.78125 74.21875 
Q 44.046875 74.21875 50.515625 64.515625 
Q 56.984375 54.828125 56.984375 36.375 
Q 56.984375 17.96875 50.515625 8.265625 
Q 44.046875 -1.421875 31.78125 -1.421875 
Q 19.53125 -1.421875 13.0625 8.265625 
Q 6.59375 17.96875 6.59375 36.375 
Q 6.59375 54.828125 13.0625 64.515625 
Q 19.53125 74.21875 31.78125 74.21875 
z
" id="DejaVuSans-30"/>
      </defs>
      <g transform="translate(66.380112 322.182437)scale(0.1 -0.1)">
       <use xlink:href="#DejaVuSans-2212"/>
       <use x="83.789062" xlink:href="#DejaVuSans-32"/>
       <use x="147.412109" xlink:href="#DejaVuSans-30"/>
       <use x="211.035156" xlink:href="#DejaVuSans-30"/>
       <use x="274.658203" xlink:href="#DejaVuSans-30"/>
      </g>
     </g>
    </g>
    <g id="xtick_2">
     <g id="line2d_2">
      <g>
       <use style="stroke:#000000;stroke-width:0.8;" x="149.018085" xlink:href="#m69df6da7bb" y="307.584"/>
      </g>
     </g>
     <g id="text_2">
      <!-- −1000 -->
      <defs>
       <path d="M 12.40625 8.296875 
L 28.515625 8.296875 
L 28.515625 63.921875 
L 10.984375 60.40625 
L 10.984375 69.390625 
L 28.421875 72.90625 
L 38.28125 72.90625 
L 38.28125 8.296875 
L 54.390625 8.296875 
L 54.390625 0 
L 12.40625 0 
z
" id="DejaVuSans-31"/>
      </defs>
      <g transform="translate(132.103241 322.182437)scale(0.1 -0.1)">
       <use xlink:href="#DejaVuSans-2212"/>
       <use x="83.789062" xlink:href="#DejaVuSans-31"/>
       <use x="147.412109" xlink:href="#DejaVuSans-30"/>
       <use x="211.035156" xlink:href="#DejaVuSans-30"/>
       <use x="274.658203" xlink:href="#DejaVuSans-30"/>
      </g>
     </g>
    </g>
    <g id="xtick_3">
     <g id="line2d_3">
      <g>
       <use style="stroke:#000000;stroke-width:0.8;" x="214.741215" xlink:href="#m69df6da7bb" y="307.584"/>
      </g>
     </g>
     <g id="text_3">
      <!-- 0 -->
      <g transform="translate(211.559965 322.182437)scale(0.1 -0.1)">
       <use xlink:href="#DejaVuSans-30"/>
      </g>
     </g>
    </g>
    <g id="xtick_4">
     <g id="line2d_4">
      <g>
       <use style="stroke:#000000;stroke-width:0.8;" x="280.464345" xlink:href="#m69df6da7bb" y="307.584"/>
      </g>
     </g>
     <g id="text_4">
      <!-- 1000 -->
      <g transform="translate(267.739345 322.182437)scale(0.1 -0.1)">
       <use xlink:href="#DejaVuSans-31"/>
       <use x="63.623047" xlink:href="#DejaVuSans-30"/>
       <use x="127.246094" xlink:href="#DejaVuSans-30"/>
       <use x="190.869141" xlink:href="#DejaVuSans-30"/>
      </g>
     </g>
    </g>
    <g id="xtick_5">
     <g id="line2d_5">
      <g>
       <use style="stroke:#000000;stroke-width:0.8;" x="346.187474" xlink:href="#m69df6da7bb" y="307.584"/>
      </g>
     </g>
     <g id="text_5">
      <!-- 2000 -->
      <g transform="translate(333.462474 322.182437)scale(0.1 -0.1)">
       <use xlink:href="#DejaVuSans-32"/>
       <use x="63.623047" xlink:href="#DejaVuSans-30"/>
       <use x="127.246094" xlink:href="#DejaVuSans-30"/>
       <use x="190.869141" xlink:href="#DejaVuSans-30"/>
      </g>
     </g>
    </g>
    <g id="xtick_6">
     <g id="line2d_6">
      <g>
       <use style="stroke:#000000;stroke-width:0.8;" x="411.910604" xlink:href="#m69df6da7bb" y="307.584"/>
      </g>
     </g>
     <g id="text_6">
      <!-- 3000 -->
      <defs>
       <path d="M 40.578125 39.3125 
Q 47.65625 37.796875 51.625 33 
Q 55.609375 28.21875 55.609375 21.1875 
Q 55.609375 10.40625 48.1875 4.484375 
Q 40.765625 -1.421875 27.09375 -1.421875 
Q 22.515625 -1.421875 17.65625 -0.515625 
Q 12.796875 0.390625 7.625 2.203125 
L 7.625 11.71875 
Q 11.71875 9.328125 16.59375 8.109375 
Q 21.484375 6.890625 26.8125 6.890625 
Q 36.078125 6.890625 40.9375 10.546875 
Q 45.796875 14.203125 45.796875 21.1875 
Q 45.796875 27.640625 41.28125 31.265625 
Q 36.765625 34.90625 28.71875 34.90625 
L 20.21875 34.90625 
L 20.21875 43.015625 
L 29.109375 43.015625 
Q 36.375 43.015625 40.234375 45.921875 
Q 44.09375 48.828125 44.09375 54.296875 
Q 44.09375 59.90625 40.109375 62.90625 
Q 36.140625 65.921875 28.71875 65.921875 
Q 24.65625 65.921875 20.015625 65.03125 
Q 15.375 64.15625 9.8125 62.3125 
L 9.8125 71.09375 
Q 15.4375 72.65625 20.34375 73.4375 
Q 25.25 74.21875 29.59375 74.21875 
Q 40.828125 74.21875 47.359375 69.109375 
Q 53.90625 64.015625 53.90625 55.328125 
Q 53.90625 49.265625 50.4375 45.09375 
Q 46.96875 40.921875 40.578125 39.3125 
z
" id="DejaVuSans-33"/>
      </defs>
      <g transform="translate(399.185604 322.182437)scale(0.1 -0.1)">
       <use xlink:href="#DejaVuSans-33"/>
       <use x="63.623047" xlink:href="#DejaVuSans-30"/>
       <use x="127.246094" xlink:href="#DejaVuSans-30"/>
       <use x="190.869141" xlink:href="#DejaVuSans-30"/>
      </g>
     </g>
    </g>
   </g>
   <g id="matplotlib.axis_2">
    <g id="ytick_1">
     <g id="line2d_7">
      <defs>
       <path d="M 0 0 
L -3.5 0 
" id="m0270059041" style="stroke:#000000;stroke-width:0.8;"/>
      </defs>
      <g>
       <use style="stroke:#000000;stroke-width:0.8;" x="57.6" xlink:href="#m0270059041" y="295.488"/>
      </g>
     </g>
     <g id="text_7">
      <!-- 0.000 -->
      <defs>
       <path d="M 10.6875 12.40625 
L 21 12.40625 
L 21 0 
L 10.6875 0 
z
" id="DejaVuSans-2e"/>
      </defs>
      <g transform="translate(21.971875 299.287219)scale(0.1 -0.1)">
       <use xlink:href="#DejaVuSans-30"/>
       <use x="63.623047" xlink:href="#DejaVuSans-2e"/>
       <use x="95.410156" xlink:href="#DejaVuSans-30"/>
       <use x="159.033203" xlink:href="#DejaVuSans-30"/>
       <use x="222.65625" xlink:href="#DejaVuSans-30"/>
      </g>
     </g>
    </g>
    <g id="ytick_2">
     <g id="line2d_8">
      <g>
       <use style="stroke:#000000;stroke-width:0.8;" x="57.6" xlink:href="#m0270059041" y="263.088413"/>
      </g>
     </g>
     <g id="text_8">
      <!-- 0.001 -->
      <g transform="translate(21.971875 266.887632)scale(0.1 -0.1)">
       <use xlink:href="#DejaVuSans-30"/>
       <use x="63.623047" xlink:href="#DejaVuSans-2e"/>
       <use x="95.410156" xlink:href="#DejaVuSans-30"/>
       <use x="159.033203" xlink:href="#DejaVuSans-30"/>
       <use x="222.65625" xlink:href="#DejaVuSans-31"/>
      </g>
     </g>
    </g>
    <g id="ytick_3">
     <g id="line2d_9">
      <g>
       <use style="stroke:#000000;stroke-width:0.8;" x="57.6" xlink:href="#m0270059041" y="230.688827"/>
      </g>
     </g>
     <g id="text_9">
      <!-- 0.002 -->
      <g transform="translate(21.971875 234.488045)scale(0.1 -0.1)">
       <use xlink:href="#DejaVuSans-30"/>
       <use x="63.623047" xlink:href="#DejaVuSans-2e"/>
       <use x="95.410156" xlink:href="#DejaVuSans-30"/>
       <use x="159.033203" xlink:href="#DejaVuSans-30"/>
       <use x="222.65625" xlink:href="#DejaVuSans-32"/>
      </g>
     </g>
    </g>
    <g id="ytick_4">
     <g id="line2d_10">
      <g>
       <use style="stroke:#000000;stroke-width:0.8;" x="57.6" xlink:href="#m0270059041" y="198.28924"/>
      </g>
     </g>
     <g id="text_10">
      <!-- 0.003 -->
      <g transform="translate(21.971875 202.088459)scale(0.1 -0.1)">
       <use xlink:href="#DejaVuSans-30"/>
       <use x="63.623047" xlink:href="#DejaVuSans-2e"/>
       <use x="95.410156" xlink:href="#DejaVuSans-30"/>
       <use x="159.033203" xlink:href="#DejaVuSans-30"/>
       <use x="222.65625" xlink:href="#DejaVuSans-33"/>
      </g>
     </g>
    </g>
    <g id="ytick_5">
     <g id="line2d_11">
      <g>
       <use style="stroke:#000000;stroke-width:0.8;" x="57.6" xlink:href="#m0270059041" y="165.889653"/>
      </g>
     </g>
     <g id="text_11">
      <!-- 0.004 -->
      <defs>
       <path d="M 37.796875 64.3125 
L 12.890625 25.390625 
L 37.796875 25.390625 
z
M 35.203125 72.90625 
L 47.609375 72.90625 
L 47.609375 25.390625 
L 58.015625 25.390625 
L 58.015625 17.1875 
L 47.609375 17.1875 
L 47.609375 0 
L 37.796875 0 
L 37.796875 17.1875 
L 4.890625 17.1875 
L 4.890625 26.703125 
z
" id="DejaVuSans-34"/>
      </defs>
      <g transform="translate(21.971875 169.688872)scale(0.1 -0.1)">
       <use xlink:href="#DejaVuSans-30"/>
       <use x="63.623047" xlink:href="#DejaVuSans-2e"/>
       <use x="95.410156" xlink:href="#DejaVuSans-30"/>
       <use x="159.033203" xlink:href="#DejaVuSans-30"/>
       <use x="222.65625" xlink:href="#DejaVuSans-34"/>
      </g>
     </g>
    </g>
    <g id="ytick_6">
     <g id="line2d_12">
      <g>
       <use style="stroke:#000000;stroke-width:0.8;" x="57.6" xlink:href="#m0270059041" y="133.490066"/>
      </g>
     </g>
     <g id="text_12">
      <!-- 0.005 -->
      <defs>
       <path d="M 10.796875 72.90625 
L 49.515625 72.90625 
L 49.515625 64.59375 
L 19.828125 64.59375 
L 19.828125 46.734375 
Q 21.96875 47.46875 24.109375 47.828125 
Q 26.265625 48.1875 28.421875 48.1875 
Q 40.625 48.1875 47.75 41.5 
Q 54.890625 34.8125 54.890625 23.390625 
Q 54.890625 11.625 47.5625 5.09375 
Q 40.234375 -1.421875 26.90625 -1.421875 
Q 22.3125 -1.421875 17.546875 -0.640625 
Q 12.796875 0.140625 7.71875 1.703125 
L 7.71875 11.625 
Q 12.109375 9.234375 16.796875 8.0625 
Q 21.484375 6.890625 26.703125 6.890625 
Q 35.15625 6.890625 40.078125 11.328125 
Q 45.015625 15.765625 45.015625 23.390625 
Q 45.015625 31 40.078125 35.4375 
Q 35.15625 39.890625 26.703125 39.890625 
Q 22.75 39.890625 18.8125 39.015625 
Q 14.890625 38.140625 10.796875 36.28125 
z
" id="DejaVuSans-35"/>
      </defs>
      <g transform="translate(21.971875 137.289285)scale(0.1 -0.1)">
       <use xlink:href="#DejaVuSans-30"/>
       <use x="63.623047" xlink:href="#DejaVuSans-2e"/>
       <use x="95.410156" xlink:href="#DejaVuSans-30"/>
       <use x="159.033203" xlink:href="#DejaVuSans-30"/>
       <use x="222.65625" xlink:href="#DejaVuSans-35"/>
      </g>
     </g>
    </g>
    <g id="ytick_7">
     <g id="line2d_13">
      <g>
       <use style="stroke:#000000;stroke-width:0.8;" x="57.6" xlink:href="#m0270059041" y="101.09048"/>
      </g>
     </g>
     <g id="text_13">
      <!-- 0.006 -->
      <defs>
       <path d="M 33.015625 40.375 
Q 26.375 40.375 22.484375 35.828125 
Q 18.609375 31.296875 18.609375 23.390625 
Q 18.609375 15.53125 22.484375 10.953125 
Q 26.375 6.390625 33.015625 6.390625 
Q 39.65625 6.390625 43.53125 10.953125 
Q 47.40625 15.53125 47.40625 23.390625 
Q 47.40625 31.296875 43.53125 35.828125 
Q 39.65625 40.375 33.015625 40.375 
z
M 52.59375 71.296875 
L 52.59375 62.3125 
Q 48.875 64.0625 45.09375 64.984375 
Q 41.3125 65.921875 37.59375 65.921875 
Q 27.828125 65.921875 22.671875 59.328125 
Q 17.53125 52.734375 16.796875 39.40625 
Q 19.671875 43.65625 24.015625 45.921875 
Q 28.375 48.1875 33.59375 48.1875 
Q 44.578125 48.1875 50.953125 41.515625 
Q 57.328125 34.859375 57.328125 23.390625 
Q 57.328125 12.15625 50.6875 5.359375 
Q 44.046875 -1.421875 33.015625 -1.421875 
Q 20.359375 -1.421875 13.671875 8.265625 
Q 6.984375 17.96875 6.984375 36.375 
Q 6.984375 53.65625 15.1875 63.9375 
Q 23.390625 74.21875 37.203125 74.21875 
Q 40.921875 74.21875 44.703125 73.484375 
Q 48.484375 72.75 52.59375 71.296875 
z
" id="DejaVuSans-36"/>
      </defs>
      <g transform="translate(21.971875 104.889698)scale(0.1 -0.1)">
       <use xlink:href="#DejaVuSans-30"/>
       <use x="63.623047" xlink:href="#DejaVuSans-2e"/>
       <use x="95.410156" xlink:href="#DejaVuSans-30"/>
       <use x="159.033203" xlink:href="#DejaVuSans-30"/>
       <use x="222.65625" xlink:href="#DejaVuSans-36"/>
      </g>
     </g>
    </g>
    <g id="ytick_8">
     <g id="line2d_14">
      <g>
       <use style="stroke:#000000;stroke-width:0.8;" x="57.6" xlink:href="#m0270059041" y="68.690893"/>
      </g>
     </g>
     <g id="text_14">
      <!-- 0.007 -->
      <defs>
       <path d="M 8.203125 72.90625 
L 55.078125 72.90625 
L 55.078125 68.703125 
L 28.609375 0 
L 18.3125 0 
L 43.21875 64.59375 
L 8.203125 64.59375 
z
" id="DejaVuSans-37"/>
      </defs>
      <g transform="translate(21.971875 72.490112)scale(0.1 -0.1)">
       <use xlink:href="#DejaVuSans-30"/>
       <use x="63.623047" xlink:href="#DejaVuSans-2e"/>
       <use x="95.410156" xlink:href="#DejaVuSans-30"/>
       <use x="159.033203" xlink:href="#DejaVuSans-30"/>
       <use x="222.65625" xlink:href="#DejaVuSans-37"/>
      </g>
     </g>
    </g>
   </g>
   <g id="line2d_15">
    <path clip-path="url(#pf8f2d590da)" d="M 73.832727 295.488 
L 152.152793 295.378883 
L 159.627322 295.129149 
L 164.502015 294.762763 
L 168.401769 294.266301 
L 171.976544 293.580177 
L 174.90136 292.803128 
L 177.826175 291.787091 
L 180.426011 290.65024 
L 183.025848 289.267027 
L 185.625684 287.618527 
L 188.22552 285.695298 
L 190.825356 283.500569 
L 193.750172 280.730954 
L 196.999967 277.344803 
L 202.19964 271.549837 
L 206.749353 266.575869 
L 209.674169 263.695648 
L 211.949025 261.742135 
L 213.898903 260.321376 
L 215.84878 259.172045 
L 217.473677 258.442444 
L 219.098575 257.933778 
L 220.723473 257.654394 
L 222.34837 257.608271 
L 223.973268 257.794924 
L 225.598165 258.209434 
L 227.223063 258.842638 
L 229.17294 259.872471 
L 231.122817 261.169007 
L 233.397674 262.971666 
L 235.99751 265.336696 
L 239.572285 268.940852 
L 249.321671 278.983222 
L 252.571466 281.910293 
L 255.496282 284.243984 
L 258.096118 286.06025 
L 260.695954 287.632198 
L 263.29579 288.969311 
L 266.220606 290.214315 
L 269.145422 291.215276 
L 272.395217 292.083844 
L 275.969992 292.798578 
L 280.194726 293.395729 
L 285.069419 293.850859 
L 291.569009 294.217081 
L 301.318395 294.511778 
L 320.167207 294.814532 
L 339.340999 294.934079 
L 375.738706 295.047259 
L 398.487273 295.230953 
L 398.487273 295.230953 
" style="fill:none;stroke:#1f77b4;stroke-linecap:square;stroke-width:1.5;"/>
   </g>
   <g id="line2d_16">
    <path clip-path="url(#pf8f2d590da)" d="M 73.832727 295.488 
L 175.551319 295.383088 
L 180.101032 295.139686 
L 183.025848 294.783157 
L 185.300704 294.310919 
L 187.250581 293.705319 
L 189.200459 292.848262 
L 190.825356 291.889132 
L 192.450254 290.657724 
L 194.075152 289.105973 
L 195.700049 287.18764 
L 197.324947 284.862457 
L 198.949844 282.101079 
L 200.574742 278.890516 
L 202.524619 274.459119 
L 204.474496 269.461327 
L 207.074333 262.14902 
L 212.274005 247.296613 
L 214.223882 242.522109 
L 215.5238 239.81967 
L 216.823718 237.592337 
L 217.798657 236.272453 
L 218.773595 235.276869 
L 219.748534 234.620786 
L 220.723473 234.313214 
L 221.373432 234.30333 
L 222.023391 234.448794 
L 222.998329 234.953363 
L 223.973268 235.790331 
L 224.948206 236.941817 
L 226.248124 238.925965 
L 227.548043 241.361582 
L 229.17294 244.923893 
L 231.447797 250.585853 
L 238.922326 269.862782 
L 240.872203 274.13092 
L 242.82208 277.887745 
L 244.771957 281.114647 
L 246.396855 283.409468 
L 248.021753 285.368757 
L 249.64665 287.021815 
L 251.271548 288.401871 
L 253.221425 289.746104 
L 255.171302 290.804848 
L 257.446159 291.750232 
L 259.721016 292.453653 
L 262.645831 293.099807 
L 266.220606 293.627001 
L 270.770319 294.05831 
L 277.919869 294.487596 
L 287.669255 294.847102 
L 297.41864 294.979787 
L 326.666798 295.171429 
L 339.340999 295.253727 
L 376.713645 295.258951 
L 398.162293 295.390032 
L 398.487273 295.390022 
L 398.487273 295.390022 
" style="fill:none;stroke:#ff7f0e;stroke-linecap:square;stroke-width:1.5;"/>
   </g>
   <g id="line2d_17">
    <path clip-path="url(#pf8f2d590da)" d="M 73.832727 295.488 
L 182.050909 295.387833 
L 185.950663 295.154406 
L 188.5505 294.790553 
L 190.500377 294.315134 
L 192.125274 293.718337 
L 193.750172 292.870571 
L 195.05009 291.959638 
L 196.350008 290.793166 
L 197.649926 289.322763 
L 198.949844 287.499069 
L 200.249762 285.274842 
L 201.549681 282.60889 
L 202.849599 279.47071 
L 204.474496 274.863352 
L 206.099394 269.514796 
L 208.049271 262.238907 
L 210.974087 250.206301 
L 214.223882 237.011032 
L 215.84878 231.296217 
L 217.148698 227.461769 
L 218.123636 225.117203 
L 219.098575 223.287168 
L 220.073514 222.011894 
L 220.723473 221.483603 
L 221.373432 221.218206 
L 222.023391 221.216974 
L 222.67335 221.478205 
L 223.323309 221.997281 
L 223.973268 222.76678 
L 224.948206 224.367904 
L 225.923145 226.465387 
L 227.223063 229.939397 
L 228.847961 235.157603 
L 230.797838 242.279555 
L 236.647469 264.277783 
L 238.597346 270.547818 
L 240.222244 275.111548 
L 241.847142 279.043671 
L 243.472039 282.357355 
L 245.096937 285.09379 
L 246.721835 287.31177 
L 248.346732 289.078944 
L 249.97163 290.465072 
L 251.596527 291.537223 
L 253.221425 292.356654 
L 255.171302 293.081387 
L 257.446159 293.665867 
L 260.045995 294.101407 
L 263.62077 294.457169 
L 268.820442 294.720941 
L 278.569828 294.940042 
L 299.693497 295.191653 
L 324.066962 295.387031 
L 340.640917 295.484207 
L 375.088747 295.401847 
L 398.487273 295.400456 
L 398.487273 295.400456 
" style="fill:none;stroke:#2ca02c;stroke-linecap:square;stroke-width:1.5;"/>
   </g>
   <g id="line2d_18">
    <path clip-path="url(#pf8f2d590da)" d="M 73.832727 295.488 
L 198.299885 295.378007 
L 200.249762 295.138096 
L 201.549681 294.802745 
L 202.849599 294.230706 
L 203.824537 293.572758 
L 204.799476 292.635923 
L 205.774414 291.31359 
L 206.749353 289.458688 
L 207.724292 286.876511 
L 208.69923 283.325273 
L 209.674169 278.528983 
L 210.649107 272.205133 
L 211.624046 264.106714 
L 212.598984 254.075548 
L 213.898903 237.707715 
L 215.5238 213.400996 
L 218.123636 173.775413 
L 219.098575 162.329845 
L 219.748534 156.680233 
L 220.398493 152.927293 
L 220.723473 151.818779 
L 221.048452 151.239597 
L 221.373432 151.194124 
L 221.698411 151.679698 
L 222.023391 152.686731 
L 222.67335 156.194088 
L 223.323309 161.515913 
L 224.298247 172.279423 
L 225.598165 190.045946 
L 228.847961 236.084518 
L 230.147879 250.9107 
L 231.447797 262.784003 
L 232.422735 269.808763 
L 233.397674 275.383733 
L 234.372613 279.706915 
L 235.347551 282.99627 
L 236.32249 285.470002 
L 237.297428 287.330906 
L 238.272367 288.753777 
L 239.572285 290.201774 
L 240.872203 291.324946 
L 242.497101 292.414674 
L 244.121998 293.189442 
L 245.746896 293.660395 
L 247.371794 293.891289 
L 250.296609 294.02907 
L 256.7962 294.325524 
L 265.570647 294.980191 
L 272.070238 294.919875 
L 278.244848 295.167194 
L 285.069419 295.138511 
L 293.518886 295.315555 
L 305.868108 295.255045 
L 312.042719 295.300097 
L 332.516429 295.48796 
L 367.614218 295.383634 
L 372.81389 295.374639 
L 381.263358 295.441092 
L 390.037805 295.39317 
L 398.487273 295.487105 
L 398.487273 295.487105 
" style="fill:none;stroke:#d62728;stroke-linecap:square;stroke-width:1.5;"/>
   </g>
   <g id="line2d_19">
    <path clip-path="url(#pf8f2d590da)" d="M 73.832727 295.488 
L 201.224701 295.39691 
L 202.524619 295.142926 
L 203.499558 294.747417 
L 204.799476 293.922193 
L 206.099394 292.839322 
L 207.399312 291.465332 
L 208.374251 290.059071 
L 209.02421 288.798493 
L 209.674169 287.116205 
L 210.324128 284.794213 
L 210.974087 281.555851 
L 211.624046 277.117894 
L 212.274005 271.26895 
L 213.248943 259.734158 
L 214.223882 245.230157 
L 215.5238 222.088817 
L 216.823718 194.476647 
L 219.748534 126.797934 
L 220.398493 117.919901 
L 220.723473 115.307633 
L 221.048452 114.026932 
L 221.373432 114.10031 
L 221.698411 115.498019 
L 222.023391 118.141659 
L 222.67335 126.65889 
L 223.648288 145.066165 
L 226.898084 213.459454 
L 228.198002 235.335878 
L 229.49792 252.923477 
L 230.472858 263.330369 
L 231.447797 271.536583 
L 232.422735 277.780699 
L 233.397674 282.321787 
L 234.047633 284.53886 
L 234.697592 286.210672 
L 235.347551 287.433309 
L 235.99751 288.30968 
L 236.972449 289.204049 
L 238.922326 290.4809 
L 243.472039 293.283277 
L 244.446978 293.594538 
L 245.421916 293.703061 
L 248.996691 293.835433 
L 251.921507 294.287977 
L 253.871384 294.357329 
L 257.446159 294.380151 
L 261.020934 294.954102 
L 263.62077 295.258143 
L 265.245667 295.237564 
L 267.845504 294.920468 
L 270.44534 294.69148 
L 272.395217 294.762675 
L 278.244848 295.282116 
L 284.419459 294.956489 
L 295.468763 295.377501 
L 298.718559 295.280147 
L 302.943292 295.377445 
L 307.168026 295.239729 
L 311.71774 295.344517 
L 314.317576 295.416097 
L 319.517248 295.344539 
L 323.092023 295.482641 
L 342.265815 295.488 
L 384.188174 295.393475 
L 387.437969 295.276707 
L 395.237477 295.487971 
L 398.487273 295.488 
L 398.487273 295.488 
" style="fill:none;stroke:#9467bd;stroke-linecap:square;stroke-width:1.5;"/>
   </g>
   <g id="line2d_20">
    <path clip-path="url(#pf8f2d590da)" d="M 73.832727 295.488 
L 202.524619 295.428871 
L 203.174578 295.287667 
L 203.824537 294.962407 
L 204.799476 294.072421 
L 205.774414 293.120926 
L 207.724292 291.689624 
L 208.374251 290.702641 
L 210.649107 286.398114 
L 211.299066 284.168483 
L 211.949025 280.198818 
L 212.598984 273.715256 
L 213.248943 264.395631 
L 214.548862 240.310709 
L 217.148698 189.623899 
L 218.123636 161.957026 
L 220.073514 101.720778 
L 220.398493 95.108327 
L 220.723473 90.780164 
L 221.048452 89.130519 
L 221.373432 90.306541 
L 221.698411 94.141652 
L 222.34837 107.785944 
L 225.273186 182.393226 
L 226.898084 215.645805 
L 228.198002 237.693046 
L 229.49792 255.52809 
L 230.472858 265.813197 
L 231.447797 273.749866 
L 232.422735 280.023147 
L 233.072695 283.181789 
L 233.722654 285.558639 
L 234.372613 287.326988 
L 235.022572 288.564167 
L 235.672531 289.251649 
L 236.32249 289.463587 
L 237.297428 289.522123 
L 237.947387 289.811029 
L 243.797019 293.955158 
L 244.771957 294.029658 
L 246.071876 293.821789 
L 247.371794 293.544855 
L 248.021753 293.650962 
L 248.996691 294.190023 
L 249.97163 294.763632 
L 250.946568 295.016683 
L 254.846323 295.320246 
L 257.771138 294.827017 
L 259.396036 294.933712 
L 263.29579 295.483316 
L 267.195545 295.435428 
L 270.44534 295.208966 
L 272.395217 295.461571 
L 275.969992 295.487999 
L 398.487273 295.488 
L 398.487273 295.488 
" style="fill:none;stroke:#8c564b;stroke-linecap:square;stroke-width:1.5;"/>
   </g>
   <g id="line2d_21">
    <path clip-path="url(#pf8f2d590da)" d="M 73.832727 295.488 
L 202.849599 295.405801 
L 203.499558 295.207709 
L 204.149517 294.771535 
L 206.424373 292.714612 
L 207.074333 292.408102 
L 207.724292 291.823782 
L 208.374251 290.805847 
L 210.974087 285.834413 
L 211.299066 284.671275 
L 211.949025 280.925388 
L 212.598984 274.595044 
L 213.248943 265.212088 
L 214.548862 240.435716 
L 217.148698 190.169209 
L 218.123636 161.779233 
L 220.073514 100.377764 
L 220.723473 88.579277 
L 221.048452 86.694371 
L 221.373432 87.919683 
L 221.698411 92.095086 
L 222.34837 106.859806 
L 224.623227 166.950461 
L 226.248124 201.595596 
L 227.873022 232.250916 
L 228.847961 247.132731 
L 229.822899 259.20265 
L 230.797838 268.256079 
L 232.097756 277.755456 
L 232.747715 281.496218 
L 233.397674 284.281467 
L 234.047633 286.299069 
L 234.697592 287.813934 
L 235.347551 288.866853 
L 235.99751 289.381448 
L 236.647469 289.469036 
L 237.297428 289.521472 
L 237.947387 289.886932 
L 240.222244 292.009075 
L 242.82208 293.547318 
L 243.472039 293.916265 
L 244.121998 294.068643 
L 245.421916 293.997309 
L 247.371794 293.723737 
L 248.021753 293.94398 
L 249.97163 294.99964 
L 250.946568 295.085035 
L 252.246486 295.162817 
L 254.521343 295.472849 
L 259.396036 295.488 
L 398.487273 295.488 
L 398.487273 295.488 
" style="fill:none;stroke:#e377c2;stroke-linecap:square;stroke-width:1.5;"/>
   </g>
   <g id="line2d_22">
    <path clip-path="url(#pf8f2d590da)" d="M 73.832727 295.488 
L 203.499558 295.383203 
L 204.149517 295.125219 
L 206.424373 293.688142 
L 207.074333 293.378159 
L 207.724292 292.694814 
L 209.349189 290.432301 
L 210.649107 289.468329 
L 211.299066 288.278638 
L 211.949025 286.260467 
L 212.598984 282.975855 
L 213.248943 277.169246 
L 213.898903 268.013927 
L 216.173759 228.534313 
L 216.823718 209.549779 
L 217.798657 171.096382 
L 219.098575 119.30949 
L 220.073514 88.656704 
L 220.398493 81.472445 
L 220.723473 76.787701 
L 221.048452 75.162076 
L 221.373432 76.774482 
L 221.698411 81.276597 
L 222.34837 95.773345 
L 224.298247 149.146815 
L 225.273186 173.548762 
L 228.198002 231.339965 
L 229.49792 253.857036 
L 230.147879 262.428812 
L 230.797838 268.950357 
L 231.772776 276.101954 
L 233.072695 283.871486 
L 233.722654 286.834294 
L 234.372613 288.753726 
L 235.022572 289.750809 
L 236.32249 291.048569 
L 236.972449 291.440464 
L 237.947387 291.79374 
L 238.922326 292.521042 
L 239.897265 293.24387 
L 240.872203 293.704708 
L 241.847142 293.946584 
L 246.071876 294.323122 
L 247.371794 294.088346 
L 248.021753 294.421352 
L 248.996691 295.159184 
L 249.64665 295.400728 
L 250.946568 295.486376 
L 282.144603 295.488 
L 398.487273 295.488 
L 398.487273 295.488 
" style="fill:none;stroke:#7f7f7f;stroke-linecap:square;stroke-width:1.5;"/>
   </g>
   <g id="line2d_23">
    <path clip-path="url(#pf8f2d590da)" d="M 73.832727 295.488 
L 207.399312 295.416403 
L 208.374251 295.085391 
L 209.02421 294.856956 
L 210.649107 294.581664 
L 210.974087 294.34338 
L 211.299066 293.923173 
L 211.624046 293.225504 
L 211.949025 292.162952 
L 212.274005 290.663503 
L 212.598984 288.630764 
L 212.923964 285.878417 
L 213.248943 282.104439 
L 213.898903 270.411822 
L 215.198821 240.746223 
L 216.173759 221.625251 
L 216.823718 201.462693 
L 217.798657 160.518798 
L 219.098575 105.538069 
L 220.073514 74.929905 
L 220.723473 59.265908 
L 221.048452 56.928024 
L 221.373432 60.109035 
L 222.023391 78.944068 
L 222.67335 99.653754 
L 225.273186 165.303897 
L 229.822899 264.790457 
L 230.472858 275.052377 
L 231.122817 281.942519 
L 232.097756 289.724988 
L 232.747715 293.13954 
L 233.072695 294.17711 
L 233.397674 294.829357 
L 233.722654 295.193397 
L 234.372613 295.447893 
L 235.99751 295.487977 
L 398.487273 295.488 
L 398.487273 295.488 
" style="fill:none;stroke:#bcbd22;stroke-linecap:square;stroke-width:1.5;"/>
   </g>
   <g id="line2d_24">
    <path clip-path="url(#pf8f2d590da)" d="M 73.832727 295.488 
L 207.399312 295.425658 
L 208.374251 295.118541 
L 209.349189 294.817246 
L 209.999148 294.630668 
L 210.649107 294.217551 
L 211.299066 293.565837 
L 211.624046 293.008645 
L 211.949025 292.141791 
L 212.274005 290.850006 
L 212.598984 289.015972 
L 212.923964 286.472255 
L 213.248943 282.969427 
L 213.898903 272.185042 
L 216.173759 222.003504 
L 216.823718 199.956971 
L 218.123636 145.481097 
L 219.098575 104.012425 
L 220.073514 73.520127 
L 220.723473 56.887299 
L 221.048452 53.568 
L 221.373432 56.07623 
L 221.698411 64.267447 
L 222.998329 109.317713 
L 225.273186 167.325121 
L 227.223063 210.29102 
L 228.522981 237.264664 
L 230.147879 270.703501 
L 230.797838 278.416386 
L 231.772776 286.460414 
L 232.422735 290.456961 
L 233.072695 293.175256 
L 233.722654 294.683522 
L 234.372613 295.294239 
L 235.022572 295.447465 
L 235.99751 295.335358 
L 237.297428 294.959451 
L 237.947387 295.106924 
L 238.922326 295.416869 
L 240.222244 295.487174 
L 296.443702 295.488 
L 398.487273 295.488 
L 398.487273 295.488 
" style="fill:none;stroke:#17becf;stroke-linecap:square;stroke-width:1.5;"/>
   </g>
   <g id="line2d_25">
    <path clip-path="url(#pf8f2d590da)" d="M 73.832727 295.488 
L 207.399312 295.427232 
L 208.374251 295.123317 
L 209.349189 294.825985 
L 209.999148 294.643426 
L 210.649107 294.23511 
L 211.299066 293.5952 
L 211.624046 293.048221 
L 211.949025 292.195332 
L 212.274005 290.922994 
L 212.598984 289.11664 
L 212.923964 286.611837 
L 213.248943 283.160575 
L 213.898903 272.500408 
L 216.173759 221.809656 
L 216.823718 199.54087 
L 218.123636 145.538327 
L 219.098575 104.285647 
L 220.073514 73.640467 
L 220.723473 57.121808 
L 221.048452 53.828967 
L 221.373432 56.333234 
L 221.698411 64.484473 
L 222.998329 108.78953 
L 225.598165 174.252482 
L 227.223063 210.302829 
L 229.822899 265.433262 
L 230.472858 275.155087 
L 231.122817 281.544976 
L 232.097756 288.709876 
L 232.747715 292.030036 
L 233.397674 294.092209 
L 234.047633 295.082148 
L 234.697592 295.407257 
L 235.347551 295.448482 
L 236.32249 295.228459 
L 237.297428 294.964382 
L 237.947387 295.111409 
L 238.922326 295.418589 
L 240.222244 295.48722 
L 299.693497 295.488 
L 398.487273 295.488 
L 398.487273 295.488 
" style="fill:none;stroke:#1f77b4;stroke-linecap:square;stroke-width:1.5;"/>
   </g>
   <g id="line2d_26">
    <path clip-path="url(#pf8f2d590da)" d="M 73.832727 295.488 
L 207.399312 295.427497 
L 208.374251 295.123856 
L 209.349189 294.826977 
L 209.999148 294.645055 
L 210.649107 294.237213 
L 211.299066 293.599016 
L 211.624046 293.053529 
L 211.949025 292.202525 
L 212.274005 290.932685 
L 212.598984 289.129903 
L 212.923964 286.630214 
L 213.248943 283.185681 
L 213.898903 272.540746 
L 216.173759 221.928161 
L 216.823718 199.671369 
L 218.123636 145.442109 
L 219.098575 104.018839 
L 220.073514 73.507806 
L 220.723473 56.914334 
L 221.048452 53.603598 
L 221.373432 56.139619 
L 221.698411 64.348385 
L 222.998329 108.539116 
L 225.923145 181.219831 
L 229.17294 251.651791 
L 229.822899 265.484605 
L 230.472858 275.190189 
L 231.122817 281.567439 
L 232.097756 288.721712 
L 232.747715 292.036934 
L 233.397674 294.095772 
L 234.047633 295.083643 
L 234.697592 295.407723 
L 235.347551 295.448727 
L 236.32249 295.228941 
L 237.297428 294.964721 
L 237.947387 295.111865 
L 238.922326 295.418874 
L 240.222244 295.487229 
L 300.343456 295.488 
L 398.487273 295.488 
L 398.487273 295.488 
" style="fill:none;stroke:#ff7f0e;stroke-linecap:square;stroke-width:1.5;"/>
   </g>
   <g id="line2d_27">
    <path clip-path="url(#pf8f2d590da)" d="M 73.832727 295.488 
L 207.399312 295.427737 
L 208.374251 295.124394 
L 209.349189 294.827966 
L 209.999148 294.646631 
L 210.649107 294.239278 
L 211.299066 293.602686 
L 211.624046 293.058598 
L 211.949025 292.209389 
L 212.274005 290.941957 
L 212.598984 289.142619 
L 212.923964 286.647844 
L 213.248943 283.209814 
L 213.898903 272.580178 
L 216.173759 222.046637 
L 216.823718 199.817412 
L 218.123636 145.552502 
L 219.098575 103.843735 
L 220.073514 73.392315 
L 220.723473 56.931616 
L 221.048452 53.595651 
L 221.373432 56.054956 
L 221.698411 64.182971 
L 222.998329 108.555399 
L 225.598165 174.13194 
L 230.472858 275.224562 
L 231.122817 281.589624 
L 232.097756 288.733286 
L 232.747715 292.043577 
L 233.397674 294.099124 
L 234.047633 295.085012 
L 234.697592 295.408141 
L 235.347551 295.448946 
L 236.32249 295.229409 
L 237.297428 294.965119 
L 237.947387 295.112335 
L 238.922326 295.419133 
L 240.222244 295.487237 
L 300.993415 295.488 
L 398.487273 295.488 
L 398.487273 295.488 
" style="fill:none;stroke:#2ca02c;stroke-linecap:square;stroke-width:1.5;"/>
   </g>
   <g id="line2d_28">
    <path clip-path="url(#pf8f2d590da)" d="M 73.832727 295.488 
L 207.399312 295.427737 
L 208.374251 295.124394 
L 209.349189 294.827966 
L 209.999148 294.646631 
L 210.649107 294.239278 
L 211.299066 293.602686 
L 211.624046 293.058598 
L 211.949025 292.209389 
L 212.274005 290.941957 
L 212.598984 289.142619 
L 212.923964 286.647844 
L 213.248943 283.209814 
L 213.898903 272.580178 
L 216.173759 222.046637 
L 216.823718 199.817412 
L 218.123636 145.552502 
L 219.098575 103.843735 
L 220.073514 73.392315 
L 220.723473 56.931616 
L 221.048452 53.595651 
L 221.373432 56.054956 
L 221.698411 64.182971 
L 222.998329 108.555399 
L 225.598165 174.13194 
L 230.472858 275.224562 
L 231.122817 281.589624 
L 232.097756 288.733286 
L 232.747715 292.043577 
L 233.397674 294.099124 
L 234.047633 295.085012 
L 234.697592 295.408141 
L 235.347551 295.448946 
L 236.32249 295.229409 
L 237.297428 294.965119 
L 237.947387 295.112335 
L 238.922326 295.419133 
L 240.222244 295.487237 
L 300.993415 295.488 
L 398.487273 295.488 
L 398.487273 295.488 
" style="fill:none;stroke:#d62728;stroke-linecap:square;stroke-width:1.5;"/>
   </g>
   <g id="line2d_29">
    <path clip-path="url(#pf8f2d590da)" d="M 73.832727 295.488 
L 207.399312 295.427737 
L 208.374251 295.124394 
L 209.349189 294.827966 
L 209.999148 294.646631 
L 210.649107 294.239278 
L 211.299066 293.602686 
L 211.624046 293.058598 
L 211.949025 292.209389 
L 212.274005 290.941957 
L 212.598984 289.142619 
L 212.923964 286.647844 
L 213.248943 283.209814 
L 213.898903 272.580178 
L 216.173759 222.046637 
L 216.823718 199.817412 
L 218.123636 145.552502 
L 219.098575 103.843735 
L 220.073514 73.392315 
L 220.723473 56.931616 
L 221.048452 53.595651 
L 221.373432 56.054956 
L 221.698411 64.182971 
L 222.998329 108.555399 
L 225.598165 174.13194 
L 230.472858 275.224562 
L 231.122817 281.589624 
L 232.097756 288.733286 
L 232.747715 292.043577 
L 233.397674 294.099124 
L 234.047633 295.085012 
L 234.697592 295.408141 
L 235.347551 295.448946 
L 236.32249 295.229409 
L 237.297428 294.965119 
L 237.947387 295.112335 
L 238.922326 295.419133 
L 240.222244 295.487237 
L 300.993415 295.488 
L 398.487273 295.488 
L 398.487273 295.488 
" style="fill:none;stroke:#9467bd;stroke-linecap:square;stroke-width:1.5;"/>
   </g>
   <g id="line2d_30">
    <path clip-path="url(#pf8f2d590da)" d="M 73.832727 295.488 
L 207.399312 295.427737 
L 208.374251 295.124394 
L 209.349189 294.827966 
L 209.999148 294.646631 
L 210.649107 294.239278 
L 211.299066 293.602686 
L 211.624046 293.058598 
L 211.949025 292.209389 
L 212.274005 290.941957 
L 212.598984 289.142619 
L 212.923964 286.647844 
L 213.248943 283.209814 
L 213.898903 272.580178 
L 216.173759 222.046637 
L 216.823718 199.817412 
L 218.123636 145.552502 
L 219.098575 103.843735 
L 220.073514 73.392315 
L 220.723473 56.931616 
L 221.048452 53.595651 
L 221.373432 56.054956 
L 221.698411 64.182971 
L 222.998329 108.555399 
L 225.598165 174.13194 
L 230.472858 275.224562 
L 231.122817 281.589624 
L 232.097756 288.733286 
L 232.747715 292.043577 
L 233.397674 294.099124 
L 234.047633 295.085012 
L 234.697592 295.408141 
L 235.347551 295.448946 
L 236.32249 295.229409 
L 237.297428 294.965119 
L 237.947387 295.112335 
L 238.922326 295.419133 
L 240.222244 295.487237 
L 300.993415 295.488 
L 398.487273 295.488 
L 398.487273 295.488 
" style="fill:none;stroke:#8c564b;stroke-linecap:square;stroke-width:1.5;"/>
   </g>
   <g id="line2d_31">
    <path clip-path="url(#pf8f2d590da)" d="M 73.832727 295.488 
L 207.399312 295.427737 
L 208.374251 295.124394 
L 209.349189 294.827966 
L 209.999148 294.646631 
L 210.649107 294.239278 
L 211.299066 293.602686 
L 211.624046 293.058598 
L 211.949025 292.209389 
L 212.274005 290.941957 
L 212.598984 289.142619 
L 212.923964 286.647844 
L 213.248943 283.209814 
L 213.898903 272.580178 
L 216.173759 222.046637 
L 216.823718 199.817412 
L 218.123636 145.552502 
L 219.098575 103.843735 
L 220.073514 73.392315 
L 220.723473 56.931616 
L 221.048452 53.595651 
L 221.373432 56.054956 
L 221.698411 64.182971 
L 222.998329 108.555399 
L 225.598165 174.13194 
L 230.472858 275.224562 
L 231.122817 281.589624 
L 232.097756 288.733286 
L 232.747715 292.043577 
L 233.397674 294.099124 
L 234.047633 295.085012 
L 234.697592 295.408141 
L 235.347551 295.448946 
L 236.32249 295.229409 
L 237.297428 294.965119 
L 237.947387 295.112335 
L 238.922326 295.419133 
L 240.222244 295.487237 
L 300.993415 295.488 
L 398.487273 295.488 
L 398.487273 295.488 
" style="fill:none;stroke:#e377c2;stroke-linecap:square;stroke-width:1.5;"/>
   </g>
   <g id="line2d_32">
    <path clip-path="url(#pf8f2d590da)" d="M 73.832727 295.488 
L 207.399312 295.427737 
L 208.374251 295.124394 
L 209.349189 294.827966 
L 209.999148 294.646631 
L 210.649107 294.239278 
L 211.299066 293.602686 
L 211.624046 293.058598 
L 211.949025 292.209389 
L 212.274005 290.941957 
L 212.598984 289.142619 
L 212.923964 286.647844 
L 213.248943 283.209814 
L 213.898903 272.580178 
L 216.173759 222.046637 
L 216.823718 199.817412 
L 218.123636 145.552502 
L 219.098575 103.843735 
L 220.073514 73.392315 
L 220.723473 56.931616 
L 221.048452 53.595651 
L 221.373432 56.054956 
L 221.698411 64.182971 
L 222.998329 108.555399 
L 225.598165 174.13194 
L 230.472858 275.224562 
L 231.122817 281.589624 
L 232.097756 288.733286 
L 232.747715 292.043577 
L 233.397674 294.099124 
L 234.047633 295.085012 
L 234.697592 295.408141 
L 235.347551 295.448946 
L 236.32249 295.229409 
L 237.297428 294.965119 
L 237.947387 295.112335 
L 238.922326 295.419133 
L 240.222244 295.487237 
L 300.993415 295.488 
L 398.487273 295.488 
L 398.487273 295.488 
" style="fill:none;stroke:#7f7f7f;stroke-linecap:square;stroke-width:1.5;"/>
   </g>
   <g id="line2d_33">
    <path clip-path="url(#pf8f2d590da)" d="M 73.832727 295.488 
L 207.399312 295.427737 
L 208.374251 295.124394 
L 209.349189 294.827966 
L 209.999148 294.646631 
L 210.649107 294.239278 
L 211.299066 293.602686 
L 211.624046 293.058598 
L 211.949025 292.209389 
L 212.274005 290.941957 
L 212.598984 289.142619 
L 212.923964 286.647844 
L 213.248943 283.209814 
L 213.898903 272.580178 
L 216.173759 222.046637 
L 216.823718 199.817412 
L 218.123636 145.552502 
L 219.098575 103.843735 
L 220.073514 73.392315 
L 220.723473 56.931616 
L 221.048452 53.595651 
L 221.373432 56.054956 
L 221.698411 64.182971 
L 222.998329 108.555399 
L 225.598165 174.13194 
L 230.472858 275.224562 
L 231.122817 281.589624 
L 232.097756 288.733286 
L 232.747715 292.043577 
L 233.397674 294.099124 
L 234.047633 295.085012 
L 234.697592 295.408141 
L 235.347551 295.448946 
L 236.32249 295.229409 
L 237.297428 294.965119 
L 237.947387 295.112335 
L 238.922326 295.419133 
L 240.222244 295.487237 
L 300.993415 295.488 
L 398.487273 295.488 
L 398.487273 295.488 
" style="fill:none;stroke:#bcbd22;stroke-linecap:square;stroke-width:1.5;"/>
   </g>
   <g id="line2d_34">
    <path clip-path="url(#pf8f2d590da)" d="M 73.832727 295.488 
L 207.399312 295.427737 
L 208.374251 295.124394 
L 209.349189 294.827966 
L 209.999148 294.646631 
L 210.649107 294.239278 
L 211.299066 293.602686 
L 211.624046 293.058598 
L 211.949025 292.209389 
L 212.274005 290.941957 
L 212.598984 289.142619 
L 212.923964 286.647844 
L 213.248943 283.209814 
L 213.898903 272.580178 
L 216.173759 222.046637 
L 216.823718 199.817412 
L 218.123636 145.552502 
L 219.098575 103.843735 
L 220.073514 73.392315 
L 220.723473 56.931616 
L 221.048452 53.595651 
L 221.373432 56.054956 
L 221.698411 64.182971 
L 222.998329 108.555399 
L 225.598165 174.13194 
L 230.472858 275.224562 
L 231.122817 281.589624 
L 232.097756 288.733286 
L 232.747715 292.043577 
L 233.397674 294.099124 
L 234.047633 295.085012 
L 234.697592 295.408141 
L 235.347551 295.448946 
L 236.32249 295.229409 
L 237.297428 294.965119 
L 237.947387 295.112335 
L 238.922326 295.419133 
L 240.222244 295.487237 
L 300.993415 295.488 
L 398.487273 295.488 
L 398.487273 295.488 
" style="fill:none;stroke:#17becf;stroke-linecap:square;stroke-width:1.5;"/>
   </g>
   <g id="line2d_35">
    <path clip-path="url(#pf8f2d590da)" d="M 221.247805 307.584 
L 221.247805 41.472 
" style="fill:none;stroke:#1f77b4;stroke-linecap:square;stroke-width:1.5;"/>
   </g>
   <g id="patch_3">
    <path d="M 57.6 307.584 
L 57.6 41.472 
" style="fill:none;stroke:#000000;stroke-linecap:square;stroke-linejoin:miter;stroke-width:0.8;"/>
   </g>
   <g id="patch_4">
    <path d="M 414.72 307.584 
L 414.72 41.472 
" style="fill:none;stroke:#000000;stroke-linecap:square;stroke-linejoin:miter;stroke-width:0.8;"/>
   </g>
   <g id="patch_5">
    <path d="M 57.6 307.584 
L 414.72 307.584 
" style="fill:none;stroke:#000000;stroke-linecap:square;stroke-linejoin:miter;stroke-width:0.8;"/>
   </g>
   <g id="patch_6">
    <path d="M 57.6 41.472 
L 414.72 41.472 
" style="fill:none;stroke:#000000;stroke-linecap:square;stroke-linejoin:miter;stroke-width:0.8;"/>
   </g>
  </g>
 </g>
 <defs>
  <clipPath id="pf8f2d590da">
   <rect height="266.112" width="357.12" x="57.6" y="41.472"/>
  </clipPath>
 </defs>
</svg>
